<svg width="32" height="32" viewBox="0 0 32 32" fill="none" xmlns="http://www.w3.org/2000/svg">
<g clip-path="url(#clip0_3498_1492)">
<path d="M16 32C24.8366 32 32 24.8366 32 16C32 7.16344 24.8366 0 16 0C7.16344 0 0 7.16344 0 16C0 24.8366 7.16344 32 16 32Z" fill="#FF492C"/>
<path d="M22.9248 12.256H20.192C20.2656 11.8272 20.5312 11.5872 21.0688 11.3152L21.5712 11.0592C22.4704 10.5984 22.9504 10.0768 22.9504 9.22561C22.9504 8.69121 22.7424 8.26881 22.3296 7.96481C21.9168 7.66081 21.4304 7.51041 20.8608 7.51041C20.4202 7.50523 19.9876 7.62867 19.616 7.86561C19.2416 8.09601 18.9632 8.39361 18.7904 8.76481L19.5808 9.55841C19.888 8.93761 20.3328 8.63361 20.9184 8.63361C21.4144 8.63361 21.7184 8.88961 21.7184 9.24481C21.7184 9.54241 21.5712 9.78881 21.0016 10.0768L20.6784 10.2336C19.9776 10.5888 19.4912 10.9952 19.2096 11.456C18.928 11.9168 18.7904 12.496 18.7904 13.1968V13.3888H22.9248V12.256Z" fill="white"/>
<path d="M22.56 14.6943H18.0352L15.7728 18.6111H20.2976L22.56 22.5311L24.8224 18.6111L22.56 14.6943Z" fill="white"/>
<path d="M16.1632 21.2254C13.2832 21.2254 10.9376 18.8798 10.9376 15.9998C10.9376 13.1198 13.2832 10.7742 16.1632 10.7742L17.952 7.03342C17.3629 6.91628 16.7637 6.85733 16.1632 6.85742C11.1136 6.85742 7.02075 10.9502 7.02075 15.9998C7.02075 21.0494 11.1136 25.1422 16.1632 25.1422C18.0983 25.1459 19.984 24.5315 21.5456 23.3886L19.568 19.9582C18.6218 20.7755 17.4134 21.2253 16.1632 21.2254Z" fill="white"/>
</g>
<defs>
<clipPath id="clip0_3498_1492">
<rect width="32" height="32" fill="white"/>
</clipPath>
</defs>
</svg>
