<svg width="168" height="28" viewBox="0 0 168 28" fill="none" xmlns="http://www.w3.org/2000/svg">
<g clip-path="url(#clip0_2090_64681)">
<path d="M13.3537 2.25415C13.5928 1.67924 14.4072 1.67924 14.6463 2.25415L17.5389 9.20862C17.6397 9.45098 17.8676 9.61658 18.1292 9.63756L25.6372 10.2395C26.2578 10.2892 26.5095 11.0638 26.0366 11.4688L20.3164 16.3689C20.117 16.5396 20.03 16.8076 20.0909 17.0629L21.8385 24.3894C21.983 24.995 21.3241 25.4737 20.7927 25.1492L14.3649 21.2231C14.1409 21.0862 13.8591 21.0862 13.6351 21.2231L7.20728 25.1492C6.67591 25.4737 6.01704 24.995 6.16151 24.3894L7.90914 17.0629C7.97005 16.8076 7.88299 16.5396 7.68363 16.3689L1.96338 11.4688C1.4905 11.0638 1.74217 10.2892 2.36283 10.2395L9.87076 9.63756C10.1324 9.61658 10.3603 9.45098 10.4611 9.20862L13.3537 2.25415Z" fill="#F2F4FD"/>
<g clip-path="url(#clip1_2090_64681)">
<path d="M13.3537 2.25415C13.5928 1.67924 14.4072 1.67924 14.6463 2.25415L17.5389 9.20862C17.6397 9.45098 17.8676 9.61658 18.1292 9.63756L25.6372 10.2395C26.2578 10.2892 26.5095 11.0638 26.0366 11.4688L20.3164 16.3689C20.117 16.5396 20.03 16.8076 20.0909 17.0629L21.8385 24.3894C21.983 24.995 21.3241 25.4737 20.7927 25.1492L14.3649 21.2231C14.1409 21.0862 13.8591 21.0862 13.6351 21.2231L7.20728 25.1492C6.67591 25.4737 6.01704 24.995 6.16151 24.3894L7.90914 17.0629C7.97005 16.8076 7.88299 16.5396 7.68363 16.3689L1.96338 11.4688C1.4905 11.0638 1.74217 10.2892 2.36283 10.2395L9.87076 9.63756C10.1324 9.61658 10.3603 9.45098 10.4611 9.20862L13.3537 2.25415Z" fill="#FFC814"/>
</g>
</g>
<g clip-path="url(#clip2_2090_64681)">
<path d="M48.3537 2.25415C48.5928 1.67924 49.4072 1.67924 49.6463 2.25415L52.5389 9.20862C52.6397 9.45098 52.8676 9.61658 53.1292 9.63756L60.6372 10.2395C61.2578 10.2892 61.5095 11.0638 61.0366 11.4688L55.3164 16.3689C55.117 16.5396 55.03 16.8076 55.0909 17.0629L56.8385 24.3894C56.983 24.995 56.3241 25.4737 55.7927 25.1492L49.3649 21.2231C49.1409 21.0862 48.8591 21.0862 48.6351 21.2231L42.2073 25.1492C41.6759 25.4737 41.017 24.995 41.1615 24.3894L42.9091 17.0629C42.97 16.8076 42.883 16.5396 42.6836 16.3689L36.9634 11.4688C36.4905 11.0638 36.7422 10.2892 37.3628 10.2395L44.8708 9.63756C45.1324 9.61658 45.3603 9.45098 45.4611 9.20862L48.3537 2.25415Z" fill="#F2F4FD"/>
<g clip-path="url(#clip3_2090_64681)">
<path d="M48.3537 2.25415C48.5928 1.67924 49.4072 1.67924 49.6463 2.25415L52.5389 9.20862C52.6397 9.45098 52.8676 9.61658 53.1292 9.63756L60.6372 10.2395C61.2578 10.2892 61.5095 11.0638 61.0366 11.4688L55.3164 16.3689C55.117 16.5396 55.03 16.8076 55.0909 17.0629L56.8385 24.3894C56.983 24.995 56.3241 25.4737 55.7927 25.1492L49.3649 21.2231C49.1409 21.0862 48.8591 21.0862 48.6351 21.2231L42.2073 25.1492C41.6759 25.4737 41.017 24.995 41.1615 24.3894L42.9091 17.0629C42.97 16.8076 42.883 16.5396 42.6836 16.3689L36.9634 11.4688C36.4905 11.0638 36.7422 10.2892 37.3628 10.2395L44.8708 9.63756C45.1324 9.61658 45.3603 9.45098 45.4611 9.20862L48.3537 2.25415Z" fill="#FFC814"/>
</g>
</g>
<g clip-path="url(#clip4_2090_64681)">
<path d="M83.3537 2.25415C83.5928 1.67924 84.4072 1.67924 84.6463 2.25415L87.5389 9.20862C87.6397 9.45098 87.8676 9.61658 88.1292 9.63756L95.6372 10.2395C96.2578 10.2892 96.5095 11.0638 96.0366 11.4688L90.3164 16.3689C90.117 16.5396 90.03 16.8076 90.0909 17.0629L91.8385 24.3894C91.983 24.995 91.3241 25.4737 90.7927 25.1492L84.3649 21.2231C84.1409 21.0862 83.8591 21.0862 83.6351 21.2231L77.2073 25.1492C76.6759 25.4737 76.017 24.995 76.1615 24.3894L77.9091 17.0629C77.97 16.8076 77.883 16.5396 77.6836 16.3689L71.9634 11.4688C71.4905 11.0638 71.7422 10.2892 72.3628 10.2395L79.8708 9.63756C80.1324 9.61658 80.3603 9.45098 80.4611 9.20862L83.3537 2.25415Z" fill="#F2F4FD"/>
<g clip-path="url(#clip5_2090_64681)">
<path d="M83.3537 2.25415C83.5928 1.67924 84.4072 1.67924 84.6463 2.25415L87.5389 9.20862C87.6397 9.45098 87.8676 9.61658 88.1292 9.63756L95.6372 10.2395C96.2578 10.2892 96.5095 11.0638 96.0366 11.4688L90.3164 16.3689C90.117 16.5396 90.03 16.8076 90.0909 17.0629L91.8385 24.3894C91.983 24.995 91.3241 25.4737 90.7927 25.1492L84.3649 21.2231C84.1409 21.0862 83.8591 21.0862 83.6351 21.2231L77.2073 25.1492C76.6759 25.4737 76.017 24.995 76.1615 24.3894L77.9091 17.0629C77.97 16.8076 77.883 16.5396 77.6836 16.3689L71.9634 11.4688C71.4905 11.0638 71.7422 10.2892 72.3628 10.2395L79.8708 9.63756C80.1324 9.61658 80.3603 9.45098 80.4611 9.20862L83.3537 2.25415Z" fill="#FFC814"/>
</g>
</g>
<g clip-path="url(#clip6_2090_64681)">
<path d="M118.354 2.25415C118.593 1.67924 119.407 1.67924 119.646 2.25415L122.539 9.20862C122.64 9.45098 122.868 9.61658 123.129 9.63756L130.637 10.2395C131.258 10.2892 131.509 11.0638 131.037 11.4688L125.316 16.3689C125.117 16.5396 125.03 16.8076 125.091 17.0629L126.838 24.3894C126.983 24.995 126.324 25.4737 125.793 25.1492L119.365 21.2231C119.141 21.0862 118.859 21.0862 118.635 21.2231L112.207 25.1492C111.676 25.4737 111.017 24.995 111.162 24.3894L112.909 17.0629C112.97 16.8076 112.883 16.5396 112.684 16.3689L106.963 11.4688C106.491 11.0638 106.742 10.2892 107.363 10.2395L114.871 9.63756C115.132 9.61658 115.36 9.45098 115.461 9.20862L118.354 2.25415Z" fill="#F2F4FD"/>
<g clip-path="url(#clip7_2090_64681)">
<path d="M118.354 2.25415C118.593 1.67924 119.407 1.67924 119.646 2.25415L122.539 9.20862C122.64 9.45098 122.868 9.61658 123.129 9.63756L130.637 10.2395C131.258 10.2892 131.509 11.0638 131.037 11.4688L125.316 16.3689C125.117 16.5396 125.03 16.8076 125.091 17.0629L126.838 24.3894C126.983 24.995 126.324 25.4737 125.793 25.1492L119.365 21.2231C119.141 21.0862 118.859 21.0862 118.635 21.2231L112.207 25.1492C111.676 25.4737 111.017 24.995 111.162 24.3894L112.909 17.0629C112.97 16.8076 112.883 16.5396 112.684 16.3689L106.963 11.4688C106.491 11.0638 106.742 10.2892 107.363 10.2395L114.871 9.63756C115.132 9.61658 115.36 9.45098 115.461 9.20862L118.354 2.25415Z" fill="#FFC814"/>
</g>
</g>
<g clip-path="url(#clip8_2090_64681)">
<path d="M153.354 2.25415C153.593 1.67924 154.407 1.67924 154.646 2.25415L157.539 9.20862C157.64 9.45098 157.868 9.61658 158.129 9.63756L165.637 10.2395C166.258 10.2892 166.509 11.0638 166.037 11.4688L160.316 16.3689C160.117 16.5396 160.03 16.8076 160.091 17.0629L161.838 24.3894C161.983 24.995 161.324 25.4737 160.793 25.1492L154.365 21.2231C154.141 21.0862 153.859 21.0862 153.635 21.2231L147.207 25.1492C146.676 25.4737 146.017 24.995 146.162 24.3894L147.909 17.0629C147.97 16.8076 147.883 16.5396 147.684 16.3689L141.963 11.4688C141.491 11.0638 141.742 10.2892 142.363 10.2395L149.871 9.63756C150.132 9.61658 150.36 9.45098 150.461 9.20862L153.354 2.25415Z" fill="#F2F4FD"/>
<g clip-path="url(#clip9_2090_64681)">
<path d="M153.354 2.25415C153.593 1.67924 154.407 1.67924 154.646 2.25415L157.539 9.20862C157.64 9.45098 157.868 9.61658 158.129 9.63756L165.637 10.2395C166.258 10.2892 166.509 11.0638 166.037 11.4688L160.316 16.3689C160.117 16.5396 160.03 16.8076 160.091 17.0629L161.838 24.3894C161.983 24.995 161.324 25.4737 160.793 25.1492L154.365 21.2231C154.141 21.0862 153.859 21.0862 153.635 21.2231L147.207 25.1492C146.676 25.4737 146.017 24.995 146.162 24.3894L147.909 17.0629C147.97 16.8076 147.883 16.5396 147.684 16.3689L141.963 11.4688C141.491 11.0638 141.742 10.2892 142.363 10.2395L149.871 9.63756C150.132 9.61658 150.36 9.45098 150.461 9.20862L153.354 2.25415Z" fill="#FFC814"/>
</g>
</g>
<defs>
<clipPath id="clip0_2090_64681">
<rect width="28" height="28" fill="white"/>
</clipPath>
<clipPath id="clip1_2090_64681">
<rect width="28" height="28" fill="white"/>
</clipPath>
<clipPath id="clip2_2090_64681">
<rect width="28" height="28" fill="white" transform="translate(35)"/>
</clipPath>
<clipPath id="clip3_2090_64681">
<rect width="28" height="28" fill="white" transform="translate(35)"/>
</clipPath>
<clipPath id="clip4_2090_64681">
<rect width="28" height="28" fill="white" transform="translate(70)"/>
</clipPath>
<clipPath id="clip5_2090_64681">
<rect width="28" height="28" fill="white" transform="translate(70)"/>
</clipPath>
<clipPath id="clip6_2090_64681">
<rect width="28" height="28" fill="white" transform="translate(105)"/>
</clipPath>
<clipPath id="clip7_2090_64681">
<rect width="28" height="28" fill="white" transform="translate(105)"/>
</clipPath>
<clipPath id="clip8_2090_64681">
<rect width="28" height="28" fill="white" transform="translate(140)"/>
</clipPath>
<clipPath id="clip9_2090_64681">
<rect width="28" height="28" fill="white" transform="translate(140)"/>
</clipPath>
</defs>
</svg>
