<svg width="135" height="23" viewBox="0 0 135 23" fill="none" xmlns="http://www.w3.org/2000/svg">
<g clip-path="url(#clip0_60_18421)">
<path d="M10.7306 1.81121C10.9228 1.34923 11.5772 1.34923 11.7694 1.81121L14.0937 7.39962C14.1747 7.59438 14.3579 7.72745 14.5681 7.74431L20.6013 8.22798C21.1 8.26797 21.3023 8.89038 20.9223 9.21588L16.3257 13.1534C16.1655 13.2906 16.0955 13.5059 16.1444 13.7111L17.5488 19.5984C17.6649 20.0851 17.1354 20.4698 16.7084 20.209L11.5432 17.0541C11.3632 16.9441 11.1368 16.9441 10.9568 17.0541L5.79157 20.209C5.36457 20.4698 4.83512 20.0851 4.95121 19.5984L6.35556 13.7111C6.4045 13.5059 6.33454 13.2906 6.17435 13.1534L1.57771 9.21588C1.19772 8.89038 1.39996 8.26797 1.8987 8.22798L7.93186 7.74431C8.14212 7.72745 8.32528 7.59438 8.40628 7.39962L10.7306 1.81121Z" fill="#F2F4FD"/>
<g clip-path="url(#clip1_60_18421)">
<path d="M10.7306 1.81121C10.9228 1.34923 11.5772 1.34923 11.7694 1.81121L14.0937 7.39962C14.1747 7.59438 14.3579 7.72745 14.5681 7.74431L20.6013 8.22798C21.1 8.26797 21.3023 8.89038 20.9223 9.21588L16.3257 13.1534C16.1655 13.2906 16.0955 13.5059 16.1444 13.7111L17.5488 19.5984C17.6649 20.0851 17.1354 20.4698 16.7084 20.209L11.5432 17.0541C11.3632 16.9441 11.1368 16.9441 10.9568 17.0541L5.79157 20.209C5.36457 20.4698 4.83512 20.0851 4.95121 19.5984L6.35556 13.7111C6.4045 13.5059 6.33454 13.2906 6.17435 13.1534L1.57771 9.21588C1.19772 8.89038 1.39996 8.26797 1.8987 8.22798L7.93186 7.74431C8.14212 7.72745 8.32528 7.59438 8.40628 7.39962L10.7306 1.81121Z" fill="#3E57DA"/>
</g>
</g>
<g clip-path="url(#clip2_60_18421)">
<path d="M38.8556 1.81121C39.0478 1.34923 39.7022 1.34923 39.8944 1.81121L42.2187 7.39962C42.2997 7.59438 42.4829 7.72745 42.6931 7.74431L48.7263 8.22798C49.225 8.26797 49.4273 8.89038 49.0473 9.21588L44.4507 13.1534C44.2905 13.2906 44.2205 13.5059 44.2694 13.7111L45.6738 19.5984C45.7899 20.0851 45.2604 20.4698 44.8334 20.209L39.6682 17.0541C39.4882 16.9441 39.2618 16.9441 39.0818 17.0541L33.9166 20.209C33.4896 20.4698 32.9601 20.0851 33.0762 19.5984L34.4806 13.7111C34.5295 13.5059 34.4595 13.2906 34.2993 13.1534L29.7027 9.21588C29.3227 8.89038 29.525 8.26797 30.0237 8.22798L36.0569 7.74431C36.2671 7.72745 36.4503 7.59438 36.5313 7.39962L38.8556 1.81121Z" fill="#F2F4FD"/>
<g clip-path="url(#clip3_60_18421)">
<path d="M38.8556 1.81121C39.0478 1.34923 39.7022 1.34923 39.8944 1.81121L42.2187 7.39962C42.2997 7.59438 42.4829 7.72745 42.6931 7.74431L48.7263 8.22798C49.225 8.26797 49.4273 8.89038 49.0473 9.21588L44.4507 13.1534C44.2905 13.2906 44.2205 13.5059 44.2694 13.7111L45.6738 19.5984C45.7899 20.0851 45.2604 20.4698 44.8334 20.209L39.6682 17.0541C39.4882 16.9441 39.2618 16.9441 39.0818 17.0541L33.9166 20.209C33.4896 20.4698 32.9601 20.0851 33.0762 19.5984L34.4806 13.7111C34.5295 13.5059 34.4595 13.2906 34.2993 13.1534L29.7027 9.21588C29.3227 8.89038 29.525 8.26797 30.0237 8.22798L36.0569 7.74431C36.2671 7.72745 36.4503 7.59438 36.5313 7.39962L38.8556 1.81121Z" fill="#3E57DA"/>
</g>
</g>
<g clip-path="url(#clip4_60_18421)">
<path d="M66.9806 1.81121C67.1728 1.34923 67.8272 1.34923 68.0194 1.81121L70.3437 7.39962C70.4247 7.59438 70.6079 7.72745 70.8181 7.74431L76.8513 8.22798C77.35 8.26797 77.5523 8.89038 77.1723 9.21588L72.5757 13.1534C72.4155 13.2906 72.3455 13.5059 72.3944 13.7111L73.7988 19.5984C73.9149 20.0851 73.3854 20.4698 72.9584 20.209L67.7932 17.0541C67.6132 16.9441 67.3868 16.9441 67.2068 17.0541L62.0416 20.209C61.6146 20.4698 61.0851 20.0851 61.2012 19.5984L62.6056 13.7111C62.6545 13.5059 62.5845 13.2906 62.4243 13.1534L57.8277 9.21588C57.4477 8.89038 57.65 8.26797 58.1487 8.22798L64.1819 7.74431C64.3921 7.72745 64.5753 7.59438 64.6563 7.39962L66.9806 1.81121Z" fill="#F2F4FD"/>
<g clip-path="url(#clip5_60_18421)">
<path d="M66.9806 1.81121C67.1728 1.34923 67.8272 1.34923 68.0194 1.81121L70.3437 7.39962C70.4247 7.59438 70.6079 7.72745 70.8181 7.74431L76.8513 8.22798C77.35 8.26797 77.5523 8.89038 77.1723 9.21588L72.5757 13.1534C72.4155 13.2906 72.3455 13.5059 72.3944 13.7111L73.7988 19.5984C73.9149 20.0851 73.3854 20.4698 72.9584 20.209L67.7932 17.0541C67.6132 16.9441 67.3868 16.9441 67.2068 17.0541L62.0416 20.209C61.6146 20.4698 61.0851 20.0851 61.2012 19.5984L62.6056 13.7111C62.6545 13.5059 62.5845 13.2906 62.4243 13.1534L57.8277 9.21588C57.4477 8.89038 57.65 8.26797 58.1487 8.22798L64.1819 7.74431C64.3921 7.72745 64.5753 7.59438 64.6563 7.39962L66.9806 1.81121Z" fill="#3E57DA"/>
</g>
</g>
<g clip-path="url(#clip6_60_18421)">
<path d="M95.1056 1.81121C95.2978 1.34923 95.9522 1.34923 96.1444 1.81121L98.4687 7.39962C98.5497 7.59438 98.7329 7.72745 98.9431 7.74431L104.976 8.22798C105.475 8.26797 105.677 8.89038 105.297 9.21588L100.701 13.1534C100.54 13.2906 100.471 13.5059 100.519 13.7111L101.924 19.5984C102.04 20.0851 101.51 20.4698 101.083 20.209L95.9182 17.0541C95.7382 16.9441 95.5118 16.9441 95.3318 17.0541L90.1666 20.209C89.7396 20.4698 89.2101 20.0851 89.3262 19.5984L90.7306 13.7111C90.7795 13.5059 90.7095 13.2906 90.5493 13.1534L85.9527 9.21588C85.5727 8.89038 85.775 8.26797 86.2737 8.22798L92.3069 7.74431C92.5171 7.72745 92.7003 7.59438 92.7813 7.39962L95.1056 1.81121Z" fill="#F2F4FD"/>
<g clip-path="url(#clip7_60_18421)">
<path d="M95.1056 1.81121C95.2978 1.34923 95.9522 1.34923 96.1444 1.81121L98.4687 7.39962C98.5497 7.59438 98.7329 7.72745 98.9431 7.74431L104.976 8.22798C105.475 8.26797 105.677 8.89038 105.297 9.21588L100.701 13.1534C100.54 13.2906 100.471 13.5059 100.519 13.7111L101.924 19.5984C102.04 20.0851 101.51 20.4698 101.083 20.209L95.9182 17.0541C95.7382 16.9441 95.5118 16.9441 95.3318 17.0541L90.1666 20.209C89.7396 20.4698 89.2101 20.0851 89.3262 19.5984L90.7306 13.7111C90.7795 13.5059 90.7095 13.2906 90.5493 13.1534L85.9527 9.21588C85.5727 8.89038 85.775 8.26797 86.2737 8.22798L92.3069 7.74431C92.5171 7.72745 92.7003 7.59438 92.7813 7.39962L95.1056 1.81121Z" fill="#3E57DA"/>
</g>
</g>
<g clip-path="url(#clip8_60_18421)">
<path d="M123.231 1.81121C123.423 1.34923 124.077 1.34923 124.269 1.81121L126.594 7.39962C126.675 7.59438 126.858 7.72745 127.068 7.74431L133.101 8.22798C133.6 8.26797 133.802 8.89038 133.422 9.21588L128.826 13.1534C128.665 13.2906 128.596 13.5059 128.644 13.7111L130.049 19.5984C130.165 20.0851 129.635 20.4698 129.208 20.209L124.043 17.0541C123.863 16.9441 123.637 16.9441 123.457 17.0541L118.292 20.209C117.865 20.4698 117.335 20.0851 117.451 19.5984L118.856 13.7111C118.905 13.5059 118.835 13.2906 118.674 13.1534L114.078 9.21588C113.698 8.89038 113.9 8.26797 114.399 8.22798L120.432 7.74431C120.642 7.72745 120.825 7.59438 120.906 7.39962L123.231 1.81121Z" fill="#F2F4FD"/>
<g clip-path="url(#clip9_60_18421)">
<path d="M123.231 1.81121C123.423 1.34923 124.077 1.34923 124.269 1.81121L126.594 7.39962C126.675 7.59438 126.858 7.72745 127.068 7.74431L133.101 8.22798C133.6 8.26797 133.802 8.89038 133.422 9.21588L128.826 13.1534C128.665 13.2906 128.596 13.5059 128.644 13.7111L130.049 19.5984C130.165 20.0851 129.635 20.4698 129.208 20.209L124.043 17.0541C123.863 16.9441 123.637 16.9441 123.457 17.0541L118.292 20.209C117.865 20.4698 117.335 20.0851 117.451 19.5984L118.856 13.7111C118.905 13.5059 118.835 13.2906 118.674 13.1534L114.078 9.21588C113.698 8.89038 113.9 8.26797 114.399 8.22798L120.432 7.74431C120.642 7.72745 120.825 7.59438 120.906 7.39962L123.231 1.81121Z" fill="url(#paint0_linear_60_18421)"/>
</g>
</g>
<defs>
<linearGradient id="paint0_linear_60_18421" x1="128" y1="8.25" x2="128.5" y2="8.75" gradientUnits="userSpaceOnUse">
<stop stop-color="#3E57DA"/>
<stop stop-color="#D0D7E7"/>
</linearGradient>
<clipPath id="clip0_60_18421">
<rect width="22.5" height="22.5" fill="white"/>
</clipPath>
<clipPath id="clip1_60_18421">
<rect width="22.5" height="22.5" fill="white"/>
</clipPath>
<clipPath id="clip2_60_18421">
<rect width="22.5" height="22.5" fill="white" transform="translate(28.125)"/>
</clipPath>
<clipPath id="clip3_60_18421">
<rect width="22.5" height="22.5" fill="white" transform="translate(28.125)"/>
</clipPath>
<clipPath id="clip4_60_18421">
<rect width="22.5" height="22.5" fill="white" transform="translate(56.25)"/>
</clipPath>
<clipPath id="clip5_60_18421">
<rect width="22.5" height="22.5" fill="white" transform="translate(56.25)"/>
</clipPath>
<clipPath id="clip6_60_18421">
<rect width="22.5" height="22.5" fill="white" transform="translate(84.375)"/>
</clipPath>
<clipPath id="clip7_60_18421">
<rect width="22.5" height="22.5" fill="white" transform="translate(84.375)"/>
</clipPath>
<clipPath id="clip8_60_18421">
<rect width="22.5" height="22.5" fill="white" transform="translate(112.5)"/>
</clipPath>
<clipPath id="clip9_60_18421">
<rect width="22.5" height="22.5" fill="white" transform="translate(112.5)"/>
</clipPath>
</defs>
</svg>
