<svg width="32" height="32" viewBox="0 0 32 32" fill="none" xmlns="http://www.w3.org/2000/svg">
<path d="M28.9914 26.4983C27.1255 23.2846 24.1373 20.8741 20.6014 19.7305C22.2954 18.7226 23.6115 17.1865 24.3479 15.3581C25.0842 13.5297 25.1999 11.5102 24.6772 9.60965C24.1546 7.70912 23.0225 6.03273 21.4548 4.83795C19.8871 3.64318 17.9705 2.99609 15.9994 2.99609C14.0283 2.99609 12.1117 3.64318 10.544 4.83795C8.97632 6.03273 7.8442 7.70912 7.32154 9.60965C6.79889 11.5102 6.9146 13.5297 7.65092 15.3581C8.38723 17.1865 9.70342 18.7226 11.3973 19.7305C7.86159 20.8741 4.87344 23.2845 3.0075 26.4981C2.91954 26.6501 2.87317 26.8226 2.87305 26.9982C2.87292 27.1738 2.91905 27.3464 3.00678 27.4985C3.09452 27.6506 3.22077 27.777 3.37284 27.8648C3.5249 27.9526 3.69742 27.9989 3.87304 27.9989L28.1259 27.9991C28.3015 27.9992 28.4741 27.9529 28.6261 27.8651C28.7782 27.7772 28.9045 27.6509 28.9922 27.4988C29.0799 27.3466 29.1261 27.1741 29.1259 26.9985C29.1258 26.8228 29.0794 26.6503 28.9915 26.4983L28.9914 26.4983Z" fill="#3E57DA"/>
</svg>
