<svg width="1440" height="1037" viewBox="0 0 1440 1037" fill="none" xmlns="http://www.w3.org/2000/svg">
<g clip-path="url(#clip0_5_634)">
<g opacity="0.5" clip-path="url(#clip1_5_634)">
<g filter="url(#filter0_f_5_634)">
<ellipse cx="728.847" cy="802.523" rx="344.944" ry="344.944" transform="rotate(169.612 728.847 802.523)" fill="url(#paint0_linear_5_634)"/>
</g>
<g filter="url(#filter1_f_5_634)">
<circle cx="728.848" cy="802.523" r="335.518" transform="rotate(178.114 728.848 802.523)" fill="url(#paint1_angular_5_634)"/>
</g>
<g filter="url(#filter2_b_5_634)">
<path d="M1344.41 967.376L849.957 704.282C787.927 671.276 713.013 673.806 653.351 710.922L294.79 933.986L602.641 1428.84L1344.41 967.376Z" fill="url(#paint2_linear_5_634)"/>
<path d="M1344.41 967.376L849.957 704.282C787.927 671.276 713.013 673.806 653.351 710.922L294.79 933.986L602.641 1428.84L1344.41 967.376Z" stroke="url(#paint3_linear_5_634)" stroke-width="0.875582"/>
</g>
<g filter="url(#filter3_b_5_634)">
<path d="M1202.69 1055.54L855.743 869.844C793.642 836.606 718.52 839.051 658.713 876.258L371.354 1055.03L603.551 1428.27L1202.69 1055.54Z" fill="url(#paint4_linear_5_634)"/>
<path d="M1202.69 1055.54L855.743 869.844C793.642 836.606 718.52 839.051 658.713 876.258L371.354 1055.03L603.551 1428.27L1202.69 1055.54Z" stroke="url(#paint5_linear_5_634)" stroke-width="0.875582"/>
</g>
</g>
</g>
<defs>
<filter id="filter0_f_5_634" x="245.07" y="318.745" width="967.555" height="967.555" filterUnits="userSpaceOnUse" color-interpolation-filters="sRGB">
<feFlood flood-opacity="0" result="BackgroundImageFix"/>
<feBlend mode="normal" in="SourceGraphic" in2="BackgroundImageFix" result="shape"/>
<feGaussianBlur stdDeviation="69.3866" result="effect1_foregroundBlur_5_634"/>
</filter>
<filter id="filter1_f_5_634" x="124.912" y="198.588" width="1207.87" height="1207.87" filterUnits="userSpaceOnUse" color-interpolation-filters="sRGB">
<feFlood flood-opacity="0" result="BackgroundImageFix"/>
<feBlend mode="normal" in="SourceGraphic" in2="BackgroundImageFix" result="shape"/>
<feGaussianBlur stdDeviation="134.207" result="effect1_foregroundBlur_5_634"/>
</filter>
<filter id="filter2_b_5_634" x="250.408" y="636.977" width="1138.65" height="836.241" filterUnits="userSpaceOnUse" color-interpolation-filters="sRGB">
<feFlood flood-opacity="0" result="BackgroundImageFix"/>
<feGaussianBlur in="BackgroundImageFix" stdDeviation="21.8895"/>
<feComposite in2="SourceAlpha" operator="in" result="effect1_backgroundBlur_5_634"/>
<feBlend mode="normal" in="SourceGraphic" in2="effect1_backgroundBlur_5_634" result="shape"/>
</filter>
<filter id="filter3_b_5_634" x="326.972" y="802.313" width="920.368" height="670.337" filterUnits="userSpaceOnUse" color-interpolation-filters="sRGB">
<feFlood flood-opacity="0" result="BackgroundImageFix"/>
<feGaussianBlur in="BackgroundImageFix" stdDeviation="21.8895"/>
<feComposite in2="SourceAlpha" operator="in" result="effect1_backgroundBlur_5_634"/>
<feBlend mode="normal" in="SourceGraphic" in2="effect1_backgroundBlur_5_634" result="shape"/>
</filter>
<linearGradient id="paint0_linear_5_634" x1="631.42" y1="1137.23" x2="672.754" y2="598.101" gradientUnits="userSpaceOnUse">
<stop stop-color="#CCD9FF"/>
<stop offset="1" stop-color="#CCD9FF"/>
</linearGradient>
<radialGradient id="paint1_angular_5_634" cx="0" cy="0" r="1" gradientUnits="userSpaceOnUse" gradientTransform="translate(728.848 802.523) rotate(128.754) scale(395.131)">
<stop offset="0.275818" stop-color="#3E57DA"/>
<stop offset="0.588601" stop-color="#66E3EE"/>
<stop offset="0.754773" stop-color="#8098F9"/>
<stop offset="0.962057" stop-color="#F4F7FF"/>
</radialGradient>
<linearGradient id="paint2_linear_5_634" x1="759.563" y1="676.207" x2="773.891" y2="1012.35" gradientUnits="userSpaceOnUse">
<stop stop-color="white" stop-opacity="0.4"/>
<stop offset="1" stop-color="white" stop-opacity="0.01"/>
</linearGradient>
<linearGradient id="paint3_linear_5_634" x1="750.288" y1="682.207" x2="754.232" y2="801.512" gradientUnits="userSpaceOnUse">
<stop stop-color="white"/>
<stop offset="1" stop-color="white" stop-opacity="0"/>
</linearGradient>
<linearGradient id="paint4_linear_5_634" x1="766.813" y1="852.769" x2="770.298" y2="1076.03" gradientUnits="userSpaceOnUse">
<stop stop-color="white" stop-opacity="0.4"/>
<stop offset="1" stop-color="white" stop-opacity="0.01"/>
</linearGradient>
<linearGradient id="paint5_linear_5_634" x1="781.39" y1="842.745" x2="777.928" y2="1014.28" gradientUnits="userSpaceOnUse">
<stop stop-color="white"/>
<stop offset="1" stop-color="white" stop-opacity="0"/>
</linearGradient>
<clipPath id="clip0_5_634">
<rect width="1440" height="1037" fill="white"/>
</clipPath>
<clipPath id="clip1_5_634">
<rect width="1240.38" height="1240.38" fill="white" transform="translate(927.453 -50) rotate(58.1138)"/>
</clipPath>
</defs>
</svg>
