<svg width="94" height="122" viewBox="0 0 94 122" fill="none" xmlns="http://www.w3.org/2000/svg">
<path d="M8.10156 90.2016L47.6016 110.302L85.6016 90.2016V11.6016H8.10156V90.2016Z" fill="white"/>
<path d="M86.4008 11.9004L7.30078 91.6004L48.3008 111.9L86.4008 92.4004V11.9004Z" fill="#F2F3F2"/>
<path d="M5.5 37.8V91.9L6.9 92.6L46.4 112.7L47.6 113.3L48.8 112.7L86.9 92.6L88.3 91.9V9H5.5V37.8ZM8.1 90.4V11.6H85.7V90.4L47.6 110.5L8.1 90.4Z" fill="#DCDEDC"/>
<path d="M46.9008 12.9C47.3008 12.9 47.7008 12.9 48.1008 13L46.9008 15.3C45.1008 15.2 43.5008 16.6 43.4008 18.4C43.3008 20.2 44.7008 21.8 46.5008 21.9H46.9008C47.7008 21.9 48.5008 21.6 49.1008 21.1L50.4008 23.3C49.4008 24 48.2008 24.4 46.9008 24.4C43.7008 24.5 41.0008 22.1 40.9008 18.9C40.8008 15.7 43.2008 13 46.4008 12.9H46.9008ZM51.0008 17.8L52.5008 20.3L51.0008 22.7L49.6008 20.3H46.7008L48.2008 17.8H51.0008ZM48.6008 16.9C48.6008 16.5 48.7008 16.1 48.9008 15.8C49.1008 15.5 49.5008 15.2 49.8008 15L50.0008 14.9C50.4008 14.7 50.5008 14.6 50.5008 14.4C50.5008 14.2 50.2008 14 50.0008 14C49.6008 14 49.3008 14.2 49.1008 14.6L48.6008 14.1C48.7008 13.9 48.9008 13.7 49.1008 13.5C49.4008 13.3 49.7008 13.3 50.0008 13.3C50.3008 13.3 50.7008 13.4 50.9008 13.6C51.1008 13.8 51.3008 14.1 51.3008 14.4C51.3008 14.9 51.0008 15.3 50.4008 15.5L50.1008 15.7C49.8008 15.9 49.6008 16 49.5008 16.3H51.3008V17L48.6008 16.9ZM46.9008 29.4L56.4008 24V9H37.3008V23.9L46.9008 29.4Z" fill="#FF492C"/>
<path d="M90.1984 64.8008H3.59844L0.398438 71.8008L3.59844 78.8008H90.1984L93.2984 71.8008L90.1984 64.8008Z" fill="#5A39A2"/>
<path d="M20.9114 60.3016C20.8447 60.3016 20.7947 60.2682 20.7614 60.2016L19.3914 57.1516C19.3714 57.1249 19.3481 57.1116 19.3214 57.1116H18.3014C18.2614 57.1116 18.2414 57.1316 18.2414 57.1716V60.1716C18.2414 60.2049 18.2281 60.2349 18.2014 60.2616C18.1814 60.2882 18.1514 60.3016 18.1114 60.3016H16.8214C16.7881 60.3016 16.7581 60.2882 16.7314 60.2616C16.7047 60.2349 16.6914 60.2049 16.6914 60.1716V52.7316C16.6914 52.6982 16.7047 52.6682 16.7314 52.6416C16.7581 52.6149 16.7881 52.6016 16.8214 52.6016H19.9714C20.4381 52.6016 20.8514 52.6982 21.2114 52.8916C21.5647 53.0782 21.8381 53.3482 22.0314 53.7016C22.2247 54.0549 22.3214 54.4616 22.3214 54.9216C22.3214 55.4216 22.1981 55.8482 21.9514 56.2016C21.6981 56.5616 21.3481 56.8149 20.9014 56.9616C20.8681 56.9749 20.8581 56.9982 20.8714 57.0316L22.3714 60.1516C22.3847 60.1782 22.3914 60.1982 22.3914 60.2116C22.3914 60.2716 22.3514 60.3016 22.2714 60.3016H20.9114ZM18.3014 53.9316C18.2614 53.9316 18.2414 53.9516 18.2414 53.9916V55.8716C18.2414 55.9049 18.2614 55.9216 18.3014 55.9216H19.7414C20.0481 55.9216 20.2981 55.8316 20.4914 55.6516C20.6847 55.4649 20.7814 55.2249 20.7814 54.9316C20.7814 54.6382 20.6847 54.3982 20.4914 54.2116C20.2981 54.0249 20.0481 53.9316 19.7414 53.9316H18.3014ZM28.2714 56.8916C28.3181 57.1716 28.3347 57.4849 28.3214 57.8316C28.3147 57.9182 28.2647 57.9616 28.1714 57.9616H24.7814C24.7347 57.9616 24.7181 57.9782 24.7314 58.0116C24.7514 58.1582 24.7914 58.3049 24.8514 58.4516C25.0447 58.8649 25.4347 59.0716 26.0214 59.0716C26.4881 59.0649 26.8581 58.8749 27.1314 58.5016C27.1581 58.4549 27.1914 58.4316 27.2314 58.4316C27.2514 58.4316 27.2781 58.4449 27.3114 58.4716L28.1014 59.2616C28.1347 59.2949 28.1514 59.3249 28.1514 59.3516C28.1514 59.3716 28.1381 59.4016 28.1114 59.4416C27.8714 59.7416 27.5581 59.9749 27.1714 60.1416C26.7914 60.3082 26.3747 60.3916 25.9214 60.3916C25.2881 60.3916 24.7547 60.2482 24.3214 59.9616C23.8814 59.6749 23.5681 59.2749 23.3814 58.7616C23.2281 58.3949 23.1514 57.9149 23.1514 57.3216C23.1514 56.9149 23.2047 56.5582 23.3114 56.2516C23.4847 55.7316 23.7814 55.3182 24.2014 55.0116C24.6214 54.7049 25.1214 54.5516 25.7014 54.5516C26.4347 54.5516 27.0247 54.7649 27.4714 55.1916C27.9114 55.6116 28.1781 56.1782 28.2714 56.8916ZM25.7114 55.8916C25.2514 55.8916 24.9481 56.1082 24.8014 56.5416C24.7681 56.6349 24.7414 56.7516 24.7214 56.8916C24.7214 56.9316 24.7414 56.9516 24.7814 56.9516H26.6814C26.7214 56.9516 26.7347 56.9316 26.7214 56.8916C26.6881 56.6782 26.6714 56.5749 26.6714 56.5816C26.6047 56.3616 26.4881 56.1916 26.3214 56.0716C26.1547 55.9516 25.9514 55.8916 25.7114 55.8916ZM31.7614 60.3916C31.1747 60.3916 30.6681 60.2449 30.2414 59.9516C29.8081 59.6582 29.5014 59.2549 29.3214 58.7416C29.1947 58.3749 29.1314 57.9416 29.1314 57.4416C29.1314 56.9482 29.1947 56.5216 29.3214 56.1616C29.4947 55.6682 29.7981 55.2782 30.2314 54.9916C30.6647 54.7049 31.1747 54.5616 31.7614 54.5616C32.3481 54.5616 32.8647 54.7082 33.3114 55.0016C33.7514 55.2949 34.0447 55.6649 34.1914 56.1116C34.2514 56.2849 34.2814 56.4182 34.2814 56.5116V56.5316C34.2814 56.5982 34.2447 56.6382 34.1714 56.6516L32.9014 56.8416H32.8814C32.8147 56.8416 32.7714 56.8049 32.7514 56.7316L32.7214 56.5516C32.6681 56.3582 32.5547 56.2016 32.3814 56.0816C32.2014 55.9549 31.9914 55.8916 31.7514 55.8916C31.5181 55.8916 31.3214 55.9516 31.1614 56.0716C30.9947 56.1849 30.8781 56.3449 30.8114 56.5516C30.7314 56.7716 30.6914 57.0716 30.6914 57.4516C30.6914 57.8316 30.7281 58.1316 30.8014 58.3516C30.8681 58.5716 30.9847 58.7449 31.1514 58.8716C31.3181 58.9982 31.5181 59.0616 31.7514 59.0616C31.9781 59.0616 32.1781 59.0016 32.3514 58.8816C32.5247 58.7549 32.6447 58.5882 32.7114 58.3816C32.7181 58.3616 32.7214 58.3382 32.7214 58.3116C32.7281 58.3049 32.7314 58.2949 32.7314 58.2816C32.7381 58.1882 32.7881 58.1516 32.8814 58.1716L34.1514 58.3616C34.2247 58.3816 34.2614 58.4249 34.2614 58.4916C34.2614 58.5449 34.2381 58.6549 34.1914 58.8216C34.0381 59.3082 33.7414 59.6916 33.3014 59.9716C32.8547 60.2516 32.3414 60.3916 31.7614 60.3916ZM37.6114 60.3916C36.9981 60.3916 36.4714 60.2282 36.0314 59.9016C35.5914 59.5816 35.2914 59.1416 35.1314 58.5816C35.0247 58.2416 34.9714 57.8682 34.9714 57.4616C34.9714 57.0282 35.0247 56.6416 35.1314 56.3016C35.2981 55.7549 35.6014 55.3282 36.0414 55.0216C36.4814 54.7149 37.0081 54.5616 37.6214 54.5616C38.2281 54.5616 38.7414 54.7116 39.1614 55.0116C39.5881 55.3182 39.8914 55.7449 40.0714 56.2916C40.1847 56.6582 40.2414 57.0416 40.2414 57.4416C40.2414 57.8349 40.1914 58.2049 40.0914 58.5516C39.9314 59.1249 39.6314 59.5749 39.1914 59.9016C38.7581 60.2282 38.2314 60.3916 37.6114 60.3916ZM37.6114 59.0616C37.8581 59.0616 38.0647 58.9882 38.2314 58.8416C38.3981 58.6949 38.5181 58.4916 38.5914 58.2316C38.6514 57.9982 38.6814 57.7416 38.6814 57.4616C38.6814 57.1549 38.6514 56.8949 38.5914 56.6816C38.5114 56.4349 38.3881 56.2416 38.2214 56.1016C38.0547 55.9616 37.8481 55.8916 37.6014 55.8916C37.3547 55.8916 37.1481 55.9616 36.9814 56.1016C36.8147 56.2416 36.6947 56.4349 36.6214 56.6816C36.5681 56.8616 36.5414 57.1216 36.5414 57.4616C36.5414 57.7949 36.5647 58.0516 36.6114 58.2316C36.6847 58.4916 36.8081 58.6949 36.9814 58.8416C37.1547 58.9882 37.3647 59.0616 37.6114 59.0616ZM47.5114 54.5616C48.0847 54.5616 48.5347 54.7349 48.8614 55.0816C49.1814 55.4216 49.3414 55.9049 49.3414 56.5316V60.1716C49.3414 60.2049 49.3281 60.2349 49.3014 60.2616C49.2747 60.2882 49.2447 60.3016 49.2114 60.3016H47.9214C47.8814 60.3016 47.8514 60.2882 47.8314 60.2616C47.8047 60.2349 47.7914 60.2049 47.7914 60.1716V56.8716C47.7914 56.5716 47.7147 56.3316 47.5614 56.1516C47.4081 55.9782 47.2014 55.8916 46.9414 55.8916C46.6881 55.8916 46.4781 55.9782 46.3114 56.1516C46.1514 56.3316 46.0714 56.5682 46.0714 56.8616V60.1716C46.0714 60.2049 46.0581 60.2349 46.0314 60.2616C46.0114 60.2882 45.9814 60.3016 45.9414 60.3016H44.6614C44.6281 60.3016 44.5981 60.2882 44.5714 60.2616C44.5447 60.2349 44.5314 60.2049 44.5314 60.1716V56.8716C44.5314 56.5782 44.4514 56.3416 44.2914 56.1616C44.1314 55.9816 43.9214 55.8916 43.6614 55.8916C43.4281 55.8916 43.2314 55.9616 43.0714 56.1016C42.9181 56.2416 42.8247 56.4349 42.7914 56.6816V60.1716C42.7914 60.2049 42.7814 60.2349 42.7614 60.2616C42.7347 60.2882 42.7014 60.3016 42.6614 60.3016H41.3814C41.3414 60.3016 41.3081 60.2882 41.2814 60.2616C41.2547 60.2349 41.2414 60.2049 41.2414 60.1716V54.7816C41.2414 54.7416 41.2547 54.7082 41.2814 54.6816C41.3081 54.6616 41.3414 54.6516 41.3814 54.6516H42.6614C42.7014 54.6516 42.7347 54.6616 42.7614 54.6816C42.7814 54.7082 42.7914 54.7416 42.7914 54.7816V55.2116C42.7914 55.2316 42.8014 55.2449 42.8214 55.2516C42.8347 55.2582 42.8481 55.2516 42.8614 55.2316C43.1614 54.7849 43.6281 54.5616 44.2614 54.5616C44.6281 54.5616 44.9481 54.6382 45.2214 54.7916C45.4947 54.9449 45.7047 55.1649 45.8514 55.4516C45.8714 55.4916 45.8981 55.4916 45.9314 55.4516C46.0914 55.1516 46.3081 54.9282 46.5814 54.7816C46.8614 54.6349 47.1714 54.5616 47.5114 54.5616ZM56.7014 54.5616C57.2747 54.5616 57.7214 54.7349 58.0414 55.0816C58.3614 55.4216 58.5214 55.9049 58.5214 56.5316V60.1716C58.5214 60.2049 58.5114 60.2349 58.4914 60.2616C58.4647 60.2882 58.4314 60.3016 58.3914 60.3016H57.1114C57.0714 60.3016 57.0381 60.2882 57.0114 60.2616C56.9847 60.2349 56.9714 60.2049 56.9714 60.1716V56.8716C56.9714 56.5716 56.8947 56.3316 56.7414 56.1516C56.5881 55.9782 56.3847 55.8916 56.1314 55.8916C55.8714 55.8916 55.6614 55.9782 55.5014 56.1516C55.3414 56.3316 55.2614 56.5682 55.2614 56.8616V60.1716C55.2614 60.2049 55.2481 60.2349 55.2214 60.2616C55.1947 60.2882 55.1614 60.3016 55.1214 60.3016H53.8514C53.8114 60.3016 53.7814 60.2882 53.7614 60.2616C53.7347 60.2349 53.7214 60.2049 53.7214 60.1716V56.8716C53.7214 56.5782 53.6381 56.3416 53.4714 56.1616C53.3114 55.9816 53.1047 55.8916 52.8514 55.8916C52.6181 55.8916 52.4214 55.9616 52.2614 56.1016C52.1014 56.2416 52.0081 56.4349 51.9814 56.6816V60.1716C51.9814 60.2049 51.9681 60.2349 51.9414 60.2616C51.9147 60.2882 51.8847 60.3016 51.8514 60.3016H50.5614C50.5214 60.3016 50.4914 60.2882 50.4714 60.2616C50.4447 60.2349 50.4314 60.2049 50.4314 60.1716V54.7816C50.4314 54.7416 50.4447 54.7082 50.4714 54.6816C50.4914 54.6616 50.5214 54.6516 50.5614 54.6516H51.8514C51.8847 54.6516 51.9147 54.6616 51.9414 54.6816C51.9681 54.7082 51.9814 54.7416 51.9814 54.7816V55.2116C51.9814 55.2316 51.9881 55.2449 52.0014 55.2516C52.0147 55.2582 52.0281 55.2516 52.0414 55.2316C52.3481 54.7849 52.8147 54.5616 53.4414 54.5616C53.8081 54.5616 54.1281 54.6382 54.4014 54.7916C54.6814 54.9449 54.8947 55.1649 55.0414 55.4516C55.0614 55.4916 55.0847 55.4916 55.1114 55.4516C55.2781 55.1516 55.4981 54.9282 55.7714 54.7816C56.0447 54.6349 56.3547 54.5616 56.7014 54.5616ZM64.5814 56.8916C64.6281 57.1716 64.6447 57.4849 64.6314 57.8316C64.6247 57.9182 64.5781 57.9616 64.4914 57.9616H61.0914C61.0447 57.9616 61.0281 57.9782 61.0414 58.0116C61.0681 58.1582 61.1081 58.3049 61.1614 58.4516C61.3547 58.8649 61.7447 59.0716 62.3314 59.0716C62.7981 59.0649 63.1681 58.8749 63.4414 58.5016C63.4681 58.4549 63.5014 58.4316 63.5414 58.4316C63.5614 58.4316 63.5881 58.4449 63.6214 58.4716L64.4114 59.2616C64.4447 59.2949 64.4614 59.3249 64.4614 59.3516C64.4614 59.3716 64.4481 59.4016 64.4214 59.4416C64.1814 59.7416 63.8681 59.9749 63.4814 60.1416C63.1014 60.3082 62.6847 60.3916 62.2314 60.3916C61.6047 60.3916 61.0714 60.2482 60.6314 59.9616C60.1981 59.6749 59.8847 59.2749 59.6914 58.7616C59.5381 58.3949 59.4614 57.9149 59.4614 57.3216C59.4614 56.9149 59.5147 56.5582 59.6214 56.2516C59.7947 55.7316 60.0914 55.3182 60.5114 55.0116C60.9314 54.7049 61.4314 54.5516 62.0114 54.5516C62.7447 54.5516 63.3347 54.7649 63.7814 55.1916C64.2214 55.6116 64.4881 56.1782 64.5814 56.8916ZM62.0214 55.8916C61.5614 55.8916 61.2581 56.1082 61.1114 56.5416C61.0847 56.6349 61.0581 56.7516 61.0314 56.8916C61.0314 56.9316 61.0514 56.9516 61.0914 56.9516H62.9914C63.0381 56.9516 63.0514 56.9316 63.0314 56.8916C62.9981 56.6782 62.9814 56.5749 62.9814 56.5816C62.9147 56.3616 62.7981 56.1916 62.6314 56.0716C62.4714 55.9516 62.2681 55.8916 62.0214 55.8916ZM68.5314 54.5616C69.1181 54.5616 69.5914 54.7416 69.9514 55.1016C70.3114 55.4616 70.4914 55.9482 70.4914 56.5616V60.1716C70.4914 60.2049 70.4781 60.2349 70.4514 60.2616C70.4247 60.2882 70.3947 60.3016 70.3614 60.3016H69.0714C69.0381 60.3016 69.0081 60.2882 68.9814 60.2616C68.9547 60.2349 68.9414 60.2049 68.9414 60.1716V56.8816C68.9414 56.5882 68.8581 56.3482 68.6914 56.1616C68.5314 55.9816 68.3147 55.8916 68.0414 55.8916C67.7681 55.8916 67.5481 55.9816 67.3814 56.1616C67.2214 56.3482 67.1414 56.5882 67.1414 56.8816V60.1716C67.1414 60.2049 67.1281 60.2349 67.1014 60.2616C67.0747 60.2882 67.0414 60.3016 67.0014 60.3016H65.7214C65.6814 60.3016 65.6481 60.2882 65.6214 60.2616C65.6014 60.2349 65.5914 60.2049 65.5914 60.1716V54.7816C65.5914 54.7416 65.6014 54.7082 65.6214 54.6816C65.6481 54.6616 65.6814 54.6516 65.7214 54.6516H67.0014C67.0414 54.6516 67.0747 54.6616 67.1014 54.6816C67.1281 54.7082 67.1414 54.7416 67.1414 54.7816V55.1616C67.1414 55.1882 67.1481 55.2049 67.1614 55.2116C67.1747 55.2182 67.1847 55.2149 67.1914 55.2016C67.4914 54.7749 67.9381 54.5616 68.5314 54.5616ZM75.0814 52.7316C75.0814 52.6982 75.0947 52.6682 75.1214 52.6416C75.1481 52.6149 75.1781 52.6016 75.2114 52.6016H76.5014C76.5347 52.6016 76.5647 52.6149 76.5914 52.6416C76.6181 52.6682 76.6314 52.6982 76.6314 52.7316V60.1716C76.6314 60.2049 76.6181 60.2349 76.5914 60.2616C76.5647 60.2882 76.5347 60.3016 76.5014 60.3016H75.2114C75.1781 60.3016 75.1481 60.2882 75.1214 60.2616C75.0947 60.2349 75.0814 60.2049 75.0814 60.1716V59.8116C75.0814 59.7849 75.0747 59.7716 75.0614 59.7716C75.0414 59.7649 75.0247 59.7682 75.0114 59.7816C74.7047 60.1882 74.2847 60.3916 73.7514 60.3916C73.2381 60.3916 72.7947 60.2482 72.4214 59.9616C72.0547 59.6749 71.7881 59.2816 71.6214 58.7816C71.5014 58.4016 71.4414 57.9582 71.4414 57.4516C71.4414 56.9316 71.5081 56.4782 71.6414 56.0916C71.8081 55.6182 72.0714 55.2449 72.4314 54.9716C72.7981 54.6982 73.2481 54.5616 73.7814 54.5616C74.3081 54.5616 74.7181 54.7449 75.0114 55.1116C75.0247 55.1316 75.0414 55.1382 75.0614 55.1316C75.0747 55.1249 75.0814 55.1116 75.0814 55.0916V52.7316ZM74.8514 58.5816C74.9981 58.3149 75.0714 57.9449 75.0714 57.4716C75.0714 56.9849 74.9914 56.6016 74.8314 56.3216C74.6581 56.0349 74.4114 55.8916 74.0914 55.8916C73.7447 55.8916 73.4847 56.0349 73.3114 56.3216C73.1247 56.6082 73.0314 56.9949 73.0314 57.4816C73.0314 57.9216 73.1081 58.2882 73.2614 58.5816C73.4481 58.9016 73.7214 59.0616 74.0814 59.0616C74.4081 59.0616 74.6647 58.9016 74.8514 58.5816ZM26.0814 49.3016C26.0481 49.3016 26.0181 49.2882 25.9914 49.2616C25.9647 49.2349 25.9514 49.2049 25.9514 49.1716V41.7316C25.9514 41.6982 25.9647 41.6682 25.9914 41.6416C26.0181 41.6149 26.0481 41.6016 26.0814 41.6016H27.3714C27.4114 41.6016 27.4414 41.6149 27.4614 41.6416C27.4881 41.6682 27.5014 41.6982 27.5014 41.7316V47.9116C27.5014 47.9516 27.5214 47.9716 27.5614 47.9716H31.1514C31.1914 47.9716 31.2247 47.9849 31.2514 48.0116C31.2781 48.0382 31.2914 48.0682 31.2914 48.1016V49.1716C31.2914 49.2049 31.2781 49.2349 31.2514 49.2616C31.2247 49.2882 31.1914 49.3016 31.1514 49.3016H26.0814ZM32.9814 43.0116C32.7347 43.0116 32.5281 42.9282 32.3614 42.7616C32.1947 42.5949 32.1114 42.3882 32.1114 42.1416C32.1114 41.8816 32.1914 41.6716 32.3514 41.5116C32.5114 41.3516 32.7214 41.2716 32.9814 41.2716C33.2347 41.2716 33.4447 41.3516 33.6114 41.5116C33.7714 41.6716 33.8514 41.8816 33.8514 42.1416C33.8514 42.3882 33.7681 42.5949 33.6014 42.7616C33.4347 42.9282 33.2281 43.0116 32.9814 43.0116ZM32.3214 49.3016C32.2814 49.3016 32.2514 49.2882 32.2314 49.2616C32.2047 49.2349 32.1914 49.2049 32.1914 49.1716V43.7716C32.1914 43.7316 32.2047 43.6982 32.2314 43.6716C32.2514 43.6449 32.2814 43.6316 32.3214 43.6316H33.6114C33.6447 43.6316 33.6747 43.6449 33.7014 43.6716C33.7281 43.6982 33.7414 43.7316 33.7414 43.7716V49.1716C33.7414 49.2049 33.7281 49.2349 33.7014 49.2616C33.6747 49.2882 33.6447 49.3016 33.6114 49.3016H32.3214ZM35.0814 49.3016C35.0481 49.3016 35.0181 49.2882 34.9914 49.2616C34.9647 49.2349 34.9514 49.2049 34.9514 49.1716V41.7316C34.9514 41.6982 34.9647 41.6682 34.9914 41.6416C35.0181 41.6149 35.0481 41.6016 35.0814 41.6016H36.3714C36.4047 41.6016 36.4347 41.6149 36.4614 41.6416C36.4881 41.6682 36.5014 41.6982 36.5014 41.7316V45.4416C36.5014 45.4616 36.5081 45.4749 36.5214 45.4816C36.5347 45.4816 36.5514 45.4749 36.5714 45.4616L38.0614 43.7216C38.1147 43.6749 38.1714 43.6516 38.2314 43.6516H39.6914C39.7647 43.6516 39.8014 43.6749 39.8014 43.7216C39.8014 43.7482 39.7914 43.7782 39.7714 43.8116L38.3714 45.5816C38.3581 45.6149 38.3547 45.6416 38.3614 45.6616L40.0014 49.1516C40.0147 49.1782 40.0214 49.1982 40.0214 49.2116C40.0214 49.2716 39.9814 49.3016 39.9014 49.3016H38.5514C38.4781 49.3016 38.4247 49.2682 38.3914 49.2016L37.3014 46.6316C37.2947 46.6182 37.2814 46.6082 37.2614 46.6016C37.2481 46.5949 37.2381 46.6016 37.2314 46.6216L36.5214 47.5016C36.5081 47.5282 36.5014 47.5482 36.5014 47.5616V49.1716C36.5014 49.2049 36.4881 49.2349 36.4614 49.2616C36.4347 49.2882 36.4047 49.3016 36.3714 49.3016H35.0814ZM45.3114 45.8916C45.3581 46.1716 45.3714 46.4849 45.3514 46.8316C45.3447 46.9182 45.2981 46.9616 45.2114 46.9616H41.8114C41.7714 46.9616 41.7581 46.9782 41.7714 47.0116C41.7914 47.1582 41.8314 47.3049 41.8914 47.4516C42.0847 47.8649 42.4747 48.0716 43.0614 48.0716C43.5281 48.0649 43.8981 47.8749 44.1714 47.5016C44.1981 47.4549 44.2314 47.4316 44.2714 47.4316C44.2914 47.4316 44.3147 47.4449 44.3414 47.4716L45.1314 48.2616C45.1714 48.2949 45.1914 48.3249 45.1914 48.3516C45.1914 48.3716 45.1781 48.4016 45.1514 48.4416C44.9047 48.7416 44.5914 48.9749 44.2114 49.1416C43.8314 49.3082 43.4147 49.3916 42.9614 49.3916C42.3281 49.3916 41.7947 49.2482 41.3614 48.9616C40.9214 48.6749 40.6081 48.2749 40.4214 47.7616C40.2614 47.3949 40.1814 46.9149 40.1814 46.3216C40.1814 45.9149 40.2381 45.5582 40.3514 45.2516C40.5181 44.7316 40.8147 44.3182 41.2414 44.0116C41.6614 43.7049 42.1614 43.5516 42.7414 43.5516C43.4747 43.5516 44.0614 43.7649 44.5014 44.1916C44.9481 44.6116 45.2181 45.1782 45.3114 45.8916ZM42.7514 44.8916C42.2847 44.8916 41.9781 45.1082 41.8314 45.5416C41.8047 45.6349 41.7814 45.7516 41.7614 45.8916C41.7614 45.9316 41.7781 45.9516 41.8114 45.9516H43.7214C43.7614 45.9516 43.7747 45.9316 43.7614 45.8916C43.7214 45.6782 43.7014 45.5749 43.7014 45.5816C43.6414 45.3616 43.5281 45.1916 43.3614 45.0716C43.1947 44.9516 42.9914 44.8916 42.7514 44.8916ZM46.4414 49.3016C46.4081 49.3016 46.3781 49.2882 46.3514 49.2616C46.3247 49.2349 46.3114 49.2049 46.3114 49.1716V41.7316C46.3114 41.6982 46.3247 41.6682 46.3514 41.6416C46.3781 41.6149 46.4081 41.6016 46.4414 41.6016H47.7314C47.7714 41.6016 47.8014 41.6149 47.8214 41.6416C47.8481 41.6682 47.8614 41.6982 47.8614 41.7316V49.1716C47.8614 49.2049 47.8481 49.2349 47.8214 49.2616C47.8014 49.2882 47.7714 49.3016 47.7314 49.3016H46.4414ZM48.9614 51.4916C48.9414 51.4916 48.9247 51.4782 48.9114 51.4516C48.8981 51.4249 48.8914 51.3949 48.8914 51.3616V50.3416C48.8914 50.3082 48.9014 50.2782 48.9214 50.2516C48.9481 50.2249 48.9814 50.2116 49.0214 50.2116C49.3281 50.2049 49.5714 50.1816 49.7514 50.1416C49.9314 50.0949 50.0747 50.0082 50.1814 49.8816C50.2881 49.7616 50.3714 49.5782 50.4314 49.3316C50.4381 49.3182 50.4381 49.2982 50.4314 49.2716L48.6214 43.7916C48.6147 43.7782 48.6114 43.7582 48.6114 43.7316C48.6114 43.6649 48.6514 43.6316 48.7314 43.6316H50.1114C50.1914 43.6316 50.2414 43.6716 50.2614 43.7516L51.1814 47.3116C51.1947 47.3316 51.2081 47.3416 51.2214 47.3416C51.2347 47.3416 51.2447 47.3316 51.2514 47.3116L52.1714 43.7516C52.1981 43.6716 52.2514 43.6316 52.3314 43.6316H53.6714C53.7181 43.6316 53.7481 43.6449 53.7614 43.6716C53.7814 43.6982 53.7847 43.7382 53.7714 43.7916L51.8714 49.5116C51.6847 50.0449 51.4981 50.4449 51.3114 50.7116C51.1181 50.9782 50.8481 51.1749 50.5014 51.3016C50.1614 51.4282 49.6747 51.4916 49.0414 51.4916H48.9614ZM62.1514 41.6016C62.1914 41.6016 62.2247 41.6149 62.2514 41.6416C62.2714 41.6682 62.2814 41.6982 62.2814 41.7316V42.8116C62.2814 42.8516 62.2714 42.8816 62.2514 42.9016C62.2247 42.9282 62.1914 42.9416 62.1514 42.9416H60.1814C60.1481 42.9416 60.1314 42.9616 60.1314 43.0016V49.1716C60.1314 49.2049 60.1181 49.2349 60.0914 49.2616C60.0647 49.2882 60.0347 49.3016 60.0014 49.3016H58.7114C58.6714 49.3016 58.6414 49.2882 58.6214 49.2616C58.5947 49.2349 58.5814 49.2049 58.5814 49.1716V43.0016C58.5814 42.9616 58.5614 42.9416 58.5214 42.9416H56.6114C56.5714 42.9416 56.5381 42.9282 56.5114 42.9016C56.4914 42.8816 56.4814 42.8516 56.4814 42.8116V41.7316C56.4814 41.6982 56.4914 41.6682 56.5114 41.6416C56.5381 41.6149 56.5714 41.6016 56.6114 41.6016H62.1514ZM64.7514 49.3916C64.1314 49.3916 63.6014 49.2282 63.1614 48.9016C62.7214 48.5816 62.4214 48.1416 62.2614 47.5816C62.1614 47.2416 62.1114 46.8682 62.1114 46.4616C62.1114 46.0282 62.1614 45.6416 62.2614 45.3016C62.4281 44.7549 62.7347 44.3282 63.1814 44.0216C63.6147 43.7149 64.1414 43.5616 64.7614 43.5616C65.3614 43.5616 65.8747 43.7116 66.3014 44.0116C66.7281 44.3182 67.0281 44.7449 67.2014 45.2916C67.3214 45.6582 67.3814 46.0416 67.3814 46.4416C67.3814 46.8349 67.3281 47.2049 67.2214 47.5516C67.0614 48.1249 66.7647 48.5749 66.3314 48.9016C65.8914 49.2282 65.3647 49.3916 64.7514 49.3916ZM64.7514 48.0616C64.9914 48.0616 65.1947 47.9882 65.3614 47.8416C65.5347 47.6949 65.6581 47.4916 65.7314 47.2316C65.7914 46.9982 65.8214 46.7416 65.8214 46.4616C65.8214 46.1549 65.7914 45.8949 65.7314 45.6816C65.6514 45.4349 65.5247 45.2416 65.3514 45.1016C65.1847 44.9616 64.9814 44.8916 64.7414 44.8916C64.4881 44.8916 64.2814 44.9616 64.1214 45.1016C63.9547 45.2416 63.8347 45.4349 63.7614 45.6816C63.7014 45.8616 63.6714 46.1216 63.6714 46.4616C63.6714 46.7949 63.6981 47.0516 63.7514 47.2316C63.8247 47.4916 63.9481 47.6949 64.1214 47.8416C64.2881 47.9882 64.4981 48.0616 64.7514 48.0616ZM23.0414 38.3916C22.4814 38.3916 21.9847 38.2816 21.5514 38.0616C21.1247 37.8416 20.7914 37.5316 20.5514 37.1316C20.3181 36.7316 20.2014 36.2716 20.2014 35.7516V30.7316C20.2014 30.6982 20.2114 30.6682 20.2314 30.6416C20.2581 30.6149 20.2914 30.6016 20.3314 30.6016H21.6114C21.6514 30.6016 21.6847 30.6149 21.7114 30.6416C21.7381 30.6682 21.7514 30.6982 21.7514 30.7316V35.7616C21.7514 36.1482 21.8681 36.4616 22.1014 36.7016C22.3414 36.9416 22.6547 37.0616 23.0414 37.0616C23.4347 37.0616 23.7514 36.9416 23.9914 36.7016C24.2247 36.4616 24.3414 36.1482 24.3414 35.7616V30.7316C24.3414 30.6982 24.3547 30.6682 24.3814 30.6416C24.4081 30.6149 24.4381 30.6016 24.4714 30.6016H25.7614C25.8014 30.6016 25.8347 30.6149 25.8614 30.6416C25.8814 30.6682 25.8914 30.6982 25.8914 30.7316V35.7516C25.8914 36.2716 25.7747 36.7316 25.5414 37.1316C25.3014 37.5316 24.9681 37.8416 24.5414 38.0616C24.1081 38.2816 23.6081 38.3916 23.0414 38.3916ZM29.3314 38.3816C28.8381 38.3816 28.4081 38.3116 28.0414 38.1716C27.6747 38.0316 27.3914 37.8382 27.1914 37.5916C26.9847 37.3382 26.8814 37.0549 26.8814 36.7416V36.6316C26.8814 36.5916 26.8947 36.5582 26.9214 36.5316C26.9481 36.5116 26.9814 36.5016 27.0214 36.5016H28.2414C28.2747 36.5016 28.3047 36.5116 28.3314 36.5316C28.3581 36.5582 28.3714 36.5916 28.3714 36.6316V36.6416C28.3714 36.8016 28.4614 36.9382 28.6414 37.0516C28.8214 37.1649 29.0447 37.2216 29.3114 37.2216C29.5647 37.2216 29.7681 37.1716 29.9214 37.0716C30.0747 36.9716 30.1514 36.8516 30.1514 36.7116C30.1514 36.5782 30.0847 36.4782 29.9514 36.4116C29.8181 36.3449 29.6014 36.2749 29.3014 36.2016C28.9614 36.1149 28.6914 36.0316 28.4914 35.9516C28.0247 35.7849 27.6514 35.5849 27.3714 35.3516C27.0914 35.1182 26.9514 34.7816 26.9514 34.3416C26.9514 33.8016 27.1614 33.3716 27.5814 33.0516C28.0014 32.7316 28.5614 32.5716 29.2614 32.5716C29.7281 32.5716 30.1381 32.6449 30.4914 32.7916C30.8447 32.9449 31.1181 33.1582 31.3114 33.4316C31.5047 33.6982 31.6014 34.0049 31.6014 34.3516C31.6014 34.3916 31.5881 34.4216 31.5614 34.4416C31.5414 34.4682 31.5114 34.4816 31.4714 34.4816H30.2914C30.2581 34.4816 30.2281 34.4682 30.2014 34.4416C30.1747 34.4216 30.1614 34.3916 30.1614 34.3516C30.1614 34.1916 30.0781 34.0549 29.9114 33.9416C29.7514 33.8349 29.5347 33.7816 29.2614 33.7816C29.0214 33.7816 28.8247 33.8249 28.6714 33.9116C28.5181 33.9982 28.4414 34.1182 28.4414 34.2716C28.4414 34.4182 28.5147 34.5282 28.6614 34.6016C28.8147 34.6749 29.0647 34.7549 29.4114 34.8416C29.4981 34.8616 29.5914 34.8849 29.6914 34.9116L30.0214 35.0016C30.5414 35.1549 30.9514 35.3516 31.2514 35.5916C31.5514 35.8382 31.7014 36.1916 31.7014 36.6516C31.7014 37.1916 31.4881 37.6149 31.0614 37.9216C30.6281 38.2282 30.0514 38.3816 29.3314 38.3816ZM37.6014 34.8916C37.6414 35.1716 37.6547 35.4849 37.6414 35.8316C37.6347 35.9182 37.5881 35.9616 37.5014 35.9616H34.1014C34.0547 35.9616 34.0414 35.9782 34.0614 36.0116C34.0814 36.1582 34.1214 36.3049 34.1814 36.4516C34.3681 36.8649 34.7547 37.0716 35.3414 37.0716C35.8147 37.0649 36.1847 36.8749 36.4514 36.5016C36.4847 36.4549 36.5181 36.4316 36.5514 36.4316C36.5781 36.4316 36.6047 36.4449 36.6314 36.4716L37.4214 37.2616C37.4614 37.2949 37.4814 37.3249 37.4814 37.3516C37.4814 37.3716 37.4647 37.4016 37.4314 37.4416C37.1914 37.7416 36.8814 37.9749 36.5014 38.1416C36.1214 38.3082 35.7014 38.3916 35.2414 38.3916C34.6147 38.3916 34.0814 38.2482 33.6414 37.9616C33.2081 37.6749 32.8947 37.2749 32.7014 36.7616C32.5481 36.3949 32.4714 35.9149 32.4714 35.3216C32.4714 34.9149 32.5281 34.5582 32.6414 34.2516C32.8081 33.7316 33.1014 33.3182 33.5214 33.0116C33.9414 32.7049 34.4414 32.5516 35.0214 32.5516C35.7547 32.5516 36.3447 32.7649 36.7914 33.1916C37.2381 33.6116 37.5081 34.1782 37.6014 34.8916ZM35.0314 33.8916C34.5714 33.8916 34.2681 34.1082 34.1214 34.5416C34.0947 34.6349 34.0681 34.7516 34.0414 34.8916C34.0414 34.9316 34.0614 34.9516 34.1014 34.9516H36.0014C36.0481 34.9516 36.0647 34.9316 36.0514 34.8916C36.0114 34.6782 35.9914 34.5749 35.9914 34.5816C35.9247 34.3616 35.8114 34.1916 35.6514 34.0716C35.4847 33.9516 35.2781 33.8916 35.0314 33.8916ZM41.4214 32.5716C41.6814 32.5716 41.8881 32.6216 42.0414 32.7216C42.1014 32.7549 42.1247 32.8116 42.1114 32.8916L41.8814 34.1416C41.8747 34.2282 41.8214 34.2549 41.7214 34.2216C41.6147 34.1816 41.4881 34.1616 41.3414 34.1616C41.2814 34.1616 41.2014 34.1716 41.1014 34.1916C40.8347 34.2116 40.6081 34.3082 40.4214 34.4816C40.2414 34.6549 40.1514 34.8849 40.1514 35.1716V38.1716C40.1514 38.2049 40.1381 38.2349 40.1114 38.2616C40.0847 38.2882 40.0547 38.3016 40.0214 38.3016H38.7314C38.6981 38.3016 38.6681 38.2882 38.6414 38.2616C38.6147 38.2349 38.6014 38.2049 38.6014 38.1716V32.7816C38.6014 32.7416 38.6147 32.7082 38.6414 32.6816C38.6681 32.6616 38.6981 32.6516 38.7314 32.6516H40.0214C40.0547 32.6516 40.0847 32.6616 40.1114 32.6816C40.1381 32.7082 40.1514 32.7416 40.1514 32.7816V33.2016C40.1514 33.2216 40.1581 33.2349 40.1714 33.2416C40.1847 33.2482 40.1981 33.2449 40.2114 33.2316C40.5114 32.7916 40.9147 32.5716 41.4214 32.5716ZM44.9814 38.3816C44.4881 38.3816 44.0581 38.3116 43.6914 38.1716C43.3247 38.0316 43.0414 37.8382 42.8414 37.5916C42.6414 37.3382 42.5414 37.0549 42.5414 36.7416V36.6316C42.5414 36.5916 42.5547 36.5582 42.5814 36.5316C42.6014 36.5116 42.6314 36.5016 42.6714 36.5016H43.8914C43.9247 36.5016 43.9547 36.5116 43.9814 36.5316C44.0081 36.5582 44.0214 36.5916 44.0214 36.6316V36.6416C44.0214 36.8016 44.1114 36.9382 44.2914 37.0516C44.4714 37.1649 44.6981 37.2216 44.9714 37.2216C45.2181 37.2216 45.4181 37.1716 45.5714 37.0716C45.7247 36.9716 45.8014 36.8516 45.8014 36.7116C45.8014 36.5782 45.7381 36.4782 45.6114 36.4116C45.4781 36.3449 45.2614 36.2749 44.9614 36.2016C44.6147 36.1149 44.3414 36.0316 44.1414 35.9516C43.6747 35.7849 43.3014 35.5849 43.0214 35.3516C42.7414 35.1182 42.6014 34.7816 42.6014 34.3416C42.6014 33.8016 42.8147 33.3716 43.2414 33.0516C43.6614 32.7316 44.2181 32.5716 44.9114 32.5716C45.3847 32.5716 45.7947 32.6449 46.1414 32.7916C46.4947 32.9449 46.7681 33.1582 46.9614 33.4316C47.1614 33.6982 47.2614 34.0049 47.2614 34.3516C47.2614 34.3916 47.2481 34.4216 47.2214 34.4416C47.1947 34.4682 47.1614 34.4816 47.1214 34.4816H45.9514C45.9114 34.4816 45.8781 34.4682 45.8514 34.4416C45.8247 34.4216 45.8114 34.3916 45.8114 34.3516C45.8114 34.1916 45.7314 34.0549 45.5714 33.9416C45.4047 33.8349 45.1847 33.7816 44.9114 33.7816C44.6714 33.7816 44.4747 33.8249 44.3214 33.9116C44.1681 33.9982 44.0914 34.1182 44.0914 34.2716C44.0914 34.4182 44.1647 34.5282 44.3114 34.6016C44.4647 34.6749 44.7181 34.7549 45.0714 34.8416C45.1514 34.8616 45.2414 34.8849 45.3414 34.9116C45.4481 34.9382 45.5581 34.9682 45.6714 35.0016C46.1914 35.1549 46.6014 35.3516 46.9014 35.5916C47.2014 35.8382 47.3514 36.1916 47.3514 36.6516C47.3514 37.1916 47.1381 37.6149 46.7114 37.9216C46.2847 38.2282 45.7081 38.3816 44.9814 38.3816ZM55.4914 30.6916C55.5314 30.6316 55.5847 30.6016 55.6514 30.6016H56.9414C56.9747 30.6016 57.0047 30.6149 57.0314 30.6416C57.0581 30.6682 57.0714 30.6982 57.0714 30.7316V38.1716C57.0714 38.2049 57.0581 38.2349 57.0314 38.2616C57.0047 38.2882 56.9747 38.3016 56.9414 38.3016H55.6514C55.6114 38.3016 55.5814 38.2882 55.5614 38.2616C55.5347 38.2349 55.5214 38.2049 55.5214 38.1716V33.3216C55.5214 33.2882 55.5114 33.2716 55.4914 33.2716C55.4781 33.2716 55.4647 33.2849 55.4514 33.3116L54.2814 35.1316C54.2481 35.1916 54.1981 35.2216 54.1314 35.2216H53.4814C53.4147 35.2216 53.3647 35.1916 53.3314 35.1316L52.1614 33.3116C52.1481 33.2849 52.1347 33.2749 52.1214 33.2816C52.1081 33.2816 52.1014 33.2982 52.1014 33.3316V38.1716C52.1014 38.2049 52.0881 38.2349 52.0614 38.2616C52.0347 38.2882 52.0014 38.3016 51.9614 38.3016H50.6814C50.6414 38.3016 50.6081 38.2882 50.5814 38.2616C50.5547 38.2349 50.5414 38.2049 50.5414 38.1716V30.7316C50.5414 30.6982 50.5547 30.6682 50.5814 30.6416C50.6081 30.6149 50.6414 30.6016 50.6814 30.6016H51.9614C52.0281 30.6016 52.0814 30.6316 52.1214 30.6916L53.7714 33.2516C53.7914 33.2982 53.8114 33.2982 53.8314 33.2516L55.4914 30.6916ZM60.8114 38.3916C60.1914 38.3916 59.6614 38.2282 59.2214 37.9016C58.7814 37.5816 58.4814 37.1416 58.3214 36.5816C58.2214 36.2416 58.1714 35.8682 58.1714 35.4616C58.1714 35.0282 58.2214 34.6416 58.3214 34.3016C58.4881 33.7549 58.7947 33.3282 59.2414 33.0216C59.6747 32.7149 60.2014 32.5616 60.8214 32.5616C61.4214 32.5616 61.9347 32.7116 62.3614 33.0116C62.7881 33.3182 63.0881 33.7449 63.2614 34.2916C63.3814 34.6582 63.4414 35.0416 63.4414 35.4416C63.4414 35.8349 63.3881 36.2049 63.2814 36.5516C63.1214 37.1249 62.8247 37.5749 62.3914 37.9016C61.9514 38.2282 61.4247 38.3916 60.8114 38.3916ZM60.8114 37.0616C61.0514 37.0616 61.2547 36.9882 61.4214 36.8416C61.5947 36.6949 61.7181 36.4916 61.7914 36.2316C61.8514 35.9982 61.8814 35.7416 61.8814 35.4616C61.8814 35.1549 61.8514 34.8949 61.7914 34.6816C61.7114 34.4349 61.5847 34.2416 61.4114 34.1016C61.2447 33.9616 61.0414 33.8916 60.8014 33.8916C60.5481 33.8916 60.3414 33.9616 60.1814 34.1016C60.0147 34.2416 59.8947 34.4349 59.8214 34.6816C59.7614 34.8616 59.7314 35.1216 59.7314 35.4616C59.7314 35.7949 59.7581 36.0516 59.8114 36.2316C59.8847 36.4916 60.0081 36.6949 60.1814 36.8416C60.3481 36.9882 60.5581 37.0616 60.8114 37.0616ZM66.6914 38.3816C66.2047 38.3816 65.7781 38.3116 65.4114 38.1716C65.0447 38.0316 64.7581 37.8382 64.5514 37.5916C64.3514 37.3382 64.2514 37.0549 64.2514 36.7416V36.6316C64.2514 36.5916 64.2647 36.5582 64.2914 36.5316C64.3181 36.5116 64.3481 36.5016 64.3814 36.5016H65.6014C65.6414 36.5016 65.6747 36.5116 65.7014 36.5316C65.7281 36.5582 65.7414 36.5916 65.7414 36.6316V36.6416C65.7414 36.8016 65.8314 36.9382 66.0114 37.0516C66.1914 37.1649 66.4147 37.2216 66.6814 37.2216C66.9347 37.2216 67.1381 37.1716 67.2914 37.0716C67.4447 36.9716 67.5214 36.8516 67.5214 36.7116C67.5214 36.5782 67.4547 36.4782 67.3214 36.4116C67.1881 36.3449 66.9714 36.2749 66.6714 36.2016C66.3247 36.1149 66.0547 36.0316 65.8614 35.9516C65.3881 35.7849 65.0147 35.5849 64.7414 35.3516C64.4614 35.1182 64.3214 34.7816 64.3214 34.3416C64.3214 33.8016 64.5314 33.3716 64.9514 33.0516C65.3714 32.7316 65.9314 32.5716 66.6314 32.5716C67.0981 32.5716 67.5081 32.6449 67.8614 32.7916C68.2147 32.9449 68.4881 33.1582 68.6814 33.4316C68.8747 33.6982 68.9714 34.0049 68.9714 34.3516C68.9714 34.3916 68.9581 34.4216 68.9314 34.4416C68.9047 34.4682 68.8747 34.4816 68.8414 34.4816H67.6614C67.6281 34.4816 67.5981 34.4682 67.5714 34.4416C67.5447 34.4216 67.5314 34.3916 67.5314 34.3516C67.5314 34.1916 67.4481 34.0549 67.2814 33.9416C67.1147 33.8349 66.8981 33.7816 66.6314 33.7816C66.3847 33.7816 66.1847 33.8249 66.0314 33.9116C65.8781 33.9982 65.8014 34.1182 65.8014 34.2716C65.8014 34.4182 65.8781 34.5282 66.0314 34.6016C66.1781 34.6749 66.4281 34.7549 66.7814 34.8416L67.0614 34.9116L67.3914 35.0016C67.9114 35.1549 68.3214 35.3516 68.6214 35.5916C68.9214 35.8382 69.0714 36.1916 69.0714 36.6516C69.0714 37.1916 68.8581 37.6149 68.4314 37.9216C67.9981 38.2282 67.4181 38.3816 66.6914 38.3816ZM73.1914 33.7616C73.1914 33.7949 73.1814 33.8249 73.1614 33.8516C73.1347 33.8782 73.1014 33.8916 73.0614 33.8916H72.0114C71.9714 33.8916 71.9514 33.9082 71.9514 33.9416V36.2816C71.9514 36.5216 72.0014 36.7016 72.1014 36.8216C72.2014 36.9349 72.3614 36.9916 72.5814 36.9916H72.9414C72.9814 36.9916 73.0114 37.0049 73.0314 37.0316C73.0581 37.0582 73.0714 37.0882 73.0714 37.1216V38.1716C73.0714 38.2516 73.0281 38.2982 72.9414 38.3116C72.6347 38.3249 72.4147 38.3316 72.2814 38.3316C71.6747 38.3316 71.2214 38.2316 70.9214 38.0316C70.6214 37.8316 70.4681 37.4516 70.4614 36.8916V33.9416C70.4614 33.9082 70.4414 33.8916 70.4014 33.8916H69.7714C69.7381 33.8916 69.7081 33.8782 69.6814 33.8516C69.6547 33.8249 69.6414 33.7949 69.6414 33.7616V32.7816C69.6414 32.7416 69.6547 32.7082 69.6814 32.6816C69.7081 32.6616 69.7381 32.6516 69.7714 32.6516H70.4014C70.4414 32.6516 70.4614 32.6316 70.4614 32.5916V31.2816C70.4614 31.2482 70.4714 31.2182 70.4914 31.1916C70.5181 31.1649 70.5514 31.1516 70.5914 31.1516H71.8214C71.8547 31.1516 71.8847 31.1649 71.9114 31.1916C71.9381 31.2182 71.9514 31.2482 71.9514 31.2816V32.5916C71.9514 32.6316 71.9714 32.6516 72.0114 32.6516H73.0614C73.1014 32.6516 73.1347 32.6616 73.1614 32.6816C73.1814 32.7082 73.1914 32.7416 73.1914 32.7816V33.7616Z" fill="#252530"/>
<path d="M28.74 69.5807C28.74 69.614 28.73 69.6407 28.71 69.6607C28.6833 69.6874 28.6533 69.7007 28.62 69.7007H25.21C25.1767 69.7007 25.16 69.7174 25.16 69.7507V71.6207C25.16 71.654 25.1767 71.6707 25.21 71.6707H27.5C27.5333 71.6707 27.5633 71.6807 27.59 71.7007C27.61 71.7274 27.62 71.7574 27.62 71.7907V72.5507C27.62 72.584 27.61 72.614 27.59 72.6407C27.5633 72.6607 27.5333 72.6707 27.5 72.6707H25.21C25.1767 72.6707 25.16 72.6874 25.16 72.7207V74.6507C25.16 74.684 25.1767 74.7007 25.21 74.7007H28.62C28.6533 74.7007 28.6833 74.714 28.71 74.7407C28.73 74.7607 28.74 74.7874 28.74 74.8207V75.5807C28.74 75.614 28.73 75.6407 28.71 75.6607C28.6833 75.6874 28.6533 75.7007 28.62 75.7007H24.12C24.0867 75.7007 24.06 75.6874 24.04 75.6607C24.0133 75.6407 24 75.614 24 75.5807V68.8207C24 68.7874 24.0133 68.7607 24.04 68.7407C24.06 68.714 24.0867 68.7007 24.12 68.7007H28.62C28.6533 68.7007 28.6833 68.714 28.71 68.7407C28.73 68.7607 28.74 68.7874 28.74 68.8207V69.5807ZM32.26 70.5107C32.8 70.5107 33.2333 70.6707 33.56 70.9907C33.88 71.3107 34.04 71.7474 34.04 72.3007V75.5807C34.04 75.614 34.0267 75.6407 34 75.6607C33.98 75.6874 33.9533 75.7007 33.92 75.7007H33C32.9667 75.7007 32.9367 75.6874 32.91 75.6607C32.89 75.6407 32.88 75.614 32.88 75.5807V72.5407C32.88 72.234 32.7933 71.984 32.62 71.7907C32.4467 71.604 32.2167 71.5107 31.93 71.5107C31.6433 71.5107 31.41 71.604 31.23 71.7907C31.0567 71.9774 30.97 72.224 30.97 72.5307V75.5807C30.97 75.614 30.96 75.6407 30.94 75.6607C30.9133 75.6874 30.8833 75.7007 30.85 75.7007H29.93C29.8967 75.7007 29.87 75.6874 29.85 75.6607C29.8233 75.6407 29.81 75.614 29.81 75.5807V70.7107C29.81 70.6774 29.8233 70.6474 29.85 70.6207C29.87 70.6007 29.8967 70.5907 29.93 70.5907H30.85C30.8833 70.5907 30.9133 70.6007 30.94 70.6207C30.96 70.6474 30.97 70.6774 30.97 70.7107V71.0307C30.97 71.0507 30.9767 71.064 30.99 71.0707C31.0033 71.0774 31.0133 71.0707 31.02 71.0507C31.2933 70.6907 31.7067 70.5107 32.26 70.5107ZM37.96 71.4107C37.96 71.444 37.9467 71.4707 37.92 71.4907C37.9 71.5174 37.8733 71.5307 37.84 71.5307H36.82C36.7867 71.5307 36.77 71.5474 36.77 71.5807V73.9907C36.77 74.244 36.8233 74.4274 36.93 74.5407C37.0433 74.654 37.22 74.7107 37.46 74.7107H37.76C37.7933 74.7107 37.82 74.7207 37.84 74.7407C37.8667 74.7674 37.88 74.7974 37.88 74.8307V75.5807C37.88 75.654 37.84 75.6974 37.76 75.7107L37.24 75.7207C36.7133 75.7207 36.32 75.6307 36.06 75.4507C35.8 75.2707 35.6667 74.9307 35.66 74.4307V71.5807C35.66 71.5474 35.6433 71.5307 35.61 71.5307H35.04C35.0067 71.5307 34.9767 71.5174 34.95 71.4907C34.93 71.4707 34.92 71.444 34.92 71.4107V70.7107C34.92 70.6774 34.93 70.6474 34.95 70.6207C34.9767 70.6007 35.0067 70.5907 35.04 70.5907H35.61C35.6433 70.5907 35.66 70.574 35.66 70.5407V69.3707C35.66 69.3374 35.67 69.3074 35.69 69.2807C35.7167 69.2607 35.7467 69.2507 35.78 69.2507H36.65C36.6833 69.2507 36.71 69.2607 36.73 69.2807C36.7567 69.3074 36.77 69.3374 36.77 69.3707V70.5407C36.77 70.574 36.7867 70.5907 36.82 70.5907H37.84C37.8733 70.5907 37.9 70.6007 37.92 70.6207C37.9467 70.6474 37.96 70.6774 37.96 70.7107V71.4107ZM43.2 72.5707C43.2267 72.7374 43.24 72.924 43.24 73.1307L43.23 73.4407C43.23 73.5207 43.19 73.5607 43.11 73.5607H39.98C39.9467 73.5607 39.93 73.5774 39.93 73.6107C39.95 73.8307 39.98 73.9807 40.02 74.0607C40.18 74.5407 40.57 74.784 41.19 74.7907C41.6433 74.7907 42.0033 74.604 42.27 74.2307C42.2967 74.1907 42.33 74.1707 42.37 74.1707C42.3967 74.1707 42.42 74.1807 42.44 74.2007L43.06 74.7107C43.12 74.7574 43.13 74.8107 43.09 74.8707C42.8833 75.164 42.61 75.3907 42.27 75.5507C41.9233 75.7107 41.54 75.7907 41.12 75.7907C40.6 75.7907 40.1567 75.674 39.79 75.4407C39.43 75.2074 39.1667 74.8807 39 74.4607C38.8467 74.1007 38.77 73.6007 38.77 72.9607C38.77 72.574 38.81 72.2607 38.89 72.0207C39.0233 71.554 39.2767 71.184 39.65 70.9107C40.0167 70.644 40.46 70.5107 40.98 70.5107C42.2933 70.5107 43.0333 71.1974 43.2 72.5707ZM40.98 71.5107C40.7333 71.5107 40.5267 71.574 40.36 71.7007C40.2 71.8207 40.0867 71.9907 40.02 72.2107C39.98 72.324 39.9533 72.4707 39.94 72.6507C39.9267 72.684 39.94 72.7007 39.98 72.7007H42.01C42.0433 72.7007 42.06 72.684 42.06 72.6507C42.0467 72.484 42.0267 72.3574 42 72.2707C41.94 72.0307 41.8233 71.844 41.65 71.7107C41.47 71.5774 41.2467 71.5107 40.98 71.5107ZM46.68 70.5307C46.8933 70.5307 47.08 70.574 47.24 70.6607C47.2933 70.6874 47.3133 70.7374 47.3 70.8107L47.13 71.7107C47.1233 71.7907 47.0767 71.814 46.99 71.7807C46.89 71.7474 46.7733 71.7307 46.64 71.7307C46.5533 71.7307 46.4867 71.734 46.44 71.7407C46.16 71.754 45.9267 71.8507 45.74 72.0307C45.5533 72.2174 45.46 72.4574 45.46 72.7507V75.5807C45.46 75.614 45.45 75.6407 45.43 75.6607C45.4033 75.6874 45.3733 75.7007 45.34 75.7007H44.42C44.3867 75.7007 44.36 75.6874 44.34 75.6607C44.3133 75.6407 44.3 75.614 44.3 75.5807V70.7107C44.3 70.6774 44.3133 70.6474 44.34 70.6207C44.36 70.6007 44.3867 70.5907 44.42 70.5907H45.34C45.3733 70.5907 45.4033 70.6007 45.43 70.6207C45.45 70.6474 45.46 70.6774 45.46 70.7107V71.1607C45.46 71.1874 45.4633 71.2007 45.47 71.2007C45.4833 71.2074 45.4967 71.2007 45.51 71.1807C45.79 70.7474 46.18 70.5307 46.68 70.5307ZM52.39 71.9107C52.51 72.2507 52.57 72.6674 52.57 73.1607C52.57 73.634 52.5133 74.0407 52.4 74.3807C52.2533 74.8207 52.02 75.164 51.7 75.4107C51.3733 75.6574 50.9633 75.7807 50.47 75.7807C49.9967 75.7807 49.6167 75.6107 49.33 75.2707C49.3167 75.2574 49.3033 75.254 49.29 75.2607C49.2767 75.2674 49.27 75.2807 49.27 75.3007V77.4707C49.27 77.504 49.26 77.5307 49.24 77.5507C49.2133 77.5774 49.1833 77.5907 49.15 77.5907H48.23C48.1967 77.5907 48.17 77.5774 48.15 77.5507C48.1233 77.5307 48.11 77.504 48.11 77.4707V70.7107C48.11 70.6774 48.1233 70.6474 48.15 70.6207C48.17 70.6007 48.1967 70.5907 48.23 70.5907H49.15C49.1833 70.5907 49.2133 70.6007 49.24 70.6207C49.26 70.6474 49.27 70.6774 49.27 70.7107V71.0107C49.27 71.0307 49.2767 71.044 49.29 71.0507C49.3033 71.0574 49.3167 71.0507 49.33 71.0307C49.6233 70.684 50.0067 70.5107 50.48 70.5107C50.9533 70.5107 51.3533 70.634 51.68 70.8807C52.0067 71.1274 52.2433 71.4707 52.39 71.9107ZM51.09 74.3607C51.29 74.054 51.39 73.6474 51.39 73.1407C51.39 72.654 51.31 72.2707 51.15 71.9907C50.9633 71.664 50.68 71.5007 50.3 71.5007C49.9533 71.5007 49.6933 71.6607 49.52 71.9807C49.3667 72.2407 49.29 72.6274 49.29 73.1407C49.29 73.6674 49.3733 74.0674 49.54 74.3407C49.7133 74.634 49.9633 74.7807 50.29 74.7807C50.6433 74.7807 50.91 74.6407 51.09 74.3607ZM56.07 70.5307C56.2833 70.5307 56.47 70.574 56.63 70.6607C56.6833 70.6874 56.7033 70.7374 56.69 70.8107L56.52 71.7107C56.5133 71.7907 56.4667 71.814 56.38 71.7807C56.28 71.7474 56.1633 71.7307 56.03 71.7307C55.9433 71.7307 55.8767 71.734 55.83 71.7407C55.55 71.754 55.3167 71.8507 55.13 72.0307C54.9433 72.2174 54.85 72.4574 54.85 72.7507V75.5807C54.85 75.614 54.84 75.6407 54.82 75.6607C54.7933 75.6874 54.7633 75.7007 54.73 75.7007H53.81C53.7767 75.7007 53.75 75.6874 53.73 75.6607C53.7033 75.6407 53.69 75.614 53.69 75.5807V70.7107C53.69 70.6774 53.7033 70.6474 53.73 70.6207C53.75 70.6007 53.7767 70.5907 53.81 70.5907H54.73C54.7633 70.5907 54.7933 70.6007 54.82 70.6207C54.84 70.6474 54.85 70.6774 54.85 70.7107V71.1607C54.85 71.1874 54.8533 71.2007 54.86 71.2007C54.8733 71.2074 54.8867 71.2007 54.9 71.1807C55.18 70.7474 55.57 70.5307 56.07 70.5307ZM58.11 69.8907C57.9033 69.8907 57.7333 69.824 57.6 69.6907C57.4667 69.5574 57.4 69.3874 57.4 69.1807C57.4 68.974 57.4667 68.804 57.6 68.6707C57.7333 68.5374 57.9033 68.4707 58.11 68.4707C58.3167 68.4707 58.4867 68.5374 58.62 68.6707C58.7533 68.804 58.82 68.974 58.82 69.1807C58.82 69.3874 58.7533 69.5574 58.62 69.6907C58.4867 69.824 58.3167 69.8907 58.11 69.8907ZM57.63 75.7007C57.5967 75.7007 57.57 75.6874 57.55 75.6607C57.5233 75.6407 57.51 75.614 57.51 75.5807V70.7007C57.51 70.6674 57.5233 70.6407 57.55 70.6207C57.57 70.594 57.5967 70.5807 57.63 70.5807H58.55C58.5833 70.5807 58.6133 70.594 58.64 70.6207C58.66 70.6407 58.67 70.6674 58.67 70.7007V75.5807C58.67 75.614 58.66 75.6407 58.64 75.6607C58.6133 75.6874 58.5833 75.7007 58.55 75.7007H57.63ZM61.9 75.7607C61.48 75.7607 61.11 75.6974 60.79 75.5707C60.4767 75.4507 60.2333 75.2807 60.06 75.0607C59.8867 74.8474 59.8 74.6074 59.8 74.3407V74.2507C59.8 74.2174 59.81 74.1874 59.83 74.1607C59.8567 74.1407 59.8867 74.1307 59.92 74.1307H60.8C60.8333 74.1307 60.8633 74.1407 60.89 74.1607C60.91 74.1874 60.92 74.2174 60.92 74.2507V74.2707C60.92 74.4374 61.01 74.584 61.19 74.7107C61.3767 74.8307 61.61 74.8907 61.89 74.8907C62.1567 74.8907 62.3733 74.8374 62.54 74.7307C62.7067 74.6174 62.79 74.4774 62.79 74.3107C62.79 74.1574 62.72 74.0407 62.58 73.9607C62.4467 73.8874 62.2267 73.8074 61.92 73.7207L61.54 73.6007C61.2 73.5007 60.9133 73.394 60.68 73.2807C60.4467 73.1674 60.25 73.0107 60.09 72.8107C59.93 72.6174 59.85 72.3674 59.85 72.0607C59.85 71.594 60.0333 71.224 60.4 70.9507C60.7667 70.6707 61.25 70.5307 61.85 70.5307C62.2567 70.5307 62.6133 70.594 62.92 70.7207C63.2267 70.854 63.4633 71.034 63.63 71.2607C63.7967 71.494 63.88 71.7574 63.88 72.0507C63.88 72.084 63.87 72.114 63.85 72.1407C63.8233 72.1607 63.7933 72.1707 63.76 72.1707H62.91C62.8767 72.1707 62.8467 72.1607 62.82 72.1407C62.8 72.114 62.79 72.084 62.79 72.0507C62.79 71.8774 62.7067 71.734 62.54 71.6207C62.3667 71.5007 62.1333 71.4407 61.84 71.4407C61.58 71.4407 61.37 71.4874 61.21 71.5807C61.0433 71.6807 60.96 71.8174 60.96 71.9907C60.96 72.1507 61.0367 72.2707 61.19 72.3507C61.35 72.4374 61.6133 72.5307 61.98 72.6307L62.2 72.6907C62.5533 72.7974 62.85 72.904 63.09 73.0107C63.33 73.124 63.5333 73.2774 63.7 73.4707C63.8667 73.6707 63.95 73.9274 63.95 74.2407C63.95 74.714 63.7633 75.084 63.39 75.3507C63.0167 75.624 62.52 75.7607 61.9 75.7607ZM69.24 72.5707C69.2667 72.7374 69.28 72.924 69.28 73.1307L69.27 73.4407C69.27 73.5207 69.23 73.5607 69.15 73.5607H66.02C65.9867 73.5607 65.97 73.5774 65.97 73.6107C65.99 73.8307 66.02 73.9807 66.06 74.0607C66.22 74.5407 66.61 74.784 67.23 74.7907C67.6833 74.7907 68.0433 74.604 68.31 74.2307C68.3367 74.1907 68.37 74.1707 68.41 74.1707C68.4367 74.1707 68.46 74.1807 68.48 74.2007L69.1 74.7107C69.16 74.7574 69.17 74.8107 69.13 74.8707C68.9233 75.164 68.6467 75.3907 68.3 75.5507C67.96 75.7107 67.58 75.7907 67.16 75.7907C66.64 75.7907 66.1967 75.674 65.83 75.4407C65.47 75.2074 65.2067 74.8807 65.04 74.4607C64.8867 74.1007 64.81 73.6007 64.81 72.9607C64.81 72.574 64.85 72.2607 64.93 72.0207C65.0633 71.554 65.3133 71.184 65.68 70.9107C66.0533 70.644 66.5 70.5107 67.02 70.5107C68.3333 70.5107 69.0733 71.1974 69.24 72.5707ZM67.02 71.5107C66.7733 71.5107 66.5667 71.574 66.4 71.7007C66.24 71.8207 66.1267 71.9907 66.06 72.2107C66.02 72.324 65.9933 72.4707 65.98 72.6507C65.9667 72.684 65.98 72.7007 66.02 72.7007H68.05C68.0833 72.7007 68.1 72.684 68.1 72.6507C68.0867 72.484 68.0667 72.3574 68.04 72.2707C67.98 72.0307 67.86 71.844 67.68 71.7107C67.5067 71.5774 67.2867 71.5107 67.02 71.5107Z" fill="white"/>
<path d="M33.15 89.8807C32.6167 89.8807 32.15 89.794 31.75 89.6207C31.35 89.454 31.0433 89.2107 30.83 88.8907C30.61 88.5774 30.5 88.2107 30.5 87.7907V87.5707C30.5 87.5374 30.5133 87.5107 30.54 87.4907C30.56 87.464 30.5867 87.4507 30.62 87.4507H31.76C31.7933 87.4507 31.8233 87.464 31.85 87.4907C31.87 87.5107 31.88 87.5374 31.88 87.5707V87.7207C31.88 87.9874 32.0033 88.2107 32.25 88.3907C32.4967 88.5774 32.83 88.6707 33.25 88.6707C33.6033 88.6707 33.8667 88.5974 34.04 88.4507C34.2133 88.2974 34.3 88.1107 34.3 87.8907C34.3 87.7307 34.2467 87.5974 34.14 87.4907C34.0333 87.3774 33.8867 87.2807 33.7 87.2007C33.52 87.114 33.23 86.9974 32.83 86.8507C32.3833 86.6974 32.0033 86.5407 31.69 86.3807C31.3833 86.2207 31.1267 86.0007 30.92 85.7207C30.7067 85.4474 30.6 85.1074 30.6 84.7007C30.6 84.3007 30.7033 83.9507 30.91 83.6507C31.1167 83.3507 31.4033 83.1207 31.77 82.9607C32.1367 82.8007 32.56 82.7207 33.04 82.7207C33.5467 82.7207 33.9967 82.8107 34.39 82.9907C34.79 83.1707 35.1033 83.424 35.33 83.7507C35.55 84.0707 35.66 84.444 35.66 84.8707V85.0207C35.66 85.054 35.65 85.0807 35.63 85.1007C35.6033 85.1274 35.5733 85.1407 35.54 85.1407H34.39C34.3567 85.1407 34.33 85.1274 34.31 85.1007C34.2833 85.0807 34.27 85.054 34.27 85.0207V84.9407C34.27 84.6607 34.1567 84.4207 33.93 84.2207C33.6967 84.0274 33.38 83.9307 32.98 83.9307C32.6667 83.9307 32.42 83.9974 32.24 84.1307C32.0667 84.264 31.98 84.4474 31.98 84.6807C31.98 84.8474 32.0333 84.9874 32.14 85.1007C32.24 85.214 32.3933 85.314 32.6 85.4007C32.8 85.494 33.1133 85.6174 33.54 85.7707C34.0133 85.944 34.3833 86.0974 34.65 86.2307C34.9233 86.364 35.17 86.5607 35.39 86.8207C35.6033 87.0874 35.71 87.4307 35.71 87.8507C35.71 88.4774 35.48 88.9707 35.02 89.3307C34.56 89.6974 33.9367 89.8807 33.15 89.8807ZM39.59 82.7907C40.03 82.7907 40.4167 82.8807 40.75 83.0607C41.0833 83.2407 41.3433 83.494 41.53 83.8207C41.71 84.154 41.8 84.534 41.8 84.9607C41.8 85.3807 41.7067 85.7507 41.52 86.0707C41.3267 86.3907 41.0567 86.6407 40.71 86.8207C40.37 86.994 39.9767 87.0807 39.53 87.0807H38.11C38.0767 87.0807 38.06 87.0974 38.06 87.1307V89.6807C38.06 89.714 38.0467 89.7407 38.02 89.7607C38 89.7874 37.9733 89.8007 37.94 89.8007H36.77C36.7367 89.8007 36.7067 89.7874 36.68 89.7607C36.66 89.7407 36.65 89.714 36.65 89.6807V82.9107C36.65 82.8774 36.66 82.8474 36.68 82.8207C36.7067 82.8007 36.7367 82.7907 36.77 82.7907H39.59ZM39.38 85.9507C39.6867 85.9507 39.9333 85.8607 40.12 85.6807C40.3067 85.5074 40.4 85.2774 40.4 84.9907C40.4 84.6974 40.3067 84.4607 40.12 84.2807C39.9333 84.1007 39.6867 84.0107 39.38 84.0107H38.11C38.0767 84.0107 38.06 84.0274 38.06 84.0607V85.9007C38.06 85.934 38.0767 85.9507 38.11 85.9507H39.38ZM46.51 89.8007C46.4433 89.8007 46.3967 89.7707 46.37 89.7107L45.12 86.9407C45.1067 86.914 45.0867 86.9007 45.06 86.9007H44.13C44.0967 86.9007 44.08 86.9174 44.08 86.9507V89.6807C44.08 89.714 44.0667 89.7407 44.04 89.7607C44.02 89.7874 43.9933 89.8007 43.96 89.8007H42.79C42.7567 89.8007 42.7267 89.7874 42.7 89.7607C42.68 89.7407 42.67 89.714 42.67 89.6807V82.9207C42.67 82.8874 42.68 82.8607 42.7 82.8407C42.7267 82.814 42.7567 82.8007 42.79 82.8007H45.65C46.0767 82.8007 46.45 82.8874 46.77 83.0607C47.0967 83.234 47.3467 83.4807 47.52 83.8007C47.7 84.1207 47.79 84.4907 47.79 84.9107C47.79 85.364 47.6767 85.7507 47.45 86.0707C47.2233 86.3974 46.9067 86.6274 46.5 86.7607C46.4667 86.774 46.4567 86.7974 46.47 86.8307L47.83 89.6607C47.8433 89.6874 47.85 89.7074 47.85 89.7207C47.85 89.774 47.8133 89.8007 47.74 89.8007H46.51ZM44.13 84.0107C44.0967 84.0107 44.08 84.0274 44.08 84.0607V85.7707C44.08 85.804 44.0967 85.8207 44.13 85.8207H45.44C45.72 85.8207 45.9467 85.7374 46.12 85.5707C46.3 85.404 46.39 85.1874 46.39 84.9207C46.39 84.654 46.3 84.434 46.12 84.2607C45.9467 84.094 45.72 84.0107 45.44 84.0107H44.13ZM48.93 89.8007C48.8967 89.8007 48.87 89.7874 48.85 89.7607C48.8233 89.7407 48.81 89.714 48.81 89.6807V82.9207C48.81 82.8874 48.8233 82.8607 48.85 82.8407C48.87 82.814 48.8967 82.8007 48.93 82.8007H50.1C50.1333 82.8007 50.1633 82.814 50.19 82.8407C50.21 82.8607 50.22 82.8874 50.22 82.9207V89.6807C50.22 89.714 50.21 89.7407 50.19 89.7607C50.1633 89.7874 50.1333 89.8007 50.1 89.8007H48.93ZM55.46 82.9207C55.46 82.8874 55.4733 82.8607 55.5 82.8407C55.52 82.814 55.5467 82.8007 55.58 82.8007H56.75C56.7833 82.8007 56.8133 82.814 56.84 82.8407C56.86 82.8607 56.87 82.8874 56.87 82.9207V89.6807C56.87 89.714 56.86 89.7407 56.84 89.7607C56.8133 89.7874 56.7833 89.8007 56.75 89.8007H55.62C55.5533 89.8007 55.5067 89.774 55.48 89.7207L52.89 85.4407C52.8767 85.4207 52.8633 85.414 52.85 85.4207C52.8367 85.4207 52.83 85.434 52.83 85.4607L52.85 89.6807C52.85 89.714 52.84 89.7407 52.82 89.7607C52.7933 89.7874 52.7633 89.8007 52.73 89.8007H51.56C51.5267 89.8007 51.5 89.7874 51.48 89.7607C51.4533 89.7407 51.44 89.714 51.44 89.6807V82.9207C51.44 82.8874 51.4533 82.8607 51.48 82.8407C51.5 82.814 51.5267 82.8007 51.56 82.8007H52.69C52.7567 82.8007 52.8033 82.8274 52.83 82.8807L55.41 87.1407C55.4233 87.1607 55.4367 87.1674 55.45 87.1607C55.4633 87.1607 55.47 87.1474 55.47 87.1207L55.46 82.9207ZM60.55 89.8807C60.0367 89.8807 59.5833 89.7774 59.19 89.5707C58.7967 89.364 58.4933 89.0774 58.28 88.7107C58.06 88.3374 57.95 87.9074 57.95 87.4207V85.1807C57.95 84.694 58.06 84.264 58.28 83.8907C58.4933 83.5174 58.7967 83.2274 59.19 83.0207C59.5833 82.8207 60.0367 82.7207 60.55 82.7207C61.0567 82.7207 61.5067 82.8207 61.9 83.0207C62.2867 83.2207 62.59 83.494 62.81 83.8407C63.0233 84.1807 63.13 84.5607 63.13 84.9807V85.0507C63.13 85.084 63.12 85.1107 63.1 85.1307C63.0733 85.1574 63.0433 85.1707 63.01 85.1707H61.84C61.8067 85.1707 61.78 85.1574 61.76 85.1307C61.7333 85.1107 61.72 85.084 61.72 85.0507V85.0207C61.72 84.714 61.6133 84.4574 61.4 84.2507C61.1867 84.0374 60.9033 83.9307 60.55 83.9307C60.19 83.9307 59.9033 84.0407 59.69 84.2607C59.47 84.4874 59.36 84.7807 59.36 85.1407V87.4607C59.36 87.8207 59.4767 88.1107 59.71 88.3307C59.9433 88.5574 60.24 88.6707 60.6 88.6707C60.9467 88.6707 61.2233 88.5774 61.43 88.3907C61.6367 88.2107 61.74 87.9574 61.74 87.6307V87.1807C61.74 87.1474 61.7233 87.1307 61.69 87.1307H60.57C60.5367 87.1307 60.51 87.1174 60.49 87.0907C60.4633 87.0707 60.45 87.044 60.45 87.0107V86.0907C60.45 86.0574 60.4633 86.0307 60.49 86.0107C60.51 85.984 60.5367 85.9707 60.57 85.9707H63.01C63.0433 85.9707 63.0733 85.984 63.1 86.0107C63.12 86.0307 63.13 86.0574 63.13 86.0907V87.4107C63.13 87.9174 63.0233 88.3574 62.81 88.7307C62.5967 89.104 62.2967 89.3907 61.91 89.5907C61.5167 89.784 61.0633 89.8807 60.55 89.8807ZM37.68 97.9307C37.6667 97.944 37.6633 97.9574 37.67 97.9707C37.6767 97.984 37.69 97.9907 37.71 97.9907H40.42C40.4533 97.9907 40.4833 98.0007 40.51 98.0207C40.53 98.0474 40.54 98.0774 40.54 98.1107V99.0807C40.54 99.114 40.53 99.1407 40.51 99.1607C40.4833 99.1874 40.4533 99.2007 40.42 99.2007H35.92C35.8867 99.2007 35.8567 99.1874 35.83 99.1607C35.81 99.1407 35.8 99.114 35.8 99.0807V98.1607C35.8 98.1007 35.82 98.0507 35.86 98.0107C36.1867 97.6907 36.52 97.344 36.86 96.9707C37.2 96.5907 37.4133 96.354 37.5 96.2607C37.6867 96.0407 37.8767 95.8307 38.07 95.6307C38.6767 94.9574 38.98 94.4574 38.98 94.1307C38.98 93.8974 38.8967 93.704 38.73 93.5507C38.5633 93.404 38.3467 93.3307 38.08 93.3307C37.8133 93.3307 37.5967 93.404 37.43 93.5507C37.2633 93.704 37.18 93.904 37.18 94.1507V94.4007C37.18 94.434 37.1667 94.464 37.14 94.4907C37.12 94.5107 37.0933 94.5207 37.06 94.5207H35.88C35.8467 94.5207 35.82 94.5107 35.8 94.4907C35.7733 94.464 35.76 94.434 35.76 94.4007V93.9307C35.78 93.5707 35.8933 93.2507 36.1 92.9707C36.3067 92.6974 36.58 92.4874 36.92 92.3407C37.2667 92.194 37.6533 92.1207 38.08 92.1207C38.5533 92.1207 38.9667 92.2074 39.32 92.3807C39.6667 92.5607 39.9367 92.8007 40.13 93.1007C40.3167 93.4007 40.41 93.734 40.41 94.1007C40.41 94.3807 40.34 94.6674 40.2 94.9607C40.06 95.254 39.85 95.5707 39.57 95.9107C39.3633 96.1707 39.14 96.4274 38.9 96.6807C38.66 96.934 38.3033 97.3007 37.83 97.7807L37.68 97.9307ZM43.79 99.3107C43.0567 99.3107 42.4767 99.104 42.05 98.6907C41.6233 98.284 41.41 97.7274 41.41 97.0207V94.3807C41.41 93.6874 41.6233 93.1374 42.05 92.7307C42.4767 92.324 43.0567 92.1207 43.79 92.1207C44.5233 92.1207 45.1067 92.324 45.54 92.7307C45.9667 93.1374 46.18 93.6874 46.18 94.3807V97.0207C46.18 97.7274 45.9667 98.284 45.54 98.6907C45.1067 99.104 44.5233 99.3107 43.79 99.3107ZM43.79 98.1007C44.09 98.1007 44.33 98.0074 44.51 97.8207C44.6833 97.6407 44.77 97.3974 44.77 97.0907V94.3407C44.77 94.034 44.6833 93.7907 44.51 93.6107C44.33 93.424 44.09 93.3307 43.79 93.3307C43.4967 93.3307 43.2633 93.424 43.09 93.6107C42.91 93.7907 42.82 94.034 42.82 94.3407V97.0907C42.82 97.3974 42.91 97.6407 43.09 97.8207C43.2633 98.0074 43.4967 98.1007 43.79 98.1007ZM48.98 97.9307C48.9667 97.944 48.9633 97.9574 48.97 97.9707C48.9767 97.984 48.99 97.9907 49.01 97.9907H51.72C51.7533 97.9907 51.7833 98.0007 51.81 98.0207C51.83 98.0474 51.84 98.0774 51.84 98.1107V99.0807C51.84 99.114 51.83 99.1407 51.81 99.1607C51.7833 99.1874 51.7533 99.2007 51.72 99.2007H47.22C47.1867 99.2007 47.16 99.1874 47.14 99.1607C47.1133 99.1407 47.1 99.114 47.1 99.0807V98.1607C47.1 98.1007 47.12 98.0507 47.16 98.0107C47.4867 97.6907 47.82 97.344 48.16 96.9707C48.5 96.5907 48.7133 96.354 48.8 96.2607C48.9867 96.0407 49.1767 95.8307 49.37 95.6307C49.9767 94.9574 50.28 94.4574 50.28 94.1307C50.28 93.8974 50.1967 93.704 50.03 93.5507C49.8633 93.404 49.6467 93.3307 49.38 93.3307C49.1133 93.3307 48.8967 93.404 48.73 93.5507C48.5633 93.704 48.48 93.904 48.48 94.1507V94.4007C48.48 94.434 48.47 94.464 48.45 94.4907C48.4233 94.5107 48.3933 94.5207 48.36 94.5207H47.18C47.1467 94.5207 47.12 94.5107 47.1 94.4907C47.0733 94.464 47.06 94.434 47.06 94.4007V93.9307C47.08 93.5707 47.1933 93.2507 47.4 92.9707C47.6067 92.6974 47.8833 92.4874 48.23 92.3407C48.57 92.194 48.9533 92.1207 49.38 92.1207C49.8533 92.1207 50.2667 92.2074 50.62 92.3807C50.9667 92.5607 51.2367 92.8007 51.43 93.1007C51.6167 93.4007 51.71 93.734 51.71 94.1007C51.71 94.3807 51.64 94.6674 51.5 94.9607C51.36 95.254 51.15 95.5707 50.87 95.9107C50.6633 96.1707 50.44 96.4274 50.2 96.6807C49.96 96.934 49.6033 97.3007 49.13 97.7807L48.98 97.9307ZM57.71 96.1507C57.7433 96.1507 57.7733 96.1607 57.8 96.1807C57.82 96.2074 57.83 96.2374 57.83 96.2707V97.2807C57.83 97.314 57.82 97.344 57.8 97.3707C57.7733 97.3907 57.7433 97.4007 57.71 97.4007H57.28C57.2467 97.4007 57.23 97.4174 57.23 97.4507V99.0807C57.23 99.114 57.22 99.1407 57.2 99.1607C57.1733 99.1874 57.1433 99.2007 57.11 99.2007H55.94C55.9067 99.2007 55.88 99.1874 55.86 99.1607C55.8333 99.1407 55.82 99.114 55.82 99.0807V97.4507C55.82 97.4174 55.8033 97.4007 55.77 97.4007H52.7C52.6667 97.4007 52.64 97.3907 52.62 97.3707C52.5933 97.344 52.58 97.314 52.58 97.2807V96.4807C52.58 96.4407 52.59 96.3907 52.61 96.3307L54.41 92.2907C54.4367 92.2307 54.4833 92.2007 54.55 92.2007H55.8C55.8467 92.2007 55.88 92.214 55.9 92.2407C55.9133 92.2607 55.91 92.294 55.89 92.3407L54.22 96.0907C54.2133 96.104 54.2133 96.1174 54.22 96.1307C54.2267 96.144 54.2367 96.1507 54.25 96.1507H55.77C55.8033 96.1507 55.82 96.134 55.82 96.1007V94.8607C55.82 94.8274 55.8333 94.8007 55.86 94.7807C55.88 94.754 55.9067 94.7407 55.94 94.7407H57.11C57.1433 94.7407 57.1733 94.754 57.2 94.7807C57.22 94.8007 57.23 94.8274 57.23 94.8607V96.1007C57.23 96.134 57.2467 96.1507 57.28 96.1507H57.71Z" fill="#252530"/>
</svg>
