<svg width="94" height="122" viewBox="0 0 94 122" fill="none" xmlns="http://www.w3.org/2000/svg">
<path d="M8.10156 90.2016L47.6016 110.302L85.6016 90.2016V11.6016H8.10156V90.2016Z" fill="white"/>
<path d="M86.4008 11.9004L7.30078 91.6004L48.3008 111.9L86.4008 92.4004V11.9004Z" fill="#F2F3F2"/>
<path d="M5.5 37.8V91.9L6.9 92.6L46.4 112.7L47.6 113.3L48.8 112.7L86.9 92.6L88.3 91.9V9H5.5V37.8ZM8.1 90.4V11.6H85.7V90.4L47.6 110.5L8.1 90.4Z" fill="#DCDEDC"/>
<path d="M46.9008 12.9C47.3008 12.9 47.7008 12.9 48.1008 13L46.9008 15.3C45.1008 15.2 43.5008 16.6 43.4008 18.4C43.3008 20.2 44.7008 21.8 46.5008 21.9H46.9008C47.7008 21.9 48.5008 21.6 49.1008 21.1L50.4008 23.3C49.4008 24 48.2008 24.4 46.9008 24.4C43.7008 24.5 41.0008 22.1 40.9008 18.9C40.8008 15.7 43.2008 13 46.4008 12.9H46.9008ZM51.0008 17.8L52.5008 20.3L51.0008 22.7L49.6008 20.3H46.7008L48.2008 17.8H51.0008ZM48.6008 16.9C48.6008 16.5 48.7008 16.1 48.9008 15.8C49.1008 15.5 49.5008 15.2 49.8008 15L50.0008 14.9C50.4008 14.7 50.5008 14.6 50.5008 14.4C50.5008 14.2 50.2008 14 50.0008 14C49.6008 14 49.3008 14.2 49.1008 14.6L48.6008 14.1C48.7008 13.9 48.9008 13.7 49.1008 13.5C49.4008 13.3 49.7008 13.3 50.0008 13.3C50.3008 13.3 50.7008 13.4 50.9008 13.6C51.1008 13.8 51.3008 14.1 51.3008 14.4C51.3008 14.9 51.0008 15.3 50.4008 15.5L50.1008 15.7C49.8008 15.9 49.6008 16 49.5008 16.3H51.3008V17L48.6008 16.9ZM46.9008 29.4L56.4008 24V9H37.3008V23.9L46.9008 29.4Z" fill="#FF492C"/>
<path d="M90.1984 64.8008H3.59844L0.398438 71.8008L3.59844 78.8008H90.1984L93.2984 71.8008L90.1984 64.8008Z" fill="#2690CE"/>
<path d="M28.5298 60.301C28.4498 60.301 28.3998 60.261 28.3798 60.181L28.0198 59.001C27.9998 58.9743 27.9798 58.961 27.9598 58.961H24.9998C24.9798 58.961 24.9598 58.9743 24.9398 59.001L24.5998 60.181C24.5732 60.261 24.5198 60.301 24.4398 60.301H22.9198C22.8665 60.301 22.8298 60.2877 22.8098 60.261C22.7832 60.2343 22.7798 60.191 22.7998 60.131L25.3898 52.021C25.4098 51.941 25.4598 51.901 25.5398 51.901H27.4298C27.5098 51.901 27.5598 51.941 27.5798 52.021L30.1798 60.131C30.1865 60.151 30.1898 60.171 30.1898 60.191C30.1898 60.2643 30.1465 60.301 30.0598 60.301H28.5298ZM25.3798 57.581C25.3665 57.6277 25.3798 57.651 25.4198 57.651H27.5398C27.5865 57.651 27.5998 57.6277 27.5798 57.581L26.4998 54.011C26.4932 53.9777 26.4832 53.9643 26.4698 53.971C26.4498 53.9777 26.4365 53.991 26.4298 54.011L25.3798 57.581ZM34.7598 52.041C34.7598 52.001 34.7732 51.9677 34.7998 51.941C34.8265 51.9143 34.8598 51.901 34.8998 51.901H36.3098C36.3498 51.901 36.3832 51.9143 36.4098 51.941C36.4365 51.9677 36.4498 52.001 36.4498 52.041V60.161C36.4498 60.201 36.4365 60.2343 36.4098 60.261C36.3832 60.2877 36.3498 60.301 36.3098 60.301H34.8998C34.8598 60.301 34.8265 60.2877 34.7998 60.261C34.7732 60.2343 34.7598 60.201 34.7598 60.161V59.761C34.7598 59.7343 34.7532 59.721 34.7398 59.721C34.7198 59.7143 34.7032 59.721 34.6898 59.741C34.3498 60.181 33.8898 60.401 33.3098 60.401C32.7498 60.401 32.2665 60.2443 31.8598 59.931C31.4598 59.6177 31.1698 59.1877 30.9898 58.641C30.8565 58.2277 30.7898 57.7443 30.7898 57.191C30.7898 56.6243 30.8598 56.1277 30.9998 55.701C31.1865 55.1943 31.4765 54.791 31.8698 54.491C32.2698 54.191 32.7598 54.041 33.3398 54.041C33.9198 54.041 34.3698 54.241 34.6898 54.641C34.7032 54.661 34.7198 54.6677 34.7398 54.661C34.7532 54.6543 34.7598 54.6377 34.7598 54.611V52.041ZM34.5098 58.431C34.6698 58.131 34.7498 57.7277 34.7498 57.221C34.7498 56.681 34.6598 56.261 34.4798 55.961C34.2998 55.6477 34.0332 55.491 33.6798 55.491C33.3065 55.491 33.0232 55.6477 32.8298 55.961C32.6298 56.2677 32.5298 56.691 32.5298 57.231C32.5298 57.711 32.6132 58.111 32.7798 58.431C32.9798 58.771 33.2765 58.941 33.6698 58.941C34.0298 58.941 34.3098 58.771 34.5098 58.431ZM40.4498 60.401C39.7765 60.401 39.1998 60.2243 38.7198 59.871C38.2398 59.5177 37.9132 59.0377 37.7398 58.431C37.6265 58.051 37.5698 57.641 37.5698 57.201C37.5698 56.7343 37.6265 56.311 37.7398 55.931C37.9198 55.3377 38.2498 54.8743 38.7298 54.541C39.2098 54.2077 39.7865 54.041 40.4598 54.041C41.1132 54.041 41.6732 54.2043 42.1398 54.531C42.6065 54.8643 42.9332 55.3277 43.1198 55.921C43.2532 56.321 43.3198 56.741 43.3198 57.181C43.3198 57.6143 43.2632 58.0177 43.1498 58.391C42.9698 59.0177 42.6432 59.5077 42.1698 59.861C41.6965 60.221 41.1232 60.401 40.4498 60.401ZM40.4498 58.941C40.7098 58.941 40.9332 58.861 41.1198 58.701C41.3065 58.541 41.4398 58.321 41.5198 58.041C41.5798 57.7877 41.6098 57.5077 41.6098 57.201C41.6098 56.8677 41.5798 56.5843 41.5198 56.351C41.4265 56.0777 41.2898 55.8677 41.1098 55.721C40.9232 55.5677 40.6998 55.491 40.4398 55.491C40.1665 55.491 39.9398 55.5677 39.7598 55.721C39.5798 55.8677 39.4498 56.0777 39.3698 56.351C39.3032 56.5443 39.2698 56.8277 39.2698 57.201C39.2698 57.561 39.2998 57.841 39.3598 58.041C39.4398 58.321 39.5732 58.541 39.7598 58.701C39.9465 58.861 40.1765 58.941 40.4498 58.941ZM49.9198 55.791C50.0598 56.1977 50.1298 56.6777 50.1298 57.231C50.1298 57.7843 50.0532 58.2843 49.8998 58.731C49.7198 59.2443 49.4298 59.651 49.0298 59.951C48.6365 60.251 48.1465 60.401 47.5598 60.401C46.9865 60.401 46.5398 60.201 46.2198 59.801C46.2065 59.7743 46.1898 59.7643 46.1698 59.771C46.1565 59.7777 46.1498 59.7943 46.1498 59.821V62.391C46.1498 62.431 46.1365 62.4643 46.1098 62.491C46.0765 62.5177 46.0398 62.531 45.9998 62.531H44.5998C44.5598 62.531 44.5265 62.5177 44.4998 62.491C44.4732 62.4643 44.4598 62.431 44.4598 62.391V54.281C44.4598 54.241 44.4732 54.2043 44.4998 54.171C44.5265 54.1443 44.5598 54.131 44.5998 54.131H45.9998C46.0398 54.131 46.0765 54.1443 46.1098 54.171C46.1365 54.2043 46.1498 54.241 46.1498 54.281V54.671C46.1498 54.6977 46.1565 54.711 46.1698 54.711C46.1898 54.7177 46.2065 54.7143 46.2198 54.701C46.5532 54.261 47.0165 54.041 47.6098 54.041C48.1632 54.041 48.6432 54.1943 49.0498 54.501C49.4498 54.8077 49.7398 55.2377 49.9198 55.791ZM48.0798 58.481C48.2798 58.1677 48.3798 57.741 48.3798 57.201C48.3798 56.701 48.2965 56.301 48.1298 56.001C47.9432 55.661 47.6465 55.491 47.2398 55.491C46.8732 55.491 46.5965 55.661 46.4098 56.001C46.2432 56.2943 46.1598 56.701 46.1598 57.221C46.1598 57.7543 46.2465 58.1677 46.4198 58.461C46.6065 58.781 46.8798 58.941 47.2398 58.941C47.5998 58.941 47.8798 58.7877 48.0798 58.481ZM54.7598 55.341C54.7598 55.381 54.7465 55.4177 54.7198 55.451C54.6932 55.4777 54.6598 55.491 54.6198 55.491H53.4698C53.4298 55.491 53.4098 55.511 53.4098 55.551V58.091C53.4098 58.3577 53.4632 58.5543 53.5698 58.681C53.6765 58.8077 53.8498 58.871 54.0898 58.871H54.4898C54.5298 58.871 54.5632 58.8843 54.5898 58.911C54.6165 58.9443 54.6298 58.981 54.6298 59.021V60.161C54.6298 60.2477 54.5832 60.2977 54.4898 60.311C54.1498 60.331 53.9098 60.341 53.7698 60.341C53.1032 60.341 52.6065 60.231 52.2798 60.011C51.9532 59.791 51.7865 59.3743 51.7798 58.761V55.551C51.7798 55.511 51.7598 55.491 51.7198 55.491H51.0298C50.9898 55.491 50.9565 55.4777 50.9298 55.451C50.9032 55.4177 50.8898 55.381 50.8898 55.341V54.281C50.8898 54.241 50.9032 54.2043 50.9298 54.171C50.9565 54.1443 50.9898 54.131 51.0298 54.131H51.7198C51.7598 54.131 51.7798 54.111 51.7798 54.071V52.641C51.7798 52.601 51.7932 52.5677 51.8198 52.541C51.8465 52.5143 51.8798 52.501 51.9198 52.501H53.2598C53.2998 52.501 53.3365 52.5143 53.3698 52.541C53.3965 52.5677 53.4098 52.601 53.4098 52.641V54.071C53.4098 54.111 53.4298 54.131 53.4698 54.131H54.6198C54.6598 54.131 54.6932 54.1443 54.7198 54.171C54.7465 54.2043 54.7598 54.241 54.7598 54.281V55.341ZM56.6998 53.441C56.4265 53.441 56.1998 53.351 56.0198 53.171C55.8398 52.991 55.7498 52.7643 55.7498 52.491C55.7498 52.211 55.8365 51.981 56.0098 51.801C56.1898 51.6277 56.4198 51.541 56.6998 51.541C56.9798 51.541 57.2065 51.6277 57.3798 51.801C57.5532 51.981 57.6398 52.211 57.6398 52.491C57.6398 52.7643 57.5498 52.991 57.3698 53.171C57.1898 53.351 56.9665 53.441 56.6998 53.441ZM55.9798 60.301C55.9398 60.301 55.9032 60.2877 55.8698 60.261C55.8432 60.2343 55.8298 60.201 55.8298 60.161V54.261C55.8298 54.221 55.8432 54.1877 55.8698 54.161C55.9032 54.1343 55.9398 54.121 55.9798 54.121H57.3798C57.4198 54.121 57.4532 54.1343 57.4798 54.161C57.5065 54.1877 57.5198 54.221 57.5198 54.261V60.161C57.5198 60.201 57.5065 60.2343 57.4798 60.261C57.4532 60.2877 57.4198 60.301 57.3798 60.301H55.9798ZM61.5698 60.401C60.8965 60.401 60.3198 60.2243 59.8398 59.871C59.3598 59.5177 59.0332 59.0377 58.8598 58.431C58.7465 58.051 58.6898 57.641 58.6898 57.201C58.6898 56.7343 58.7465 56.311 58.8598 55.931C59.0398 55.3377 59.3698 54.8743 59.8498 54.541C60.3298 54.2077 60.9065 54.041 61.5798 54.041C62.2332 54.041 62.7932 54.2043 63.2598 54.531C63.7265 54.8643 64.0532 55.3277 64.2398 55.921C64.3732 56.321 64.4398 56.741 64.4398 57.181C64.4398 57.6143 64.3832 58.0177 64.2698 58.391C64.0898 59.0177 63.7632 59.5077 63.2898 59.861C62.8165 60.221 62.2432 60.401 61.5698 60.401ZM61.5698 58.941C61.8298 58.941 62.0532 58.861 62.2398 58.701C62.4265 58.541 62.5598 58.321 62.6398 58.041C62.6998 57.7877 62.7298 57.5077 62.7298 57.201C62.7298 56.8677 62.6998 56.5843 62.6398 56.351C62.5465 56.0777 62.4098 55.8677 62.2298 55.721C62.0432 55.5677 61.8198 55.491 61.5598 55.491C61.2865 55.491 61.0598 55.5677 60.8798 55.721C60.6998 55.8677 60.5698 56.0777 60.4898 56.351C60.4232 56.5443 60.3898 56.8277 60.3898 57.201C60.3898 57.561 60.4198 57.841 60.4798 58.041C60.5598 58.321 60.6932 58.541 60.8798 58.701C61.0665 58.861 61.2965 58.941 61.5698 58.941ZM68.7398 54.041C69.3798 54.041 69.8965 54.2343 70.2898 54.621C70.6832 55.0143 70.8798 55.5477 70.8798 56.221V60.161C70.8798 60.201 70.8665 60.2343 70.8398 60.261C70.8132 60.2877 70.7798 60.301 70.7398 60.301H69.3298C69.2898 60.301 69.2565 60.2877 69.2298 60.261C69.2032 60.2343 69.1898 60.201 69.1898 60.161V56.571C69.1898 56.251 69.0998 55.991 68.9198 55.791C68.7398 55.591 68.4998 55.491 68.1998 55.491C67.9065 55.491 67.6698 55.591 67.4898 55.791C67.3098 55.991 67.2198 56.251 67.2198 56.571V60.161C67.2198 60.201 67.2065 60.2343 67.1798 60.261C67.1532 60.2877 67.1198 60.301 67.0798 60.301H65.6698C65.6298 60.301 65.5965 60.2877 65.5698 60.261C65.5432 60.2343 65.5298 60.201 65.5298 60.161V54.281C65.5298 54.241 65.5432 54.2043 65.5698 54.171C65.5965 54.1443 65.6298 54.131 65.6698 54.131H67.0798C67.1198 54.131 67.1532 54.1443 67.1798 54.171C67.2065 54.2043 67.2198 54.241 67.2198 54.281V54.701C67.2198 54.721 67.2265 54.7343 67.2398 54.741C67.2598 54.7543 67.2732 54.751 67.2798 54.731C67.6065 54.271 68.0932 54.041 68.7398 54.041ZM17.5598 40.041C17.5598 40.001 17.5732 39.9677 17.5998 39.941C17.6265 39.9143 17.6598 39.901 17.6998 39.901H19.0998C19.1398 39.901 19.1765 39.9143 19.2098 39.941C19.2365 39.9677 19.2498 40.001 19.2498 40.041V48.161C19.2498 48.201 19.2365 48.2343 19.2098 48.261C19.1765 48.2877 19.1398 48.301 19.0998 48.301H17.6998C17.6598 48.301 17.6265 48.2877 17.5998 48.261C17.5732 48.2343 17.5598 48.201 17.5598 48.161V44.841C17.5598 44.801 17.5398 44.781 17.4998 44.781H14.8398C14.7998 44.781 14.7798 44.801 14.7798 44.841V48.161C14.7798 48.201 14.7665 48.2343 14.7398 48.261C14.7132 48.2877 14.6798 48.301 14.6398 48.301H13.2398C13.1998 48.301 13.1632 48.2877 13.1298 48.261C13.1032 48.2343 13.0898 48.201 13.0898 48.161V40.041C13.0898 40.001 13.1032 39.9677 13.1298 39.941C13.1632 39.9143 13.1998 39.901 13.2398 39.901H14.6398C14.6798 39.901 14.7132 39.9143 14.7398 39.941C14.7665 39.9677 14.7798 40.001 14.7798 40.041V43.271C14.7798 43.311 14.7998 43.331 14.8398 43.331H17.4998C17.5398 43.331 17.5598 43.311 17.5598 43.271V40.041ZM21.4298 41.441C21.1565 41.441 20.9298 41.351 20.7498 41.171C20.5698 40.991 20.4798 40.7643 20.4798 40.491C20.4798 40.211 20.5698 39.981 20.7498 39.801C20.9232 39.6277 21.1498 39.541 21.4298 39.541C21.7098 39.541 21.9398 39.6277 22.1198 39.801C22.2932 39.981 22.3798 40.211 22.3798 40.491C22.3798 40.7643 22.2898 40.991 22.1098 41.171C21.9298 41.351 21.7032 41.441 21.4298 41.441ZM20.7098 48.301C20.6698 48.301 20.6365 48.2877 20.6098 48.261C20.5832 48.2343 20.5698 48.201 20.5698 48.161V42.261C20.5698 42.221 20.5832 42.1877 20.6098 42.161C20.6365 42.1343 20.6698 42.121 20.7098 42.121H22.1198C22.1598 42.121 22.1932 42.1343 22.2198 42.161C22.2465 42.1877 22.2598 42.221 22.2598 42.261V48.161C22.2598 48.201 22.2465 48.2343 22.2198 48.261C22.1932 48.2877 22.1598 48.301 22.1198 48.301H20.7098ZM27.3498 42.281C27.3498 42.241 27.3632 42.2043 27.3898 42.171C27.4165 42.1443 27.4498 42.131 27.4898 42.131H28.8998C28.9398 42.131 28.9732 42.1443 28.9998 42.171C29.0265 42.2043 29.0398 42.241 29.0398 42.281V47.751C29.0398 48.7977 28.7365 49.5443 28.1298 49.991C27.5298 50.4377 26.7532 50.661 25.7998 50.661C25.5198 50.661 25.2065 50.641 24.8598 50.601C24.7798 50.5943 24.7398 50.5443 24.7398 50.451L24.7898 49.211C24.7898 49.111 24.8465 49.0677 24.9598 49.081C25.2465 49.1277 25.5098 49.151 25.7498 49.151C26.2632 49.151 26.6565 49.041 26.9298 48.821C27.2098 48.5943 27.3498 48.2343 27.3498 47.741C27.3498 47.7143 27.3398 47.6977 27.3198 47.691C27.3065 47.691 27.2932 47.6977 27.2798 47.711C26.9732 48.0377 26.5265 48.201 25.9398 48.201C25.4198 48.201 24.9432 48.0777 24.5098 47.831C24.0765 47.5777 23.7665 47.171 23.5798 46.611C23.4598 46.2443 23.3998 45.7677 23.3998 45.181C23.3998 44.5543 23.4732 44.0477 23.6198 43.661C23.7865 43.1677 24.0698 42.7743 24.4698 42.481C24.8698 42.1877 25.3332 42.041 25.8598 42.041C26.4732 42.041 26.9465 42.2243 27.2798 42.591C27.2932 42.6043 27.3065 42.611 27.3198 42.611C27.3398 42.6043 27.3498 42.5877 27.3498 42.561V42.281ZM27.2498 46.151C27.3165 45.911 27.3498 45.5843 27.3498 45.171C27.3498 44.9243 27.3398 44.731 27.3198 44.591C27.3065 44.4577 27.2798 44.331 27.2398 44.211C27.1665 43.991 27.0465 43.8177 26.8798 43.691C26.7132 43.5577 26.5065 43.491 26.2598 43.491C26.0198 43.491 25.8132 43.5577 25.6398 43.691C25.4732 43.8177 25.3498 43.991 25.2698 44.211C25.1565 44.451 25.0998 44.7743 25.0998 45.181C25.0998 45.6277 25.1498 45.9477 25.2498 46.141C25.3232 46.3543 25.4498 46.5277 25.6298 46.661C25.8098 46.7943 26.0232 46.861 26.2698 46.861C26.5232 46.861 26.7332 46.7943 26.8998 46.661C27.0732 46.5277 27.1898 46.3577 27.2498 46.151ZM33.4698 42.041C34.1098 42.041 34.6265 42.2343 35.0198 42.621C35.4065 43.0143 35.5998 43.5477 35.5998 44.221V48.161C35.5998 48.201 35.5865 48.2343 35.5598 48.261C35.5332 48.2877 35.4998 48.301 35.4598 48.301H34.0598C34.0198 48.301 33.9832 48.2877 33.9498 48.261C33.9232 48.2343 33.9098 48.201 33.9098 48.161V44.571C33.9098 44.251 33.8198 43.991 33.6398 43.791C33.4598 43.591 33.2232 43.491 32.9298 43.491C32.6298 43.491 32.3898 43.591 32.2098 43.791C32.0298 43.991 31.9398 44.251 31.9398 44.571V48.161C31.9398 48.201 31.9265 48.2343 31.8998 48.261C31.8732 48.2877 31.8398 48.301 31.7998 48.301H30.3998C30.3598 48.301 30.3232 48.2877 30.2898 48.261C30.2632 48.2343 30.2498 48.201 30.2498 48.161V40.041C30.2498 40.001 30.2632 39.9677 30.2898 39.941C30.3232 39.9143 30.3598 39.901 30.3998 39.901H31.7998C31.8398 39.901 31.8732 39.9143 31.8998 39.941C31.9265 39.9677 31.9398 40.001 31.9398 40.041V42.701C31.9398 42.721 31.9498 42.7343 31.9698 42.741C31.9832 42.7543 31.9932 42.751 31.9998 42.731C32.3332 42.271 32.8232 42.041 33.4698 42.041ZM42.2398 44.581C42.2865 44.8877 42.3032 45.2277 42.2898 45.601C42.2832 45.6943 42.2298 45.741 42.1298 45.741H38.4198C38.3732 45.741 38.3598 45.761 38.3798 45.801C38.3998 45.961 38.4432 46.121 38.5098 46.281C38.7165 46.7343 39.1398 46.961 39.7798 46.961C40.2932 46.9477 40.6965 46.7377 40.9898 46.331C41.0232 46.2843 41.0598 46.261 41.0998 46.261C41.1265 46.261 41.1532 46.2777 41.1798 46.311L42.0498 47.161C42.0898 47.201 42.1098 47.2377 42.1098 47.271C42.1098 47.2843 42.0932 47.3143 42.0598 47.361C41.7932 47.6943 41.4532 47.951 41.0398 48.131C40.6265 48.311 40.1698 48.401 39.6698 48.401C38.9832 48.401 38.4032 48.2443 37.9298 47.931C37.4498 47.6177 37.1065 47.181 36.8998 46.621C36.7332 46.221 36.6498 45.6977 36.6498 45.051C36.6498 44.611 36.7098 44.221 36.8298 43.881C37.0098 43.3143 37.3298 42.8643 37.7898 42.531C38.2498 42.191 38.7965 42.021 39.4298 42.021C40.2298 42.021 40.8732 42.2543 41.3598 42.721C41.8398 43.1877 42.1332 43.8077 42.2398 44.581ZM39.4398 43.491C38.9398 43.491 38.6098 43.7277 38.4498 44.201C38.4165 44.301 38.3865 44.4277 38.3598 44.581C38.3598 44.621 38.3798 44.641 38.4198 44.641H40.4998C40.5465 44.641 40.5632 44.621 40.5498 44.581C40.5098 44.3477 40.4898 44.2343 40.4898 44.241C40.4165 44.001 40.2898 43.8177 40.1098 43.691C39.9298 43.5577 39.7065 43.491 39.4398 43.491ZM45.7098 48.381C45.1698 48.381 44.6998 48.3077 44.2998 48.161C43.8998 48.0077 43.5898 47.7943 43.3698 47.521C43.1498 47.2477 43.0398 46.941 43.0398 46.601V46.481C43.0398 46.441 43.0565 46.4043 43.0898 46.371C43.1165 46.3443 43.1498 46.331 43.1898 46.331H44.5198C44.5598 46.331 44.5932 46.3443 44.6198 46.371C44.6465 46.4043 44.6598 46.441 44.6598 46.481V46.491C44.6598 46.6643 44.7598 46.8143 44.9598 46.941C45.1532 47.061 45.3998 47.121 45.6998 47.121C45.9665 47.121 46.1865 47.0677 46.3598 46.961C46.5265 46.8543 46.6098 46.721 46.6098 46.561C46.6098 46.4143 46.5365 46.3077 46.3898 46.241C46.2498 46.1677 46.0132 46.091 45.6798 46.011C45.3065 45.911 45.0132 45.8177 44.7998 45.731C44.2865 45.5577 43.8765 45.341 43.5698 45.081C43.2698 44.8277 43.1198 44.461 43.1198 43.981C43.1198 43.3877 43.3498 42.9177 43.8098 42.571C44.2698 42.2243 44.8798 42.051 45.6398 42.051C46.1465 42.051 46.5932 42.131 46.9798 42.291C47.3665 42.4577 47.6632 42.6877 47.8698 42.981C48.0832 43.281 48.1898 43.6177 48.1898 43.991C48.1898 44.031 48.1765 44.0643 48.1498 44.091C48.1232 44.1243 48.0898 44.141 48.0498 44.141H46.7598C46.7198 44.141 46.6865 44.1243 46.6598 44.091C46.6332 44.0643 46.6198 44.031 46.6198 43.991C46.6198 43.8177 46.5298 43.671 46.3498 43.551C46.1698 43.431 45.9332 43.371 45.6398 43.371C45.3732 43.371 45.1565 43.4177 44.9898 43.511C44.8232 43.611 44.7398 43.7443 44.7398 43.911C44.7398 44.071 44.8198 44.191 44.9798 44.271C45.1465 44.351 45.4198 44.4343 45.7998 44.521C45.8932 44.5477 45.9932 44.5743 46.0998 44.601C46.2132 44.6277 46.3332 44.661 46.4598 44.701C47.0332 44.8677 47.4832 45.0843 47.8098 45.351C48.1365 45.611 48.2998 45.9943 48.2998 46.501C48.2998 47.0943 48.0665 47.5577 47.5998 47.891C47.1332 48.2177 46.5032 48.381 45.7098 48.381ZM52.7998 43.341C52.7998 43.381 52.7865 43.4177 52.7598 43.451C52.7332 43.4777 52.6998 43.491 52.6598 43.491H51.4998C51.4598 43.491 51.4398 43.511 51.4398 43.551V46.091C51.4398 46.3577 51.4965 46.5543 51.6098 46.681C51.7165 46.8077 51.8898 46.871 52.1298 46.871H52.5198C52.5598 46.871 52.5965 46.8843 52.6298 46.911C52.6565 46.9443 52.6698 46.981 52.6698 47.021V48.161C52.6698 48.2477 52.6198 48.2977 52.5198 48.311C52.1865 48.331 51.9465 48.341 51.7998 48.341C51.1398 48.341 50.6465 48.231 50.3198 48.011C49.9865 47.791 49.8165 47.3743 49.8098 46.761V43.551C49.8098 43.511 49.7898 43.491 49.7498 43.491H49.0698C49.0298 43.491 48.9965 43.4777 48.9698 43.451C48.9365 43.4177 48.9198 43.381 48.9198 43.341V42.281C48.9198 42.241 48.9365 42.2043 48.9698 42.171C48.9965 42.1443 49.0298 42.131 49.0698 42.131H49.7498C49.7898 42.131 49.8098 42.111 49.8098 42.071V40.641C49.8098 40.601 49.8232 40.5677 49.8498 40.541C49.8832 40.5143 49.9198 40.501 49.9598 40.501H51.2998C51.3398 40.501 51.3732 40.5143 51.3998 40.541C51.4265 40.5677 51.4398 40.601 51.4398 40.641V42.071C51.4398 42.111 51.4598 42.131 51.4998 42.131H52.6598C52.6998 42.131 52.7332 42.1443 52.7598 42.171C52.7865 42.2043 52.7998 42.241 52.7998 42.281V43.341ZM59.3798 48.401C58.7598 48.401 58.2165 48.281 57.7498 48.041C57.2832 47.801 56.9198 47.461 56.6598 47.021C56.3998 46.5877 56.2698 46.0877 56.2698 45.521V40.041C56.2698 40.001 56.2832 39.9677 56.3098 39.941C56.3365 39.9143 56.3698 39.901 56.4098 39.901H57.8198C57.8598 39.901 57.8932 39.9143 57.9198 39.941C57.9465 39.9677 57.9598 40.001 57.9598 40.041V45.531C57.9598 45.951 58.0898 46.291 58.3498 46.551C58.6098 46.811 58.9532 46.941 59.3798 46.941C59.7998 46.941 60.1398 46.811 60.3998 46.551C60.6598 46.291 60.7898 45.951 60.7898 45.531V40.041C60.7898 40.001 60.8032 39.9677 60.8298 39.941C60.8632 39.9143 60.8998 39.901 60.9398 39.901H62.3398C62.3798 39.901 62.4132 39.9143 62.4398 39.941C62.4665 39.9677 62.4798 40.001 62.4798 40.041V45.521C62.4798 46.0877 62.3498 46.5877 62.0898 47.021C61.8298 47.461 61.4665 47.801 60.9998 48.041C60.5332 48.281 59.9932 48.401 59.3798 48.401ZM66.2298 48.381C65.6898 48.381 65.2198 48.3077 64.8198 48.161C64.4198 48.0077 64.1098 47.7943 63.8898 47.521C63.6698 47.2477 63.5598 46.941 63.5598 46.601V46.481C63.5598 46.441 63.5765 46.4043 63.6098 46.371C63.6365 46.3443 63.6698 46.331 63.7098 46.331H65.0398C65.0798 46.331 65.1132 46.3443 65.1398 46.371C65.1665 46.4043 65.1798 46.441 65.1798 46.481V46.491C65.1798 46.6643 65.2798 46.8143 65.4798 46.941C65.6732 47.061 65.9198 47.121 66.2198 47.121C66.4865 47.121 66.7065 47.0677 66.8798 46.961C67.0465 46.8543 67.1298 46.721 67.1298 46.561C67.1298 46.4143 67.0565 46.3077 66.9098 46.241C66.7698 46.1677 66.5332 46.091 66.1998 46.011C65.8265 45.911 65.5332 45.8177 65.3198 45.731C64.8065 45.5577 64.3965 45.341 64.0898 45.081C63.7898 44.8277 63.6398 44.461 63.6398 43.981C63.6398 43.3877 63.8698 42.9177 64.3298 42.571C64.7898 42.2243 65.3998 42.051 66.1598 42.051C66.6665 42.051 67.1132 42.131 67.4998 42.291C67.8865 42.4577 68.1832 42.6877 68.3898 42.981C68.6032 43.281 68.7098 43.6177 68.7098 43.991C68.7098 44.031 68.6965 44.0643 68.6698 44.091C68.6432 44.1243 68.6098 44.141 68.5698 44.141H67.2798C67.2398 44.141 67.2065 44.1243 67.1798 44.091C67.1532 44.0643 67.1398 44.031 67.1398 43.991C67.1398 43.8177 67.0498 43.671 66.8698 43.551C66.6898 43.431 66.4532 43.371 66.1598 43.371C65.8932 43.371 65.6765 43.4177 65.5098 43.511C65.3432 43.611 65.2598 43.7443 65.2598 43.911C65.2598 44.071 65.3398 44.191 65.4998 44.271C65.6665 44.351 65.9398 44.4343 66.3198 44.521C66.4132 44.5477 66.5132 44.5743 66.6198 44.601C66.7332 44.6277 66.8532 44.661 66.9798 44.701C67.5532 44.8677 68.0032 45.0843 68.3298 45.351C68.6565 45.611 68.8198 45.9943 68.8198 46.501C68.8198 47.0943 68.5865 47.5577 68.1198 47.891C67.6532 48.2177 67.0232 48.381 66.2298 48.381ZM75.2498 44.581C75.2965 44.8877 75.3132 45.2277 75.2998 45.601C75.2932 45.6943 75.2398 45.741 75.1398 45.741H71.4398C71.3865 45.741 71.3698 45.761 71.3898 45.801C71.4098 45.961 71.4532 46.121 71.5198 46.281C71.7265 46.7343 72.1498 46.961 72.7898 46.961C73.3032 46.9477 73.7065 46.7377 73.9998 46.331C74.0332 46.2843 74.0698 46.261 74.1098 46.261C74.1365 46.261 74.1665 46.2777 74.1998 46.311L75.0598 47.161C75.0998 47.201 75.1198 47.2377 75.1198 47.271C75.1198 47.2843 75.1032 47.3143 75.0698 47.361C74.8098 47.6943 74.4698 47.951 74.0498 48.131C73.6365 48.311 73.1798 48.401 72.6798 48.401C71.9932 48.401 71.4132 48.2443 70.9398 47.931C70.4598 47.6177 70.1165 47.181 69.9098 46.621C69.7432 46.221 69.6598 45.6977 69.6598 45.051C69.6598 44.611 69.7198 44.221 69.8398 43.881C70.0265 43.3143 70.3498 42.8643 70.8098 42.531C71.2698 42.191 71.8132 42.021 72.4398 42.021C73.2398 42.021 73.8832 42.2543 74.3698 42.721C74.8565 43.1877 75.1498 43.8077 75.2498 44.581ZM72.4598 43.491C71.9532 43.491 71.6198 43.7277 71.4598 44.201C71.4265 44.301 71.3998 44.4277 71.3798 44.581C71.3798 44.621 71.3998 44.641 71.4398 44.641H73.5098C73.5565 44.641 73.5732 44.621 73.5598 44.581C73.5198 44.3477 73.4998 44.2343 73.4998 44.241C73.4265 44.001 73.2998 43.8177 73.1198 43.691C72.9398 43.5577 72.7198 43.491 72.4598 43.491ZM79.4198 42.051C79.7065 42.051 79.9332 42.1077 80.0998 42.221C80.1665 42.2477 80.1898 42.3077 80.1698 42.401L79.9198 43.761C79.9132 43.861 79.8565 43.891 79.7498 43.851C79.6298 43.811 79.4898 43.791 79.3298 43.791C79.2698 43.791 79.1832 43.7977 79.0698 43.811C78.7832 43.8377 78.5398 43.9443 78.3398 44.131C78.1398 44.3177 78.0398 44.5677 78.0398 44.881V48.161C78.0398 48.201 78.0232 48.2343 77.9898 48.261C77.9632 48.2877 77.9298 48.301 77.8898 48.301H76.4898C76.4498 48.301 76.4165 48.2877 76.3898 48.261C76.3565 48.2343 76.3398 48.201 76.3398 48.161V42.281C76.3398 42.241 76.3565 42.2043 76.3898 42.171C76.4165 42.1443 76.4498 42.131 76.4898 42.131H77.8898C77.9298 42.131 77.9632 42.1443 77.9898 42.171C78.0232 42.2043 78.0398 42.241 78.0398 42.281V42.731C78.0398 42.7577 78.0465 42.7743 78.0598 42.781C78.0732 42.7877 78.0865 42.7843 78.0998 42.771C78.4265 42.291 78.8665 42.051 79.4198 42.051Z" fill="#252530"/>
<path d="M28.74 69.5807C28.74 69.614 28.73 69.6407 28.71 69.6607C28.6833 69.6874 28.6533 69.7007 28.62 69.7007H25.21C25.1767 69.7007 25.16 69.7174 25.16 69.7507V71.6207C25.16 71.654 25.1767 71.6707 25.21 71.6707H27.5C27.5333 71.6707 27.5633 71.6807 27.59 71.7007C27.61 71.7274 27.62 71.7574 27.62 71.7907V72.5507C27.62 72.584 27.61 72.614 27.59 72.6407C27.5633 72.6607 27.5333 72.6707 27.5 72.6707H25.21C25.1767 72.6707 25.16 72.6874 25.16 72.7207V74.6507C25.16 74.684 25.1767 74.7007 25.21 74.7007H28.62C28.6533 74.7007 28.6833 74.714 28.71 74.7407C28.73 74.7607 28.74 74.7874 28.74 74.8207V75.5807C28.74 75.614 28.73 75.6407 28.71 75.6607C28.6833 75.6874 28.6533 75.7007 28.62 75.7007H24.12C24.0867 75.7007 24.06 75.6874 24.04 75.6607C24.0133 75.6407 24 75.614 24 75.5807V68.8207C24 68.7874 24.0133 68.7607 24.04 68.7407C24.06 68.714 24.0867 68.7007 24.12 68.7007H28.62C28.6533 68.7007 28.6833 68.714 28.71 68.7407C28.73 68.7607 28.74 68.7874 28.74 68.8207V69.5807ZM32.26 70.5107C32.8 70.5107 33.2333 70.6707 33.56 70.9907C33.88 71.3107 34.04 71.7474 34.04 72.3007V75.5807C34.04 75.614 34.0267 75.6407 34 75.6607C33.98 75.6874 33.9533 75.7007 33.92 75.7007H33C32.9667 75.7007 32.9367 75.6874 32.91 75.6607C32.89 75.6407 32.88 75.614 32.88 75.5807V72.5407C32.88 72.234 32.7933 71.984 32.62 71.7907C32.4467 71.604 32.2167 71.5107 31.93 71.5107C31.6433 71.5107 31.41 71.604 31.23 71.7907C31.0567 71.9774 30.97 72.224 30.97 72.5307V75.5807C30.97 75.614 30.96 75.6407 30.94 75.6607C30.9133 75.6874 30.8833 75.7007 30.85 75.7007H29.93C29.8967 75.7007 29.87 75.6874 29.85 75.6607C29.8233 75.6407 29.81 75.614 29.81 75.5807V70.7107C29.81 70.6774 29.8233 70.6474 29.85 70.6207C29.87 70.6007 29.8967 70.5907 29.93 70.5907H30.85C30.8833 70.5907 30.9133 70.6007 30.94 70.6207C30.96 70.6474 30.97 70.6774 30.97 70.7107V71.0307C30.97 71.0507 30.9767 71.064 30.99 71.0707C31.0033 71.0774 31.0133 71.0707 31.02 71.0507C31.2933 70.6907 31.7067 70.5107 32.26 70.5107ZM37.96 71.4107C37.96 71.444 37.9467 71.4707 37.92 71.4907C37.9 71.5174 37.8733 71.5307 37.84 71.5307H36.82C36.7867 71.5307 36.77 71.5474 36.77 71.5807V73.9907C36.77 74.244 36.8233 74.4274 36.93 74.5407C37.0433 74.654 37.22 74.7107 37.46 74.7107H37.76C37.7933 74.7107 37.82 74.7207 37.84 74.7407C37.8667 74.7674 37.88 74.7974 37.88 74.8307V75.5807C37.88 75.654 37.84 75.6974 37.76 75.7107L37.24 75.7207C36.7133 75.7207 36.32 75.6307 36.06 75.4507C35.8 75.2707 35.6667 74.9307 35.66 74.4307V71.5807C35.66 71.5474 35.6433 71.5307 35.61 71.5307H35.04C35.0067 71.5307 34.9767 71.5174 34.95 71.4907C34.93 71.4707 34.92 71.444 34.92 71.4107V70.7107C34.92 70.6774 34.93 70.6474 34.95 70.6207C34.9767 70.6007 35.0067 70.5907 35.04 70.5907H35.61C35.6433 70.5907 35.66 70.574 35.66 70.5407V69.3707C35.66 69.3374 35.67 69.3074 35.69 69.2807C35.7167 69.2607 35.7467 69.2507 35.78 69.2507H36.65C36.6833 69.2507 36.71 69.2607 36.73 69.2807C36.7567 69.3074 36.77 69.3374 36.77 69.3707V70.5407C36.77 70.574 36.7867 70.5907 36.82 70.5907H37.84C37.8733 70.5907 37.9 70.6007 37.92 70.6207C37.9467 70.6474 37.96 70.6774 37.96 70.7107V71.4107ZM43.2 72.5707C43.2267 72.7374 43.24 72.924 43.24 73.1307L43.23 73.4407C43.23 73.5207 43.19 73.5607 43.11 73.5607H39.98C39.9467 73.5607 39.93 73.5774 39.93 73.6107C39.95 73.8307 39.98 73.9807 40.02 74.0607C40.18 74.5407 40.57 74.784 41.19 74.7907C41.6433 74.7907 42.0033 74.604 42.27 74.2307C42.2967 74.1907 42.33 74.1707 42.37 74.1707C42.3967 74.1707 42.42 74.1807 42.44 74.2007L43.06 74.7107C43.12 74.7574 43.13 74.8107 43.09 74.8707C42.8833 75.164 42.61 75.3907 42.27 75.5507C41.9233 75.7107 41.54 75.7907 41.12 75.7907C40.6 75.7907 40.1567 75.674 39.79 75.4407C39.43 75.2074 39.1667 74.8807 39 74.4607C38.8467 74.1007 38.77 73.6007 38.77 72.9607C38.77 72.574 38.81 72.2607 38.89 72.0207C39.0233 71.554 39.2767 71.184 39.65 70.9107C40.0167 70.644 40.46 70.5107 40.98 70.5107C42.2933 70.5107 43.0333 71.1974 43.2 72.5707ZM40.98 71.5107C40.7333 71.5107 40.5267 71.574 40.36 71.7007C40.2 71.8207 40.0867 71.9907 40.02 72.2107C39.98 72.324 39.9533 72.4707 39.94 72.6507C39.9267 72.684 39.94 72.7007 39.98 72.7007H42.01C42.0433 72.7007 42.06 72.684 42.06 72.6507C42.0467 72.484 42.0267 72.3574 42 72.2707C41.94 72.0307 41.8233 71.844 41.65 71.7107C41.47 71.5774 41.2467 71.5107 40.98 71.5107ZM46.68 70.5307C46.8933 70.5307 47.08 70.574 47.24 70.6607C47.2933 70.6874 47.3133 70.7374 47.3 70.8107L47.13 71.7107C47.1233 71.7907 47.0767 71.814 46.99 71.7807C46.89 71.7474 46.7733 71.7307 46.64 71.7307C46.5533 71.7307 46.4867 71.734 46.44 71.7407C46.16 71.754 45.9267 71.8507 45.74 72.0307C45.5533 72.2174 45.46 72.4574 45.46 72.7507V75.5807C45.46 75.614 45.45 75.6407 45.43 75.6607C45.4033 75.6874 45.3733 75.7007 45.34 75.7007H44.42C44.3867 75.7007 44.36 75.6874 44.34 75.6607C44.3133 75.6407 44.3 75.614 44.3 75.5807V70.7107C44.3 70.6774 44.3133 70.6474 44.34 70.6207C44.36 70.6007 44.3867 70.5907 44.42 70.5907H45.34C45.3733 70.5907 45.4033 70.6007 45.43 70.6207C45.45 70.6474 45.46 70.6774 45.46 70.7107V71.1607C45.46 71.1874 45.4633 71.2007 45.47 71.2007C45.4833 71.2074 45.4967 71.2007 45.51 71.1807C45.79 70.7474 46.18 70.5307 46.68 70.5307ZM52.39 71.9107C52.51 72.2507 52.57 72.6674 52.57 73.1607C52.57 73.634 52.5133 74.0407 52.4 74.3807C52.2533 74.8207 52.02 75.164 51.7 75.4107C51.3733 75.6574 50.9633 75.7807 50.47 75.7807C49.9967 75.7807 49.6167 75.6107 49.33 75.2707C49.3167 75.2574 49.3033 75.254 49.29 75.2607C49.2767 75.2674 49.27 75.2807 49.27 75.3007V77.4707C49.27 77.504 49.26 77.5307 49.24 77.5507C49.2133 77.5774 49.1833 77.5907 49.15 77.5907H48.23C48.1967 77.5907 48.17 77.5774 48.15 77.5507C48.1233 77.5307 48.11 77.504 48.11 77.4707V70.7107C48.11 70.6774 48.1233 70.6474 48.15 70.6207C48.17 70.6007 48.1967 70.5907 48.23 70.5907H49.15C49.1833 70.5907 49.2133 70.6007 49.24 70.6207C49.26 70.6474 49.27 70.6774 49.27 70.7107V71.0107C49.27 71.0307 49.2767 71.044 49.29 71.0507C49.3033 71.0574 49.3167 71.0507 49.33 71.0307C49.6233 70.684 50.0067 70.5107 50.48 70.5107C50.9533 70.5107 51.3533 70.634 51.68 70.8807C52.0067 71.1274 52.2433 71.4707 52.39 71.9107ZM51.09 74.3607C51.29 74.054 51.39 73.6474 51.39 73.1407C51.39 72.654 51.31 72.2707 51.15 71.9907C50.9633 71.664 50.68 71.5007 50.3 71.5007C49.9533 71.5007 49.6933 71.6607 49.52 71.9807C49.3667 72.2407 49.29 72.6274 49.29 73.1407C49.29 73.6674 49.3733 74.0674 49.54 74.3407C49.7133 74.634 49.9633 74.7807 50.29 74.7807C50.6433 74.7807 50.91 74.6407 51.09 74.3607ZM56.07 70.5307C56.2833 70.5307 56.47 70.574 56.63 70.6607C56.6833 70.6874 56.7033 70.7374 56.69 70.8107L56.52 71.7107C56.5133 71.7907 56.4667 71.814 56.38 71.7807C56.28 71.7474 56.1633 71.7307 56.03 71.7307C55.9433 71.7307 55.8767 71.734 55.83 71.7407C55.55 71.754 55.3167 71.8507 55.13 72.0307C54.9433 72.2174 54.85 72.4574 54.85 72.7507V75.5807C54.85 75.614 54.84 75.6407 54.82 75.6607C54.7933 75.6874 54.7633 75.7007 54.73 75.7007H53.81C53.7767 75.7007 53.75 75.6874 53.73 75.6607C53.7033 75.6407 53.69 75.614 53.69 75.5807V70.7107C53.69 70.6774 53.7033 70.6474 53.73 70.6207C53.75 70.6007 53.7767 70.5907 53.81 70.5907H54.73C54.7633 70.5907 54.7933 70.6007 54.82 70.6207C54.84 70.6474 54.85 70.6774 54.85 70.7107V71.1607C54.85 71.1874 54.8533 71.2007 54.86 71.2007C54.8733 71.2074 54.8867 71.2007 54.9 71.1807C55.18 70.7474 55.57 70.5307 56.07 70.5307ZM58.11 69.8907C57.9033 69.8907 57.7333 69.824 57.6 69.6907C57.4667 69.5574 57.4 69.3874 57.4 69.1807C57.4 68.974 57.4667 68.804 57.6 68.6707C57.7333 68.5374 57.9033 68.4707 58.11 68.4707C58.3167 68.4707 58.4867 68.5374 58.62 68.6707C58.7533 68.804 58.82 68.974 58.82 69.1807C58.82 69.3874 58.7533 69.5574 58.62 69.6907C58.4867 69.824 58.3167 69.8907 58.11 69.8907ZM57.63 75.7007C57.5967 75.7007 57.57 75.6874 57.55 75.6607C57.5233 75.6407 57.51 75.614 57.51 75.5807V70.7007C57.51 70.6674 57.5233 70.6407 57.55 70.6207C57.57 70.594 57.5967 70.5807 57.63 70.5807H58.55C58.5833 70.5807 58.6133 70.594 58.64 70.6207C58.66 70.6407 58.67 70.6674 58.67 70.7007V75.5807C58.67 75.614 58.66 75.6407 58.64 75.6607C58.6133 75.6874 58.5833 75.7007 58.55 75.7007H57.63ZM61.9 75.7607C61.48 75.7607 61.11 75.6974 60.79 75.5707C60.4767 75.4507 60.2333 75.2807 60.06 75.0607C59.8867 74.8474 59.8 74.6074 59.8 74.3407V74.2507C59.8 74.2174 59.81 74.1874 59.83 74.1607C59.8567 74.1407 59.8867 74.1307 59.92 74.1307H60.8C60.8333 74.1307 60.8633 74.1407 60.89 74.1607C60.91 74.1874 60.92 74.2174 60.92 74.2507V74.2707C60.92 74.4374 61.01 74.584 61.19 74.7107C61.3767 74.8307 61.61 74.8907 61.89 74.8907C62.1567 74.8907 62.3733 74.8374 62.54 74.7307C62.7067 74.6174 62.79 74.4774 62.79 74.3107C62.79 74.1574 62.72 74.0407 62.58 73.9607C62.4467 73.8874 62.2267 73.8074 61.92 73.7207L61.54 73.6007C61.2 73.5007 60.9133 73.394 60.68 73.2807C60.4467 73.1674 60.25 73.0107 60.09 72.8107C59.93 72.6174 59.85 72.3674 59.85 72.0607C59.85 71.594 60.0333 71.224 60.4 70.9507C60.7667 70.6707 61.25 70.5307 61.85 70.5307C62.2567 70.5307 62.6133 70.594 62.92 70.7207C63.2267 70.854 63.4633 71.034 63.63 71.2607C63.7967 71.494 63.88 71.7574 63.88 72.0507C63.88 72.084 63.87 72.114 63.85 72.1407C63.8233 72.1607 63.7933 72.1707 63.76 72.1707H62.91C62.8767 72.1707 62.8467 72.1607 62.82 72.1407C62.8 72.114 62.79 72.084 62.79 72.0507C62.79 71.8774 62.7067 71.734 62.54 71.6207C62.3667 71.5007 62.1333 71.4407 61.84 71.4407C61.58 71.4407 61.37 71.4874 61.21 71.5807C61.0433 71.6807 60.96 71.8174 60.96 71.9907C60.96 72.1507 61.0367 72.2707 61.19 72.3507C61.35 72.4374 61.6133 72.5307 61.98 72.6307L62.2 72.6907C62.5533 72.7974 62.85 72.904 63.09 73.0107C63.33 73.124 63.5333 73.2774 63.7 73.4707C63.8667 73.6707 63.95 73.9274 63.95 74.2407C63.95 74.714 63.7633 75.084 63.39 75.3507C63.0167 75.624 62.52 75.7607 61.9 75.7607ZM69.24 72.5707C69.2667 72.7374 69.28 72.924 69.28 73.1307L69.27 73.4407C69.27 73.5207 69.23 73.5607 69.15 73.5607H66.02C65.9867 73.5607 65.97 73.5774 65.97 73.6107C65.99 73.8307 66.02 73.9807 66.06 74.0607C66.22 74.5407 66.61 74.784 67.23 74.7907C67.6833 74.7907 68.0433 74.604 68.31 74.2307C68.3367 74.1907 68.37 74.1707 68.41 74.1707C68.4367 74.1707 68.46 74.1807 68.48 74.2007L69.1 74.7107C69.16 74.7574 69.17 74.8107 69.13 74.8707C68.9233 75.164 68.6467 75.3907 68.3 75.5507C67.96 75.7107 67.58 75.7907 67.16 75.7907C66.64 75.7907 66.1967 75.674 65.83 75.4407C65.47 75.2074 65.2067 74.8807 65.04 74.4607C64.8867 74.1007 64.81 73.6007 64.81 72.9607C64.81 72.574 64.85 72.2607 64.93 72.0207C65.0633 71.554 65.3133 71.184 65.68 70.9107C66.0533 70.644 66.5 70.5107 67.02 70.5107C68.3333 70.5107 69.0733 71.1974 69.24 72.5707ZM67.02 71.5107C66.7733 71.5107 66.5667 71.574 66.4 71.7007C66.24 71.8207 66.1267 71.9907 66.06 72.2107C66.02 72.324 65.9933 72.4707 65.98 72.6507C65.9667 72.684 65.98 72.7007 66.02 72.7007H68.05C68.0833 72.7007 68.1 72.684 68.1 72.6507C68.0867 72.484 68.0667 72.3574 68.04 72.2707C67.98 72.0307 67.86 71.844 67.68 71.7107C67.5067 71.5774 67.2867 71.5107 67.02 71.5107Z" fill="white"/>
<path d="M33.15 89.8807C32.6167 89.8807 32.15 89.794 31.75 89.6207C31.35 89.454 31.0433 89.2107 30.83 88.8907C30.61 88.5774 30.5 88.2107 30.5 87.7907V87.5707C30.5 87.5374 30.5133 87.5107 30.54 87.4907C30.56 87.464 30.5867 87.4507 30.62 87.4507H31.76C31.7933 87.4507 31.8233 87.464 31.85 87.4907C31.87 87.5107 31.88 87.5374 31.88 87.5707V87.7207C31.88 87.9874 32.0033 88.2107 32.25 88.3907C32.4967 88.5774 32.83 88.6707 33.25 88.6707C33.6033 88.6707 33.8667 88.5974 34.04 88.4507C34.2133 88.2974 34.3 88.1107 34.3 87.8907C34.3 87.7307 34.2467 87.5974 34.14 87.4907C34.0333 87.3774 33.8867 87.2807 33.7 87.2007C33.52 87.114 33.23 86.9974 32.83 86.8507C32.3833 86.6974 32.0033 86.5407 31.69 86.3807C31.3833 86.2207 31.1267 86.0007 30.92 85.7207C30.7067 85.4474 30.6 85.1074 30.6 84.7007C30.6 84.3007 30.7033 83.9507 30.91 83.6507C31.1167 83.3507 31.4033 83.1207 31.77 82.9607C32.1367 82.8007 32.56 82.7207 33.04 82.7207C33.5467 82.7207 33.9967 82.8107 34.39 82.9907C34.79 83.1707 35.1033 83.424 35.33 83.7507C35.55 84.0707 35.66 84.444 35.66 84.8707V85.0207C35.66 85.054 35.65 85.0807 35.63 85.1007C35.6033 85.1274 35.5733 85.1407 35.54 85.1407H34.39C34.3567 85.1407 34.33 85.1274 34.31 85.1007C34.2833 85.0807 34.27 85.054 34.27 85.0207V84.9407C34.27 84.6607 34.1567 84.4207 33.93 84.2207C33.6967 84.0274 33.38 83.9307 32.98 83.9307C32.6667 83.9307 32.42 83.9974 32.24 84.1307C32.0667 84.264 31.98 84.4474 31.98 84.6807C31.98 84.8474 32.0333 84.9874 32.14 85.1007C32.24 85.214 32.3933 85.314 32.6 85.4007C32.8 85.494 33.1133 85.6174 33.54 85.7707C34.0133 85.944 34.3833 86.0974 34.65 86.2307C34.9233 86.364 35.17 86.5607 35.39 86.8207C35.6033 87.0874 35.71 87.4307 35.71 87.8507C35.71 88.4774 35.48 88.9707 35.02 89.3307C34.56 89.6974 33.9367 89.8807 33.15 89.8807ZM39.59 82.7907C40.03 82.7907 40.4167 82.8807 40.75 83.0607C41.0833 83.2407 41.3433 83.494 41.53 83.8207C41.71 84.154 41.8 84.534 41.8 84.9607C41.8 85.3807 41.7067 85.7507 41.52 86.0707C41.3267 86.3907 41.0567 86.6407 40.71 86.8207C40.37 86.994 39.9767 87.0807 39.53 87.0807H38.11C38.0767 87.0807 38.06 87.0974 38.06 87.1307V89.6807C38.06 89.714 38.0467 89.7407 38.02 89.7607C38 89.7874 37.9733 89.8007 37.94 89.8007H36.77C36.7367 89.8007 36.7067 89.7874 36.68 89.7607C36.66 89.7407 36.65 89.714 36.65 89.6807V82.9107C36.65 82.8774 36.66 82.8474 36.68 82.8207C36.7067 82.8007 36.7367 82.7907 36.77 82.7907H39.59ZM39.38 85.9507C39.6867 85.9507 39.9333 85.8607 40.12 85.6807C40.3067 85.5074 40.4 85.2774 40.4 84.9907C40.4 84.6974 40.3067 84.4607 40.12 84.2807C39.9333 84.1007 39.6867 84.0107 39.38 84.0107H38.11C38.0767 84.0107 38.06 84.0274 38.06 84.0607V85.9007C38.06 85.934 38.0767 85.9507 38.11 85.9507H39.38ZM46.51 89.8007C46.4433 89.8007 46.3967 89.7707 46.37 89.7107L45.12 86.9407C45.1067 86.914 45.0867 86.9007 45.06 86.9007H44.13C44.0967 86.9007 44.08 86.9174 44.08 86.9507V89.6807C44.08 89.714 44.0667 89.7407 44.04 89.7607C44.02 89.7874 43.9933 89.8007 43.96 89.8007H42.79C42.7567 89.8007 42.7267 89.7874 42.7 89.7607C42.68 89.7407 42.67 89.714 42.67 89.6807V82.9207C42.67 82.8874 42.68 82.8607 42.7 82.8407C42.7267 82.814 42.7567 82.8007 42.79 82.8007H45.65C46.0767 82.8007 46.45 82.8874 46.77 83.0607C47.0967 83.234 47.3467 83.4807 47.52 83.8007C47.7 84.1207 47.79 84.4907 47.79 84.9107C47.79 85.364 47.6767 85.7507 47.45 86.0707C47.2233 86.3974 46.9067 86.6274 46.5 86.7607C46.4667 86.774 46.4567 86.7974 46.47 86.8307L47.83 89.6607C47.8433 89.6874 47.85 89.7074 47.85 89.7207C47.85 89.774 47.8133 89.8007 47.74 89.8007H46.51ZM44.13 84.0107C44.0967 84.0107 44.08 84.0274 44.08 84.0607V85.7707C44.08 85.804 44.0967 85.8207 44.13 85.8207H45.44C45.72 85.8207 45.9467 85.7374 46.12 85.5707C46.3 85.404 46.39 85.1874 46.39 84.9207C46.39 84.654 46.3 84.434 46.12 84.2607C45.9467 84.094 45.72 84.0107 45.44 84.0107H44.13ZM48.93 89.8007C48.8967 89.8007 48.87 89.7874 48.85 89.7607C48.8233 89.7407 48.81 89.714 48.81 89.6807V82.9207C48.81 82.8874 48.8233 82.8607 48.85 82.8407C48.87 82.814 48.8967 82.8007 48.93 82.8007H50.1C50.1333 82.8007 50.1633 82.814 50.19 82.8407C50.21 82.8607 50.22 82.8874 50.22 82.9207V89.6807C50.22 89.714 50.21 89.7407 50.19 89.7607C50.1633 89.7874 50.1333 89.8007 50.1 89.8007H48.93ZM55.46 82.9207C55.46 82.8874 55.4733 82.8607 55.5 82.8407C55.52 82.814 55.5467 82.8007 55.58 82.8007H56.75C56.7833 82.8007 56.8133 82.814 56.84 82.8407C56.86 82.8607 56.87 82.8874 56.87 82.9207V89.6807C56.87 89.714 56.86 89.7407 56.84 89.7607C56.8133 89.7874 56.7833 89.8007 56.75 89.8007H55.62C55.5533 89.8007 55.5067 89.774 55.48 89.7207L52.89 85.4407C52.8767 85.4207 52.8633 85.414 52.85 85.4207C52.8367 85.4207 52.83 85.434 52.83 85.4607L52.85 89.6807C52.85 89.714 52.84 89.7407 52.82 89.7607C52.7933 89.7874 52.7633 89.8007 52.73 89.8007H51.56C51.5267 89.8007 51.5 89.7874 51.48 89.7607C51.4533 89.7407 51.44 89.714 51.44 89.6807V82.9207C51.44 82.8874 51.4533 82.8607 51.48 82.8407C51.5 82.814 51.5267 82.8007 51.56 82.8007H52.69C52.7567 82.8007 52.8033 82.8274 52.83 82.8807L55.41 87.1407C55.4233 87.1607 55.4367 87.1674 55.45 87.1607C55.4633 87.1607 55.47 87.1474 55.47 87.1207L55.46 82.9207ZM60.55 89.8807C60.0367 89.8807 59.5833 89.7774 59.19 89.5707C58.7967 89.364 58.4933 89.0774 58.28 88.7107C58.06 88.3374 57.95 87.9074 57.95 87.4207V85.1807C57.95 84.694 58.06 84.264 58.28 83.8907C58.4933 83.5174 58.7967 83.2274 59.19 83.0207C59.5833 82.8207 60.0367 82.7207 60.55 82.7207C61.0567 82.7207 61.5067 82.8207 61.9 83.0207C62.2867 83.2207 62.59 83.494 62.81 83.8407C63.0233 84.1807 63.13 84.5607 63.13 84.9807V85.0507C63.13 85.084 63.12 85.1107 63.1 85.1307C63.0733 85.1574 63.0433 85.1707 63.01 85.1707H61.84C61.8067 85.1707 61.78 85.1574 61.76 85.1307C61.7333 85.1107 61.72 85.084 61.72 85.0507V85.0207C61.72 84.714 61.6133 84.4574 61.4 84.2507C61.1867 84.0374 60.9033 83.9307 60.55 83.9307C60.19 83.9307 59.9033 84.0407 59.69 84.2607C59.47 84.4874 59.36 84.7807 59.36 85.1407V87.4607C59.36 87.8207 59.4767 88.1107 59.71 88.3307C59.9433 88.5574 60.24 88.6707 60.6 88.6707C60.9467 88.6707 61.2233 88.5774 61.43 88.3907C61.6367 88.2107 61.74 87.9574 61.74 87.6307V87.1807C61.74 87.1474 61.7233 87.1307 61.69 87.1307H60.57C60.5367 87.1307 60.51 87.1174 60.49 87.0907C60.4633 87.0707 60.45 87.044 60.45 87.0107V86.0907C60.45 86.0574 60.4633 86.0307 60.49 86.0107C60.51 85.984 60.5367 85.9707 60.57 85.9707H63.01C63.0433 85.9707 63.0733 85.984 63.1 86.0107C63.12 86.0307 63.13 86.0574 63.13 86.0907V87.4107C63.13 87.9174 63.0233 88.3574 62.81 88.7307C62.5967 89.104 62.2967 89.3907 61.91 89.5907C61.5167 89.784 61.0633 89.8807 60.55 89.8807ZM37.68 97.9307C37.6667 97.944 37.6633 97.9574 37.67 97.9707C37.6767 97.984 37.69 97.9907 37.71 97.9907H40.42C40.4533 97.9907 40.4833 98.0007 40.51 98.0207C40.53 98.0474 40.54 98.0774 40.54 98.1107V99.0807C40.54 99.114 40.53 99.1407 40.51 99.1607C40.4833 99.1874 40.4533 99.2007 40.42 99.2007H35.92C35.8867 99.2007 35.8567 99.1874 35.83 99.1607C35.81 99.1407 35.8 99.114 35.8 99.0807V98.1607C35.8 98.1007 35.82 98.0507 35.86 98.0107C36.1867 97.6907 36.52 97.344 36.86 96.9707C37.2 96.5907 37.4133 96.354 37.5 96.2607C37.6867 96.0407 37.8767 95.8307 38.07 95.6307C38.6767 94.9574 38.98 94.4574 38.98 94.1307C38.98 93.8974 38.8967 93.704 38.73 93.5507C38.5633 93.404 38.3467 93.3307 38.08 93.3307C37.8133 93.3307 37.5967 93.404 37.43 93.5507C37.2633 93.704 37.18 93.904 37.18 94.1507V94.4007C37.18 94.434 37.1667 94.464 37.14 94.4907C37.12 94.5107 37.0933 94.5207 37.06 94.5207H35.88C35.8467 94.5207 35.82 94.5107 35.8 94.4907C35.7733 94.464 35.76 94.434 35.76 94.4007V93.9307C35.78 93.5707 35.8933 93.2507 36.1 92.9707C36.3067 92.6974 36.58 92.4874 36.92 92.3407C37.2667 92.194 37.6533 92.1207 38.08 92.1207C38.5533 92.1207 38.9667 92.2074 39.32 92.3807C39.6667 92.5607 39.9367 92.8007 40.13 93.1007C40.3167 93.4007 40.41 93.734 40.41 94.1007C40.41 94.3807 40.34 94.6674 40.2 94.9607C40.06 95.254 39.85 95.5707 39.57 95.9107C39.3633 96.1707 39.14 96.4274 38.9 96.6807C38.66 96.934 38.3033 97.3007 37.83 97.7807L37.68 97.9307ZM43.79 99.3107C43.0567 99.3107 42.4767 99.104 42.05 98.6907C41.6233 98.284 41.41 97.7274 41.41 97.0207V94.3807C41.41 93.6874 41.6233 93.1374 42.05 92.7307C42.4767 92.324 43.0567 92.1207 43.79 92.1207C44.5233 92.1207 45.1067 92.324 45.54 92.7307C45.9667 93.1374 46.18 93.6874 46.18 94.3807V97.0207C46.18 97.7274 45.9667 98.284 45.54 98.6907C45.1067 99.104 44.5233 99.3107 43.79 99.3107ZM43.79 98.1007C44.09 98.1007 44.33 98.0074 44.51 97.8207C44.6833 97.6407 44.77 97.3974 44.77 97.0907V94.3407C44.77 94.034 44.6833 93.7907 44.51 93.6107C44.33 93.424 44.09 93.3307 43.79 93.3307C43.4967 93.3307 43.2633 93.424 43.09 93.6107C42.91 93.7907 42.82 94.034 42.82 94.3407V97.0907C42.82 97.3974 42.91 97.6407 43.09 97.8207C43.2633 98.0074 43.4967 98.1007 43.79 98.1007ZM48.98 97.9307C48.9667 97.944 48.9633 97.9574 48.97 97.9707C48.9767 97.984 48.99 97.9907 49.01 97.9907H51.72C51.7533 97.9907 51.7833 98.0007 51.81 98.0207C51.83 98.0474 51.84 98.0774 51.84 98.1107V99.0807C51.84 99.114 51.83 99.1407 51.81 99.1607C51.7833 99.1874 51.7533 99.2007 51.72 99.2007H47.22C47.1867 99.2007 47.16 99.1874 47.14 99.1607C47.1133 99.1407 47.1 99.114 47.1 99.0807V98.1607C47.1 98.1007 47.12 98.0507 47.16 98.0107C47.4867 97.6907 47.82 97.344 48.16 96.9707C48.5 96.5907 48.7133 96.354 48.8 96.2607C48.9867 96.0407 49.1767 95.8307 49.37 95.6307C49.9767 94.9574 50.28 94.4574 50.28 94.1307C50.28 93.8974 50.1967 93.704 50.03 93.5507C49.8633 93.404 49.6467 93.3307 49.38 93.3307C49.1133 93.3307 48.8967 93.404 48.73 93.5507C48.5633 93.704 48.48 93.904 48.48 94.1507V94.4007C48.48 94.434 48.47 94.464 48.45 94.4907C48.4233 94.5107 48.3933 94.5207 48.36 94.5207H47.18C47.1467 94.5207 47.12 94.5107 47.1 94.4907C47.0733 94.464 47.06 94.434 47.06 94.4007V93.9307C47.08 93.5707 47.1933 93.2507 47.4 92.9707C47.6067 92.6974 47.8833 92.4874 48.23 92.3407C48.57 92.194 48.9533 92.1207 49.38 92.1207C49.8533 92.1207 50.2667 92.2074 50.62 92.3807C50.9667 92.5607 51.2367 92.8007 51.43 93.1007C51.6167 93.4007 51.71 93.734 51.71 94.1007C51.71 94.3807 51.64 94.6674 51.5 94.9607C51.36 95.254 51.15 95.5707 50.87 95.9107C50.6633 96.1707 50.44 96.4274 50.2 96.6807C49.96 96.934 49.6033 97.3007 49.13 97.7807L48.98 97.9307ZM57.71 96.1507C57.7433 96.1507 57.7733 96.1607 57.8 96.1807C57.82 96.2074 57.83 96.2374 57.83 96.2707V97.2807C57.83 97.314 57.82 97.344 57.8 97.3707C57.7733 97.3907 57.7433 97.4007 57.71 97.4007H57.28C57.2467 97.4007 57.23 97.4174 57.23 97.4507V99.0807C57.23 99.114 57.22 99.1407 57.2 99.1607C57.1733 99.1874 57.1433 99.2007 57.11 99.2007H55.94C55.9067 99.2007 55.88 99.1874 55.86 99.1607C55.8333 99.1407 55.82 99.114 55.82 99.0807V97.4507C55.82 97.4174 55.8033 97.4007 55.77 97.4007H52.7C52.6667 97.4007 52.64 97.3907 52.62 97.3707C52.5933 97.344 52.58 97.314 52.58 97.2807V96.4807C52.58 96.4407 52.59 96.3907 52.61 96.3307L54.41 92.2907C54.4367 92.2307 54.4833 92.2007 54.55 92.2007H55.8C55.8467 92.2007 55.88 92.214 55.9 92.2407C55.9133 92.2607 55.91 92.294 55.89 92.3407L54.22 96.0907C54.2133 96.104 54.2133 96.1174 54.22 96.1307C54.2267 96.144 54.2367 96.1507 54.25 96.1507H55.77C55.8033 96.1507 55.82 96.134 55.82 96.1007V94.8607C55.82 94.8274 55.8333 94.8007 55.86 94.7807C55.88 94.754 55.9067 94.7407 55.94 94.7407H57.11C57.1433 94.7407 57.1733 94.754 57.2 94.7807C57.22 94.8007 57.23 94.8274 57.23 94.8607V96.1007C57.23 96.134 57.2467 96.1507 57.28 96.1507H57.71Z" fill="#252530"/>
</svg>
