<svg width="94" height="122" viewBox="0 0 94 122" fill="none" xmlns="http://www.w3.org/2000/svg">
<path d="M8.10156 90.2016L47.6016 110.302L85.6016 90.2016V11.6016H8.10156V90.2016Z" fill="white"/>
<path d="M86.4008 11.9004L7.30078 91.6004L48.3008 111.9L86.4008 92.4004V11.9004Z" fill="#F2F3F2"/>
<path d="M5.5 37.8V91.9L6.9 92.6L46.4 112.7L47.6 113.3L48.8 112.7L86.9 92.6L88.3 91.9V9H5.5V37.8ZM8.1 90.4V11.6H85.7V90.4L47.6 110.5L8.1 90.4Z" fill="#DCDEDC"/>
<path d="M46.8984 12.9C47.2984 12.9 47.6984 12.9 48.0984 13L46.8984 15.3C45.0984 15.2 43.4984 16.6 43.3984 18.4C43.2984 20.2 44.6984 21.8 46.4984 21.9H46.8984C47.6984 21.9 48.4984 21.6 49.0984 21.1L50.3984 23.3C49.3984 24 48.1984 24.4 46.8984 24.4C43.6984 24.5 40.9984 22.1 40.8984 18.9C40.7984 15.7 43.1984 13 46.3984 12.9H46.8984ZM50.9984 17.8L52.4984 20.3L50.9984 22.7L49.5984 20.3H46.6984L48.1984 17.8H50.9984ZM48.5984 16.9C48.5984 16.5 48.6984 16.1 48.8984 15.8C49.0984 15.5 49.4984 15.2 49.7984 15L49.9984 14.9C50.3984 14.7 50.4984 14.6 50.4984 14.4C50.4984 14.2 50.1984 14 49.9984 14C49.5984 14 49.2984 14.2 49.0984 14.6L48.5984 14.1C48.6984 13.9 48.8984 13.7 49.0984 13.5C49.3984 13.3 49.6984 13.3 49.9984 13.3C50.2984 13.3 50.6984 13.4 50.8984 13.6C51.0984 13.8 51.2984 14.1 51.2984 14.4C51.2984 14.9 50.9984 15.3 50.3984 15.5L50.0984 15.7C49.7984 15.9 49.5984 16 49.4984 16.3H51.2984V17L48.5984 16.9ZM46.8984 29.4L56.3984 24V9H37.2984V23.9L46.8984 29.4ZM90.1984 64.8H3.59844L0.398438 71.8L3.59844 78.8H90.1984L93.2984 71.8L90.1984 64.8Z" fill="#FF492C"/>
<path d="M25.2989 60.3C25.2522 60.3 25.2122 60.2833 25.1789 60.25C25.1456 60.2167 25.1289 60.1767 25.1289 60.13V50.67C25.1289 50.6233 25.1456 50.5833 25.1789 50.55C25.2122 50.5167 25.2522 50.5 25.2989 50.5H26.9389C26.9856 50.5 27.0256 50.5167 27.0589 50.55C27.0922 50.5833 27.1089 50.6233 27.1089 50.67V58.54C27.1089 58.5867 27.1322 58.61 27.1789 58.61H31.7589C31.8056 58.61 31.8422 58.6233 31.8689 58.65C31.9022 58.6833 31.9189 58.7233 31.9189 58.77V60.13C31.9189 60.1767 31.9022 60.2167 31.8689 60.25C31.8422 60.2833 31.8056 60.3 31.7589 60.3H25.2989ZM39.3889 55.96C39.4422 56.3133 39.4589 56.71 39.4389 57.15C39.4322 57.2633 39.3722 57.32 39.2589 57.32H34.9289C34.8756 57.32 34.8589 57.3433 34.8789 57.39C34.9056 57.5767 34.9556 57.7633 35.0289 57.95C35.2756 58.47 35.7722 58.73 36.5189 58.73C37.1122 58.7233 37.5822 58.48 37.9289 58C37.9689 57.9467 38.0122 57.92 38.0589 57.92C38.0856 57.92 38.1156 57.94 38.1489 57.98L39.1589 58.97C39.2056 59.0167 39.2289 59.06 39.2289 59.1C39.2289 59.1133 39.2122 59.15 39.1789 59.21C38.8656 59.59 38.4689 59.8867 37.9889 60.1C37.5022 60.3067 36.9689 60.41 36.3889 60.41C35.5889 60.41 34.9089 60.23 34.3489 59.87C33.7956 59.5033 33.3989 58.9933 33.1589 58.34C32.9589 57.8733 32.8589 57.2633 32.8589 56.51C32.8589 55.9967 32.9289 55.5433 33.0689 55.15C33.2822 54.4833 33.6589 53.9567 34.1989 53.57C34.7322 53.1767 35.3689 52.98 36.1089 52.98C37.0422 52.98 37.7922 53.25 38.3589 53.79C38.9189 54.33 39.2622 55.0533 39.3889 55.96ZM36.1189 54.69C35.5322 54.69 35.1456 54.9633 34.9589 55.51C34.9256 55.63 34.8922 55.78 34.8589 55.96C34.8589 56.0067 34.8822 56.03 34.9289 56.03H37.3589C37.4122 56.03 37.4289 56.0067 37.4089 55.96C37.3622 55.6867 37.3389 55.5567 37.3389 55.57C37.2589 55.29 37.1122 55.0733 36.8989 54.92C36.6922 54.7667 36.4322 54.69 36.1189 54.69ZM43.4589 52.99C44.0656 52.99 44.6056 53.0967 45.0789 53.31C45.5589 53.5167 45.9322 53.8033 46.1989 54.17C46.4656 54.53 46.5989 54.9367 46.5989 55.39V60.13C46.5989 60.1767 46.5822 60.2167 46.5489 60.25C46.5156 60.2833 46.4756 60.3 46.4289 60.3H44.7889C44.7422 60.3 44.7022 60.2833 44.6689 60.25C44.6356 60.2167 44.6189 60.1767 44.6189 60.13V59.67C44.6189 59.6433 44.6089 59.6233 44.5889 59.61C44.5756 59.6033 44.5589 59.6133 44.5389 59.64C44.1456 60.1533 43.5156 60.41 42.6489 60.41C41.9222 60.41 41.3322 60.2333 40.8789 59.88C40.4322 59.5267 40.2089 59.0033 40.2089 58.31C40.2089 57.59 40.4622 57.0333 40.9689 56.64C41.4689 56.24 42.1856 56.04 43.1189 56.04H44.5489C44.5956 56.04 44.6189 56.0167 44.6189 55.97V55.67C44.6189 55.3567 44.5256 55.1133 44.3389 54.94C44.1522 54.7733 43.8722 54.69 43.4989 54.69C43.2122 54.69 42.9722 54.74 42.7789 54.84C42.5856 54.94 42.4622 55.0833 42.4089 55.27C42.3822 55.3767 42.3222 55.4233 42.2289 55.41L40.5289 55.19C40.4222 55.17 40.3722 55.1267 40.3789 55.06C40.4189 54.6733 40.5756 54.32 40.8489 54C41.1222 53.68 41.4856 53.4333 41.9389 53.26C42.3922 53.08 42.8989 52.99 43.4589 52.99ZM43.1789 58.94C43.5789 58.94 43.9189 58.8333 44.1989 58.62C44.4789 58.4067 44.6189 58.13 44.6189 57.79V57.29C44.6189 57.2433 44.5956 57.22 44.5489 57.22H43.5389C43.1189 57.22 42.7922 57.3 42.5589 57.46C42.3189 57.62 42.1989 57.8433 42.1989 58.13C42.1989 58.3833 42.2889 58.5833 42.4689 58.73C42.6422 58.87 42.8789 58.94 43.1789 58.94ZM52.4489 50.67C52.4489 50.6233 52.4656 50.5833 52.4989 50.55C52.5322 50.5167 52.5722 50.5 52.6189 50.5H54.2489C54.2956 50.5 54.3356 50.5167 54.3689 50.55C54.4022 50.5833 54.4189 50.6233 54.4189 50.67V60.13C54.4189 60.1767 54.4022 60.2167 54.3689 60.25C54.3356 60.2833 54.2956 60.3 54.2489 60.3H52.6189C52.5722 60.3 52.5322 60.2833 52.4989 60.25C52.4656 60.2167 52.4489 60.1767 52.4489 60.13V59.67C52.4489 59.6433 52.4389 59.6267 52.4189 59.62C52.3989 59.6133 52.3789 59.62 52.3589 59.64C51.9722 60.1533 51.4356 60.41 50.7489 60.41C50.0956 60.41 49.5356 60.23 49.0689 59.87C48.5956 59.5033 48.2556 59.0033 48.0489 58.37C47.8889 57.8833 47.8089 57.3167 47.8089 56.67C47.8089 56.01 47.8956 55.4333 48.0689 54.94C48.2822 54.34 48.6189 53.8667 49.0789 53.52C49.5389 53.1667 50.1122 52.99 50.7989 52.99C51.4656 52.99 51.9856 53.2233 52.3589 53.69C52.3789 53.7167 52.3989 53.7267 52.4189 53.72C52.4389 53.7133 52.4489 53.6933 52.4489 53.66V50.67ZM52.1489 58.12C52.3356 57.7733 52.4289 57.3 52.4289 56.7C52.4289 56.0733 52.3289 55.5833 52.1289 55.23C51.9089 54.87 51.5956 54.69 51.1889 54.69C50.7489 54.69 50.4156 54.87 50.1889 55.23C49.9556 55.5967 49.8389 56.0933 49.8389 56.72C49.8389 57.28 49.9389 57.7467 50.1389 58.12C50.3722 58.52 50.7156 58.72 51.1689 58.72C51.5889 58.72 51.9156 58.52 52.1489 58.12ZM62.2789 55.96C62.3322 56.3133 62.3489 56.71 62.3289 57.15C62.3222 57.2633 62.2622 57.32 62.1489 57.32H57.8189C57.7656 57.32 57.7489 57.3433 57.7689 57.39C57.7956 57.5767 57.8456 57.7633 57.9189 57.95C58.1656 58.47 58.6622 58.73 59.4089 58.73C60.0022 58.7233 60.4722 58.48 60.8189 58C60.8589 57.9467 60.9022 57.92 60.9489 57.92C60.9756 57.92 61.0056 57.94 61.0389 57.98L62.0489 58.97C62.0956 59.0167 62.1189 59.06 62.1189 59.1C62.1189 59.1133 62.1022 59.15 62.0689 59.21C61.7556 59.59 61.3589 59.8867 60.8789 60.1C60.3922 60.3067 59.8589 60.41 59.2789 60.41C58.4789 60.41 57.7989 60.23 57.2389 59.87C56.6856 59.5033 56.2889 58.9933 56.0489 58.34C55.8489 57.8733 55.7489 57.2633 55.7489 56.51C55.7489 55.9967 55.8189 55.5433 55.9589 55.15C56.1722 54.4833 56.5489 53.9567 57.0889 53.57C57.6222 53.1767 58.2589 52.98 58.9989 52.98C59.9322 52.98 60.6822 53.25 61.2489 53.79C61.8089 54.33 62.1522 55.0533 62.2789 55.96ZM59.0089 54.69C58.4222 54.69 58.0356 54.9633 57.8489 55.51C57.8156 55.63 57.7822 55.78 57.7489 55.96C57.7489 56.0067 57.7722 56.03 57.8189 56.03H60.2489C60.3022 56.03 60.3189 56.0067 60.2989 55.96C60.2522 55.6867 60.2289 55.5567 60.2289 55.57C60.1489 55.29 60.0022 55.0733 59.7889 54.92C59.5822 54.7667 59.3222 54.69 59.0089 54.69ZM67.1289 53.01C67.4689 53.01 67.7356 53.0733 67.9289 53.2C68.0022 53.24 68.0322 53.31 68.0189 53.41L67.7189 55.01C67.7122 55.1233 67.6489 55.1567 67.5289 55.11C67.3889 55.0633 67.2256 55.04 67.0389 55.04C66.9589 55.04 66.8556 55.0467 66.7289 55.06C66.3889 55.0933 66.1022 55.2167 65.8689 55.43C65.6356 55.65 65.5189 55.9433 65.5189 56.31V60.13C65.5189 60.1767 65.5056 60.2167 65.4789 60.25C65.4456 60.2833 65.4056 60.3 65.3589 60.3H63.7189C63.6722 60.3 63.6322 60.2833 63.5989 60.25C63.5656 60.2167 63.5489 60.1767 63.5489 60.13V53.27C63.5489 53.2233 63.5656 53.1833 63.5989 53.15C63.6322 53.1167 63.6722 53.1 63.7189 53.1H65.3589C65.4056 53.1 65.4456 53.1167 65.4789 53.15C65.5056 53.1833 65.5189 53.2233 65.5189 53.27V53.8C65.5189 53.8333 65.5289 53.8533 65.5489 53.86C65.5689 53.8667 65.5822 53.8633 65.5889 53.85C65.9756 53.29 66.4889 53.01 67.1289 53.01ZM18.9289 36.61C18.9756 36.5367 19.0422 36.5 19.1289 36.5H20.7689C20.8156 36.5 20.8556 36.5167 20.8889 36.55C20.9222 36.5833 20.9389 36.6233 20.9389 36.67V46.13C20.9389 46.1767 20.9222 46.2167 20.8889 46.25C20.8556 46.2833 20.8156 46.3 20.7689 46.3H19.1289C19.0822 46.3 19.0422 46.2833 19.0089 46.25C18.9756 46.2167 18.9589 46.1767 18.9589 46.13V39.96C18.9589 39.92 18.9489 39.9 18.9289 39.9C18.9156 39.9 18.8989 39.9133 18.8789 39.94L17.3889 42.27C17.3422 42.3433 17.2789 42.38 17.1989 42.38H16.3689C16.2889 42.38 16.2256 42.3433 16.1789 42.27L14.6889 39.94C14.6689 39.9133 14.6522 39.9033 14.6389 39.91C14.6189 39.9167 14.6089 39.9367 14.6089 39.97V46.13C14.6089 46.1767 14.5922 46.2167 14.5589 46.25C14.5256 46.2833 14.4856 46.3 14.4389 46.3H12.7989C12.7522 46.3 12.7122 46.2833 12.6789 46.25C12.6456 46.2167 12.6289 46.1767 12.6289 46.13V36.67C12.6289 36.6233 12.6456 36.5833 12.6789 36.55C12.7122 36.5167 12.7522 36.5 12.7989 36.5H14.4389C14.5256 36.5 14.5922 36.5367 14.6389 36.61L16.7389 39.87C16.7656 39.93 16.7922 39.93 16.8189 39.87L18.9289 36.61ZM25.6989 46.41C24.9122 46.41 24.2389 46.2067 23.6789 45.8C23.1189 45.3867 22.7356 44.8267 22.5289 44.12C22.4022 43.68 22.3389 43.2033 22.3389 42.69C22.3389 42.1367 22.4022 41.64 22.5289 41.2C22.7422 40.5133 23.1289 39.9733 23.6889 39.58C24.2489 39.1867 24.9222 38.99 25.7089 38.99C26.4756 38.99 27.1289 39.1833 27.6689 39.57C28.2089 39.9567 28.5922 40.4967 28.8189 41.19C28.9656 41.6567 29.0389 42.1467 29.0389 42.66C29.0389 43.1667 28.9756 43.6367 28.8489 44.07C28.6422 44.8033 28.2622 45.3767 27.7089 45.79C27.1489 46.2033 26.4789 46.41 25.6989 46.41ZM25.6989 44.72C26.0056 44.72 26.2656 44.6267 26.4789 44.44C26.6922 44.2533 26.8456 43.9967 26.9389 43.67C27.0122 43.37 27.0489 43.0433 27.0489 42.69C27.0489 42.2967 27.0122 41.9633 26.9389 41.69C26.8389 41.3767 26.6822 41.13 26.4689 40.95C26.2489 40.7767 25.9856 40.69 25.6789 40.69C25.3656 40.69 25.1022 40.7767 24.8889 40.95C24.6822 41.13 24.5322 41.3767 24.4389 41.69C24.3589 41.9167 24.3189 42.25 24.3189 42.69C24.3189 43.11 24.3522 43.4367 24.4189 43.67C24.5122 43.9967 24.6689 44.2533 24.8889 44.44C25.1089 44.6267 25.3789 44.72 25.6989 44.72ZM38.2989 38.99C39.0256 38.99 39.5922 39.21 39.9989 39.65C40.4122 40.09 40.6189 40.7067 40.6189 41.5V46.13C40.6189 46.1767 40.6022 46.2167 40.5689 46.25C40.5356 46.2833 40.4956 46.3 40.4489 46.3H38.8089C38.7622 46.3 38.7222 46.2833 38.6889 46.25C38.6622 46.2167 38.6489 46.1767 38.6489 46.13V41.93C38.6489 41.55 38.5489 41.2467 38.3489 41.02C38.1556 40.8 37.8956 40.69 37.5689 40.69C37.2422 40.69 36.9756 40.8 36.7689 41.02C36.5622 41.2467 36.4589 41.5467 36.4589 41.92V46.13C36.4589 46.1767 36.4422 46.2167 36.4089 46.25C36.3756 46.2833 36.3356 46.3 36.2889 46.3H34.6689C34.6222 46.3 34.5822 46.2833 34.5489 46.25C34.5156 46.2167 34.4989 46.1767 34.4989 46.13V41.93C34.4989 41.5567 34.3956 41.2567 34.1889 41.03C33.9889 40.8033 33.7256 40.69 33.3989 40.69C33.0989 40.69 32.8489 40.7767 32.6489 40.95C32.4489 41.13 32.3289 41.3767 32.2889 41.69V46.13C32.2889 46.1767 32.2722 46.2167 32.2389 46.25C32.2056 46.2833 32.1656 46.3 32.1189 46.3H30.4789C30.4322 46.3 30.3956 46.2833 30.3689 46.25C30.3356 46.2167 30.3189 46.1767 30.3189 46.13V39.27C30.3189 39.2233 30.3356 39.1833 30.3689 39.15C30.3956 39.1167 30.4322 39.1 30.4789 39.1H32.1189C32.1656 39.1 32.2056 39.1167 32.2389 39.15C32.2722 39.1833 32.2889 39.2233 32.2889 39.27V39.82C32.2889 39.8467 32.2989 39.8633 32.3189 39.87C32.3389 39.8833 32.3556 39.8767 32.3689 39.85C32.7556 39.2767 33.3489 38.99 34.1489 38.99C34.6156 38.99 35.0256 39.09 35.3789 39.29C35.7256 39.4833 35.9922 39.7633 36.1789 40.13C36.2056 40.1833 36.2389 40.1833 36.2789 40.13C36.4856 39.7433 36.7622 39.4567 37.1089 39.27C37.4622 39.0833 37.8589 38.99 38.2989 38.99ZM48.3289 41.96C48.3889 42.3133 48.4089 42.71 48.3889 43.15C48.3822 43.2633 48.3222 43.32 48.2089 43.32H43.8789C43.8256 43.32 43.8089 43.3433 43.8289 43.39C43.8556 43.5767 43.9056 43.7633 43.9789 43.95C44.2189 44.47 44.7122 44.73 45.4589 44.73C46.0589 44.7233 46.5322 44.48 46.8789 44C46.9122 43.9467 46.9522 43.92 46.9989 43.92C47.0322 43.92 47.0656 43.94 47.0989 43.98L48.1089 44.97C48.1556 45.0167 48.1789 45.06 48.1789 45.1C48.1789 45.1133 48.1589 45.15 48.1189 45.21C47.8122 45.59 47.4156 45.8867 46.9289 46.1C46.4489 46.3067 45.9189 46.41 45.3389 46.41C44.5322 46.41 43.8522 46.23 43.2989 45.87C42.7456 45.5033 42.3456 44.9933 42.0989 44.34C41.9056 43.8733 41.8089 43.2633 41.8089 42.51C41.8089 41.9967 41.8789 41.5433 42.0189 41.15C42.2322 40.4833 42.6089 39.9567 43.1489 39.57C43.6822 39.1767 44.3189 38.98 45.0589 38.98C45.9922 38.98 46.7389 39.25 47.2989 39.79C47.8656 40.33 48.2089 41.0533 48.3289 41.96ZM45.0689 40.69C44.4822 40.69 44.0956 40.9633 43.9089 41.51C43.8689 41.63 43.8356 41.78 43.8089 41.96C43.8089 42.0067 43.8322 42.03 43.8789 42.03H46.2989C46.3589 42.03 46.3789 42.0067 46.3589 41.96C46.3122 41.6867 46.2889 41.5567 46.2889 41.57C46.2022 41.29 46.0556 41.0733 45.8489 40.92C45.6356 40.7667 45.3756 40.69 45.0689 40.69ZM53.3589 38.99C54.1056 38.99 54.7089 39.22 55.1689 39.68C55.6222 40.1333 55.8489 40.7533 55.8489 41.54V46.13C55.8489 46.1767 55.8322 46.2167 55.7989 46.25C55.7656 46.2833 55.7256 46.3 55.6789 46.3H54.0489C54.0022 46.3 53.9622 46.2833 53.9289 46.25C53.8956 46.2167 53.8789 46.1767 53.8789 46.13V41.95C53.8789 41.5767 53.7722 41.2733 53.5589 41.04C53.3522 40.8067 53.0756 40.69 52.7289 40.69C52.3822 40.69 52.1056 40.8067 51.8989 41.04C51.6856 41.2733 51.5789 41.5767 51.5789 41.95V46.13C51.5789 46.1767 51.5622 46.2167 51.5289 46.25C51.4956 46.2833 51.4556 46.3 51.4089 46.3H49.7789C49.7322 46.3 49.6922 46.2833 49.6589 46.25C49.6256 46.2167 49.6089 46.1767 49.6089 46.13V39.27C49.6089 39.2233 49.6256 39.1833 49.6589 39.15C49.6922 39.1167 49.7322 39.1 49.7789 39.1H51.4089C51.4556 39.1 51.4956 39.1167 51.5289 39.15C51.5622 39.1833 51.5789 39.2233 51.5789 39.27V39.76C51.5789 39.7867 51.5889 39.8067 51.6089 39.82C51.6289 39.8267 51.6422 39.82 51.6489 39.8C52.0356 39.26 52.6056 38.99 53.3589 38.99ZM61.3989 40.52C61.3989 40.5667 61.3822 40.6067 61.3489 40.64C61.3156 40.6733 61.2756 40.69 61.2289 40.69H59.8789C59.8322 40.69 59.8089 40.7133 59.8089 40.76V43.72C59.8089 44.0333 59.8722 44.2633 59.9989 44.41C60.1256 44.5567 60.3289 44.63 60.6089 44.63H61.0689C61.1156 44.63 61.1556 44.6467 61.1889 44.68C61.2222 44.7133 61.2389 44.7533 61.2389 44.8V46.13C61.2389 46.2367 61.1822 46.2967 61.0689 46.31C60.6822 46.33 60.4022 46.34 60.2289 46.34C59.4556 46.34 58.8789 46.2133 58.4989 45.96C58.1122 45.7 57.9156 45.2167 57.9089 44.51V40.76C57.9089 40.7133 57.8856 40.69 57.8389 40.69H57.0389C56.9922 40.69 56.9522 40.6733 56.9189 40.64C56.8856 40.6067 56.8689 40.5667 56.8689 40.52V39.27C56.8689 39.2233 56.8856 39.1833 56.9189 39.15C56.9522 39.1167 56.9922 39.1 57.0389 39.1H57.8389C57.8856 39.1 57.9089 39.0767 57.9089 39.03V37.37C57.9089 37.3233 57.9256 37.2833 57.9589 37.25C57.9922 37.2167 58.0322 37.2 58.0789 37.2H59.6489C59.6956 37.2 59.7322 37.2167 59.7589 37.25C59.7922 37.2833 59.8089 37.3233 59.8089 37.37V39.03C59.8089 39.0767 59.8322 39.1 59.8789 39.1H61.2289C61.2756 39.1 61.3156 39.1167 61.3489 39.15C61.3822 39.1833 61.3989 39.2233 61.3989 39.27V40.52ZM66.7889 39.27C66.7889 39.2233 66.8022 39.1833 66.8289 39.15C66.8622 39.1167 66.9022 39.1 66.9489 39.1H68.5889C68.6356 39.1 68.6756 39.1167 68.7089 39.15C68.7422 39.1833 68.7589 39.2233 68.7589 39.27V46.13C68.7589 46.1767 68.7422 46.2167 68.7089 46.25C68.6756 46.2833 68.6356 46.3 68.5889 46.3H66.9489C66.9022 46.3 66.8622 46.2833 66.8289 46.25C66.8022 46.2167 66.7889 46.1767 66.7889 46.13V45.66C66.7889 45.6267 66.7789 45.61 66.7589 45.61C66.7389 45.6033 66.7189 45.6133 66.6989 45.64C66.3256 46.1467 65.7489 46.4 64.9689 46.4C64.2556 46.4 63.6722 46.1833 63.2189 45.75C62.7589 45.3233 62.5289 44.7233 62.5289 43.95V39.27C62.5289 39.2233 62.5456 39.1833 62.5789 39.15C62.6122 39.1167 62.6522 39.1 62.6989 39.1H64.3189C64.3656 39.1 64.4056 39.1167 64.4389 39.15C64.4722 39.1833 64.4889 39.2233 64.4889 39.27V43.46C64.4889 43.8333 64.5889 44.1367 64.7889 44.37C64.9889 44.6033 65.2656 44.72 65.6189 44.72C65.9389 44.72 66.2022 44.6233 66.4089 44.43C66.6156 44.2367 66.7422 43.9867 66.7889 43.68V39.27ZM78.1989 38.99C78.9256 38.99 79.4922 39.21 79.8989 39.65C80.3122 40.09 80.5189 40.7067 80.5189 41.5V46.13C80.5189 46.1767 80.5022 46.2167 80.4689 46.25C80.4356 46.2833 80.3956 46.3 80.3489 46.3H78.7089C78.6622 46.3 78.6222 46.2833 78.5889 46.25C78.5622 46.2167 78.5489 46.1767 78.5489 46.13V41.93C78.5489 41.55 78.4489 41.2467 78.2489 41.02C78.0556 40.8 77.7956 40.69 77.4689 40.69C77.1422 40.69 76.8756 40.8 76.6689 41.02C76.4622 41.2467 76.3589 41.5467 76.3589 41.92V46.13C76.3589 46.1767 76.3422 46.2167 76.3089 46.25C76.2756 46.2833 76.2356 46.3 76.1889 46.3H74.5689C74.5222 46.3 74.4822 46.2833 74.4489 46.25C74.4156 46.2167 74.3989 46.1767 74.3989 46.13V41.93C74.3989 41.5567 74.2956 41.2567 74.0889 41.03C73.8889 40.8033 73.6256 40.69 73.2989 40.69C72.9989 40.69 72.7489 40.7767 72.5489 40.95C72.3489 41.13 72.2289 41.3767 72.1889 41.69V46.13C72.1889 46.1767 72.1722 46.2167 72.1389 46.25C72.1056 46.2833 72.0656 46.3 72.0189 46.3H70.3789C70.3322 46.3 70.2922 46.2833 70.2589 46.25C70.2322 46.2167 70.2189 46.1767 70.2189 46.13V39.27C70.2189 39.2233 70.2322 39.1833 70.2589 39.15C70.2922 39.1167 70.3322 39.1 70.3789 39.1H72.0189C72.0656 39.1 72.1056 39.1167 72.1389 39.15C72.1722 39.1833 72.1889 39.2233 72.1889 39.27V39.82C72.1889 39.8467 72.1989 39.8633 72.2189 39.87C72.2389 39.8833 72.2556 39.8767 72.2689 39.85C72.6556 39.2767 73.2489 38.99 74.0489 38.99C74.5156 38.99 74.9256 39.09 75.2789 39.29C75.6256 39.4833 75.8922 39.7633 76.0789 40.13C76.1056 40.1833 76.1389 40.1833 76.1789 40.13C76.3856 39.7433 76.6622 39.4567 77.0089 39.27C77.3622 39.0833 77.7589 38.99 78.1989 38.99Z" fill="#252530"/>
<path d="M33.1403 75.7811C32.6203 75.7811 32.167 75.6978 31.7803 75.5311C31.3936 75.3644 31.0936 75.1311 30.8803 74.8311C30.6736 74.5311 30.5703 74.1778 30.5703 73.7711V73.5211C30.5703 73.4878 30.5836 73.4578 30.6103 73.4311C30.6303 73.4111 30.657 73.4011 30.6903 73.4011H31.5803C31.6136 73.4011 31.6436 73.4111 31.6703 73.4311C31.6903 73.4578 31.7003 73.4878 31.7003 73.5211V73.7111C31.7003 74.0178 31.837 74.2711 32.1103 74.4711C32.3836 74.6778 32.757 74.7811 33.2303 74.7811C33.637 74.7811 33.9436 74.6944 34.1503 74.5211C34.357 74.3478 34.4603 74.1244 34.4603 73.8511C34.4603 73.6644 34.4036 73.5044 34.2903 73.3711C34.177 73.2444 34.017 73.1278 33.8103 73.0211C33.597 72.9144 33.2803 72.7811 32.8603 72.6211C32.387 72.4478 32.0036 72.2844 31.7103 72.1311C31.417 71.9778 31.1736 71.7678 30.9803 71.5011C30.7803 71.2411 30.6803 70.9144 30.6803 70.5211C30.6803 69.9344 30.8936 69.4711 31.3203 69.1311C31.747 68.7911 32.317 68.6211 33.0303 68.6211C33.5303 68.6211 33.9736 68.7078 34.3603 68.8811C34.7403 69.0544 35.037 69.2978 35.2503 69.6111C35.4636 69.9178 35.5703 70.2744 35.5703 70.6811V70.8511C35.5703 70.8844 35.557 70.9144 35.5303 70.9411C35.5103 70.9611 35.4836 70.9711 35.4503 70.9711H34.5503C34.517 70.9711 34.4903 70.9611 34.4703 70.9411C34.4436 70.9144 34.4303 70.8844 34.4303 70.8511V70.7411C34.4303 70.4278 34.3036 70.1644 34.0503 69.9511C33.7903 69.7311 33.4336 69.6211 32.9803 69.6211C32.6136 69.6211 32.3303 69.6978 32.1303 69.8511C31.9236 70.0044 31.8203 70.2211 31.8203 70.5011C31.8203 70.7011 31.8736 70.8644 31.9803 70.9911C32.087 71.1178 32.247 71.2311 32.4603 71.3311C32.6736 71.4378 33.0036 71.5711 33.4503 71.7311C33.9236 71.9111 34.3036 72.0744 34.5903 72.2211C34.8703 72.3678 35.1136 72.5711 35.3203 72.8311C35.5203 73.0978 35.6203 73.4278 35.6203 73.8211C35.6203 74.4211 35.397 74.8978 34.9503 75.2511C34.5103 75.6044 33.907 75.7811 33.1403 75.7811ZM39.6003 68.6911C40.0203 68.6911 40.3903 68.7778 40.7103 68.9511C41.0303 69.1244 41.277 69.3678 41.4503 69.6811C41.6303 70.0011 41.7203 70.3678 41.7203 70.7811C41.7203 71.1878 41.6303 71.5478 41.4503 71.8611C41.2703 72.1744 41.017 72.4144 40.6903 72.5811C40.357 72.7544 39.9736 72.8411 39.5403 72.8411H37.9403C37.907 72.8411 37.8903 72.8578 37.8903 72.8911V75.5811C37.8903 75.6144 37.8803 75.6411 37.8603 75.6611C37.8336 75.6878 37.8036 75.7011 37.7703 75.7011H36.8503C36.817 75.7011 36.7903 75.6878 36.7703 75.6611C36.7436 75.6411 36.7303 75.6144 36.7303 75.5811V68.8111C36.7303 68.7778 36.7436 68.7478 36.7703 68.7211C36.7903 68.7011 36.817 68.6911 36.8503 68.6911H39.6003ZM39.4303 71.9011C39.7703 71.9011 40.0436 71.8011 40.2503 71.6011C40.457 71.4011 40.5603 71.1378 40.5603 70.8111C40.5603 70.4778 40.457 70.2078 40.2503 70.0011C40.0436 69.7944 39.7703 69.6911 39.4303 69.6911H37.9403C37.907 69.6911 37.8903 69.7078 37.8903 69.7411V71.8511C37.8903 71.8844 37.907 71.9011 37.9403 71.9011H39.4303ZM46.6703 75.7011C46.6036 75.7011 46.557 75.6711 46.5303 75.6111L45.2103 72.7311C45.197 72.7044 45.177 72.6911 45.1503 72.6911H43.9503C43.917 72.6911 43.9003 72.7078 43.9003 72.7411V75.5811C43.9003 75.6144 43.887 75.6411 43.8603 75.6611C43.8403 75.6878 43.8136 75.7011 43.7803 75.7011H42.8603C42.827 75.7011 42.8003 75.6878 42.7803 75.6611C42.7536 75.6411 42.7403 75.6144 42.7403 75.5811V68.8211C42.7403 68.7878 42.7536 68.7611 42.7803 68.7411C42.8003 68.7144 42.827 68.7011 42.8603 68.7011H45.6103C46.017 68.7011 46.377 68.7844 46.6903 68.9511C47.0036 69.1244 47.247 69.3644 47.4203 69.6711C47.5936 69.9844 47.6803 70.3411 47.6803 70.7411C47.6803 71.2011 47.5636 71.5911 47.3303 71.9111C47.0903 72.2378 46.7603 72.4644 46.3403 72.5911C46.327 72.5911 46.317 72.5978 46.3103 72.6111C46.3036 72.6244 46.3036 72.6378 46.3103 72.6511L47.7203 75.5611C47.7336 75.5878 47.7403 75.6078 47.7403 75.6211C47.7403 75.6744 47.7036 75.7011 47.6303 75.7011H46.6703ZM43.9503 69.7011C43.917 69.7011 43.9003 69.7178 43.9003 69.7511V71.7411C43.9003 71.7744 43.917 71.7911 43.9503 71.7911H45.4503C45.7703 71.7911 46.027 71.6944 46.2203 71.5011C46.4203 71.3144 46.5203 71.0644 46.5203 70.7511C46.5203 70.4378 46.4203 70.1844 46.2203 69.9911C46.027 69.7978 45.7703 69.7011 45.4503 69.7011H43.9503ZM48.9903 75.7011C48.957 75.7011 48.927 75.6878 48.9003 75.6611C48.8803 75.6411 48.8703 75.6144 48.8703 75.5811V68.8211C48.8703 68.7878 48.8803 68.7611 48.9003 68.7411C48.927 68.7144 48.957 68.7011 48.9903 68.7011H49.9103C49.9436 68.7011 49.9703 68.7144 49.9903 68.7411C50.017 68.7611 50.0303 68.7878 50.0303 68.8211V75.5811C50.0303 75.6144 50.017 75.6411 49.9903 75.6611C49.9703 75.6878 49.9436 75.7011 49.9103 75.7011H48.9903ZM55.5603 68.8211C55.5603 68.7878 55.5736 68.7611 55.6003 68.7411C55.6203 68.7144 55.647 68.7011 55.6803 68.7011H56.6003C56.6336 68.7011 56.6636 68.7144 56.6903 68.7411C56.7103 68.7611 56.7203 68.7878 56.7203 68.8211V75.5811C56.7203 75.6144 56.7103 75.6411 56.6903 75.6611C56.6636 75.6878 56.6336 75.7011 56.6003 75.7011H55.7103C55.6436 75.7011 55.597 75.6744 55.5703 75.6211L52.6903 70.9011C52.677 70.8811 52.6636 70.8711 52.6503 70.8711C52.637 70.8778 52.6303 70.8944 52.6303 70.9211L52.6503 75.5811C52.6503 75.6144 52.637 75.6411 52.6103 75.6611C52.5903 75.6878 52.5636 75.7011 52.5303 75.7011H51.6103C51.577 75.7011 51.5503 75.6878 51.5303 75.6611C51.5036 75.6411 51.4903 75.6144 51.4903 75.5811V68.8211C51.4903 68.7878 51.5036 68.7611 51.5303 68.7411C51.5503 68.7144 51.577 68.7011 51.6103 68.7011H52.5003C52.567 68.7011 52.6136 68.7278 52.6403 68.7811L55.5103 73.5011C55.5236 73.5211 55.537 73.5278 55.5503 73.5211C55.5636 73.5211 55.5703 73.5078 55.5703 73.4811L55.5603 68.8211ZM60.5203 75.7811C60.0203 75.7811 59.5803 75.6844 59.2003 75.4911C58.8203 75.2911 58.527 75.0111 58.3203 74.6511C58.1136 74.2911 58.0103 73.8778 58.0103 73.4111V70.9911C58.0103 70.5178 58.1136 70.1011 58.3203 69.7411C58.527 69.3878 58.8203 69.1111 59.2003 68.9111C59.5803 68.7178 60.0203 68.6211 60.5203 68.6211C61.0136 68.6211 61.4503 68.7178 61.8303 68.9111C62.2036 69.1044 62.4936 69.3678 62.7003 69.7011C62.907 70.0344 63.0103 70.4111 63.0103 70.8311V70.9111C63.0103 70.9444 63.0003 70.9711 62.9803 70.9911C62.9536 71.0178 62.9236 71.0311 62.8903 71.0311H61.9803C61.947 71.0311 61.9203 71.0178 61.9003 70.9911C61.8736 70.9711 61.8603 70.9444 61.8603 70.9111V70.8611C61.8603 70.5011 61.737 70.2044 61.4903 69.9711C61.2503 69.7378 60.927 69.6211 60.5203 69.6211C60.1136 69.6211 59.787 69.7444 59.5403 69.9911C59.2936 70.2311 59.1703 70.5511 59.1703 70.9511V73.4511C59.1703 73.8511 59.3003 74.1744 59.5603 74.4211C59.8203 74.6611 60.157 74.7811 60.5703 74.7811C60.9703 74.7811 61.287 74.6744 61.5203 74.4611C61.747 74.2544 61.8603 73.9678 61.8603 73.6011V72.9811C61.8603 72.9478 61.8436 72.9311 61.8103 72.9311H60.5803C60.547 72.9311 60.517 72.9178 60.4903 72.8911C60.4703 72.8711 60.4603 72.8444 60.4603 72.8111V72.0711C60.4603 72.0378 60.4703 72.0111 60.4903 71.9911C60.517 71.9644 60.547 71.9511 60.5803 71.9511H62.8903C62.9236 71.9511 62.9536 71.9644 62.9803 71.9911C63.0003 72.0111 63.0103 72.0378 63.0103 72.0711V73.3511C63.0103 74.1178 62.787 74.7144 62.3403 75.1411C61.887 75.5678 61.2803 75.7811 60.5203 75.7811Z" fill="white"/>
<path d="M33.4892 93.7601C33.4692 93.7801 33.4626 93.8001 33.4692 93.8201C33.4826 93.8401 33.5026 93.8501 33.5292 93.8501H37.4592C37.5059 93.8501 37.5459 93.8667 37.5792 93.9001C37.6192 93.9334 37.6392 93.9734 37.6392 94.0201V95.4301C37.6392 95.4767 37.6192 95.5167 37.5792 95.5501C37.5459 95.5834 37.5059 95.6001 37.4592 95.6001H30.9392C30.8859 95.6001 30.8426 95.5834 30.8092 95.5501C30.7759 95.5167 30.7592 95.4767 30.7592 95.4301V94.0901C30.7592 94.0034 30.7892 93.9301 30.8492 93.8701C31.3226 93.4101 31.8059 92.9067 32.2992 92.3601C32.7926 91.8134 33.1026 91.4734 33.2292 91.3401C33.4959 91.0201 33.7692 90.7134 34.0492 90.4201C34.9292 89.4467 35.3692 88.7234 35.3692 88.2501C35.3692 87.9101 35.2492 87.6301 35.0092 87.4101C34.7692 87.1967 34.4559 87.0901 34.0692 87.0901C33.6826 87.0901 33.3692 87.1967 33.1292 87.4101C32.8826 87.6301 32.7592 87.9201 32.7592 88.2801V88.6401C32.7592 88.6867 32.7426 88.7267 32.7092 88.7601C32.6759 88.7934 32.6359 88.8101 32.5892 88.8101H30.8792C30.8326 88.8101 30.7926 88.7934 30.7592 88.7601C30.7192 88.7267 30.6992 88.6867 30.6992 88.6401V87.9601C30.7326 87.4401 30.8992 86.9767 31.1992 86.5701C31.4992 86.1701 31.8959 85.8634 32.3892 85.6501C32.8892 85.4367 33.4492 85.3301 34.0692 85.3301C34.7559 85.3301 35.3526 85.4601 35.8592 85.7201C36.3659 85.9734 36.7559 86.3167 37.0292 86.7501C37.3092 87.1901 37.4492 87.6734 37.4492 88.2001C37.4492 88.6067 37.3459 89.0234 37.1392 89.4501C36.9392 89.8767 36.6359 90.3367 36.2292 90.8301C35.9292 91.2034 35.6059 91.5767 35.2592 91.9501C34.9125 92.3167 34.3959 92.8467 33.7092 93.5401L33.4892 93.7601ZM42.3492 95.7601C41.2825 95.7601 40.4426 95.4634 39.8292 94.8701C39.2092 94.2767 38.8992 93.4667 38.8992 92.4401V88.6101C38.8992 87.6034 39.2092 86.8067 39.8292 86.2201C40.4426 85.6267 41.2825 85.3301 42.3492 85.3301C43.4092 85.3301 44.2526 85.6267 44.8792 86.2201C45.4992 86.8067 45.8092 87.6034 45.8092 88.6101V92.4401C45.8092 93.4667 45.4992 94.2767 44.8792 94.8701C44.2526 95.4634 43.4092 95.7601 42.3492 95.7601ZM42.3492 94.0101C42.7825 94.0101 43.1259 93.8767 43.3792 93.6101C43.6392 93.3434 43.7692 92.9867 43.7692 92.5401V88.5501C43.7692 88.1101 43.6392 87.7567 43.3792 87.4901C43.1259 87.2234 42.7825 87.0901 42.3492 87.0901C41.9225 87.0901 41.5826 87.2234 41.3292 87.4901C41.0692 87.7567 40.9392 88.1101 40.9392 88.5501V92.5401C40.9392 92.9867 41.0692 93.3434 41.3292 93.6101C41.5826 93.8767 41.9225 94.0101 42.3492 94.0101ZM49.8692 93.7601C49.8492 93.7801 49.8459 93.8001 49.8592 93.8201C49.8659 93.8401 49.8859 93.8501 49.9192 93.8501H53.8492C53.8959 93.8501 53.9359 93.8667 53.9692 93.9001C54.0026 93.9334 54.0192 93.9734 54.0192 94.0201V95.4301C54.0192 95.4767 54.0026 95.5167 53.9692 95.5501C53.9359 95.5834 53.8959 95.6001 53.8492 95.6001H47.3192C47.2726 95.6001 47.2326 95.5834 47.1992 95.5501C47.1659 95.5167 47.1492 95.4767 47.1492 95.4301V94.0901C47.1492 94.0034 47.1759 93.9301 47.2292 93.8701C47.7092 93.4101 48.1926 92.9067 48.6792 92.3601C49.1726 91.8134 49.4826 91.4734 49.6092 91.3401C49.8826 91.0201 50.1592 90.7134 50.4392 90.4201C51.3192 89.4467 51.7592 88.7234 51.7592 88.2501C51.7592 87.9101 51.6392 87.6301 51.3992 87.4101C51.1526 87.1967 50.8359 87.0901 50.4492 87.0901C50.0626 87.0901 49.7492 87.1967 49.5092 87.4101C49.2692 87.6301 49.1492 87.9201 49.1492 88.2801V88.6401C49.1492 88.6867 49.1325 88.7267 49.0992 88.7601C49.0659 88.7934 49.0226 88.8101 48.9692 88.8101H47.2592C47.2125 88.8101 47.1726 88.7934 47.1392 88.7601C47.1059 88.7267 47.0892 88.6867 47.0892 88.6401V87.9601C47.1159 87.4401 47.2792 86.9767 47.5792 86.5701C47.8792 86.1701 48.2792 85.8634 48.7792 85.6501C49.2792 85.4367 49.8359 85.3301 50.4492 85.3301C51.1359 85.3301 51.7326 85.4601 52.2392 85.7201C52.7526 85.9734 53.1459 86.3167 53.4192 86.7501C53.6925 87.1901 53.8292 87.6734 53.8292 88.2001C53.8292 88.6067 53.7292 89.0234 53.5292 89.4501C53.3226 89.8767 53.0159 90.3367 52.6092 90.8301C52.3092 91.2034 51.9859 91.5767 51.6392 91.9501C51.2926 92.3167 50.7759 92.8467 50.0892 93.5401L49.8692 93.7601ZM62.5292 91.1801C62.5759 91.1801 62.6192 91.1967 62.6592 91.2301C62.6926 91.2634 62.7092 91.3034 62.7092 91.3501V92.8201C62.7092 92.8667 62.6926 92.9067 62.6592 92.9401C62.6192 92.9734 62.5759 92.9901 62.5292 92.9901H61.9092C61.8626 92.9901 61.8392 93.0134 61.8392 93.0601V95.4301C61.8392 95.4767 61.8226 95.5167 61.7892 95.5501C61.7492 95.5834 61.7059 95.6001 61.6592 95.6001H59.9692C59.9159 95.6001 59.8726 95.5834 59.8392 95.5501C59.8059 95.5167 59.7892 95.4767 59.7892 95.4301V93.0601C59.7892 93.0134 59.7659 92.9901 59.7192 92.9901H55.2692C55.2226 92.9901 55.1792 92.9734 55.1392 92.9401C55.1059 92.9067 55.0892 92.8667 55.0892 92.8201V91.6601C55.0892 91.6001 55.1059 91.5267 55.1392 91.4401L57.7492 85.5801C57.7892 85.4934 57.8559 85.4501 57.9492 85.4501H59.7592C59.8259 85.4501 59.8726 85.4667 59.8992 85.5001C59.9259 85.5334 59.9226 85.5834 59.8892 85.6501L57.4692 91.0901C57.4626 91.1101 57.4626 91.1301 57.4692 91.1501C57.4826 91.1701 57.4992 91.1801 57.5192 91.1801H59.7192C59.7659 91.1801 59.7892 91.1534 59.7892 91.1001V89.3101C59.7892 89.2567 59.8059 89.2134 59.8392 89.1801C59.8726 89.1467 59.9159 89.1301 59.9692 89.1301H61.6592C61.7059 89.1301 61.7492 89.1467 61.7892 89.1801C61.8226 89.2134 61.8392 89.2567 61.8392 89.3101V91.1001C61.8392 91.1534 61.8626 91.1801 61.9092 91.1801H62.5292Z" fill="#252530"/>
</svg>
