<svg width="94" height="122" viewBox="0 0 94 122" fill="none" xmlns="http://www.w3.org/2000/svg">
<path d="M8.10156 90.2016L47.6016 110.302L85.6016 90.2016V11.6016H8.10156V90.2016Z" fill="white"/>
<path d="M86.4008 11.9004L7.30078 91.6004L48.3008 111.9L86.4008 92.4004V11.9004Z" fill="#F2F3F2"/>
<path d="M5.5 37.8V91.9L6.9 92.6L46.4 112.7L47.6 113.3L48.8 112.7L86.9 92.6L88.3 91.9V9H5.5V37.8ZM8.1 90.4V11.6H85.7V90.4L47.6 110.5L8.1 90.4Z" fill="#DCDEDC"/>
<path d="M46.9008 12.9C47.3008 12.9 47.7008 12.9 48.1008 13L46.9008 15.3C45.1008 15.2 43.5008 16.6 43.4008 18.4C43.3008 20.2 44.7008 21.8 46.5008 21.9H46.9008C47.7008 21.9 48.5008 21.6 49.1008 21.1L50.4008 23.3C49.4008 24 48.2008 24.4 46.9008 24.4C43.7008 24.5 41.0008 22.1 40.9008 18.9C40.8008 15.7 43.2008 13 46.4008 12.9H46.9008ZM51.0008 17.8L52.5008 20.3L51.0008 22.7L49.6008 20.3H46.7008L48.2008 17.8H51.0008ZM48.6008 16.9C48.6008 16.5 48.7008 16.1 48.9008 15.8C49.1008 15.5 49.5008 15.2 49.8008 15L50.0008 14.9C50.4008 14.7 50.5008 14.6 50.5008 14.4C50.5008 14.2 50.2008 14 50.0008 14C49.6008 14 49.3008 14.2 49.1008 14.6L48.6008 14.1C48.7008 13.9 48.9008 13.7 49.1008 13.5C49.4008 13.3 49.7008 13.3 50.0008 13.3C50.3008 13.3 50.7008 13.4 50.9008 13.6C51.1008 13.8 51.3008 14.1 51.3008 14.4C51.3008 14.9 51.0008 15.3 50.4008 15.5L50.1008 15.7C49.8008 15.9 49.6008 16 49.5008 16.3H51.3008V17L48.6008 16.9ZM46.9008 29.4L56.4008 24V9H37.3008V23.9L46.9008 29.4Z" fill="#FF492C"/>
<path d="M90.1984 64.8008H3.59844L0.398438 71.8008L3.59844 78.8008H90.1984L93.2984 71.8008L90.1984 64.8008Z" fill="#2690CE"/>
<path d="M31.6003 60.4216C30.8003 60.4216 30.1036 60.2949 29.5103 60.0416C28.9036 59.7816 28.4403 59.4149 28.1203 58.9416C27.7936 58.4682 27.6303 57.9182 27.6303 57.2916V56.9616C27.6303 56.9082 27.647 56.8649 27.6803 56.8316C27.7203 56.7982 27.7636 56.7816 27.8103 56.7816H29.5203C29.567 56.7816 29.6103 56.7982 29.6503 56.8316C29.6836 56.8649 29.7003 56.9082 29.7003 56.9616V57.1816C29.7003 57.5816 29.887 57.9182 30.2603 58.1916C30.627 58.4716 31.127 58.6116 31.7603 58.6116C32.287 58.6116 32.6803 58.4982 32.9403 58.2716C33.2003 58.0449 33.3303 57.7682 33.3303 57.4416C33.3303 57.1949 33.2503 56.9916 33.0903 56.8316C32.9303 56.6649 32.7136 56.5182 32.4403 56.3916C32.1603 56.2716 31.7236 56.1016 31.1303 55.8816C30.457 55.6482 29.887 55.4116 29.4203 55.1716C28.9603 54.9316 28.5703 54.6049 28.2503 54.1916C27.937 53.7782 27.7803 53.2649 27.7803 52.6516C27.7803 52.0516 27.937 51.5282 28.2503 51.0816C28.557 50.6282 28.9836 50.2816 29.5303 50.0416C30.0836 49.8016 30.7203 49.6816 31.4403 49.6816C32.2003 49.6816 32.877 49.8182 33.4703 50.0916C34.0636 50.3582 34.5303 50.7349 34.8703 51.2216C35.2036 51.7016 35.3703 52.2649 35.3703 52.9116V53.1316C35.3703 53.1849 35.3536 53.2282 35.3203 53.2616C35.2803 53.2949 35.237 53.3116 35.1903 53.3116H33.4703C33.417 53.3116 33.3736 53.2949 33.3403 53.2616C33.3003 53.2282 33.2803 53.1849 33.2803 53.1316V53.0116C33.2803 52.5916 33.1103 52.2349 32.7703 51.9416C32.4236 51.6482 31.9503 51.5016 31.3503 51.5016C30.877 51.5016 30.5103 51.6016 30.2503 51.8016C29.9836 51.9949 29.8503 52.2682 29.8503 52.6216C29.8503 52.8749 29.927 53.0849 30.0803 53.2516C30.2403 53.4249 30.4703 53.5782 30.7703 53.7116C31.077 53.8449 31.5503 54.0282 32.1903 54.2616C32.9036 54.5216 33.4603 54.7516 33.8603 54.9516C34.267 55.1516 34.6336 55.4482 34.9603 55.8416C35.287 56.2349 35.4503 56.7482 35.4503 57.3816C35.4503 58.3216 35.1036 59.0616 34.4103 59.6016C33.7236 60.1482 32.787 60.4216 31.6003 60.4216ZM43.6203 55.6516C43.6803 56.0316 43.7003 56.4549 43.6803 56.9216C43.667 57.0482 43.6003 57.1116 43.4803 57.1116H38.8503C38.7903 57.1116 38.7703 57.1349 38.7903 57.1816C38.817 57.3816 38.8703 57.5816 38.9503 57.7816C39.2103 58.3416 39.7403 58.6216 40.5403 58.6216C41.1803 58.6149 41.687 58.3549 42.0603 57.8416C42.1003 57.7816 42.1436 57.7516 42.1903 57.7516C42.2236 57.7516 42.2603 57.7716 42.3003 57.8116L43.3803 58.8716C43.427 58.9249 43.4503 58.9716 43.4503 59.0116C43.4503 59.0316 43.4303 59.0716 43.3903 59.1316C43.0636 59.5449 42.6403 59.8616 42.1203 60.0816C41.6003 60.3082 41.0303 60.4216 40.4103 60.4216C39.5503 60.4216 38.8236 60.2282 38.2303 59.8416C37.6303 59.4482 37.2003 58.9016 36.9403 58.2016C36.7336 57.7016 36.6303 57.0482 36.6303 56.2416C36.6303 55.6882 36.7036 55.2016 36.8503 54.7816C37.0836 54.0749 37.487 53.5116 38.0603 53.0916C38.6336 52.6716 39.317 52.4616 40.1103 52.4616C41.1103 52.4616 41.9136 52.7516 42.5203 53.3316C43.127 53.9116 43.4936 54.6849 43.6203 55.6516ZM40.1203 54.2916C39.4936 54.2916 39.0803 54.5849 38.8803 55.1716C38.8403 55.3049 38.8036 55.4649 38.7703 55.6516C38.7703 55.6982 38.797 55.7216 38.8503 55.7216H41.4403C41.5003 55.7216 41.5203 55.6982 41.5003 55.6516C41.4536 55.3649 41.4303 55.2249 41.4303 55.2316C41.337 54.9316 41.1803 54.6982 40.9603 54.5316C40.7336 54.3716 40.4536 54.2916 40.1203 54.2916ZM49.2303 54.1116C49.2303 54.1582 49.2136 54.1982 49.1803 54.2316C49.1403 54.2716 49.097 54.2916 49.0503 54.2916H47.6103C47.5636 54.2916 47.5403 54.3149 47.5403 54.3616V57.5416C47.5403 57.8682 47.607 58.1149 47.7403 58.2816C47.8736 58.4416 48.0903 58.5216 48.3903 58.5216H48.8803C48.9336 58.5216 48.977 58.5382 49.0103 58.5716C49.0436 58.6049 49.0603 58.6482 49.0603 58.7016V60.1216C49.0603 60.2349 49.0003 60.2982 48.8803 60.3116C48.4603 60.3316 48.1603 60.3416 47.9803 60.3416C47.1536 60.3416 46.537 60.2049 46.1303 59.9316C45.717 59.6582 45.5036 59.1416 45.4903 58.3816V54.3616C45.4903 54.3149 45.467 54.2916 45.4203 54.2916H44.5603C44.5136 54.2916 44.4736 54.2716 44.4403 54.2316C44.4003 54.1982 44.3803 54.1582 44.3803 54.1116V52.7716C44.3803 52.7249 44.4003 52.6816 44.4403 52.6416C44.4736 52.6082 44.5136 52.5916 44.5603 52.5916H45.4203C45.467 52.5916 45.4903 52.5649 45.4903 52.5116V50.7316C45.4903 50.6849 45.5103 50.6416 45.5503 50.6016C45.5836 50.5682 45.6236 50.5516 45.6703 50.5516H47.3603C47.407 50.5516 47.447 50.5682 47.4803 50.6016C47.5203 50.6416 47.5403 50.6849 47.5403 50.7316V52.5116C47.5403 52.5649 47.5636 52.5916 47.6103 52.5916H49.0503C49.097 52.5916 49.1403 52.6082 49.1803 52.6416C49.2136 52.6816 49.2303 52.7249 49.2303 52.7716V54.1116ZM55.0003 52.7716C55.0003 52.7249 55.0203 52.6816 55.0603 52.6416C55.0936 52.6082 55.1336 52.5916 55.1803 52.5916H56.9403C56.987 52.5916 57.0303 52.6082 57.0703 52.6416C57.1036 52.6816 57.1203 52.7249 57.1203 52.7716V60.1216C57.1203 60.1749 57.1036 60.2182 57.0703 60.2516C57.0303 60.2849 56.987 60.3016 56.9403 60.3016H55.1803C55.1336 60.3016 55.0936 60.2849 55.0603 60.2516C55.0203 60.2182 55.0003 60.1749 55.0003 60.1216V59.6116C55.0003 59.5849 54.9903 59.5682 54.9703 59.5616C54.9503 59.5549 54.9303 59.5682 54.9103 59.6016C54.5103 60.1349 53.8903 60.4016 53.0503 60.4016C52.2903 60.4016 51.667 60.1749 51.1803 59.7216C50.687 59.2616 50.4403 58.6149 50.4403 57.7816V52.7716C50.4403 52.7249 50.4603 52.6816 50.5003 52.6416C50.5336 52.6082 50.5736 52.5916 50.6203 52.5916H52.3603C52.4136 52.5916 52.457 52.6082 52.4903 52.6416C52.5236 52.6816 52.5403 52.7249 52.5403 52.7716V57.2616C52.5403 57.6616 52.6503 57.9849 52.8703 58.2316C53.0836 58.4849 53.3803 58.6116 53.7603 58.6116C54.1003 58.6116 54.3803 58.5082 54.6003 58.3016C54.8203 58.0949 54.9536 57.8282 55.0003 57.5016V52.7716ZM65.5603 54.6616C65.7403 55.1682 65.8303 55.7682 65.8303 56.4616C65.8303 57.1549 65.737 57.7816 65.5503 58.3416C65.317 58.9816 64.9536 59.4882 64.4603 59.8616C63.967 60.2349 63.3536 60.4216 62.6203 60.4216C61.9003 60.4216 61.3403 60.1716 60.9403 59.6716C60.9203 59.6449 60.9003 59.6349 60.8803 59.6416C60.8603 59.6482 60.8503 59.6682 60.8503 59.7016V62.9116C60.8503 62.9649 60.8336 63.0082 60.8003 63.0416C60.767 63.0749 60.7236 63.0916 60.6703 63.0916H58.9203C58.867 63.0916 58.8236 63.0749 58.7903 63.0416C58.757 63.0082 58.7403 62.9649 58.7403 62.9116V52.7716C58.7403 52.7249 58.757 52.6816 58.7903 52.6416C58.8236 52.6082 58.867 52.5916 58.9203 52.5916H60.6703C60.7236 52.5916 60.767 52.6082 60.8003 52.6416C60.8336 52.6816 60.8503 52.7249 60.8503 52.7716V53.2616C60.8503 53.2949 60.8603 53.3149 60.8803 53.3216C60.9003 53.3282 60.9203 53.3216 60.9403 53.3016C61.3603 52.7482 61.9403 52.4716 62.6803 52.4716C63.3736 52.4716 63.9736 52.6649 64.4803 53.0516C64.9803 53.4382 65.3403 53.9749 65.5603 54.6616ZM63.2703 58.0216C63.517 57.6349 63.6403 57.1049 63.6403 56.4316C63.6403 55.8049 63.537 55.3049 63.3303 54.9316C63.097 54.5049 62.727 54.2916 62.2203 54.2916C61.7603 54.2916 61.4136 54.5049 61.1803 54.9316C60.9736 55.2916 60.8703 55.7982 60.8703 56.4516C60.8703 57.1182 60.9803 57.6382 61.2003 58.0116C61.427 58.4116 61.767 58.6116 62.2203 58.6116C62.667 58.6116 63.017 58.4149 63.2703 58.0216ZM29.8703 36.4316C29.8703 36.4849 29.8503 36.5282 29.8103 36.5616C29.777 36.5949 29.737 36.6116 29.6903 36.6116H24.7603C24.7136 36.6116 24.6903 36.6382 24.6903 36.6916V39.0116C24.6903 39.0649 24.7136 39.0916 24.7603 39.0916H27.9903C28.037 39.0916 28.0803 39.1082 28.1203 39.1416C28.1536 39.1816 28.1703 39.2249 28.1703 39.2716V40.7216C28.1703 40.7749 28.1536 40.8182 28.1203 40.8516C28.0803 40.8916 28.037 40.9116 27.9903 40.9116H24.7603C24.7136 40.9116 24.6903 40.9349 24.6903 40.9816V43.4116C24.6903 43.4649 24.7136 43.4916 24.7603 43.4916H29.6903C29.737 43.4916 29.777 43.5082 29.8103 43.5416C29.8503 43.5749 29.8703 43.6149 29.8703 43.6616V45.1216C29.8703 45.1749 29.8503 45.2182 29.8103 45.2516C29.777 45.2849 29.737 45.3016 29.6903 45.3016H22.7503C22.7036 45.3016 22.6636 45.2849 22.6303 45.2516C22.5903 45.2182 22.5703 45.1749 22.5703 45.1216V34.9816C22.5703 34.9349 22.5903 34.8916 22.6303 34.8516C22.6636 34.8182 22.7036 34.8016 22.7503 34.8016H29.6903C29.737 34.8016 29.777 34.8182 29.8103 34.8516C29.8503 34.8916 29.8703 34.9349 29.8703 34.9816V36.4316ZM34.2803 37.4716C34.927 37.4716 35.507 37.5849 36.0203 37.8116C36.527 38.0382 36.9236 38.3449 37.2103 38.7316C37.4903 39.1249 37.6303 39.5616 37.6303 40.0416V45.1216C37.6303 45.1749 37.6136 45.2182 37.5803 45.2516C37.547 45.2849 37.5036 45.3016 37.4503 45.3016H35.7003C35.647 45.3016 35.6036 45.2849 35.5703 45.2516C35.537 45.2182 35.5203 45.1749 35.5203 45.1216V44.6316C35.5203 44.5982 35.5103 44.5782 35.4903 44.5716C35.4703 44.5582 35.4503 44.5682 35.4303 44.6016C35.0103 45.1482 34.3336 45.4216 33.4003 45.4216C32.6203 45.4216 31.9936 45.2316 31.5203 44.8516C31.0336 44.4716 30.7903 43.9116 30.7903 43.1716C30.7903 42.4049 31.0636 41.8082 31.6103 41.3816C32.1436 40.9549 32.9103 40.7416 33.9103 40.7416H35.4503C35.497 40.7416 35.5203 40.7182 35.5203 40.6716V40.3416C35.5203 40.0082 35.4203 39.7482 35.2203 39.5616C35.0203 39.3816 34.7203 39.2916 34.3203 39.2916C34.0136 39.2916 33.757 39.3449 33.5503 39.4516C33.3436 39.5649 33.2103 39.7216 33.1503 39.9216C33.1236 40.0282 33.057 40.0782 32.9503 40.0716L31.1403 39.8316C31.0203 39.8116 30.9636 39.7649 30.9703 39.6916C31.017 39.2716 31.187 38.8916 31.4803 38.5516C31.7736 38.2116 32.1636 37.9482 32.6503 37.7616C33.1303 37.5682 33.6736 37.4716 34.2803 37.4716ZM33.9703 43.8516C34.4036 43.8516 34.7703 43.7349 35.0703 43.5016C35.3703 43.2682 35.5203 42.9716 35.5203 42.6116V42.0716C35.5203 42.0249 35.497 42.0016 35.4503 42.0016H34.3703C33.917 42.0016 33.5636 42.0882 33.3103 42.2616C33.057 42.4282 32.9303 42.6682 32.9303 42.9816C32.9303 43.2482 33.0236 43.4582 33.2103 43.6116C33.397 43.7716 33.6503 43.8516 33.9703 43.8516ZM42.2003 45.4016C41.527 45.4016 40.9403 45.3082 40.4403 45.1216C39.9403 44.9349 39.5536 44.6716 39.2803 44.3316C39.0003 43.9916 38.8603 43.6049 38.8603 43.1716V43.0216C38.8603 42.9749 38.8803 42.9316 38.9203 42.8916C38.9536 42.8582 38.9936 42.8416 39.0403 42.8416H40.7103C40.7636 42.8416 40.807 42.8582 40.8403 42.8916C40.8736 42.9316 40.8903 42.9749 40.8903 43.0216V43.0316C40.8903 43.2582 41.0136 43.4482 41.2603 43.6016C41.5003 43.7549 41.807 43.8316 42.1803 43.8316C42.5203 43.8316 42.7936 43.7649 43.0003 43.6316C43.2136 43.4916 43.3203 43.3249 43.3203 43.1316C43.3203 42.9516 43.2303 42.8149 43.0503 42.7216C42.8703 42.6349 42.5736 42.5416 42.1603 42.4416C41.6936 42.3216 41.3236 42.2049 41.0503 42.0916C40.4103 41.8716 39.9003 41.6016 39.5203 41.2816C39.1403 40.9616 38.9503 40.5016 38.9503 39.9016C38.9503 39.1616 39.2403 38.5749 39.8203 38.1416C40.3936 37.7082 41.157 37.4916 42.1103 37.4916C42.7503 37.4916 43.3103 37.5916 43.7903 37.7916C44.2636 37.9982 44.6336 38.2882 44.9003 38.6616C45.167 39.0282 45.3003 39.4482 45.3003 39.9216C45.3003 39.9682 45.2836 40.0082 45.2503 40.0416C45.217 40.0749 45.1736 40.0916 45.1203 40.0916H43.5203C43.467 40.0916 43.4236 40.0749 43.3903 40.0416C43.357 40.0082 43.3403 39.9682 43.3403 39.9216C43.3403 39.7016 43.227 39.5149 43.0003 39.3616C42.7736 39.2082 42.477 39.1316 42.1103 39.1316C41.777 39.1316 41.5036 39.1949 41.2903 39.3216C41.0836 39.4416 40.9803 39.6049 40.9803 39.8116C40.9803 40.0116 41.0836 40.1616 41.2903 40.2616C41.4903 40.3616 41.8336 40.4682 42.3203 40.5816C42.427 40.6082 42.5503 40.6382 42.6903 40.6716C42.8303 40.7049 42.9803 40.7482 43.1403 40.8016C43.8536 41.0149 44.4136 41.2849 44.8203 41.6116C45.227 41.9449 45.4303 42.4249 45.4303 43.0516C45.4303 43.7916 45.1403 44.3682 44.5603 44.7816C43.9736 45.1949 43.187 45.4016 42.2003 45.4016ZM47.7903 36.7216C47.4503 36.7216 47.167 36.6082 46.9403 36.3816C46.7203 36.1616 46.6103 35.8816 46.6103 35.5416C46.6103 35.1882 46.7203 34.9016 46.9403 34.6816C47.1603 34.4616 47.4436 34.3516 47.7903 34.3516C48.1436 34.3516 48.427 34.4616 48.6403 34.6816C48.867 34.9016 48.9803 35.1882 48.9803 35.5416C48.9803 35.8816 48.867 36.1616 48.6403 36.3816C48.4136 36.6082 48.1303 36.7216 47.7903 36.7216ZM46.8903 45.3016C46.8436 45.3016 46.8003 45.2849 46.7603 45.2516C46.727 45.2182 46.7103 45.1749 46.7103 45.1216V37.7616C46.7103 37.7082 46.727 37.6649 46.7603 37.6316C46.8003 37.5982 46.8436 37.5816 46.8903 37.5816H48.6403C48.6936 37.5816 48.737 37.5982 48.7703 37.6316C48.8036 37.6649 48.8203 37.7082 48.8203 37.7616V45.1216C48.8203 45.1749 48.8036 45.2182 48.7703 45.2516C48.737 45.2849 48.6936 45.3016 48.6403 45.3016H46.8903ZM57.3003 40.6516C57.3603 41.0316 57.3803 41.4549 57.3603 41.9216C57.3536 42.0482 57.2903 42.1116 57.1703 42.1116H52.5303C52.4703 42.1116 52.4503 42.1349 52.4703 42.1816C52.5036 42.3816 52.5603 42.5816 52.6403 42.7816C52.9003 43.3416 53.427 43.6216 54.2203 43.6216C54.8603 43.6149 55.367 43.3549 55.7403 42.8416C55.7803 42.7816 55.827 42.7516 55.8803 42.7516C55.907 42.7516 55.9403 42.7716 55.9803 42.8116L57.0603 43.8716C57.1136 43.9249 57.1403 43.9716 57.1403 44.0116C57.1403 44.0316 57.117 44.0716 57.0703 44.1316C56.7436 44.5449 56.3203 44.8616 55.8003 45.0816C55.2803 45.3082 54.7103 45.4216 54.0903 45.4216C53.2303 45.4216 52.5036 45.2282 51.9103 44.8416C51.317 44.4482 50.887 43.9016 50.6203 43.2016C50.4136 42.7016 50.3103 42.0482 50.3103 41.2416C50.3103 40.6882 50.387 40.2016 50.5403 39.7816C50.767 39.0749 51.167 38.5116 51.7403 38.0916C52.3203 37.6716 53.0036 37.4616 53.7903 37.4616C54.7903 37.4616 55.5936 37.7516 56.2003 38.3316C56.807 38.9116 57.1736 39.6849 57.3003 40.6516ZM53.8003 39.2916C53.1736 39.2916 52.7603 39.5849 52.5603 40.1716C52.5203 40.3049 52.487 40.4649 52.4603 40.6516C52.4603 40.6982 52.4836 40.7216 52.5303 40.7216H55.1303C55.1836 40.7216 55.2003 40.6982 55.1803 40.6516C55.1336 40.3649 55.1103 40.2249 55.1103 40.2316C55.017 39.9316 54.8603 39.6982 54.6403 39.5316C54.4136 39.3716 54.1336 39.2916 53.8003 39.2916ZM61.6403 45.4016C60.967 45.4016 60.3803 45.3082 59.8803 45.1216C59.3803 44.9349 58.9936 44.6716 58.7203 44.3316C58.447 43.9916 58.3103 43.6049 58.3103 43.1716V43.0216C58.3103 42.9749 58.327 42.9316 58.3603 42.8916C58.3936 42.8582 58.437 42.8416 58.4903 42.8416H60.1503C60.2036 42.8416 60.247 42.8582 60.2803 42.8916C60.3136 42.9316 60.3303 42.9749 60.3303 43.0216V43.0316C60.3303 43.2582 60.4536 43.4482 60.7003 43.6016C60.947 43.7549 61.2536 43.8316 61.6203 43.8316C61.9603 43.8316 62.237 43.7649 62.4503 43.6316C62.657 43.4916 62.7603 43.3249 62.7603 43.1316C62.7603 42.9516 62.6703 42.8149 62.4903 42.7216C62.3103 42.6349 62.017 42.5416 61.6103 42.4416C61.137 42.3216 60.767 42.2049 60.5003 42.0916C59.8603 41.8716 59.3503 41.6016 58.9703 41.2816C58.5903 40.9616 58.4003 40.5016 58.4003 39.9016C58.4003 39.1616 58.687 38.5749 59.2603 38.1416C59.8336 37.7082 60.597 37.4916 61.5503 37.4916C62.1903 37.4916 62.7503 37.5916 63.2303 37.7916C63.7103 37.9982 64.0803 38.2882 64.3403 38.6616C64.607 39.0282 64.7403 39.4482 64.7403 39.9216C64.7403 39.9682 64.7236 40.0082 64.6903 40.0416C64.657 40.0749 64.6136 40.0916 64.5603 40.0916H62.9603C62.907 40.0916 62.8636 40.0749 62.8303 40.0416C62.797 40.0082 62.7803 39.9682 62.7803 39.9216C62.7803 39.7016 62.667 39.5149 62.4403 39.3616C62.2136 39.2082 61.917 39.1316 61.5503 39.1316C61.217 39.1316 60.947 39.1949 60.7403 39.3216C60.527 39.4416 60.4203 39.6049 60.4203 39.8116C60.4203 40.0116 60.5236 40.1616 60.7303 40.2616C60.937 40.3616 61.2803 40.4682 61.7603 40.5816C61.867 40.6082 61.9903 40.6382 62.1303 40.6716C62.2703 40.7049 62.4203 40.7482 62.5803 40.8016C63.2936 41.0149 63.8536 41.2849 64.2603 41.6116C64.6736 41.9449 64.8803 42.4249 64.8803 43.0516C64.8803 43.7916 64.587 44.3682 64.0003 44.7816C63.4136 45.1949 62.627 45.4016 61.6403 45.4016ZM70.5003 39.1116C70.5003 39.1582 70.4836 39.1982 70.4503 39.2316C70.417 39.2716 70.3736 39.2916 70.3203 39.2916H68.8803C68.8336 39.2916 68.8103 39.3149 68.8103 39.3616V42.5416C68.8103 42.8682 68.877 43.1149 69.0103 43.2816C69.1436 43.4416 69.3603 43.5216 69.6603 43.5216H70.1603C70.207 43.5216 70.247 43.5382 70.2803 43.5716C70.3203 43.6049 70.3403 43.6482 70.3403 43.7016V45.1216C70.3403 45.2349 70.2803 45.2982 70.1603 45.3116C69.7403 45.3316 69.4403 45.3416 69.2603 45.3416C68.427 45.3416 67.807 45.2049 67.4003 44.9316C66.987 44.6582 66.777 44.1416 66.7703 43.3816V39.3616C66.7703 39.3149 66.7436 39.2916 66.6903 39.2916H65.8403C65.787 39.2916 65.7436 39.2716 65.7103 39.2316C65.677 39.1982 65.6603 39.1582 65.6603 39.1116V37.7716C65.6603 37.7249 65.677 37.6816 65.7103 37.6416C65.7436 37.6082 65.787 37.5916 65.8403 37.5916H66.6903C66.7436 37.5916 66.7703 37.5649 66.7703 37.5116V35.7316C66.7703 35.6849 66.787 35.6416 66.8203 35.6016C66.8536 35.5682 66.897 35.5516 66.9503 35.5516H68.6303C68.677 35.5516 68.717 35.5682 68.7503 35.6016C68.7903 35.6416 68.8103 35.6849 68.8103 35.7316V37.5116C68.8103 37.5649 68.8336 37.5916 68.8803 37.5916H70.3203C70.3736 37.5916 70.417 37.6082 70.4503 37.6416C70.4836 37.6816 70.5003 37.7249 70.5003 37.7716V39.1116Z" fill="#252530"/>
<path d="M33.1403 75.7811C32.6203 75.7811 32.167 75.6978 31.7803 75.5311C31.3936 75.3644 31.0936 75.1311 30.8803 74.8311C30.6736 74.5311 30.5703 74.1778 30.5703 73.7711V73.5211C30.5703 73.4878 30.5836 73.4578 30.6103 73.4311C30.6303 73.4111 30.657 73.4011 30.6903 73.4011H31.5803C31.6136 73.4011 31.6436 73.4111 31.6703 73.4311C31.6903 73.4578 31.7003 73.4878 31.7003 73.5211V73.7111C31.7003 74.0178 31.837 74.2711 32.1103 74.4711C32.3836 74.6778 32.757 74.7811 33.2303 74.7811C33.637 74.7811 33.9436 74.6944 34.1503 74.5211C34.357 74.3478 34.4603 74.1244 34.4603 73.8511C34.4603 73.6644 34.4036 73.5044 34.2903 73.3711C34.177 73.2444 34.017 73.1278 33.8103 73.0211C33.597 72.9144 33.2803 72.7811 32.8603 72.6211C32.387 72.4478 32.0036 72.2844 31.7103 72.1311C31.417 71.9778 31.1736 71.7678 30.9803 71.5011C30.7803 71.2411 30.6803 70.9144 30.6803 70.5211C30.6803 69.9344 30.8936 69.4711 31.3203 69.1311C31.747 68.7911 32.317 68.6211 33.0303 68.6211C33.5303 68.6211 33.9736 68.7078 34.3603 68.8811C34.7403 69.0544 35.037 69.2978 35.2503 69.6111C35.4636 69.9178 35.5703 70.2744 35.5703 70.6811V70.8511C35.5703 70.8844 35.557 70.9144 35.5303 70.9411C35.5103 70.9611 35.4836 70.9711 35.4503 70.9711H34.5503C34.517 70.9711 34.4903 70.9611 34.4703 70.9411C34.4436 70.9144 34.4303 70.8844 34.4303 70.8511V70.7411C34.4303 70.4278 34.3036 70.1644 34.0503 69.9511C33.7903 69.7311 33.4336 69.6211 32.9803 69.6211C32.6136 69.6211 32.3303 69.6978 32.1303 69.8511C31.9236 70.0044 31.8203 70.2211 31.8203 70.5011C31.8203 70.7011 31.8736 70.8644 31.9803 70.9911C32.087 71.1178 32.247 71.2311 32.4603 71.3311C32.6736 71.4378 33.0036 71.5711 33.4503 71.7311C33.9236 71.9111 34.3036 72.0744 34.5903 72.2211C34.8703 72.3678 35.1136 72.5711 35.3203 72.8311C35.5203 73.0978 35.6203 73.4278 35.6203 73.8211C35.6203 74.4211 35.397 74.8978 34.9503 75.2511C34.5103 75.6044 33.907 75.7811 33.1403 75.7811ZM39.6003 68.6911C40.0203 68.6911 40.3903 68.7778 40.7103 68.9511C41.0303 69.1244 41.277 69.3678 41.4503 69.6811C41.6303 70.0011 41.7203 70.3678 41.7203 70.7811C41.7203 71.1878 41.6303 71.5478 41.4503 71.8611C41.2703 72.1744 41.017 72.4144 40.6903 72.5811C40.357 72.7544 39.9736 72.8411 39.5403 72.8411H37.9403C37.907 72.8411 37.8903 72.8578 37.8903 72.8911V75.5811C37.8903 75.6144 37.8803 75.6411 37.8603 75.6611C37.8336 75.6878 37.8036 75.7011 37.7703 75.7011H36.8503C36.817 75.7011 36.7903 75.6878 36.7703 75.6611C36.7436 75.6411 36.7303 75.6144 36.7303 75.5811V68.8111C36.7303 68.7778 36.7436 68.7478 36.7703 68.7211C36.7903 68.7011 36.817 68.6911 36.8503 68.6911H39.6003ZM39.4303 71.9011C39.7703 71.9011 40.0436 71.8011 40.2503 71.6011C40.457 71.4011 40.5603 71.1378 40.5603 70.8111C40.5603 70.4778 40.457 70.2078 40.2503 70.0011C40.0436 69.7944 39.7703 69.6911 39.4303 69.6911H37.9403C37.907 69.6911 37.8903 69.7078 37.8903 69.7411V71.8511C37.8903 71.8844 37.907 71.9011 37.9403 71.9011H39.4303ZM46.6703 75.7011C46.6036 75.7011 46.557 75.6711 46.5303 75.6111L45.2103 72.7311C45.197 72.7044 45.177 72.6911 45.1503 72.6911H43.9503C43.917 72.6911 43.9003 72.7078 43.9003 72.7411V75.5811C43.9003 75.6144 43.887 75.6411 43.8603 75.6611C43.8403 75.6878 43.8136 75.7011 43.7803 75.7011H42.8603C42.827 75.7011 42.8003 75.6878 42.7803 75.6611C42.7536 75.6411 42.7403 75.6144 42.7403 75.5811V68.8211C42.7403 68.7878 42.7536 68.7611 42.7803 68.7411C42.8003 68.7144 42.827 68.7011 42.8603 68.7011H45.6103C46.017 68.7011 46.377 68.7844 46.6903 68.9511C47.0036 69.1244 47.247 69.3644 47.4203 69.6711C47.5936 69.9844 47.6803 70.3411 47.6803 70.7411C47.6803 71.2011 47.5636 71.5911 47.3303 71.9111C47.0903 72.2378 46.7603 72.4644 46.3403 72.5911C46.327 72.5911 46.317 72.5978 46.3103 72.6111C46.3036 72.6244 46.3036 72.6378 46.3103 72.6511L47.7203 75.5611C47.7336 75.5878 47.7403 75.6078 47.7403 75.6211C47.7403 75.6744 47.7036 75.7011 47.6303 75.7011H46.6703ZM43.9503 69.7011C43.917 69.7011 43.9003 69.7178 43.9003 69.7511V71.7411C43.9003 71.7744 43.917 71.7911 43.9503 71.7911H45.4503C45.7703 71.7911 46.027 71.6944 46.2203 71.5011C46.4203 71.3144 46.5203 71.0644 46.5203 70.7511C46.5203 70.4378 46.4203 70.1844 46.2203 69.9911C46.027 69.7978 45.7703 69.7011 45.4503 69.7011H43.9503ZM48.9903 75.7011C48.957 75.7011 48.927 75.6878 48.9003 75.6611C48.8803 75.6411 48.8703 75.6144 48.8703 75.5811V68.8211C48.8703 68.7878 48.8803 68.7611 48.9003 68.7411C48.927 68.7144 48.957 68.7011 48.9903 68.7011H49.9103C49.9436 68.7011 49.9703 68.7144 49.9903 68.7411C50.017 68.7611 50.0303 68.7878 50.0303 68.8211V75.5811C50.0303 75.6144 50.017 75.6411 49.9903 75.6611C49.9703 75.6878 49.9436 75.7011 49.9103 75.7011H48.9903ZM55.5603 68.8211C55.5603 68.7878 55.5736 68.7611 55.6003 68.7411C55.6203 68.7144 55.647 68.7011 55.6803 68.7011H56.6003C56.6336 68.7011 56.6636 68.7144 56.6903 68.7411C56.7103 68.7611 56.7203 68.7878 56.7203 68.8211V75.5811C56.7203 75.6144 56.7103 75.6411 56.6903 75.6611C56.6636 75.6878 56.6336 75.7011 56.6003 75.7011H55.7103C55.6436 75.7011 55.597 75.6744 55.5703 75.6211L52.6903 70.9011C52.677 70.8811 52.6636 70.8711 52.6503 70.8711C52.637 70.8778 52.6303 70.8944 52.6303 70.9211L52.6503 75.5811C52.6503 75.6144 52.637 75.6411 52.6103 75.6611C52.5903 75.6878 52.5636 75.7011 52.5303 75.7011H51.6103C51.577 75.7011 51.5503 75.6878 51.5303 75.6611C51.5036 75.6411 51.4903 75.6144 51.4903 75.5811V68.8211C51.4903 68.7878 51.5036 68.7611 51.5303 68.7411C51.5503 68.7144 51.577 68.7011 51.6103 68.7011H52.5003C52.567 68.7011 52.6136 68.7278 52.6403 68.7811L55.5103 73.5011C55.5236 73.5211 55.537 73.5278 55.5503 73.5211C55.5636 73.5211 55.5703 73.5078 55.5703 73.4811L55.5603 68.8211ZM60.5203 75.7811C60.0203 75.7811 59.5803 75.6844 59.2003 75.4911C58.8203 75.2911 58.527 75.0111 58.3203 74.6511C58.1136 74.2911 58.0103 73.8778 58.0103 73.4111V70.9911C58.0103 70.5178 58.1136 70.1011 58.3203 69.7411C58.527 69.3878 58.8203 69.1111 59.2003 68.9111C59.5803 68.7178 60.0203 68.6211 60.5203 68.6211C61.0136 68.6211 61.4503 68.7178 61.8303 68.9111C62.2036 69.1044 62.4936 69.3678 62.7003 69.7011C62.907 70.0344 63.0103 70.4111 63.0103 70.8311V70.9111C63.0103 70.9444 63.0003 70.9711 62.9803 70.9911C62.9536 71.0178 62.9236 71.0311 62.8903 71.0311H61.9803C61.947 71.0311 61.9203 71.0178 61.9003 70.9911C61.8736 70.9711 61.8603 70.9444 61.8603 70.9111V70.8611C61.8603 70.5011 61.737 70.2044 61.4903 69.9711C61.2503 69.7378 60.927 69.6211 60.5203 69.6211C60.1136 69.6211 59.787 69.7444 59.5403 69.9911C59.2936 70.2311 59.1703 70.5511 59.1703 70.9511V73.4511C59.1703 73.8511 59.3003 74.1744 59.5603 74.4211C59.8203 74.6611 60.157 74.7811 60.5703 74.7811C60.9703 74.7811 61.287 74.6744 61.5203 74.4611C61.747 74.2544 61.8603 73.9678 61.8603 73.6011V72.9811C61.8603 72.9478 61.8436 72.9311 61.8103 72.9311H60.5803C60.547 72.9311 60.517 72.9178 60.4903 72.8911C60.4703 72.8711 60.4603 72.8444 60.4603 72.8111V72.0711C60.4603 72.0378 60.4703 72.0111 60.4903 71.9911C60.517 71.9644 60.547 71.9511 60.5803 71.9511H62.8903C62.9236 71.9511 62.9536 71.9644 62.9803 71.9911C63.0003 72.0111 63.0103 72.0378 63.0103 72.0711V73.3511C63.0103 74.1178 62.787 74.7144 62.3403 75.1411C61.887 75.5678 61.2803 75.7811 60.5203 75.7811Z" fill="white"/>
<path d="M33.4892 93.7601C33.4692 93.7801 33.4626 93.8001 33.4692 93.8201C33.4826 93.8401 33.5026 93.8501 33.5292 93.8501H37.4592C37.5059 93.8501 37.5459 93.8667 37.5792 93.9001C37.6192 93.9334 37.6392 93.9734 37.6392 94.0201V95.4301C37.6392 95.4767 37.6192 95.5167 37.5792 95.5501C37.5459 95.5834 37.5059 95.6001 37.4592 95.6001H30.9392C30.8859 95.6001 30.8426 95.5834 30.8092 95.5501C30.7759 95.5167 30.7592 95.4767 30.7592 95.4301V94.0901C30.7592 94.0034 30.7892 93.9301 30.8492 93.8701C31.3226 93.4101 31.8059 92.9067 32.2992 92.3601C32.7926 91.8134 33.1026 91.4734 33.2292 91.3401C33.4959 91.0201 33.7692 90.7134 34.0492 90.4201C34.9292 89.4467 35.3692 88.7234 35.3692 88.2501C35.3692 87.9101 35.2492 87.6301 35.0092 87.4101C34.7692 87.1967 34.4559 87.0901 34.0692 87.0901C33.6826 87.0901 33.3692 87.1967 33.1292 87.4101C32.8826 87.6301 32.7592 87.9201 32.7592 88.2801V88.6401C32.7592 88.6867 32.7426 88.7267 32.7092 88.7601C32.6759 88.7934 32.6359 88.8101 32.5892 88.8101H30.8792C30.8326 88.8101 30.7926 88.7934 30.7592 88.7601C30.7192 88.7267 30.6992 88.6867 30.6992 88.6401V87.9601C30.7326 87.4401 30.8992 86.9767 31.1992 86.5701C31.4992 86.1701 31.8959 85.8634 32.3892 85.6501C32.8892 85.4367 33.4492 85.3301 34.0692 85.3301C34.7559 85.3301 35.3526 85.4601 35.8592 85.7201C36.3659 85.9734 36.7559 86.3167 37.0292 86.7501C37.3092 87.1901 37.4492 87.6734 37.4492 88.2001C37.4492 88.6067 37.3459 89.0234 37.1392 89.4501C36.9392 89.8767 36.6359 90.3367 36.2292 90.8301C35.9292 91.2034 35.6059 91.5767 35.2592 91.9501C34.9125 92.3167 34.3959 92.8467 33.7092 93.5401L33.4892 93.7601ZM42.3492 95.7601C41.2825 95.7601 40.4426 95.4634 39.8292 94.8701C39.2092 94.2767 38.8992 93.4667 38.8992 92.4401V88.6101C38.8992 87.6034 39.2092 86.8067 39.8292 86.2201C40.4426 85.6267 41.2825 85.3301 42.3492 85.3301C43.4092 85.3301 44.2526 85.6267 44.8792 86.2201C45.4992 86.8067 45.8092 87.6034 45.8092 88.6101V92.4401C45.8092 93.4667 45.4992 94.2767 44.8792 94.8701C44.2526 95.4634 43.4092 95.7601 42.3492 95.7601ZM42.3492 94.0101C42.7825 94.0101 43.1259 93.8767 43.3792 93.6101C43.6392 93.3434 43.7692 92.9867 43.7692 92.5401V88.5501C43.7692 88.1101 43.6392 87.7567 43.3792 87.4901C43.1259 87.2234 42.7825 87.0901 42.3492 87.0901C41.9225 87.0901 41.5826 87.2234 41.3292 87.4901C41.0692 87.7567 40.9392 88.1101 40.9392 88.5501V92.5401C40.9392 92.9867 41.0692 93.3434 41.3292 93.6101C41.5826 93.8767 41.9225 94.0101 42.3492 94.0101ZM49.8692 93.7601C49.8492 93.7801 49.8459 93.8001 49.8592 93.8201C49.8659 93.8401 49.8859 93.8501 49.9192 93.8501H53.8492C53.8959 93.8501 53.9359 93.8667 53.9692 93.9001C54.0026 93.9334 54.0192 93.9734 54.0192 94.0201V95.4301C54.0192 95.4767 54.0026 95.5167 53.9692 95.5501C53.9359 95.5834 53.8959 95.6001 53.8492 95.6001H47.3192C47.2726 95.6001 47.2326 95.5834 47.1992 95.5501C47.1659 95.5167 47.1492 95.4767 47.1492 95.4301V94.0901C47.1492 94.0034 47.1759 93.9301 47.2292 93.8701C47.7092 93.4101 48.1926 92.9067 48.6792 92.3601C49.1726 91.8134 49.4826 91.4734 49.6092 91.3401C49.8826 91.0201 50.1592 90.7134 50.4392 90.4201C51.3192 89.4467 51.7592 88.7234 51.7592 88.2501C51.7592 87.9101 51.6392 87.6301 51.3992 87.4101C51.1526 87.1967 50.8359 87.0901 50.4492 87.0901C50.0626 87.0901 49.7492 87.1967 49.5092 87.4101C49.2692 87.6301 49.1492 87.9201 49.1492 88.2801V88.6401C49.1492 88.6867 49.1325 88.7267 49.0992 88.7601C49.0659 88.7934 49.0226 88.8101 48.9692 88.8101H47.2592C47.2125 88.8101 47.1726 88.7934 47.1392 88.7601C47.1059 88.7267 47.0892 88.6867 47.0892 88.6401V87.9601C47.1159 87.4401 47.2792 86.9767 47.5792 86.5701C47.8792 86.1701 48.2792 85.8634 48.7792 85.6501C49.2792 85.4367 49.8359 85.3301 50.4492 85.3301C51.1359 85.3301 51.7326 85.4601 52.2392 85.7201C52.7526 85.9734 53.1459 86.3167 53.4192 86.7501C53.6925 87.1901 53.8292 87.6734 53.8292 88.2001C53.8292 88.6067 53.7292 89.0234 53.5292 89.4501C53.3226 89.8767 53.0159 90.3367 52.6092 90.8301C52.3092 91.2034 51.9859 91.5767 51.6392 91.9501C51.2926 92.3167 50.7759 92.8467 50.0892 93.5401L49.8692 93.7601ZM62.5292 91.1801C62.5759 91.1801 62.6192 91.1967 62.6592 91.2301C62.6926 91.2634 62.7092 91.3034 62.7092 91.3501V92.8201C62.7092 92.8667 62.6926 92.9067 62.6592 92.9401C62.6192 92.9734 62.5759 92.9901 62.5292 92.9901H61.9092C61.8626 92.9901 61.8392 93.0134 61.8392 93.0601V95.4301C61.8392 95.4767 61.8226 95.5167 61.7892 95.5501C61.7492 95.5834 61.7059 95.6001 61.6592 95.6001H59.9692C59.9159 95.6001 59.8726 95.5834 59.8392 95.5501C59.8059 95.5167 59.7892 95.4767 59.7892 95.4301V93.0601C59.7892 93.0134 59.7659 92.9901 59.7192 92.9901H55.2692C55.2226 92.9901 55.1792 92.9734 55.1392 92.9401C55.1059 92.9067 55.0892 92.8667 55.0892 92.8201V91.6601C55.0892 91.6001 55.1059 91.5267 55.1392 91.4401L57.7492 85.5801C57.7892 85.4934 57.8559 85.4501 57.9492 85.4501H59.7592C59.8259 85.4501 59.8726 85.4667 59.8992 85.5001C59.9259 85.5334 59.9226 85.5834 59.8892 85.6501L57.4692 91.0901C57.4626 91.1101 57.4626 91.1301 57.4692 91.1501C57.4826 91.1701 57.4992 91.1801 57.5192 91.1801H59.7192C59.7659 91.1801 59.7892 91.1534 59.7892 91.1001V89.3101C59.7892 89.2567 59.8059 89.2134 59.8392 89.1801C59.8726 89.1467 59.9159 89.1301 59.9692 89.1301H61.6592C61.7059 89.1301 61.7492 89.1467 61.7892 89.1801C61.8226 89.2134 61.8392 89.2567 61.8392 89.3101V91.1001C61.8392 91.1534 61.8626 91.1801 61.9092 91.1801H62.5292Z" fill="#252530"/>
</svg>
