<svg width="94" height="122" viewBox="0 0 94 122" fill="none" xmlns="http://www.w3.org/2000/svg">
<path d="M47.8189 111L6.62891 90.45V21.88C9.9454 21.4876 13.0828 20.1633 15.6774 18.0607C18.2721 15.9581 20.2177 13.1632 21.2889 10H72.6289C73.7112 13.199 75.6865 16.0214 78.3215 18.1336C80.9565 20.2459 84.1411 21.5598 87.4989 21.92V90.45L47.8189 111Z" fill="white"/>
<path d="M7 90.4505L47.74 111L87 90.4305V21.9205C83.736 21.4722 80.6393 20.2025 78 18.2305L7 90.4505Z" fill="#F7F8F7"/>
<path d="M89 20H88.87C85.3714 19.9938 81.9777 18.8049 79.24 16.6264C76.5024 14.4479 74.5818 11.4078 73.79 8L20 8C19.2082 11.3929 17.2985 14.4209 14.5779 16.5974C11.8573 18.7738 8.48393 19.9723 5 20V92.22L6.42 92.94L46.56 113.38L47.76 113.99L48.95 113.36L87.61 92.92L89 92.19V22V20ZM47.74 111L7 90.45V21.88C10.2929 21.4769 13.4035 20.1461 15.9689 18.0427C18.5344 15.9393 20.4492 13.15 21.49 10H72.28C73.3332 13.1886 75.2806 16.0074 77.8903 18.1207C80.5 20.234 83.6621 21.5528 87 21.92V90.45L47.74 111Z" fill="#E9E9EA"/>
<mask id="mask0_294_50065" style="mask-type:luminance" maskUnits="userSpaceOnUse" x="0" y="64" width="94" height="16">
<path d="M90.79 64.9902H3.21L0 72.4902L3.21 79.9902H90.79L94 72.4902L90.79 64.9902Z" fill="white"/>
</mask>
<g mask="url(#mask0_294_50065)">
<path d="M-5 59.9902H99V84.9902H-5V59.9902Z" fill="#9132A2"/>
</g>
<mask id="mask1_294_50065" style="mask-type:luminance" maskUnits="userSpaceOnUse" x="37" y="8" width="20" height="21">
<path d="M47 29L57 23.4V8H37V23.4L47 29ZM49 15.86C48.9842 15.446 49.0884 15.0362 49.3 14.68C49.5734 14.3117 49.939 14.022 50.36 13.84L50.6 13.74C51.01 13.54 51.11 13.37 51.11 13.17C51.11 12.97 50.89 12.76 50.54 12.76C50.3292 12.7444 50.1188 12.796 49.9392 12.9074C49.7595 13.0188 49.6198 13.1842 49.54 13.38L49 12.85C49.1345 12.5887 49.3432 12.373 49.6 12.23C49.8703 12.074 50.178 11.9945 50.49 12C50.8674 11.9876 51.2388 12.0963 51.55 12.31C51.6919 12.4033 51.8076 12.5313 51.8863 12.6817C51.9651 12.8322 52.0042 13.0002 52 13.17C52 13.75 51.66 14.1 51 14.42L50.63 14.59C50.25 14.78 50.06 14.94 50 15.23H52V16H49V15.86ZM51.5 17L53 19.5L51.5 22L50 19.49H47L48.5 17H51.5ZM47.29 12C47.7063 11.9993 48.1216 12.0395 48.53 12.12L47.29 14.56C46.3581 14.5412 45.4568 14.8929 44.7838 15.5377C44.1107 16.1826 43.721 17.0681 43.7 18C43.7236 18.9301 44.1145 19.8131 44.7872 20.4558C45.4599 21.0985 46.3598 21.4488 47.29 21.43C48.146 21.4351 48.977 21.1416 49.64 20.6L51 22.84C49.9106 23.596 48.616 24.0008 47.29 24C45.6612 24.0349 44.085 23.4232 42.9061 22.2987C41.7273 21.1743 41.0419 19.6286 41 18C41.0419 16.3714 41.7273 14.8257 42.9061 13.7013C44.085 12.5768 45.6612 11.9651 47.29 12Z" fill="white"/>
</mask>
<g mask="url(#mask1_294_50065)">
<path d="M32 2.99023H62V33.9902H32V2.99023Z" fill="#9132A2"/>
</g>
<path d="M19.0889 60.1C19.0289 60.1 18.9789 60.08 18.9389 60.04C18.8989 59.9933 18.8789 59.94 18.8789 59.88V47.72C18.8789 47.66 18.8989 47.6067 18.9389 47.56C18.9789 47.52 19.0289 47.5 19.0889 47.5H21.1989C21.2589 47.5 21.3089 47.52 21.3489 47.56C21.3956 47.6067 21.4189 47.66 21.4189 47.72V57.83C21.4189 57.89 21.4489 57.92 21.5089 57.92H27.3889C27.4489 57.92 27.5022 57.94 27.5489 57.98C27.5889 58.0267 27.6089 58.08 27.6089 58.14V59.88C27.6089 59.94 27.5889 59.9933 27.5489 60.04C27.5022 60.08 27.4489 60.1 27.3889 60.1H19.0889ZM37.1989 54.52C37.2722 54.9733 37.2956 55.4833 37.2689 56.05C37.2622 56.1967 37.1856 56.27 37.0389 56.27H31.4789C31.4056 56.27 31.3822 56.3 31.4089 56.36C31.4422 56.6 31.5056 56.84 31.5989 57.08C31.9122 57.7467 32.5489 58.08 33.5089 58.08C34.2756 58.0733 34.8822 57.7633 35.3289 57.15C35.3756 57.0767 35.4289 57.04 35.4889 57.04C35.5289 57.04 35.5722 57.0633 35.6189 57.11L36.9089 58.39C36.9689 58.45 36.9989 58.5033 36.9989 58.55C36.9989 58.5767 36.9756 58.6267 36.9289 58.7C36.5356 59.1867 36.0256 59.5667 35.3989 59.84C34.7789 60.1067 34.0956 60.24 33.3489 60.24C32.3156 60.24 31.4422 60.0067 30.7289 59.54C30.0156 59.0733 29.5022 58.42 29.1889 57.58C28.9356 56.98 28.8089 56.1933 28.8089 55.22C28.8089 54.56 28.8989 53.98 29.0789 53.48C29.3589 52.6267 29.8422 51.9467 30.5289 51.44C31.2222 50.94 32.0422 50.69 32.9889 50.69C34.1889 50.69 35.1522 51.0367 35.8789 51.73C36.6056 52.4233 37.0456 53.3533 37.1989 54.52ZM33.0089 52.88C32.2489 52.88 31.7489 53.2333 31.5089 53.94C31.4622 54.1 31.4222 54.2933 31.3889 54.52C31.3889 54.58 31.4189 54.61 31.4789 54.61H34.5889C34.6622 54.61 34.6856 54.58 34.6589 54.52C34.5989 54.1733 34.5689 54.0067 34.5689 54.02C34.4622 53.66 34.2756 53.38 34.0089 53.18C33.7356 52.98 33.4022 52.88 33.0089 52.88ZM42.4389 50.7C43.2189 50.7 43.9156 50.8367 44.5289 51.11C45.1422 51.3767 45.6189 51.7467 45.9589 52.22C46.2989 52.6867 46.4689 53.2067 46.4689 53.78V59.88C46.4689 59.94 46.4489 59.9933 46.4089 60.04C46.3689 60.08 46.3189 60.1 46.2589 60.1H44.1489C44.0889 60.1 44.0389 60.08 43.9989 60.04C43.9522 59.9933 43.9289 59.94 43.9289 59.88V59.29C43.9289 59.2567 43.9189 59.2333 43.8989 59.22C43.8722 59.2067 43.8489 59.2167 43.8289 59.25C43.3222 59.91 42.5122 60.24 41.3989 60.24C40.4589 60.24 39.7022 60.0133 39.1289 59.56C38.5489 59.1067 38.2589 58.4333 38.2589 57.54C38.2589 56.62 38.5856 55.9033 39.2389 55.39C39.8856 54.8833 40.8089 54.63 42.0089 54.63H43.8389C43.8989 54.63 43.9289 54.6 43.9289 54.54V54.14C43.9289 53.7467 43.8089 53.4367 43.5689 53.21C43.3289 52.99 42.9689 52.88 42.4889 52.88C42.1222 52.88 41.8156 52.9467 41.5689 53.08C41.3222 53.2133 41.1622 53.4 41.0889 53.64C41.0556 53.7733 40.9789 53.8333 40.8589 53.82L38.6789 53.53C38.5322 53.5033 38.4656 53.45 38.4789 53.37C38.5256 52.8633 38.7256 52.4067 39.0789 52C39.4322 51.5933 39.9022 51.2767 40.4889 51.05C41.0689 50.8167 41.7189 50.7 42.4389 50.7ZM42.0789 58.35C42.5922 58.35 43.0289 58.2133 43.3889 57.94C43.7489 57.6667 43.9289 57.3133 43.9289 56.88V56.23C43.9289 56.17 43.8989 56.14 43.8389 56.14H42.5489C42.0089 56.14 41.5856 56.2433 41.2789 56.45C40.9722 56.65 40.8189 56.9367 40.8189 57.31C40.8189 57.6367 40.9322 57.89 41.1589 58.07C41.3856 58.2567 41.6922 58.35 42.0789 58.35ZM53.9989 47.72C53.9989 47.66 54.0189 47.6067 54.0589 47.56C54.0989 47.52 54.1489 47.5 54.2089 47.5H56.3189C56.3789 47.5 56.4289 47.52 56.4689 47.56C56.5089 47.6067 56.5289 47.66 56.5289 47.72V59.88C56.5289 59.94 56.5089 59.9933 56.4689 60.04C56.4289 60.08 56.3789 60.1 56.3189 60.1H54.2089C54.1489 60.1 54.0989 60.08 54.0589 60.04C54.0189 59.9933 53.9989 59.94 53.9989 59.88V59.29C53.9989 59.2567 53.9856 59.2367 53.9589 59.23C53.9322 59.2233 53.9089 59.23 53.8889 59.25C53.3822 59.91 52.6922 60.24 51.8189 60.24C50.9789 60.24 50.2556 60.0067 49.6489 59.54C49.0422 59.0733 48.6056 58.4333 48.3389 57.62C48.1389 56.9933 48.0389 56.2667 48.0389 55.44C48.0389 54.5867 48.1456 53.8433 48.3589 53.21C48.6389 52.4367 49.0756 51.8267 49.6689 51.38C50.2622 50.9267 50.9956 50.7 51.8689 50.7C52.7356 50.7 53.4089 51 53.8889 51.6C53.9089 51.64 53.9322 51.6533 53.9589 51.64C53.9856 51.6267 53.9989 51.6033 53.9989 51.57V47.72ZM53.6189 57.29C53.8589 56.85 53.9789 56.2433 53.9789 55.47C53.9789 54.67 53.8456 54.04 53.5789 53.58C53.3056 53.1133 52.9056 52.88 52.3789 52.88C51.8122 52.88 51.3856 53.1133 51.0989 53.58C50.7989 54.0533 50.6489 54.69 50.6489 55.49C50.6489 56.21 50.7756 56.81 51.0289 57.29C51.3289 57.81 51.7722 58.07 52.3589 58.07C52.8989 58.07 53.3189 57.81 53.6189 57.29ZM66.6289 54.52C66.7022 54.9733 66.7256 55.4833 66.6989 56.05C66.6922 56.1967 66.6156 56.27 66.4689 56.27H60.9089C60.8356 56.27 60.8122 56.3 60.8389 56.36C60.8722 56.6 60.9356 56.84 61.0289 57.08C61.3422 57.7467 61.9789 58.08 62.9389 58.08C63.7056 58.0733 64.3122 57.7633 64.7589 57.15C64.8056 57.0767 64.8589 57.04 64.9189 57.04C64.9589 57.04 65.0022 57.0633 65.0489 57.11L66.3389 58.39C66.3989 58.45 66.4289 58.5033 66.4289 58.55C66.4289 58.5767 66.4056 58.6267 66.3589 58.7C65.9656 59.1867 65.4556 59.5667 64.8289 59.84C64.2089 60.1067 63.5256 60.24 62.7789 60.24C61.7456 60.24 60.8722 60.0067 60.1589 59.54C59.4456 59.0733 58.9322 58.42 58.6189 57.58C58.3656 56.98 58.2389 56.1933 58.2389 55.22C58.2389 54.56 58.3289 53.98 58.5089 53.48C58.7889 52.6267 59.2722 51.9467 59.9589 51.44C60.6522 50.94 61.4722 50.69 62.4189 50.69C63.6189 50.69 64.5822 51.0367 65.3089 51.73C66.0356 52.4233 66.4756 53.3533 66.6289 54.52ZM62.4389 52.88C61.6789 52.88 61.1789 53.2333 60.9389 53.94C60.8922 54.1 60.8522 54.2933 60.8189 54.52C60.8189 54.58 60.8489 54.61 60.9089 54.61H64.0189C64.0922 54.61 64.1156 54.58 64.0889 54.52C64.0289 54.1733 63.9989 54.0067 63.9989 54.02C63.8922 53.66 63.7056 53.38 63.4389 53.18C63.1656 52.98 62.8322 52.88 62.4389 52.88ZM72.8789 50.72C73.3122 50.72 73.6522 50.8033 73.8989 50.97C73.9989 51.0233 74.0356 51.1133 74.0089 51.24L73.6289 53.3C73.6222 53.44 73.5389 53.48 73.3789 53.42C73.1989 53.36 72.9889 53.33 72.7489 53.33C72.6556 53.33 72.5256 53.3433 72.3589 53.37C71.9256 53.4033 71.5589 53.56 71.2589 53.84C70.9589 54.1267 70.8089 54.5033 70.8089 54.97V59.88C70.8089 59.94 70.7889 59.9933 70.7489 60.04C70.7022 60.08 70.6489 60.1 70.5889 60.1H68.4889C68.4289 60.1 68.3756 60.08 68.3289 60.04C68.2889 59.9933 68.2689 59.94 68.2689 59.88V51.06C68.2689 51 68.2889 50.95 68.3289 50.91C68.3756 50.87 68.4289 50.85 68.4889 50.85H70.5889C70.6489 50.85 70.7022 50.87 70.7489 50.91C70.7889 50.95 70.8089 51 70.8089 51.06V51.75C70.8089 51.7833 70.8189 51.8067 70.8389 51.82C70.8656 51.8333 70.8856 51.8267 70.8989 51.8C71.3922 51.08 72.0522 50.72 72.8789 50.72Z" fill="#252530"/>
<path d="M42.4516 76.3003C42.3849 76.3003 42.3416 76.267 42.3216 76.2003L41.9916 75.1303C41.9783 75.1036 41.9616 75.0903 41.9416 75.0903H39.3016C39.2816 75.0903 39.2649 75.1036 39.2516 75.1303L38.9216 76.2003C38.9016 76.267 38.8583 76.3003 38.7916 76.3003H37.7916C37.7516 76.3003 37.7216 76.287 37.7016 76.2603C37.6816 76.2403 37.6783 76.207 37.6916 76.1603L39.8616 69.4003C39.8816 69.3336 39.9249 69.3003 39.9916 69.3003H41.2416C41.3083 69.3003 41.3516 69.3336 41.3716 69.4003L43.5516 76.1603C43.5583 76.1736 43.5616 76.1903 43.5616 76.2103C43.5616 76.2703 43.5249 76.3003 43.4516 76.3003H42.4516ZM39.5616 74.1203C39.5549 74.1603 39.5683 74.1803 39.6016 74.1803H41.6316C41.6716 74.1803 41.6849 74.1603 41.6716 74.1203L40.6416 70.7703C40.6349 70.7436 40.6249 70.7303 40.6116 70.7303C40.5983 70.7303 40.5883 70.7436 40.5816 70.7703L39.5616 74.1203ZM46.3816 76.3603C45.9616 76.3603 45.5949 76.297 45.2816 76.1703C44.9616 76.0503 44.7149 75.8803 44.5416 75.6603C44.3683 75.447 44.2816 75.207 44.2816 74.9403V74.8503C44.2816 74.817 44.2949 74.787 44.3216 74.7603C44.3416 74.7403 44.3683 74.7303 44.4016 74.7303H45.2816C45.3149 74.7303 45.3449 74.7403 45.3716 74.7603C45.3916 74.787 45.4016 74.817 45.4016 74.8503V74.8703C45.4016 75.037 45.4916 75.1836 45.6716 75.3103C45.8583 75.4303 46.0916 75.4903 46.3716 75.4903C46.6383 75.4903 46.8549 75.437 47.0216 75.3303C47.1883 75.217 47.2716 75.077 47.2716 74.9103C47.2716 74.757 47.2049 74.6403 47.0716 74.5603C46.9316 74.487 46.7083 74.407 46.4016 74.3203L46.0216 74.2003C45.6816 74.1003 45.3949 73.9936 45.1616 73.8803C44.9283 73.767 44.7316 73.6103 44.5716 73.4103C44.4116 73.217 44.3316 72.967 44.3316 72.6603C44.3316 72.1936 44.5149 71.8236 44.8816 71.5503C45.2483 71.2703 45.7316 71.1303 46.3316 71.1303C46.7383 71.1303 47.0949 71.1936 47.4016 71.3203C47.7083 71.4536 47.9449 71.6336 48.1116 71.8603C48.2783 72.0936 48.3616 72.357 48.3616 72.6503C48.3616 72.6836 48.3516 72.7136 48.3316 72.7403C48.3049 72.7603 48.2749 72.7703 48.2416 72.7703H47.3916C47.3583 72.7703 47.3316 72.7603 47.3116 72.7403C47.2849 72.7136 47.2716 72.6836 47.2716 72.6503C47.2716 72.477 47.1883 72.3336 47.0216 72.2203C46.8483 72.1003 46.6149 72.0403 46.3216 72.0403C46.0616 72.0403 45.8483 72.087 45.6816 72.1803C45.5216 72.2803 45.4416 72.417 45.4416 72.5903C45.4416 72.7503 45.5183 72.8703 45.6716 72.9503C45.8316 73.037 46.0949 73.1303 46.4616 73.2303L46.6816 73.2903C47.0349 73.397 47.3316 73.5036 47.5716 73.6103C47.8116 73.7236 48.0149 73.877 48.1816 74.0703C48.3483 74.2703 48.4316 74.527 48.4316 74.8403C48.4316 75.3136 48.2449 75.6836 47.8716 75.9503C47.4983 76.2236 47.0016 76.3603 46.3816 76.3603ZM50.0716 70.4903C49.8649 70.4903 49.6949 70.4236 49.5616 70.2903C49.4283 70.157 49.3616 69.987 49.3616 69.7803C49.3616 69.5736 49.4283 69.4036 49.5616 69.2703C49.6949 69.137 49.8649 69.0703 50.0716 69.0703C50.2783 69.0703 50.4483 69.137 50.5816 69.2703C50.7149 69.4036 50.7816 69.5736 50.7816 69.7803C50.7816 69.987 50.7149 70.157 50.5816 70.2903C50.4483 70.4236 50.2783 70.4903 50.0716 70.4903ZM49.5916 76.3003C49.5583 76.3003 49.5316 76.287 49.5116 76.2603C49.4849 76.2403 49.4716 76.2136 49.4716 76.1803V71.3003C49.4716 71.267 49.4849 71.2403 49.5116 71.2203C49.5316 71.1936 49.5583 71.1803 49.5916 71.1803H50.5116C50.5449 71.1803 50.5716 71.1936 50.5916 71.2203C50.6183 71.2403 50.6316 71.267 50.6316 71.3003V76.1803C50.6316 76.2136 50.6183 76.2403 50.5916 76.2603C50.5716 76.287 50.5449 76.3003 50.5116 76.3003H49.5916ZM53.9116 71.1103C54.3316 71.1103 54.7016 71.1836 55.0216 71.3303C55.3416 71.477 55.5883 71.677 55.7616 71.9303C55.9349 72.1903 56.0216 72.4836 56.0216 72.8103V76.1803C56.0216 76.2136 56.0116 76.2403 55.9916 76.2603C55.9649 76.287 55.9349 76.3003 55.9016 76.3003H54.9816C54.9483 76.3003 54.9216 76.287 54.9016 76.2603C54.8749 76.2403 54.8616 76.2136 54.8616 76.1803V75.8603C54.8616 75.8403 54.8549 75.827 54.8416 75.8203C54.8283 75.8203 54.8149 75.827 54.8016 75.8403C54.4749 76.2003 54.0016 76.3803 53.3816 76.3803C52.8816 76.3803 52.4716 76.2536 52.1516 76.0003C51.8249 75.747 51.6616 75.3703 51.6616 74.8703C51.6616 74.3503 51.8449 73.9436 52.2116 73.6503C52.5716 73.3636 53.0816 73.2203 53.7416 73.2203H54.8116C54.8449 73.2203 54.8616 73.2036 54.8616 73.1703V72.9303C54.8616 72.6703 54.7849 72.467 54.6316 72.3203C54.4783 72.1803 54.2483 72.1103 53.9416 72.1103C53.6883 72.1103 53.4849 72.157 53.3316 72.2503C53.1716 72.337 53.0716 72.4603 53.0316 72.6203C53.0116 72.7003 52.9649 72.7336 52.8916 72.7203L51.9216 72.6003C51.8883 72.5936 51.8616 72.5836 51.8416 72.5703C51.8149 72.5503 51.8049 72.527 51.8116 72.5003C51.8649 72.0936 52.0849 71.7603 52.4716 71.5003C52.8516 71.2403 53.3316 71.1103 53.9116 71.1103ZM53.6716 75.4603C53.9983 75.4603 54.2783 75.3736 54.5116 75.2003C54.7449 75.027 54.8616 74.807 54.8616 74.5403V74.0703C54.8616 74.037 54.8449 74.0203 54.8116 74.0203H53.9716C53.6183 74.0203 53.3416 74.087 53.1416 74.2203C52.9349 74.3536 52.8316 74.5436 52.8316 74.7903C52.8316 75.0036 52.9116 75.167 53.0716 75.2803C53.2249 75.4003 53.4249 75.4603 53.6716 75.4603Z" fill="white"/>
<path d="M33.15 90.4803C32.6167 90.4803 32.15 90.3936 31.75 90.2203C31.35 90.0536 31.0433 89.8103 30.83 89.4903C30.61 89.177 30.5 88.8103 30.5 88.3903V88.1703C30.5 88.137 30.5133 88.1103 30.54 88.0903C30.56 88.0636 30.5867 88.0503 30.62 88.0503H31.76C31.7933 88.0503 31.8233 88.0636 31.85 88.0903C31.87 88.1103 31.88 88.137 31.88 88.1703V88.3203C31.88 88.587 32.0033 88.8103 32.25 88.9903C32.4967 89.177 32.83 89.2703 33.25 89.2703C33.6033 89.2703 33.8667 89.197 34.04 89.0503C34.2133 88.897 34.3 88.7103 34.3 88.4903C34.3 88.3303 34.2467 88.197 34.14 88.0903C34.0333 87.977 33.8867 87.8803 33.7 87.8003C33.52 87.7136 33.23 87.597 32.83 87.4503C32.3833 87.297 32.0033 87.1403 31.69 86.9803C31.3833 86.8203 31.1267 86.6003 30.92 86.3203C30.7067 86.047 30.6 85.707 30.6 85.3003C30.6 84.9003 30.7033 84.5503 30.91 84.2503C31.1167 83.9503 31.4033 83.7203 31.77 83.5603C32.1367 83.4003 32.56 83.3203 33.04 83.3203C33.5467 83.3203 33.9967 83.4103 34.39 83.5903C34.79 83.7703 35.1033 84.0236 35.33 84.3503C35.55 84.6703 35.66 85.0436 35.66 85.4703V85.6203C35.66 85.6536 35.65 85.6803 35.63 85.7003C35.6033 85.727 35.5733 85.7403 35.54 85.7403H34.39C34.3567 85.7403 34.33 85.727 34.31 85.7003C34.2833 85.6803 34.27 85.6536 34.27 85.6203V85.5403C34.27 85.2603 34.1567 85.0203 33.93 84.8203C33.6967 84.627 33.38 84.5303 32.98 84.5303C32.6667 84.5303 32.42 84.597 32.24 84.7303C32.0667 84.8636 31.98 85.047 31.98 85.2803C31.98 85.447 32.0333 85.587 32.14 85.7003C32.24 85.8136 32.3933 85.9136 32.6 86.0003C32.8 86.0936 33.1133 86.217 33.54 86.3703C34.0133 86.5436 34.3833 86.697 34.65 86.8303C34.9233 86.9636 35.17 87.1603 35.39 87.4203C35.6033 87.687 35.71 88.0303 35.71 88.4503C35.71 89.077 35.48 89.5703 35.02 89.9303C34.56 90.297 33.9367 90.4803 33.15 90.4803ZM39.59 83.3903C40.03 83.3903 40.4167 83.4803 40.75 83.6603C41.0833 83.8403 41.3433 84.0936 41.53 84.4203C41.71 84.7536 41.8 85.1336 41.8 85.5603C41.8 85.9803 41.7067 86.3503 41.52 86.6703C41.3267 86.9903 41.0567 87.2403 40.71 87.4203C40.37 87.5936 39.9767 87.6803 39.53 87.6803H38.11C38.0767 87.6803 38.06 87.697 38.06 87.7303V90.2803C38.06 90.3136 38.0467 90.3403 38.02 90.3603C38 90.387 37.9733 90.4003 37.94 90.4003H36.77C36.7367 90.4003 36.7067 90.387 36.68 90.3603C36.66 90.3403 36.65 90.3136 36.65 90.2803V83.5103C36.65 83.477 36.66 83.447 36.68 83.4203C36.7067 83.4003 36.7367 83.3903 36.77 83.3903H39.59ZM39.38 86.5503C39.6867 86.5503 39.9333 86.4603 40.12 86.2803C40.3067 86.107 40.4 85.877 40.4 85.5903C40.4 85.297 40.3067 85.0603 40.12 84.8803C39.9333 84.7003 39.6867 84.6103 39.38 84.6103H38.11C38.0767 84.6103 38.06 84.627 38.06 84.6603V86.5003C38.06 86.5336 38.0767 86.5503 38.11 86.5503H39.38ZM46.51 90.4003C46.4433 90.4003 46.3967 90.3703 46.37 90.3103L45.12 87.5403C45.1067 87.5136 45.0867 87.5003 45.06 87.5003H44.13C44.0967 87.5003 44.08 87.517 44.08 87.5503V90.2803C44.08 90.3136 44.0667 90.3403 44.04 90.3603C44.02 90.387 43.9933 90.4003 43.96 90.4003H42.79C42.7567 90.4003 42.7267 90.387 42.7 90.3603C42.68 90.3403 42.67 90.3136 42.67 90.2803V83.5203C42.67 83.487 42.68 83.4603 42.7 83.4403C42.7267 83.4136 42.7567 83.4003 42.79 83.4003H45.65C46.0767 83.4003 46.45 83.487 46.77 83.6603C47.0967 83.8336 47.3467 84.0803 47.52 84.4003C47.7 84.7203 47.79 85.0903 47.79 85.5103C47.79 85.9636 47.6767 86.3503 47.45 86.6703C47.2233 86.997 46.9067 87.227 46.5 87.3603C46.4667 87.3736 46.4567 87.397 46.47 87.4303L47.83 90.2603C47.8433 90.287 47.85 90.307 47.85 90.3203C47.85 90.3736 47.8133 90.4003 47.74 90.4003H46.51ZM44.13 84.6103C44.0967 84.6103 44.08 84.627 44.08 84.6603V86.3703C44.08 86.4036 44.0967 86.4203 44.13 86.4203H45.44C45.72 86.4203 45.9467 86.337 46.12 86.1703C46.3 86.0036 46.39 85.787 46.39 85.5203C46.39 85.2536 46.3 85.0336 46.12 84.8603C45.9467 84.6936 45.72 84.6103 45.44 84.6103H44.13ZM48.93 90.4003C48.8967 90.4003 48.87 90.387 48.85 90.3603C48.8233 90.3403 48.81 90.3136 48.81 90.2803V83.5203C48.81 83.487 48.8233 83.4603 48.85 83.4403C48.87 83.4136 48.8967 83.4003 48.93 83.4003H50.1C50.1333 83.4003 50.1633 83.4136 50.19 83.4403C50.21 83.4603 50.22 83.487 50.22 83.5203V90.2803C50.22 90.3136 50.21 90.3403 50.19 90.3603C50.1633 90.387 50.1333 90.4003 50.1 90.4003H48.93ZM55.46 83.5203C55.46 83.487 55.4733 83.4603 55.5 83.4403C55.52 83.4136 55.5467 83.4003 55.58 83.4003H56.75C56.7833 83.4003 56.8133 83.4136 56.84 83.4403C56.86 83.4603 56.87 83.487 56.87 83.5203V90.2803C56.87 90.3136 56.86 90.3403 56.84 90.3603C56.8133 90.387 56.7833 90.4003 56.75 90.4003H55.62C55.5533 90.4003 55.5067 90.3736 55.48 90.3203L52.89 86.0403C52.8767 86.0203 52.8633 86.0136 52.85 86.0203C52.8367 86.0203 52.83 86.0336 52.83 86.0603L52.85 90.2803C52.85 90.3136 52.84 90.3403 52.82 90.3603C52.7933 90.387 52.7633 90.4003 52.73 90.4003H51.56C51.5267 90.4003 51.5 90.387 51.48 90.3603C51.4533 90.3403 51.44 90.3136 51.44 90.2803V83.5203C51.44 83.487 51.4533 83.4603 51.48 83.4403C51.5 83.4136 51.5267 83.4003 51.56 83.4003H52.69C52.7567 83.4003 52.8033 83.427 52.83 83.4803L55.41 87.7403C55.4233 87.7603 55.4367 87.767 55.45 87.7603C55.4633 87.7603 55.47 87.747 55.47 87.7203L55.46 83.5203ZM60.55 90.4803C60.0367 90.4803 59.5833 90.377 59.19 90.1703C58.7967 89.9636 58.4933 89.677 58.28 89.3103C58.06 88.937 57.95 88.507 57.95 88.0203V85.7803C57.95 85.2936 58.06 84.8636 58.28 84.4903C58.4933 84.117 58.7967 83.827 59.19 83.6203C59.5833 83.4203 60.0367 83.3203 60.55 83.3203C61.0567 83.3203 61.5067 83.4203 61.9 83.6203C62.2867 83.8203 62.59 84.0936 62.81 84.4403C63.0233 84.7803 63.13 85.1603 63.13 85.5803V85.6503C63.13 85.6836 63.12 85.7103 63.1 85.7303C63.0733 85.757 63.0433 85.7703 63.01 85.7703H61.84C61.8067 85.7703 61.78 85.757 61.76 85.7303C61.7333 85.7103 61.72 85.6836 61.72 85.6503V85.6203C61.72 85.3136 61.6133 85.057 61.4 84.8503C61.1867 84.637 60.9033 84.5303 60.55 84.5303C60.19 84.5303 59.9033 84.6403 59.69 84.8603C59.47 85.087 59.36 85.3803 59.36 85.7403V88.0603C59.36 88.4203 59.4767 88.7103 59.71 88.9303C59.9433 89.157 60.24 89.2703 60.6 89.2703C60.9467 89.2703 61.2233 89.177 61.43 88.9903C61.6367 88.8103 61.74 88.557 61.74 88.2303V87.7803C61.74 87.747 61.7233 87.7303 61.69 87.7303H60.57C60.5367 87.7303 60.51 87.717 60.49 87.6903C60.4633 87.6703 60.45 87.6436 60.45 87.6103V86.6903C60.45 86.657 60.4633 86.6303 60.49 86.6103C60.51 86.5836 60.5367 86.5703 60.57 86.5703H63.01C63.0433 86.5703 63.0733 86.5836 63.1 86.6103C63.12 86.6303 63.13 86.657 63.13 86.6903V88.0103C63.13 88.517 63.0233 88.957 62.81 89.3303C62.5967 89.7036 62.2967 89.9903 61.91 90.1903C61.5167 90.3836 61.0633 90.4803 60.55 90.4803Z" fill="#252530"/>
<path d="M37.6817 98.5307C37.6684 98.544 37.6651 98.5574 37.6717 98.5707C37.6784 98.584 37.6917 98.5907 37.7117 98.5907H40.4217C40.4551 98.5907 40.4851 98.6007 40.5117 98.6207C40.5317 98.6474 40.5417 98.6774 40.5417 98.7107V99.6807C40.5417 99.714 40.5317 99.7407 40.5117 99.7607C40.4851 99.7874 40.4551 99.8007 40.4217 99.8007H35.9217C35.8884 99.8007 35.8584 99.7874 35.8317 99.7607C35.8117 99.7407 35.8017 99.714 35.8017 99.6807V98.7607C35.8017 98.7007 35.8217 98.6507 35.8617 98.6107C36.1884 98.2907 36.5217 97.944 36.8617 97.5707C37.2017 97.1907 37.4151 96.954 37.5017 96.8607C37.6884 96.6407 37.8784 96.4307 38.0717 96.2307C38.6784 95.5574 38.9817 95.0574 38.9817 94.7307C38.9817 94.4974 38.8984 94.304 38.7317 94.1507C38.5651 94.004 38.3484 93.9307 38.0817 93.9307C37.8151 93.9307 37.5984 94.004 37.4317 94.1507C37.2651 94.304 37.1817 94.504 37.1817 94.7507V95.0007C37.1817 95.034 37.1684 95.064 37.1417 95.0907C37.1217 95.1107 37.0951 95.1207 37.0617 95.1207H35.8817C35.8484 95.1207 35.8217 95.1107 35.8017 95.0907C35.7751 95.064 35.7617 95.034 35.7617 95.0007V94.5307C35.7817 94.1707 35.8951 93.8507 36.1017 93.5707C36.3084 93.2974 36.5817 93.0874 36.9217 92.9407C37.2684 92.794 37.6551 92.7207 38.0817 92.7207C38.5551 92.7207 38.9684 92.8074 39.3217 92.9807C39.6684 93.1607 39.9384 93.4007 40.1317 93.7007C40.3184 94.0007 40.4117 94.334 40.4117 94.7007C40.4117 94.9807 40.3417 95.2674 40.2017 95.5607C40.0617 95.854 39.8517 96.1707 39.5717 96.5107C39.3651 96.7707 39.1417 97.0274 38.9017 97.2807C38.6617 97.534 38.3051 97.9007 37.8317 98.3807L37.6817 98.5307ZM43.7917 99.9107C43.0584 99.9107 42.4784 99.704 42.0517 99.2907C41.6251 98.884 41.4117 98.3274 41.4117 97.6207V94.9807C41.4117 94.2874 41.6251 93.7374 42.0517 93.3307C42.4784 92.924 43.0584 92.7207 43.7917 92.7207C44.5251 92.7207 45.1084 92.924 45.5417 93.3307C45.9684 93.7374 46.1817 94.2874 46.1817 94.9807V97.6207C46.1817 98.3274 45.9684 98.884 45.5417 99.2907C45.1084 99.704 44.5251 99.9107 43.7917 99.9107ZM43.7917 98.7007C44.0917 98.7007 44.3317 98.6074 44.5117 98.4207C44.6851 98.2407 44.7717 97.9974 44.7717 97.6907V94.9407C44.7717 94.634 44.6851 94.3907 44.5117 94.2107C44.3317 94.024 44.0917 93.9307 43.7917 93.9307C43.4984 93.9307 43.2651 94.024 43.0917 94.2107C42.9117 94.3907 42.8217 94.634 42.8217 94.9407V97.6907C42.8217 97.9974 42.9117 98.2407 43.0917 98.4207C43.2651 98.6074 43.4984 98.7007 43.7917 98.7007ZM48.9817 98.5307C48.9684 98.544 48.9651 98.5574 48.9717 98.5707C48.9784 98.584 48.9917 98.5907 49.0117 98.5907H51.7217C51.7551 98.5907 51.7851 98.6007 51.8117 98.6207C51.8317 98.6474 51.8417 98.6774 51.8417 98.7107V99.6807C51.8417 99.714 51.8317 99.7407 51.8117 99.7607C51.7851 99.7874 51.7551 99.8007 51.7217 99.8007H47.2217C47.1884 99.8007 47.1617 99.7874 47.1417 99.7607C47.1151 99.7407 47.1017 99.714 47.1017 99.6807V98.7607C47.1017 98.7007 47.1217 98.6507 47.1617 98.6107C47.4884 98.2907 47.8217 97.944 48.1617 97.5707C48.5017 97.1907 48.7151 96.954 48.8017 96.8607C48.9884 96.6407 49.1784 96.4307 49.3717 96.2307C49.9784 95.5574 50.2817 95.0574 50.2817 94.7307C50.2817 94.4974 50.1984 94.304 50.0317 94.1507C49.8651 94.004 49.6484 93.9307 49.3817 93.9307C49.1151 93.9307 48.8984 94.004 48.7317 94.1507C48.5651 94.304 48.4817 94.504 48.4817 94.7507V95.0007C48.4817 95.034 48.4717 95.064 48.4517 95.0907C48.4251 95.1107 48.3951 95.1207 48.3617 95.1207H47.1817C47.1484 95.1207 47.1217 95.1107 47.1017 95.0907C47.0751 95.064 47.0617 95.034 47.0617 95.0007V94.5307C47.0817 94.1707 47.1951 93.8507 47.4017 93.5707C47.6084 93.2974 47.8851 93.0874 48.2317 92.9407C48.5717 92.794 48.9551 92.7207 49.3817 92.7207C49.8551 92.7207 50.2684 92.8074 50.6217 92.9807C50.9684 93.1607 51.2384 93.4007 51.4317 93.7007C51.6184 94.0007 51.7117 94.334 51.7117 94.7007C51.7117 94.9807 51.6417 95.2674 51.5017 95.5607C51.3617 95.854 51.1517 96.1707 50.8717 96.5107C50.6651 96.7707 50.4417 97.0274 50.2017 97.2807C49.9617 97.534 49.6051 97.9007 49.1317 98.3807L48.9817 98.5307ZM57.7117 96.7507C57.7451 96.7507 57.7751 96.7607 57.8017 96.7807C57.8217 96.8074 57.8317 96.8374 57.8317 96.8707V97.8807C57.8317 97.914 57.8217 97.944 57.8017 97.9707C57.7751 97.9907 57.7451 98.0007 57.7117 98.0007H57.2817C57.2484 98.0007 57.2317 98.0174 57.2317 98.0507V99.6807C57.2317 99.714 57.2217 99.7407 57.2017 99.7607C57.1751 99.7874 57.1451 99.8007 57.1117 99.8007H55.9417C55.9084 99.8007 55.8817 99.7874 55.8617 99.7607C55.8351 99.7407 55.8217 99.714 55.8217 99.6807V98.0507C55.8217 98.0174 55.8051 98.0007 55.7717 98.0007H52.7017C52.6684 98.0007 52.6417 97.9907 52.6217 97.9707C52.5951 97.944 52.5817 97.914 52.5817 97.8807V97.0807C52.5817 97.0407 52.5917 96.9907 52.6117 96.9307L54.4117 92.8907C54.4384 92.8307 54.4851 92.8007 54.5517 92.8007H55.8017C55.8484 92.8007 55.8817 92.814 55.9017 92.8407C55.9151 92.8607 55.9117 92.894 55.8917 92.9407L54.2217 96.6907C54.2151 96.704 54.2151 96.7174 54.2217 96.7307C54.2284 96.744 54.2384 96.7507 54.2517 96.7507H55.7717C55.8051 96.7507 55.8217 96.734 55.8217 96.7007V95.4607C55.8217 95.4274 55.8351 95.4007 55.8617 95.3807C55.8817 95.354 55.9084 95.3407 55.9417 95.3407H57.1117C57.1451 95.3407 57.1751 95.354 57.2017 95.3807C57.2217 95.4007 57.2317 95.4274 57.2317 95.4607V96.7007C57.2317 96.734 57.2484 96.7507 57.2817 96.7507H57.7117Z" fill="#252530"/>
</svg>
