<svg width="94" height="122" viewBox="0 0 94 122" fill="none" xmlns="http://www.w3.org/2000/svg">
<path d="M47.8189 111L6.62891 90.45V21.88C9.9454 21.4876 13.0828 20.1633 15.6774 18.0607C18.2721 15.9581 20.2177 13.1632 21.2889 10H72.6289C73.7112 13.199 75.6865 16.0214 78.3215 18.1336C80.9565 20.2459 84.1411 21.5598 87.4989 21.92V90.45L47.8189 111Z" fill="white"/>
<path d="M7 90.4505L47.74 111L87 90.4305V21.9205C83.736 21.4722 80.6393 20.2025 78 18.2305L7 90.4505Z" fill="#F7F8F7"/>
<path d="M89 20H88.87C85.3714 19.9938 81.9777 18.8049 79.24 16.6264C76.5024 14.4479 74.5818 11.4078 73.79 8L20 8C19.2082 11.3929 17.2985 14.4209 14.5779 16.5974C11.8573 18.7738 8.48393 19.9723 5 20V92.22L6.42 92.94L46.56 113.38L47.76 113.99L48.95 113.36L87.61 92.92L89 92.19V22V20ZM47.74 111L7 90.45V21.88C10.2929 21.4769 13.4035 20.1461 15.9689 18.0427C18.5344 15.9393 20.4492 13.15 21.49 10H72.28C73.3332 13.1886 75.2806 16.0074 77.8903 18.1207C80.5 20.234 83.6621 21.5528 87 21.92V90.45L47.74 111Z" fill="#E9E9EA"/>
<mask id="mask0_294_50138" style="mask-type:luminance" maskUnits="userSpaceOnUse" x="0" y="64" width="94" height="16">
<path d="M90.79 64.9902H3.21L0 72.4902L3.21 79.9902H90.79L94 72.4902L90.79 64.9902Z" fill="white"/>
</mask>
<g mask="url(#mask0_294_50138)">
<path d="M-5 59.9902H99V84.9902H-5V59.9902Z" fill="#9132A2"/>
</g>
<mask id="mask1_294_50138" style="mask-type:luminance" maskUnits="userSpaceOnUse" x="37" y="8" width="20" height="21">
<path d="M47 29L57 23.4V8H37V23.4L47 29ZM49 15.86C48.9842 15.446 49.0884 15.0362 49.3 14.68C49.5734 14.3117 49.939 14.022 50.36 13.84L50.6 13.74C51.01 13.54 51.11 13.37 51.11 13.17C51.11 12.97 50.89 12.76 50.54 12.76C50.3292 12.7444 50.1188 12.796 49.9392 12.9074C49.7595 13.0188 49.6198 13.1842 49.54 13.38L49 12.85C49.1345 12.5887 49.3432 12.373 49.6 12.23C49.8703 12.074 50.178 11.9945 50.49 12C50.8674 11.9876 51.2388 12.0963 51.55 12.31C51.6919 12.4033 51.8076 12.5313 51.8863 12.6817C51.9651 12.8322 52.0042 13.0002 52 13.17C52 13.75 51.66 14.1 51 14.42L50.63 14.59C50.25 14.78 50.06 14.94 50 15.23H52V16H49V15.86ZM51.5 17L53 19.5L51.5 22L50 19.49H47L48.5 17H51.5ZM47.29 12C47.7063 11.9993 48.1216 12.0395 48.53 12.12L47.29 14.56C46.3581 14.5412 45.4568 14.8929 44.7838 15.5377C44.1107 16.1826 43.721 17.0681 43.7 18C43.7236 18.9301 44.1145 19.8131 44.7872 20.4558C45.4599 21.0985 46.3598 21.4488 47.29 21.43C48.146 21.4351 48.977 21.1416 49.64 20.6L51 22.84C49.9106 23.596 48.616 24.0008 47.29 24C45.6612 24.0349 44.085 23.4232 42.9061 22.2987C41.7273 21.1743 41.0419 19.6286 41 18C41.0419 16.3714 41.7273 14.8257 42.9061 13.7013C44.085 12.5768 45.6612 11.9651 47.29 12Z" fill="white"/>
</mask>
<g mask="url(#mask1_294_50138)">
<path d="M32 2.99023H62V33.9902H32V2.99023Z" fill="#9132A2"/>
</g>
<path d="M17.3006 49.5898C17.9606 49.5898 18.5406 49.7232 19.0406 49.9898C19.5406 50.2565 19.9273 50.6398 20.2006 51.1398C20.474 51.6332 20.6106 52.1998 20.6106 52.8398C20.6106 53.4732 20.4706 54.0298 20.1906 54.5098C19.904 54.9832 19.504 55.3532 18.9906 55.6198C18.4773 55.8865 17.884 56.0198 17.2106 56.0198H15.0806C15.034 56.0198 15.0106 56.0465 15.0106 56.0998V59.9198C15.0106 59.9732 14.9906 60.0165 14.9506 60.0498C14.9173 60.0832 14.874 60.0998 14.8206 60.0998H13.0706C13.0173 60.0998 12.974 60.0832 12.9406 60.0498C12.9073 60.0165 12.8906 59.9732 12.8906 59.9198V49.7698C12.8906 49.7165 12.9073 49.6732 12.9406 49.6398C12.974 49.6065 13.0173 49.5898 13.0706 49.5898H17.3006ZM16.9806 54.3298C17.4473 54.3298 17.8173 54.1965 18.0906 53.9298C18.3706 53.6632 18.5106 53.3165 18.5106 52.8898C18.5106 52.4432 18.3706 52.0865 18.0906 51.8198C17.8173 51.5465 17.4473 51.4098 16.9806 51.4098H15.0806C15.034 51.4098 15.0106 51.4365 15.0106 51.4898V54.2498C15.0106 54.3032 15.034 54.3298 15.0806 54.3298H16.9806ZM28.1806 55.4498C28.234 55.8298 28.2506 56.2532 28.2306 56.7198C28.224 56.8465 28.1606 56.9098 28.0406 56.9098H23.4106C23.3506 56.9098 23.3273 56.9332 23.3406 56.9798C23.374 57.1798 23.4306 57.3798 23.5106 57.5798C23.7706 58.1398 24.3006 58.4198 25.1006 58.4198C25.7406 58.4132 26.244 58.1532 26.6106 57.6398C26.6573 57.5798 26.704 57.5498 26.7506 57.5498C26.7773 57.5498 26.8106 57.5698 26.8506 57.6098L27.9306 58.6698C27.984 58.7232 28.0106 58.7698 28.0106 58.8098C28.0106 58.8298 27.9906 58.8698 27.9506 58.9298C27.6173 59.3432 27.194 59.6598 26.6806 59.8798C26.154 60.1065 25.5806 60.2198 24.9606 60.2198C24.1073 60.2198 23.3806 60.0265 22.7806 59.6398C22.1873 59.2465 21.7606 58.6998 21.5006 57.9998C21.2873 57.4998 21.1806 56.8465 21.1806 56.0398C21.1806 55.4865 21.2573 54.9998 21.4106 54.5798C21.644 53.8732 22.0473 53.3098 22.6206 52.8898C23.194 52.4698 23.874 52.2598 24.6606 52.2598C25.6606 52.2598 26.464 52.5498 27.0706 53.1298C27.6773 53.7098 28.0473 54.4832 28.1806 55.4498ZM24.6806 54.0898C24.0473 54.0898 23.6306 54.3832 23.4306 54.9698C23.3906 55.1032 23.3573 55.2632 23.3306 55.4498C23.3306 55.4965 23.3573 55.5198 23.4106 55.5198H26.0006C26.0606 55.5198 26.0806 55.4965 26.0606 55.4498C26.0073 55.1632 25.9806 55.0232 25.9806 55.0298C25.894 54.7298 25.7373 54.4965 25.5106 54.3298C25.2906 54.1698 25.014 54.0898 24.6806 54.0898ZM33.3806 52.2898C33.7406 52.2898 34.0273 52.3598 34.2406 52.4998C34.314 52.5398 34.3406 52.6132 34.3206 52.7198L34.0106 54.4298C34.004 54.5498 33.934 54.5865 33.8006 54.5398C33.6473 54.4865 33.474 54.4598 33.2806 54.4598C33.2006 54.4598 33.0873 54.4698 32.9406 54.4898C32.5873 54.5232 32.284 54.6565 32.0306 54.8898C31.784 55.1232 31.6606 55.4365 31.6606 55.8298V59.9198C31.6606 59.9732 31.6406 60.0165 31.6006 60.0498C31.5673 60.0832 31.5273 60.0998 31.4806 60.0998H29.7206C29.674 60.0998 29.6306 60.0832 29.5906 60.0498C29.5573 60.0165 29.5406 59.9732 29.5406 59.9198V52.5698C29.5406 52.5232 29.5573 52.4798 29.5906 52.4398C29.6306 52.4065 29.674 52.3898 29.7206 52.3898H31.4806C31.5273 52.3898 31.5673 52.4065 31.6006 52.4398C31.6406 52.4798 31.6606 52.5232 31.6606 52.5698V53.1398C31.6606 53.1665 31.6706 53.1865 31.6906 53.1998C31.704 53.2132 31.7173 53.2065 31.7306 53.1798C32.144 52.5865 32.694 52.2898 33.3806 52.2898ZM39.7706 52.3798C39.824 52.3798 39.8673 52.3965 39.9006 52.4298C39.934 52.4632 39.9506 52.5065 39.9506 52.5598V53.9798C39.9506 54.0332 39.934 54.0765 39.9006 54.1098C39.8673 54.1432 39.824 54.1598 39.7706 54.1598H38.3206C38.2673 54.1598 38.2406 54.1832 38.2406 54.2298V59.9198C38.2406 59.9732 38.224 60.0165 38.1906 60.0498C38.1573 60.0832 38.114 60.0998 38.0606 60.0998H36.3106C36.2573 60.0998 36.214 60.0832 36.1806 60.0498C36.1473 60.0165 36.1306 59.9732 36.1306 59.9198V54.2298C36.1306 54.1832 36.104 54.1598 36.0506 54.1598H35.1706C35.1173 54.1598 35.074 54.1432 35.0406 54.1098C35.0073 54.0765 34.9906 54.0332 34.9906 53.9798V52.5598C34.9906 52.5065 35.0073 52.4632 35.0406 52.4298C35.074 52.3965 35.1173 52.3798 35.1706 52.3798H36.0506C36.104 52.3798 36.1306 52.3532 36.1306 52.2998V51.9698C36.1306 51.3498 36.224 50.8665 36.4106 50.5198C36.604 50.1798 36.9106 49.9365 37.3306 49.7898C37.7573 49.6432 38.3473 49.5798 39.1006 49.5998H39.6706C39.7173 49.5998 39.7573 49.6165 39.7906 49.6498C39.8306 49.6898 39.8506 49.7332 39.8506 49.7798V50.9898C39.8506 51.0432 39.8306 51.0865 39.7906 51.1198C39.7573 51.1598 39.7173 51.1798 39.6706 51.1798H39.1706C38.824 51.1865 38.5806 51.2565 38.4406 51.3898C38.3073 51.5298 38.2406 51.7798 38.2406 52.1398V52.2998C38.2406 52.3532 38.2673 52.3798 38.3206 52.3798H39.7706ZM44.1206 60.2198C43.2806 60.2198 42.5606 59.9998 41.9606 59.5598C41.3606 59.1198 40.9506 58.5198 40.7306 57.7598C40.5906 57.2932 40.5206 56.7832 40.5206 56.2298C40.5206 55.6432 40.5906 55.1132 40.7306 54.6398C40.964 53.8998 41.3806 53.3198 41.9806 52.8998C42.5806 52.4798 43.3006 52.2698 44.1406 52.2698C44.954 52.2698 45.654 52.4765 46.2406 52.8898C46.814 53.3098 47.2206 53.8898 47.4606 54.6298C47.6273 55.1298 47.7106 55.6532 47.7106 56.1998C47.7106 56.7398 47.6406 57.2465 47.5006 57.7198C47.2806 58.4998 46.8706 59.1098 46.2706 59.5498C45.6773 59.9965 44.9606 60.2198 44.1206 60.2198ZM44.1206 58.4098C44.4473 58.4098 44.7273 58.3098 44.9606 58.1098C45.194 57.9098 45.3606 57.6332 45.4606 57.2798C45.534 56.9598 45.5706 56.6098 45.5706 56.2298C45.5706 55.8098 45.534 55.4565 45.4606 55.1698C45.3473 54.8298 45.1773 54.5632 44.9506 54.3698C44.7173 54.1832 44.434 54.0898 44.1006 54.0898C43.7673 54.0898 43.4873 54.1832 43.2606 54.3698C43.034 54.5632 42.8706 54.8298 42.7706 55.1698C42.6906 55.4032 42.6506 55.7565 42.6506 56.2298C42.6506 56.6832 42.6873 57.0332 42.7606 57.2798C42.8606 57.6332 43.0273 57.9098 43.2606 58.1098C43.494 58.3098 43.7806 58.4098 44.1206 58.4098ZM52.9106 52.2898C53.2706 52.2898 53.5573 52.3598 53.7706 52.4998C53.8506 52.5398 53.8773 52.6132 53.8506 52.7198L53.5406 54.4298C53.534 54.5498 53.464 54.5865 53.3306 54.5398C53.1773 54.4865 53.004 54.4598 52.8106 54.4598C52.7306 54.4598 52.6206 54.4698 52.4806 54.4898C52.1206 54.5232 51.814 54.6565 51.5606 54.8898C51.314 55.1232 51.1906 55.4365 51.1906 55.8298V59.9198C51.1906 59.9732 51.1706 60.0165 51.1306 60.0498C51.0973 60.0832 51.054 60.0998 51.0006 60.0998H49.2506C49.204 60.0998 49.1606 60.0832 49.1206 60.0498C49.0873 60.0165 49.0706 59.9732 49.0706 59.9198V52.5698C49.0706 52.5232 49.0873 52.4798 49.1206 52.4398C49.1606 52.4065 49.204 52.3898 49.2506 52.3898H51.0006C51.054 52.3898 51.0973 52.4065 51.1306 52.4398C51.1706 52.4798 51.1906 52.5232 51.1906 52.5698V53.1398C51.1906 53.1665 51.1973 53.1865 51.2106 53.1998C51.2373 53.2132 51.254 53.2065 51.2606 53.1798C51.674 52.5865 52.224 52.2898 52.9106 52.2898ZM63.3606 52.2698C64.1406 52.2698 64.7506 52.5032 65.1906 52.9698C65.6306 53.4432 65.8506 54.1065 65.8506 54.9598V59.9198C65.8506 59.9732 65.834 60.0165 65.8006 60.0498C65.7673 60.0832 65.7273 60.0998 65.6806 60.0998H63.9206C63.874 60.0998 63.8306 60.0832 63.7906 60.0498C63.7573 60.0165 63.7406 59.9732 63.7406 59.9198V55.4198C63.7406 55.0132 63.6373 54.6898 63.4306 54.4498C63.2173 54.2098 62.934 54.0898 62.5806 54.0898C62.234 54.0898 61.9506 54.2098 61.7306 54.4498C61.5106 54.6898 61.4006 55.0098 61.4006 55.4098V59.9198C61.4006 59.9732 61.384 60.0165 61.3506 60.0498C61.3106 60.0832 61.2673 60.0998 61.2206 60.0998H59.4806C59.4273 60.0998 59.384 60.0832 59.3506 60.0498C59.3173 60.0165 59.3006 59.9732 59.3006 59.9198V55.4198C59.3006 55.0198 59.1906 54.6965 58.9706 54.4498C58.7506 54.2098 58.464 54.0898 58.1106 54.0898C57.7973 54.0898 57.5306 54.1832 57.3106 54.3698C57.0973 54.5632 56.9706 54.8298 56.9306 55.1698V59.9198C56.9306 59.9732 56.914 60.0165 56.8806 60.0498C56.8406 60.0832 56.7973 60.0998 56.7506 60.0998H55.0006C54.9473 60.0998 54.904 60.0832 54.8706 60.0498C54.8373 60.0165 54.8206 59.9732 54.8206 59.9198V52.5698C54.8206 52.5232 54.8373 52.4798 54.8706 52.4398C54.904 52.4065 54.9473 52.3898 55.0006 52.3898H56.7506C56.7973 52.3898 56.8406 52.4065 56.8806 52.4398C56.914 52.4798 56.9306 52.5232 56.9306 52.5698V53.1598C56.9306 53.1865 56.9406 53.2065 56.9606 53.2198C56.9806 53.2265 57.0006 53.2132 57.0206 53.1798C57.434 52.5732 58.0706 52.2698 58.9306 52.2698C59.4306 52.2698 59.8673 52.3765 60.2406 52.5898C60.614 52.7965 60.9006 53.0965 61.1006 53.4898C61.1273 53.5498 61.164 53.5498 61.2106 53.4898C61.424 53.0765 61.7206 52.7698 62.1006 52.5698C62.474 52.3698 62.894 52.2698 63.3606 52.2698ZM74.1206 55.4498C74.1806 55.8298 74.2006 56.2532 74.1806 56.7198C74.1673 56.8465 74.1006 56.9098 73.9806 56.9098H69.3506C69.2906 56.9098 69.2706 56.9332 69.2906 56.9798C69.3173 57.1798 69.3706 57.3798 69.4506 57.5798C69.7106 58.1398 70.2406 58.4198 71.0406 58.4198C71.6806 58.4132 72.1873 58.1532 72.5606 57.6398C72.6006 57.5798 72.644 57.5498 72.6906 57.5498C72.724 57.5498 72.7606 57.5698 72.8006 57.6098L73.8806 58.6698C73.9273 58.7232 73.9506 58.7698 73.9506 58.8098C73.9506 58.8298 73.9306 58.8698 73.8906 58.9298C73.564 59.3432 73.1406 59.6598 72.6206 59.8798C72.1006 60.1065 71.5306 60.2198 70.9106 60.2198C70.0506 60.2198 69.324 60.0265 68.7306 59.6398C68.1306 59.2465 67.7006 58.6998 67.4406 57.9998C67.234 57.4998 67.1306 56.8465 67.1306 56.0398C67.1306 55.4865 67.204 54.9998 67.3506 54.5798C67.584 53.8732 67.9873 53.3098 68.5606 52.8898C69.134 52.4698 69.8173 52.2598 70.6106 52.2598C71.6106 52.2598 72.414 52.5498 73.0206 53.1298C73.6273 53.7098 73.994 54.4832 74.1206 55.4498ZM70.6206 54.0898C69.994 54.0898 69.5806 54.3832 69.3806 54.9698C69.3406 55.1032 69.304 55.2632 69.2706 55.4498C69.2706 55.4965 69.2973 55.5198 69.3506 55.5198H71.9406C72.0006 55.5198 72.0206 55.4965 72.0006 55.4498C71.954 55.1632 71.9306 55.0232 71.9306 55.0298C71.8373 54.7298 71.6806 54.4965 71.4606 54.3298C71.234 54.1698 70.954 54.0898 70.6206 54.0898ZM79.3206 52.2898C79.6806 52.2898 79.9673 52.3598 80.1806 52.4998C80.2606 52.5398 80.2906 52.6132 80.2706 52.7198L79.9606 54.4298C79.9473 54.5498 79.874 54.5865 79.7406 54.5398C79.594 54.4865 79.4206 54.4598 79.2206 54.4598C79.1406 54.4598 79.0306 54.4698 78.8906 54.4898C78.5306 54.5232 78.224 54.6565 77.9706 54.8898C77.724 55.1232 77.6006 55.4365 77.6006 55.8298V59.9198C77.6006 59.9732 77.584 60.0165 77.5506 60.0498C77.5106 60.0832 77.4673 60.0998 77.4206 60.0998H75.6606C75.614 60.0998 75.574 60.0832 75.5406 60.0498C75.5006 60.0165 75.4806 59.9732 75.4806 59.9198V52.5698C75.4806 52.5232 75.5006 52.4798 75.5406 52.4398C75.574 52.4065 75.614 52.3898 75.6606 52.3898H77.4206C77.4673 52.3898 77.5106 52.4065 77.5506 52.4398C77.584 52.4798 77.6006 52.5232 77.6006 52.5698V53.1398C77.6006 53.1665 77.6106 53.1865 77.6306 53.1998C77.6506 53.2132 77.6673 53.2065 77.6806 53.1798C78.0873 52.5865 78.634 52.2898 79.3206 52.2898Z" fill="#252530"/>
<path d="M38.0588 34.7804C38.0588 34.7337 38.0754 34.6904 38.1088 34.6504C38.1421 34.6171 38.1821 34.6004 38.2288 34.6004H39.9888C40.0354 34.6004 40.0788 34.6171 40.1188 34.6504C40.1521 34.6904 40.1687 34.7337 40.1687 34.7804V44.9204C40.1687 44.9737 40.1521 45.0171 40.1188 45.0504C40.0788 45.0837 40.0354 45.1004 39.9888 45.1004H38.2288C38.1821 45.1004 38.1421 45.0837 38.1088 45.0504C38.0754 45.0171 38.0588 44.9737 38.0588 44.9204V40.7804C38.0588 40.7337 38.0321 40.7104 37.9788 40.7104H34.6587C34.6121 40.7104 34.5887 40.7337 34.5887 40.7804V44.9204C34.5887 44.9737 34.5721 45.0171 34.5387 45.0504C34.4987 45.0837 34.4554 45.1004 34.4087 45.1004H32.6488C32.6021 45.1004 32.5621 45.0837 32.5288 45.0504C32.4888 45.0171 32.4688 44.9737 32.4688 44.9204V34.7804C32.4688 34.7337 32.4888 34.6904 32.5288 34.6504C32.5621 34.6171 32.6021 34.6004 32.6488 34.6004H34.4087C34.4554 34.6004 34.4987 34.6171 34.5387 34.6504C34.5721 34.6904 34.5887 34.7337 34.5887 34.7804V38.8104C34.5887 38.8637 34.6121 38.8904 34.6587 38.8904H37.9788C38.0321 38.8904 38.0588 38.8637 38.0588 38.8104V34.7804ZM42.8988 36.5204C42.5588 36.5204 42.2754 36.4071 42.0487 36.1804C41.8221 35.9604 41.7087 35.6804 41.7087 35.3404C41.7087 34.9871 41.8187 34.7004 42.0387 34.4804C42.2587 34.2604 42.5454 34.1504 42.8988 34.1504C43.2521 34.1504 43.5387 34.2604 43.7587 34.4804C43.9787 34.7004 44.0887 34.9871 44.0887 35.3404C44.0887 35.6804 43.9754 35.9604 43.7487 36.1804C43.5221 36.4071 43.2388 36.5204 42.8988 36.5204ZM41.9987 45.1004C41.9521 45.1004 41.9088 45.0837 41.8688 45.0504C41.8354 45.0171 41.8188 44.9737 41.8188 44.9204V37.5604C41.8188 37.5071 41.8354 37.4637 41.8688 37.4304C41.9088 37.3971 41.9521 37.3804 41.9987 37.3804H43.7587C43.8054 37.3804 43.8454 37.3971 43.8787 37.4304C43.9187 37.4637 43.9388 37.5071 43.9388 37.5604V44.9204C43.9388 44.9737 43.9187 45.0171 43.8787 45.0504C43.8454 45.0837 43.8054 45.1004 43.7587 45.1004H41.9987ZM50.2887 37.5704C50.2887 37.5237 50.3088 37.4804 50.3488 37.4404C50.3821 37.4071 50.4221 37.3904 50.4688 37.3904H52.2288C52.2754 37.3904 52.3187 37.4071 52.3587 37.4404C52.3921 37.4804 52.4088 37.5237 52.4088 37.5704V44.4104C52.4088 45.7171 52.0321 46.6504 51.2787 47.2104C50.5254 47.7771 49.5521 48.0604 48.3587 48.0604C48.0054 48.0604 47.6154 48.0337 47.1888 47.9804C47.0888 47.9671 47.0387 47.9037 47.0387 47.7904L47.0988 46.2404C47.0988 46.1071 47.1688 46.0504 47.3088 46.0704C47.6688 46.1304 47.9987 46.1604 48.2987 46.1604C48.9387 46.1604 49.4321 46.0237 49.7787 45.7504C50.1187 45.4637 50.2887 45.0137 50.2887 44.4004C50.2887 44.3671 50.2788 44.3471 50.2588 44.3404C50.2388 44.3337 50.2187 44.3437 50.1987 44.3704C49.8187 44.7771 49.2654 44.9804 48.5387 44.9804C47.8854 44.9804 47.2887 44.8237 46.7487 44.5104C46.2021 44.1971 45.8121 43.6904 45.5788 42.9904C45.4321 42.5304 45.3588 41.9337 45.3588 41.2004C45.3588 40.4204 45.4487 39.7871 45.6287 39.3004C45.8354 38.6871 46.1888 38.1971 46.6888 37.8304C47.1888 37.4571 47.7721 37.2704 48.4387 37.2704C49.2054 37.2704 49.7921 37.5004 50.1987 37.9604C50.2187 37.9804 50.2388 37.9871 50.2588 37.9804C50.2788 37.9737 50.2887 37.9571 50.2887 37.9304V37.5704ZM50.1688 42.4104C50.2488 42.1171 50.2887 41.7071 50.2887 41.1804C50.2887 40.8737 50.2788 40.6371 50.2588 40.4704C50.2388 40.2971 50.2054 40.1337 50.1588 39.9804C50.0654 39.7137 49.9154 39.4971 49.7087 39.3304C49.5021 39.1704 49.2421 39.0904 48.9288 39.0904C48.6288 39.0904 48.3754 39.1704 48.1688 39.3304C47.9554 39.4971 47.7987 39.7137 47.6987 39.9804C47.5587 40.2804 47.4888 40.6871 47.4888 41.2004C47.4888 41.7604 47.5488 42.1604 47.6688 42.4004C47.7554 42.6737 47.9121 42.8904 48.1388 43.0504C48.3654 43.2171 48.6321 43.3004 48.9387 43.3004C49.2587 43.3004 49.5254 43.2171 49.7388 43.0504C49.9454 42.8904 50.0888 42.6771 50.1688 42.4104ZM57.9487 37.2704C58.7487 37.2704 59.3921 37.5171 59.8787 38.0104C60.3654 38.4971 60.6087 39.1604 60.6087 40.0004V44.9204C60.6087 44.9737 60.5921 45.0171 60.5588 45.0504C60.5254 45.0837 60.4854 45.1004 60.4387 45.1004H58.6788C58.6321 45.1004 58.5887 45.0837 58.5487 45.0504C58.5154 45.0171 58.4988 44.9737 58.4988 44.9204V40.4304C58.4988 40.0371 58.3854 39.7137 58.1588 39.4604C57.9388 39.2137 57.6421 39.0904 57.2687 39.0904C56.9021 39.0904 56.6054 39.2137 56.3787 39.4604C56.1521 39.7137 56.0387 40.0371 56.0387 40.4304V44.9204C56.0387 44.9737 56.0221 45.0171 55.9888 45.0504C55.9554 45.0837 55.9121 45.1004 55.8587 45.1004H54.1087C54.0554 45.1004 54.0121 45.0837 53.9788 45.0504C53.9454 45.0171 53.9288 44.9737 53.9288 44.9204V34.7804C53.9288 34.7337 53.9454 34.6904 53.9788 34.6504C54.0121 34.6171 54.0554 34.6004 54.1087 34.6004H55.8587C55.9121 34.6004 55.9554 34.6171 55.9888 34.6504C56.0221 34.6904 56.0387 34.7337 56.0387 34.7804V38.1004C56.0387 38.1271 56.0488 38.1471 56.0688 38.1604C56.0888 38.1671 56.1021 38.1604 56.1087 38.1404C56.5221 37.5604 57.1354 37.2704 57.9487 37.2704Z" fill="#252530"/>
<path d="M33.4202 76.3807C32.9202 76.3807 32.4802 76.284 32.1002 76.0907C31.7202 75.8907 31.4268 75.614 31.2202 75.2607C31.0135 74.9074 30.9102 74.4974 30.9102 74.0307V71.5607C30.9102 71.094 31.0135 70.684 31.2202 70.3307C31.4268 69.9774 31.7202 69.704 32.1002 69.5107C32.4802 69.3174 32.9202 69.2207 33.4202 69.2207C33.9135 69.2207 34.3502 69.314 34.7302 69.5007C35.1102 69.6874 35.4035 69.9507 35.6102 70.2907C35.8168 70.6307 35.9202 71.024 35.9202 71.4707C35.9202 71.504 35.9102 71.5307 35.8902 71.5507C35.8635 71.5774 35.8335 71.5907 35.8002 71.5907L34.8802 71.6407C34.8002 71.6407 34.7602 71.604 34.7602 71.5307C34.7602 71.1374 34.6368 70.8207 34.3902 70.5807C34.1502 70.3407 33.8268 70.2207 33.4202 70.2207C33.0135 70.2207 32.6868 70.3407 32.4402 70.5807C32.1935 70.8207 32.0702 71.1374 32.0702 71.5307V74.0807C32.0702 74.4674 32.1935 74.7807 32.4402 75.0207C32.6868 75.2607 33.0135 75.3807 33.4202 75.3807C33.8268 75.3807 34.1502 75.2607 34.3902 75.0207C34.6368 74.7874 34.7602 74.474 34.7602 74.0807C34.7602 74.0074 34.8002 73.9707 34.8802 73.9707L35.8002 74.0107C35.8335 74.0107 35.8635 74.0207 35.8902 74.0407C35.9102 74.0607 35.9202 74.084 35.9202 74.1107C35.9202 74.564 35.8168 74.964 35.6102 75.3107C35.4035 75.6507 35.1102 75.914 34.7302 76.1007C34.3502 76.2874 33.9135 76.3807 33.4202 76.3807ZM38.9602 71.1107C39.3802 71.1107 39.7502 71.184 40.0702 71.3307C40.3902 71.4774 40.6368 71.6774 40.8102 71.9307C40.9835 72.1907 41.0702 72.484 41.0702 72.8107V76.1807C41.0702 76.214 41.0602 76.2407 41.0402 76.2607C41.0135 76.2874 40.9835 76.3007 40.9502 76.3007H40.0302C39.9968 76.3007 39.9702 76.2874 39.9502 76.2607C39.9235 76.2407 39.9102 76.214 39.9102 76.1807V75.8607C39.9102 75.8407 39.9035 75.8274 39.8902 75.8207C39.8768 75.8207 39.8635 75.8274 39.8502 75.8407C39.5235 76.2007 39.0502 76.3807 38.4302 76.3807C37.9302 76.3807 37.5168 76.254 37.1902 76.0007C36.8702 75.7474 36.7102 75.3707 36.7102 74.8707C36.7102 74.3507 36.8935 73.944 37.2602 73.6507C37.6202 73.364 38.1302 73.2207 38.7902 73.2207H39.8602C39.8935 73.2207 39.9102 73.204 39.9102 73.1707V72.9307C39.9102 72.6707 39.8335 72.4674 39.6802 72.3207C39.5268 72.1807 39.2968 72.1107 38.9902 72.1107C38.7368 72.1107 38.5335 72.1574 38.3802 72.2507C38.2202 72.3374 38.1202 72.4607 38.0802 72.6207C38.0602 72.7007 38.0135 72.734 37.9402 72.7207L36.9702 72.6007C36.9368 72.594 36.9102 72.584 36.8902 72.5707C36.8635 72.5507 36.8535 72.5274 36.8602 72.5007C36.9135 72.094 37.1335 71.7607 37.5202 71.5007C37.9002 71.2407 38.3802 71.1107 38.9602 71.1107ZM38.7202 75.4607C39.0468 75.4607 39.3268 75.374 39.5602 75.2007C39.7935 75.0274 39.9102 74.8074 39.9102 74.5407V74.0707C39.9102 74.0374 39.8935 74.0207 39.8602 74.0207H39.0202C38.6668 74.0207 38.3868 74.0874 38.1802 74.2207C37.9802 74.354 37.8802 74.544 37.8802 74.7907C37.8802 75.004 37.9602 75.1674 38.1202 75.2807C38.2735 75.4007 38.4735 75.4607 38.7202 75.4607ZM44.6802 71.1107C45.2202 71.1107 45.6535 71.2707 45.9802 71.5907C46.3002 71.9107 46.4602 72.3474 46.4602 72.9007V76.1807C46.4602 76.214 46.4468 76.2407 46.4202 76.2607C46.4002 76.2874 46.3735 76.3007 46.3402 76.3007H45.4202C45.3868 76.3007 45.3568 76.2874 45.3302 76.2607C45.3102 76.2407 45.3002 76.214 45.3002 76.1807V73.1407C45.3002 72.834 45.2135 72.584 45.0402 72.3907C44.8668 72.204 44.6368 72.1107 44.3502 72.1107C44.0635 72.1107 43.8302 72.204 43.6502 72.3907C43.4768 72.5774 43.3902 72.824 43.3902 73.1307V76.1807C43.3902 76.214 43.3768 76.2407 43.3502 76.2607C43.3302 76.2874 43.3035 76.3007 43.2702 76.3007H42.3502C42.3168 76.3007 42.2868 76.2874 42.2602 76.2607C42.2402 76.2407 42.2302 76.214 42.2302 76.1807V71.3107C42.2302 71.2774 42.2402 71.2474 42.2602 71.2207C42.2868 71.2007 42.3168 71.1907 42.3502 71.1907H43.2702C43.3035 71.1907 43.3302 71.2007 43.3502 71.2207C43.3768 71.2474 43.3902 71.2774 43.3902 71.3107V71.6307C43.3902 71.6507 43.3968 71.664 43.4102 71.6707C43.4235 71.6774 43.4335 71.6707 43.4402 71.6507C43.7135 71.2907 44.1268 71.1107 44.6802 71.1107ZM49.6202 71.1107C50.0402 71.1107 50.4102 71.184 50.7302 71.3307C51.0502 71.4774 51.2968 71.6774 51.4702 71.9307C51.6435 72.1907 51.7302 72.484 51.7302 72.8107V76.1807C51.7302 76.214 51.7168 76.2407 51.6902 76.2607C51.6702 76.2874 51.6435 76.3007 51.6102 76.3007H50.6902C50.6568 76.3007 50.6268 76.2874 50.6002 76.2607C50.5802 76.2407 50.5702 76.214 50.5702 76.1807V75.8607C50.5702 75.8407 50.5635 75.8274 50.5502 75.8207C50.5368 75.8207 50.5235 75.8274 50.5102 75.8407C50.1835 76.2007 49.7102 76.3807 49.0902 76.3807C48.5902 76.3807 48.1768 76.254 47.8502 76.0007C47.5302 75.7474 47.3702 75.3707 47.3702 74.8707C47.3702 74.3507 47.5502 73.944 47.9102 73.6507C48.2768 73.364 48.7902 73.2207 49.4502 73.2207H50.5202C50.5535 73.2207 50.5702 73.204 50.5702 73.1707V72.9307C50.5702 72.6707 50.4935 72.4674 50.3402 72.3207C50.1868 72.1807 49.9568 72.1107 49.6502 72.1107C49.3968 72.1107 49.1902 72.1574 49.0302 72.2507C48.8768 72.3374 48.7802 72.4607 48.7402 72.6207C48.7202 72.7007 48.6735 72.734 48.6002 72.7207L47.6302 72.6007C47.5968 72.594 47.5702 72.584 47.5502 72.5707C47.5235 72.5507 47.5135 72.5274 47.5202 72.5007C47.5735 72.094 47.7902 71.7607 48.1702 71.5007C48.5568 71.2407 49.0402 71.1107 49.6202 71.1107ZM49.3802 75.4607C49.7068 75.4607 49.9868 75.374 50.2202 75.2007C50.4535 75.0274 50.5702 74.8074 50.5702 74.5407V74.0707C50.5702 74.0374 50.5535 74.0207 50.5202 74.0207H49.6802C49.3268 74.0207 49.0468 74.0874 48.8402 74.2207C48.6402 74.354 48.5402 74.544 48.5402 74.7907C48.5402 75.004 48.6202 75.1674 48.7802 75.2807C48.9335 75.4007 49.1335 75.4607 49.3802 75.4607ZM56.0602 69.4207C56.0602 69.3874 56.0702 69.3607 56.0902 69.3407C56.1168 69.314 56.1468 69.3007 56.1802 69.3007H57.1002C57.1335 69.3007 57.1602 69.314 57.1802 69.3407C57.2068 69.3607 57.2202 69.3874 57.2202 69.4207V76.1807C57.2202 76.214 57.2068 76.2407 57.1802 76.2607C57.1602 76.2874 57.1335 76.3007 57.1002 76.3007H56.1802C56.1468 76.3007 56.1168 76.2874 56.0902 76.2607C56.0702 76.2407 56.0602 76.214 56.0602 76.1807V75.8807C56.0602 75.8607 56.0535 75.8474 56.0402 75.8407C56.0268 75.834 56.0135 75.8407 56.0002 75.8607C55.7068 76.2074 55.3235 76.3807 54.8502 76.3807C54.3768 76.3807 53.9768 76.2574 53.6502 76.0107C53.3235 75.764 53.0868 75.4207 52.9402 74.9807C52.8202 74.6074 52.7602 74.1907 52.7602 73.7307C52.7602 73.2574 52.8168 72.8507 52.9302 72.5107C53.0768 72.0707 53.3135 71.7274 53.6402 71.4807C53.9668 71.234 54.3768 71.1107 54.8702 71.1107C55.3302 71.1107 55.7068 71.2774 56.0002 71.6107C56.0135 71.624 56.0268 71.6307 56.0402 71.6307C56.0535 71.624 56.0602 71.6107 56.0602 71.5907V69.4207ZM55.8202 74.9007C55.9735 74.6274 56.0502 74.2407 56.0502 73.7407C56.0502 73.2207 55.9668 72.824 55.8002 72.5507C55.6202 72.2574 55.3668 72.1107 55.0402 72.1107C54.7002 72.1107 54.4335 72.2507 54.2402 72.5307C54.0402 72.824 53.9402 73.2307 53.9402 73.7507C53.9402 74.2174 54.0202 74.6007 54.1802 74.9007C54.3668 75.2207 54.6502 75.3807 55.0302 75.3807C55.3702 75.3807 55.6335 75.2207 55.8202 74.9007ZM60.4302 71.1107C60.8502 71.1107 61.2202 71.184 61.5402 71.3307C61.8602 71.4774 62.1068 71.6774 62.2802 71.9307C62.4535 72.1907 62.5402 72.484 62.5402 72.8107V76.1807C62.5402 76.214 62.5302 76.2407 62.5102 76.2607C62.4835 76.2874 62.4535 76.3007 62.4202 76.3007H61.5002C61.4668 76.3007 61.4368 76.2874 61.4102 76.2607C61.3902 76.2407 61.3802 76.214 61.3802 76.1807V75.8607C61.3802 75.8407 61.3735 75.8274 61.3602 75.8207C61.3468 75.8207 61.3335 75.8274 61.3202 75.8407C60.9935 76.2007 60.5202 76.3807 59.9002 76.3807C59.4002 76.3807 58.9868 76.254 58.6602 76.0007C58.3402 75.7474 58.1802 75.3707 58.1802 74.8707C58.1802 74.3507 58.3602 73.944 58.7202 73.6507C59.0868 73.364 59.6002 73.2207 60.2602 73.2207H61.3302C61.3635 73.2207 61.3802 73.204 61.3802 73.1707V72.9307C61.3802 72.6707 61.3035 72.4674 61.1502 72.3207C60.9968 72.1807 60.7668 72.1107 60.4602 72.1107C60.2068 72.1107 60.0002 72.1574 59.8402 72.2507C59.6868 72.3374 59.5902 72.4607 59.5502 72.6207C59.5302 72.7007 59.4835 72.734 59.4102 72.7207L58.4402 72.6007C58.4068 72.594 58.3768 72.584 58.3502 72.5707C58.3302 72.5507 58.3235 72.5274 58.3302 72.5007C58.3835 72.094 58.6002 71.7607 58.9802 71.5007C59.3668 71.2407 59.8502 71.1107 60.4302 71.1107ZM60.1902 75.4607C60.5168 75.4607 60.7968 75.374 61.0302 75.2007C61.2635 75.0274 61.3802 74.8074 61.3802 74.5407V74.0707C61.3802 74.0374 61.3635 74.0207 61.3302 74.0207H60.4902C60.1368 74.0207 59.8568 74.0874 59.6502 74.2207C59.4502 74.354 59.3502 74.544 59.3502 74.7907C59.3502 75.004 59.4268 75.1674 59.5802 75.2807C59.7402 75.4007 59.9435 75.4607 60.1902 75.4607Z" fill="white"/>
<path d="M33.15 90.4803C32.6167 90.4803 32.15 90.3936 31.75 90.2203C31.35 90.0536 31.0433 89.8103 30.83 89.4903C30.61 89.177 30.5 88.8103 30.5 88.3903V88.1703C30.5 88.137 30.5133 88.1103 30.54 88.0903C30.56 88.0636 30.5867 88.0503 30.62 88.0503H31.76C31.7933 88.0503 31.8233 88.0636 31.85 88.0903C31.87 88.1103 31.88 88.137 31.88 88.1703V88.3203C31.88 88.587 32.0033 88.8103 32.25 88.9903C32.4967 89.177 32.83 89.2703 33.25 89.2703C33.6033 89.2703 33.8667 89.197 34.04 89.0503C34.2133 88.897 34.3 88.7103 34.3 88.4903C34.3 88.3303 34.2467 88.197 34.14 88.0903C34.0333 87.977 33.8867 87.8803 33.7 87.8003C33.52 87.7136 33.23 87.597 32.83 87.4503C32.3833 87.297 32.0033 87.1403 31.69 86.9803C31.3833 86.8203 31.1267 86.6003 30.92 86.3203C30.7067 86.047 30.6 85.707 30.6 85.3003C30.6 84.9003 30.7033 84.5503 30.91 84.2503C31.1167 83.9503 31.4033 83.7203 31.77 83.5603C32.1367 83.4003 32.56 83.3203 33.04 83.3203C33.5467 83.3203 33.9967 83.4103 34.39 83.5903C34.79 83.7703 35.1033 84.0236 35.33 84.3503C35.55 84.6703 35.66 85.0436 35.66 85.4703V85.6203C35.66 85.6536 35.65 85.6803 35.63 85.7003C35.6033 85.727 35.5733 85.7403 35.54 85.7403H34.39C34.3567 85.7403 34.33 85.727 34.31 85.7003C34.2833 85.6803 34.27 85.6536 34.27 85.6203V85.5403C34.27 85.2603 34.1567 85.0203 33.93 84.8203C33.6967 84.627 33.38 84.5303 32.98 84.5303C32.6667 84.5303 32.42 84.597 32.24 84.7303C32.0667 84.8636 31.98 85.047 31.98 85.2803C31.98 85.447 32.0333 85.587 32.14 85.7003C32.24 85.8136 32.3933 85.9136 32.6 86.0003C32.8 86.0936 33.1133 86.217 33.54 86.3703C34.0133 86.5436 34.3833 86.697 34.65 86.8303C34.9233 86.9636 35.17 87.1603 35.39 87.4203C35.6033 87.687 35.71 88.0303 35.71 88.4503C35.71 89.077 35.48 89.5703 35.02 89.9303C34.56 90.297 33.9367 90.4803 33.15 90.4803ZM39.59 83.3903C40.03 83.3903 40.4167 83.4803 40.75 83.6603C41.0833 83.8403 41.3433 84.0936 41.53 84.4203C41.71 84.7536 41.8 85.1336 41.8 85.5603C41.8 85.9803 41.7067 86.3503 41.52 86.6703C41.3267 86.9903 41.0567 87.2403 40.71 87.4203C40.37 87.5936 39.9767 87.6803 39.53 87.6803H38.11C38.0767 87.6803 38.06 87.697 38.06 87.7303V90.2803C38.06 90.3136 38.0467 90.3403 38.02 90.3603C38 90.387 37.9733 90.4003 37.94 90.4003H36.77C36.7367 90.4003 36.7067 90.387 36.68 90.3603C36.66 90.3403 36.65 90.3136 36.65 90.2803V83.5103C36.65 83.477 36.66 83.447 36.68 83.4203C36.7067 83.4003 36.7367 83.3903 36.77 83.3903H39.59ZM39.38 86.5503C39.6867 86.5503 39.9333 86.4603 40.12 86.2803C40.3067 86.107 40.4 85.877 40.4 85.5903C40.4 85.297 40.3067 85.0603 40.12 84.8803C39.9333 84.7003 39.6867 84.6103 39.38 84.6103H38.11C38.0767 84.6103 38.06 84.627 38.06 84.6603V86.5003C38.06 86.5336 38.0767 86.5503 38.11 86.5503H39.38ZM46.51 90.4003C46.4433 90.4003 46.3967 90.3703 46.37 90.3103L45.12 87.5403C45.1067 87.5136 45.0867 87.5003 45.06 87.5003H44.13C44.0967 87.5003 44.08 87.517 44.08 87.5503V90.2803C44.08 90.3136 44.0667 90.3403 44.04 90.3603C44.02 90.387 43.9933 90.4003 43.96 90.4003H42.79C42.7567 90.4003 42.7267 90.387 42.7 90.3603C42.68 90.3403 42.67 90.3136 42.67 90.2803V83.5203C42.67 83.487 42.68 83.4603 42.7 83.4403C42.7267 83.4136 42.7567 83.4003 42.79 83.4003H45.65C46.0767 83.4003 46.45 83.487 46.77 83.6603C47.0967 83.8336 47.3467 84.0803 47.52 84.4003C47.7 84.7203 47.79 85.0903 47.79 85.5103C47.79 85.9636 47.6767 86.3503 47.45 86.6703C47.2233 86.997 46.9067 87.227 46.5 87.3603C46.4667 87.3736 46.4567 87.397 46.47 87.4303L47.83 90.2603C47.8433 90.287 47.85 90.307 47.85 90.3203C47.85 90.3736 47.8133 90.4003 47.74 90.4003H46.51ZM44.13 84.6103C44.0967 84.6103 44.08 84.627 44.08 84.6603V86.3703C44.08 86.4036 44.0967 86.4203 44.13 86.4203H45.44C45.72 86.4203 45.9467 86.337 46.12 86.1703C46.3 86.0036 46.39 85.787 46.39 85.5203C46.39 85.2536 46.3 85.0336 46.12 84.8603C45.9467 84.6936 45.72 84.6103 45.44 84.6103H44.13ZM48.93 90.4003C48.8967 90.4003 48.87 90.387 48.85 90.3603C48.8233 90.3403 48.81 90.3136 48.81 90.2803V83.5203C48.81 83.487 48.8233 83.4603 48.85 83.4403C48.87 83.4136 48.8967 83.4003 48.93 83.4003H50.1C50.1333 83.4003 50.1633 83.4136 50.19 83.4403C50.21 83.4603 50.22 83.487 50.22 83.5203V90.2803C50.22 90.3136 50.21 90.3403 50.19 90.3603C50.1633 90.387 50.1333 90.4003 50.1 90.4003H48.93ZM55.46 83.5203C55.46 83.487 55.4733 83.4603 55.5 83.4403C55.52 83.4136 55.5467 83.4003 55.58 83.4003H56.75C56.7833 83.4003 56.8133 83.4136 56.84 83.4403C56.86 83.4603 56.87 83.487 56.87 83.5203V90.2803C56.87 90.3136 56.86 90.3403 56.84 90.3603C56.8133 90.387 56.7833 90.4003 56.75 90.4003H55.62C55.5533 90.4003 55.5067 90.3736 55.48 90.3203L52.89 86.0403C52.8767 86.0203 52.8633 86.0136 52.85 86.0203C52.8367 86.0203 52.83 86.0336 52.83 86.0603L52.85 90.2803C52.85 90.3136 52.84 90.3403 52.82 90.3603C52.7933 90.387 52.7633 90.4003 52.73 90.4003H51.56C51.5267 90.4003 51.5 90.387 51.48 90.3603C51.4533 90.3403 51.44 90.3136 51.44 90.2803V83.5203C51.44 83.487 51.4533 83.4603 51.48 83.4403C51.5 83.4136 51.5267 83.4003 51.56 83.4003H52.69C52.7567 83.4003 52.8033 83.427 52.83 83.4803L55.41 87.7403C55.4233 87.7603 55.4367 87.767 55.45 87.7603C55.4633 87.7603 55.47 87.747 55.47 87.7203L55.46 83.5203ZM60.55 90.4803C60.0367 90.4803 59.5833 90.377 59.19 90.1703C58.7967 89.9636 58.4933 89.677 58.28 89.3103C58.06 88.937 57.95 88.507 57.95 88.0203V85.7803C57.95 85.2936 58.06 84.8636 58.28 84.4903C58.4933 84.117 58.7967 83.827 59.19 83.6203C59.5833 83.4203 60.0367 83.3203 60.55 83.3203C61.0567 83.3203 61.5067 83.4203 61.9 83.6203C62.2867 83.8203 62.59 84.0936 62.81 84.4403C63.0233 84.7803 63.13 85.1603 63.13 85.5803V85.6503C63.13 85.6836 63.12 85.7103 63.1 85.7303C63.0733 85.757 63.0433 85.7703 63.01 85.7703H61.84C61.8067 85.7703 61.78 85.757 61.76 85.7303C61.7333 85.7103 61.72 85.6836 61.72 85.6503V85.6203C61.72 85.3136 61.6133 85.057 61.4 84.8503C61.1867 84.637 60.9033 84.5303 60.55 84.5303C60.19 84.5303 59.9033 84.6403 59.69 84.8603C59.47 85.087 59.36 85.3803 59.36 85.7403V88.0603C59.36 88.4203 59.4767 88.7103 59.71 88.9303C59.9433 89.157 60.24 89.2703 60.6 89.2703C60.9467 89.2703 61.2233 89.177 61.43 88.9903C61.6367 88.8103 61.74 88.557 61.74 88.2303V87.7803C61.74 87.747 61.7233 87.7303 61.69 87.7303H60.57C60.5367 87.7303 60.51 87.717 60.49 87.6903C60.4633 87.6703 60.45 87.6436 60.45 87.6103V86.6903C60.45 86.657 60.4633 86.6303 60.49 86.6103C60.51 86.5836 60.5367 86.5703 60.57 86.5703H63.01C63.0433 86.5703 63.0733 86.5836 63.1 86.6103C63.12 86.6303 63.13 86.657 63.13 86.6903V88.0103C63.13 88.517 63.0233 88.957 62.81 89.3303C62.5967 89.7036 62.2967 89.9903 61.91 90.1903C61.5167 90.3836 61.0633 90.4803 60.55 90.4803Z" fill="#252530"/>
<path d="M37.6817 98.5307C37.6684 98.544 37.6651 98.5574 37.6717 98.5707C37.6784 98.584 37.6917 98.5907 37.7117 98.5907H40.4217C40.4551 98.5907 40.4851 98.6007 40.5117 98.6207C40.5317 98.6474 40.5417 98.6774 40.5417 98.7107V99.6807C40.5417 99.714 40.5317 99.7407 40.5117 99.7607C40.4851 99.7874 40.4551 99.8007 40.4217 99.8007H35.9217C35.8884 99.8007 35.8584 99.7874 35.8317 99.7607C35.8117 99.7407 35.8017 99.714 35.8017 99.6807V98.7607C35.8017 98.7007 35.8217 98.6507 35.8617 98.6107C36.1884 98.2907 36.5217 97.944 36.8617 97.5707C37.2017 97.1907 37.4151 96.954 37.5017 96.8607C37.6884 96.6407 37.8784 96.4307 38.0717 96.2307C38.6784 95.5574 38.9817 95.0574 38.9817 94.7307C38.9817 94.4974 38.8984 94.304 38.7317 94.1507C38.5651 94.004 38.3484 93.9307 38.0817 93.9307C37.8151 93.9307 37.5984 94.004 37.4317 94.1507C37.2651 94.304 37.1817 94.504 37.1817 94.7507V95.0007C37.1817 95.034 37.1684 95.064 37.1417 95.0907C37.1217 95.1107 37.0951 95.1207 37.0617 95.1207H35.8817C35.8484 95.1207 35.8217 95.1107 35.8017 95.0907C35.7751 95.064 35.7617 95.034 35.7617 95.0007V94.5307C35.7817 94.1707 35.8951 93.8507 36.1017 93.5707C36.3084 93.2974 36.5817 93.0874 36.9217 92.9407C37.2684 92.794 37.6551 92.7207 38.0817 92.7207C38.5551 92.7207 38.9684 92.8074 39.3217 92.9807C39.6684 93.1607 39.9384 93.4007 40.1317 93.7007C40.3184 94.0007 40.4117 94.334 40.4117 94.7007C40.4117 94.9807 40.3417 95.2674 40.2017 95.5607C40.0617 95.854 39.8517 96.1707 39.5717 96.5107C39.3651 96.7707 39.1417 97.0274 38.9017 97.2807C38.6617 97.534 38.3051 97.9007 37.8317 98.3807L37.6817 98.5307ZM43.7917 99.9107C43.0584 99.9107 42.4784 99.704 42.0517 99.2907C41.6251 98.884 41.4117 98.3274 41.4117 97.6207V94.9807C41.4117 94.2874 41.6251 93.7374 42.0517 93.3307C42.4784 92.924 43.0584 92.7207 43.7917 92.7207C44.5251 92.7207 45.1084 92.924 45.5417 93.3307C45.9684 93.7374 46.1817 94.2874 46.1817 94.9807V97.6207C46.1817 98.3274 45.9684 98.884 45.5417 99.2907C45.1084 99.704 44.5251 99.9107 43.7917 99.9107ZM43.7917 98.7007C44.0917 98.7007 44.3317 98.6074 44.5117 98.4207C44.6851 98.2407 44.7717 97.9974 44.7717 97.6907V94.9407C44.7717 94.634 44.6851 94.3907 44.5117 94.2107C44.3317 94.024 44.0917 93.9307 43.7917 93.9307C43.4984 93.9307 43.2651 94.024 43.0917 94.2107C42.9117 94.3907 42.8217 94.634 42.8217 94.9407V97.6907C42.8217 97.9974 42.9117 98.2407 43.0917 98.4207C43.2651 98.6074 43.4984 98.7007 43.7917 98.7007ZM48.9817 98.5307C48.9684 98.544 48.9651 98.5574 48.9717 98.5707C48.9784 98.584 48.9917 98.5907 49.0117 98.5907H51.7217C51.7551 98.5907 51.7851 98.6007 51.8117 98.6207C51.8317 98.6474 51.8417 98.6774 51.8417 98.7107V99.6807C51.8417 99.714 51.8317 99.7407 51.8117 99.7607C51.7851 99.7874 51.7551 99.8007 51.7217 99.8007H47.2217C47.1884 99.8007 47.1617 99.7874 47.1417 99.7607C47.1151 99.7407 47.1017 99.714 47.1017 99.6807V98.7607C47.1017 98.7007 47.1217 98.6507 47.1617 98.6107C47.4884 98.2907 47.8217 97.944 48.1617 97.5707C48.5017 97.1907 48.7151 96.954 48.8017 96.8607C48.9884 96.6407 49.1784 96.4307 49.3717 96.2307C49.9784 95.5574 50.2817 95.0574 50.2817 94.7307C50.2817 94.4974 50.1984 94.304 50.0317 94.1507C49.8651 94.004 49.6484 93.9307 49.3817 93.9307C49.1151 93.9307 48.8984 94.004 48.7317 94.1507C48.5651 94.304 48.4817 94.504 48.4817 94.7507V95.0007C48.4817 95.034 48.4717 95.064 48.4517 95.0907C48.4251 95.1107 48.3951 95.1207 48.3617 95.1207H47.1817C47.1484 95.1207 47.1217 95.1107 47.1017 95.0907C47.0751 95.064 47.0617 95.034 47.0617 95.0007V94.5307C47.0817 94.1707 47.1951 93.8507 47.4017 93.5707C47.6084 93.2974 47.8851 93.0874 48.2317 92.9407C48.5717 92.794 48.9551 92.7207 49.3817 92.7207C49.8551 92.7207 50.2684 92.8074 50.6217 92.9807C50.9684 93.1607 51.2384 93.4007 51.4317 93.7007C51.6184 94.0007 51.7117 94.334 51.7117 94.7007C51.7117 94.9807 51.6417 95.2674 51.5017 95.5607C51.3617 95.854 51.1517 96.1707 50.8717 96.5107C50.6651 96.7707 50.4417 97.0274 50.2017 97.2807C49.9617 97.534 49.6051 97.9007 49.1317 98.3807L48.9817 98.5307ZM57.7117 96.7507C57.7451 96.7507 57.7751 96.7607 57.8017 96.7807C57.8217 96.8074 57.8317 96.8374 57.8317 96.8707V97.8807C57.8317 97.914 57.8217 97.944 57.8017 97.9707C57.7751 97.9907 57.7451 98.0007 57.7117 98.0007H57.2817C57.2484 98.0007 57.2317 98.0174 57.2317 98.0507V99.6807C57.2317 99.714 57.2217 99.7407 57.2017 99.7607C57.1751 99.7874 57.1451 99.8007 57.1117 99.8007H55.9417C55.9084 99.8007 55.8817 99.7874 55.8617 99.7607C55.8351 99.7407 55.8217 99.714 55.8217 99.6807V98.0507C55.8217 98.0174 55.8051 98.0007 55.7717 98.0007H52.7017C52.6684 98.0007 52.6417 97.9907 52.6217 97.9707C52.5951 97.944 52.5817 97.914 52.5817 97.8807V97.0807C52.5817 97.0407 52.5917 96.9907 52.6117 96.9307L54.4117 92.8907C54.4384 92.8307 54.4851 92.8007 54.5517 92.8007H55.8017C55.8484 92.8007 55.8817 92.814 55.9017 92.8407C55.9151 92.8607 55.9117 92.894 55.8917 92.9407L54.2217 96.6907C54.2151 96.704 54.2151 96.7174 54.2217 96.7307C54.2284 96.744 54.2384 96.7507 54.2517 96.7507H55.7717C55.8051 96.7507 55.8217 96.734 55.8217 96.7007V95.4607C55.8217 95.4274 55.8351 95.4007 55.8617 95.3807C55.8817 95.354 55.9084 95.3407 55.9417 95.3407H57.1117C57.1451 95.3407 57.1751 95.354 57.2017 95.3807C57.2217 95.4007 57.2317 95.4274 57.2317 95.4607V96.7007C57.2317 96.734 57.2484 96.7507 57.2817 96.7507H57.7117Z" fill="#252530"/>
</svg>
