<svg width="94" height="122" viewBox="0 0 94 122" fill="none" xmlns="http://www.w3.org/2000/svg">
<path d="M8.10156 90.2016L47.6016 110.302L85.6016 90.2016V11.6016H8.10156V90.2016Z" fill="white"/>
<path d="M86.4008 11.9004L7.30078 91.6004L48.3008 111.9L86.4008 92.4004V11.9004Z" fill="#F2F3F2"/>
<path d="M5.5 37.8V91.9L6.9 92.6L46.4 112.7L47.6 113.3L48.8 112.7L86.9 92.6L88.3 91.9V9H5.5V37.8ZM8.1 90.4V11.6H85.7V90.4L47.6 110.5L8.1 90.4Z" fill="#DCDEDC"/>
<path d="M46.9008 12.9C47.3008 12.9 47.7008 12.9 48.1008 13L46.9008 15.3C45.1008 15.2 43.5008 16.6 43.4008 18.4C43.3008 20.2 44.7008 21.8 46.5008 21.9H46.9008C47.7008 21.9 48.5008 21.6 49.1008 21.1L50.4008 23.3C49.4008 24 48.2008 24.4 46.9008 24.4C43.7008 24.5 41.0008 22.1 40.9008 18.9C40.8008 15.7 43.2008 13 46.4008 12.9H46.9008ZM51.0008 17.8L52.5008 20.3L51.0008 22.7L49.6008 20.3H46.7008L48.2008 17.8H51.0008ZM48.6008 16.9C48.6008 16.5 48.7008 16.1 48.9008 15.8C49.1008 15.5 49.5008 15.2 49.8008 15L50.0008 14.9C50.4008 14.7 50.5008 14.6 50.5008 14.4C50.5008 14.2 50.2008 14 50.0008 14C49.6008 14 49.3008 14.2 49.1008 14.6L48.6008 14.1C48.7008 13.9 48.9008 13.7 49.1008 13.5C49.4008 13.3 49.7008 13.3 50.0008 13.3C50.3008 13.3 50.7008 13.4 50.9008 13.6C51.1008 13.8 51.3008 14.1 51.3008 14.4C51.3008 14.9 51.0008 15.3 50.4008 15.5L50.1008 15.7C49.8008 15.9 49.6008 16 49.5008 16.3H51.3008V17L48.6008 16.9ZM46.9008 29.4L56.4008 24V9H37.3008V23.9L46.9008 29.4Z" fill="#FF492C"/>
<path d="M90.1984 64.8008H3.59844L0.398438 71.8008L3.59844 78.8008H90.1984L93.2984 71.8008L90.1984 64.8008Z" fill="#23CCA2"/>
<path d="M18.6881 60.3004C18.6081 60.3004 18.5515 60.2637 18.5181 60.1904L17.0181 56.8704C17.0048 56.8371 16.9815 56.8204 16.9481 56.8204H15.8281C15.7881 56.8204 15.7681 56.8404 15.7681 56.8804V60.1604C15.7681 60.2004 15.7548 60.2337 15.7281 60.2604C15.7015 60.2871 15.6681 60.3004 15.6281 60.3004H14.2281C14.1881 60.3004 14.1515 60.2871 14.1181 60.2604C14.0915 60.2337 14.0781 60.2004 14.0781 60.1604V52.0404C14.0781 52.0004 14.0915 51.9671 14.1181 51.9404C14.1515 51.9137 14.1881 51.9004 14.2281 51.9004H17.6581C18.1715 51.9004 18.6215 52.0037 19.0081 52.2104C19.3948 52.4171 19.6948 52.7137 19.9081 53.1004C20.1215 53.4871 20.2281 53.9304 20.2281 54.4304C20.2281 54.9771 20.0915 55.4437 19.8181 55.8304C19.5448 56.2171 19.1648 56.4904 18.6781 56.6504C18.6381 56.6704 18.6248 56.7004 18.6381 56.7404L20.2681 60.1304C20.2881 60.1637 20.2981 60.1871 20.2981 60.2004C20.2981 60.2671 20.2548 60.3004 20.1681 60.3004H18.6881ZM15.8281 53.3504C15.7881 53.3504 15.7681 53.3704 15.7681 53.4104V55.4604C15.7681 55.5004 15.7881 55.5204 15.8281 55.5204H17.4081C17.7415 55.5204 18.0148 55.4204 18.2281 55.2204C18.4415 55.0204 18.5481 54.7604 18.5481 54.4404C18.5481 54.1204 18.4415 53.8604 18.2281 53.6604C18.0148 53.4537 17.7415 53.3504 17.4081 53.3504H15.8281ZM26.7181 56.5804C26.7648 56.8871 26.7815 57.2271 26.7681 57.6004C26.7548 57.6937 26.7015 57.7404 26.6081 57.7404H22.8981C22.8515 57.7404 22.8348 57.7604 22.8481 57.8004C22.8748 57.9604 22.9215 58.1204 22.9881 58.2804C23.1948 58.7337 23.6181 58.9604 24.2581 58.9604C24.7715 58.9471 25.1748 58.7371 25.4681 58.3304C25.5015 58.2837 25.5381 58.2604 25.5781 58.2604C25.5981 58.2604 25.6248 58.2771 25.6581 58.3104L26.5281 59.1604C26.5681 59.2004 26.5881 59.2371 26.5881 59.2704C26.5881 59.2837 26.5715 59.3137 26.5381 59.3604C26.2715 59.6937 25.9315 59.9504 25.5181 60.1304C25.0981 60.3104 24.6415 60.4004 24.1481 60.4004C23.4615 60.4004 22.8781 60.2437 22.3981 59.9304C21.9248 59.6171 21.5848 59.1804 21.3781 58.6204C21.2115 58.2204 21.1281 57.6971 21.1281 57.0504C21.1281 56.6104 21.1881 56.2204 21.3081 55.8804C21.4881 55.3137 21.8081 54.8637 22.2681 54.5304C22.7281 54.1904 23.2748 54.0204 23.9081 54.0204C24.7081 54.0204 25.3515 54.2537 25.8381 54.7204C26.3181 55.1871 26.6115 55.8071 26.7181 56.5804ZM23.9181 55.4904C23.4181 55.4904 23.0881 55.7271 22.9281 56.2004C22.8948 56.3004 22.8648 56.4271 22.8381 56.5804C22.8381 56.6204 22.8581 56.6404 22.8981 56.6404H24.9781C25.0248 56.6404 25.0415 56.6204 25.0281 56.5804C24.9881 56.3471 24.9681 56.2337 24.9681 56.2404C24.8948 56.0004 24.7681 55.8171 24.5881 55.6904C24.4081 55.5571 24.1848 55.4904 23.9181 55.4904ZM27.9481 60.3004C27.9081 60.3004 27.8748 60.2871 27.8481 60.2604C27.8215 60.2337 27.8081 60.2004 27.8081 60.1604V52.0404C27.8081 52.0004 27.8215 51.9671 27.8481 51.9404C27.8748 51.9137 27.9081 51.9004 27.9481 51.9004H29.3581C29.3981 51.9004 29.4315 51.9137 29.4581 51.9404C29.4848 51.9671 29.4981 52.0004 29.4981 52.0404V60.1604C29.4981 60.2004 29.4848 60.2337 29.4581 60.2604C29.4315 60.2871 29.3981 60.3004 29.3581 60.3004H27.9481ZM33.1981 54.0404C33.7181 54.0404 34.1815 54.1304 34.5881 54.3104C34.9948 54.4904 35.3115 54.7337 35.5381 55.0404C35.7715 55.3537 35.8881 55.7037 35.8881 56.0904V60.1604C35.8881 60.2004 35.8715 60.2337 35.8381 60.2604C35.8115 60.2871 35.7781 60.3004 35.7381 60.3004H34.3381C34.2981 60.3004 34.2648 60.2871 34.2381 60.2604C34.2048 60.2337 34.1881 60.2004 34.1881 60.1604V59.7604C34.1881 59.7337 34.1815 59.7171 34.1681 59.7104C34.1548 59.7037 34.1381 59.7137 34.1181 59.7404C33.7848 60.1804 33.2448 60.4004 32.4981 60.4004C31.8781 60.4004 31.3748 60.2471 30.9881 59.9404C30.6015 59.6337 30.4081 59.1871 30.4081 58.6004C30.4081 57.9804 30.6248 57.5004 31.0581 57.1604C31.4915 56.8204 32.1081 56.6504 32.9081 56.6504H34.1281C34.1681 56.6504 34.1881 56.6304 34.1881 56.5904V56.3304C34.1881 56.0637 34.1081 55.8571 33.9481 55.7104C33.7881 55.5637 33.5481 55.4904 33.2281 55.4904C32.9815 55.4904 32.7781 55.5337 32.6181 55.6204C32.4515 55.7071 32.3448 55.8304 32.2981 55.9904C32.2715 56.0771 32.2181 56.1171 32.1381 56.1104L30.6881 55.9204C30.5948 55.9071 30.5515 55.8704 30.5581 55.8104C30.5915 55.4771 30.7248 55.1737 30.9581 54.9004C31.1915 54.6271 31.5048 54.4137 31.8981 54.2604C32.2848 54.1137 32.7181 54.0404 33.1981 54.0404ZM32.9581 59.1404C33.2981 59.1404 33.5881 59.0471 33.8281 58.8604C34.0681 58.6737 34.1881 58.4371 34.1881 58.1504V57.7204C34.1881 57.6804 34.1681 57.6604 34.1281 57.6604H33.2681C32.9081 57.6604 32.6248 57.7271 32.4181 57.8604C32.2181 58.0004 32.1181 58.1937 32.1181 58.4404C32.1181 58.6537 32.1948 58.8237 32.3481 58.9504C32.4948 59.0771 32.6981 59.1404 32.9581 59.1404ZM40.4781 55.3404C40.4781 55.3804 40.4648 55.4171 40.4381 55.4504C40.4115 55.4771 40.3781 55.4904 40.3381 55.4904H39.1881C39.1481 55.4904 39.1281 55.5104 39.1281 55.5504V58.0904C39.1281 58.3571 39.1815 58.5537 39.2881 58.6804C39.3948 58.8071 39.5681 58.8704 39.8081 58.8704H40.2081C40.2481 58.8704 40.2815 58.8837 40.3081 58.9104C40.3348 58.9437 40.3481 58.9804 40.3481 59.0204V60.1604C40.3481 60.2471 40.3015 60.2971 40.2081 60.3104C39.8681 60.3304 39.6281 60.3404 39.4881 60.3404C38.8215 60.3404 38.3248 60.2304 37.9981 60.0104C37.6715 59.7904 37.5015 59.3737 37.4881 58.7604V55.5504C37.4881 55.5104 37.4681 55.4904 37.4281 55.4904H36.7481C36.7081 55.4904 36.6748 55.4771 36.6481 55.4504C36.6215 55.4171 36.6081 55.3804 36.6081 55.3404V54.2804C36.6081 54.2404 36.6215 54.2037 36.6481 54.1704C36.6748 54.1437 36.7081 54.1304 36.7481 54.1304H37.4281C37.4681 54.1304 37.4881 54.1104 37.4881 54.0704V52.6404C37.4881 52.6004 37.5048 52.5671 37.5381 52.5404C37.5648 52.5137 37.5981 52.5004 37.6381 52.5004H38.9781C39.0181 52.5004 39.0515 52.5137 39.0781 52.5404C39.1115 52.5671 39.1281 52.6004 39.1281 52.6404V54.0704C39.1281 54.1104 39.1481 54.1304 39.1881 54.1304H40.3381C40.3781 54.1304 40.4115 54.1437 40.4381 54.1704C40.4648 54.2037 40.4781 54.2404 40.4781 54.2804V55.3404ZM42.4081 53.4404C42.1415 53.4404 41.9181 53.3504 41.7381 53.1704C41.5581 52.9904 41.4681 52.7637 41.4681 52.4904C41.4681 52.2104 41.5548 51.9804 41.7281 51.8004C41.9015 51.6271 42.1281 51.5404 42.4081 51.5404C42.6881 51.5404 42.9181 51.6271 43.0981 51.8004C43.2715 51.9804 43.3581 52.2104 43.3581 52.4904C43.3581 52.7637 43.2681 52.9904 43.0881 53.1704C42.9081 53.3504 42.6815 53.4404 42.4081 53.4404ZM41.6881 60.3004C41.6481 60.3004 41.6148 60.2871 41.5881 60.2604C41.5615 60.2337 41.5481 60.2004 41.5481 60.1604V54.2604C41.5481 54.2204 41.5615 54.1871 41.5881 54.1604C41.6148 54.1337 41.6481 54.1204 41.6881 54.1204H43.0981C43.1381 54.1204 43.1715 54.1337 43.1981 54.1604C43.2248 54.1871 43.2381 54.2204 43.2381 54.2604V60.1604C43.2381 60.2004 43.2248 60.2337 43.1981 60.2604C43.1715 60.2871 43.1381 60.3004 43.0981 60.3004H41.6881ZM47.2881 60.4004C46.6148 60.4004 46.0381 60.2237 45.5581 59.8704C45.0781 59.5171 44.7481 59.0371 44.5681 58.4304C44.4615 58.0504 44.4081 57.6404 44.4081 57.2004C44.4081 56.7337 44.4615 56.3104 44.5681 55.9304C44.7548 55.3371 45.0881 54.8737 45.5681 54.5404C46.0481 54.2071 46.6248 54.0404 47.2981 54.0404C47.9515 54.0404 48.5115 54.2037 48.9781 54.5304C49.4381 54.8637 49.7648 55.3271 49.9581 55.9204C50.0848 56.3204 50.1481 56.7404 50.1481 57.1804C50.1481 57.6137 50.0948 58.0171 49.9881 58.3904C49.8081 59.0171 49.4815 59.5071 49.0081 59.8604C48.5281 60.2204 47.9548 60.4004 47.2881 60.4004ZM47.2881 58.9404C47.5481 58.9404 47.7715 58.8604 47.9581 58.7004C48.1381 58.5404 48.2681 58.3204 48.3481 58.0404C48.4148 57.7871 48.4481 57.5071 48.4481 57.2004C48.4481 56.8671 48.4148 56.5837 48.3481 56.3504C48.2615 56.0771 48.1281 55.8671 47.9481 55.7204C47.7615 55.5671 47.5348 55.4904 47.2681 55.4904C47.0015 55.4904 46.7781 55.5671 46.5981 55.7204C46.4181 55.8671 46.2881 56.0771 46.2081 56.3504C46.1415 56.5437 46.1081 56.8271 46.1081 57.2004C46.1081 57.5604 46.1348 57.8404 46.1881 58.0404C46.2681 58.3204 46.4048 58.5404 46.5981 58.7004C46.7848 58.8604 47.0148 58.9404 47.2881 58.9404ZM54.4581 54.0404C55.0981 54.0404 55.6148 54.2337 56.0081 54.6204C56.4015 55.0137 56.5981 55.5471 56.5981 56.2204V60.1604C56.5981 60.2004 56.5848 60.2337 56.5581 60.2604C56.5248 60.2871 56.4881 60.3004 56.4481 60.3004H55.0481C55.0081 60.3004 54.9748 60.2871 54.9481 60.2604C54.9215 60.2337 54.9081 60.2004 54.9081 60.1604V56.5704C54.9081 56.2504 54.8181 55.9904 54.6381 55.7904C54.4581 55.5904 54.2181 55.4904 53.9181 55.4904C53.6248 55.4904 53.3881 55.5904 53.2081 55.7904C53.0281 55.9904 52.9381 56.2504 52.9381 56.5704V60.1604C52.9381 60.2004 52.9248 60.2337 52.8981 60.2604C52.8648 60.2871 52.8281 60.3004 52.7881 60.3004H51.3881C51.3481 60.3004 51.3148 60.2871 51.2881 60.2604C51.2615 60.2337 51.2481 60.2004 51.2481 60.1604V54.2804C51.2481 54.2404 51.2615 54.2037 51.2881 54.1704C51.3148 54.1437 51.3481 54.1304 51.3881 54.1304H52.7881C52.8281 54.1304 52.8648 54.1437 52.8981 54.1704C52.9248 54.2037 52.9381 54.2404 52.9381 54.2804V54.7004C52.9381 54.7204 52.9448 54.7337 52.9581 54.7404C52.9781 54.7537 52.9915 54.7504 52.9981 54.7304C53.3248 54.2704 53.8115 54.0404 54.4581 54.0404ZM60.2681 60.3804C59.7348 60.3804 59.2681 60.3071 58.8681 60.1604C58.4681 60.0071 58.1581 59.7937 57.9381 59.5204C57.7181 59.2471 57.6081 58.9404 57.6081 58.6004V58.4804C57.6081 58.4404 57.6215 58.4037 57.6481 58.3704C57.6748 58.3437 57.7081 58.3304 57.7481 58.3304H59.0781C59.1181 58.3304 59.1515 58.3437 59.1781 58.3704C59.2115 58.4037 59.2281 58.4404 59.2281 58.4804V58.4904C59.2281 58.6637 59.3248 58.8137 59.5181 58.9404C59.7115 59.0604 59.9581 59.1204 60.2581 59.1204C60.5315 59.1204 60.7515 59.0671 60.9181 58.9604C61.0848 58.8537 61.1681 58.7204 61.1681 58.5604C61.1681 58.4137 61.0948 58.3071 60.9481 58.2404C60.8081 58.1671 60.5748 58.0904 60.2481 58.0104C59.8681 57.9104 59.5715 57.8171 59.3581 57.7304C58.8448 57.5571 58.4348 57.3404 58.1281 57.0804C57.8281 56.8271 57.6781 56.4604 57.6781 55.9804C57.6781 55.3871 57.9081 54.9171 58.3681 54.5704C58.8281 54.2237 59.4381 54.0504 60.1981 54.0504C60.7115 54.0504 61.1581 54.1304 61.5381 54.2904C61.9248 54.4571 62.2248 54.6871 62.4381 54.9804C62.6448 55.2804 62.7481 55.6171 62.7481 55.9904C62.7481 56.0304 62.7348 56.0637 62.7081 56.0904C62.6815 56.1237 62.6481 56.1404 62.6081 56.1404H61.3281C61.2881 56.1404 61.2515 56.1237 61.2181 56.0904C61.1915 56.0637 61.1781 56.0304 61.1781 55.9904C61.1781 55.8171 61.0881 55.6704 60.9081 55.5504C60.7281 55.4304 60.4915 55.3704 60.1981 55.3704C59.9315 55.3704 59.7148 55.4171 59.5481 55.5104C59.3815 55.6104 59.2981 55.7437 59.2981 55.9104C59.2981 56.0704 59.3781 56.1904 59.5381 56.2704C59.7048 56.3504 59.9815 56.4337 60.3681 56.5204C60.4548 56.5471 60.5548 56.5737 60.6681 56.6004C60.7748 56.6271 60.8948 56.6604 61.0281 56.7004C61.5948 56.8671 62.0415 57.0837 62.3681 57.3504C62.6948 57.6104 62.8581 57.9937 62.8581 58.5004C62.8581 59.0937 62.6248 59.5571 62.1581 59.8904C61.6915 60.2171 61.0615 60.3804 60.2681 60.3804ZM67.0481 54.0404C67.6881 54.0404 68.2048 54.2337 68.5981 54.6204C68.9915 55.0137 69.1881 55.5471 69.1881 56.2204V60.1604C69.1881 60.2004 69.1715 60.2337 69.1381 60.2604C69.1115 60.2871 69.0781 60.3004 69.0381 60.3004H67.6381C67.5981 60.3004 67.5648 60.2871 67.5381 60.2604C67.5048 60.2337 67.4881 60.2004 67.4881 60.1604V56.5704C67.4881 56.2504 67.3981 55.9904 67.2181 55.7904C67.0381 55.5904 66.8015 55.4904 66.5081 55.4904C66.2148 55.4904 65.9781 55.5904 65.7981 55.7904C65.6181 55.9904 65.5281 56.2504 65.5281 56.5704V60.1604C65.5281 60.2004 65.5115 60.2337 65.4781 60.2604C65.4515 60.2871 65.4181 60.3004 65.3781 60.3004H63.9781C63.9381 60.3004 63.9048 60.2871 63.8781 60.2604C63.8448 60.2337 63.8281 60.2004 63.8281 60.1604V52.0404C63.8281 52.0004 63.8448 51.9671 63.8781 51.9404C63.9048 51.9137 63.9381 51.9004 63.9781 51.9004H65.3781C65.4181 51.9004 65.4515 51.9137 65.4781 51.9404C65.5115 51.9671 65.5281 52.0004 65.5281 52.0404V54.7004C65.5281 54.7204 65.5348 54.7337 65.5481 54.7404C65.5615 54.7537 65.5748 54.7504 65.5881 54.7304C65.9148 54.2704 66.4015 54.0404 67.0481 54.0404ZM71.3081 53.4404C71.0348 53.4404 70.8081 53.3504 70.6281 53.1704C70.4481 52.9904 70.3581 52.7637 70.3581 52.4904C70.3581 52.2104 70.4481 51.9804 70.6281 51.8004C70.8015 51.6271 71.0281 51.5404 71.3081 51.5404C71.5881 51.5404 71.8148 51.6271 71.9881 51.8004C72.1681 51.9804 72.2581 52.2104 72.2581 52.4904C72.2581 52.7637 72.1681 52.9904 71.9881 53.1704C71.8081 53.3504 71.5815 53.4404 71.3081 53.4404ZM70.5881 60.3004C70.5481 60.3004 70.5148 60.2871 70.4881 60.2604C70.4615 60.2337 70.4481 60.2004 70.4481 60.1604V54.2604C70.4481 54.2204 70.4615 54.1871 70.4881 54.1604C70.5148 54.1337 70.5481 54.1204 70.5881 54.1204H71.9881C72.0281 54.1204 72.0648 54.1337 72.0981 54.1604C72.1248 54.1871 72.1381 54.2204 72.1381 54.2604V60.1604C72.1381 60.2004 72.1248 60.2337 72.0981 60.2604C72.0648 60.2871 72.0281 60.3004 71.9881 60.3004H70.5881ZM78.9681 55.7904C79.1081 56.1971 79.1781 56.6771 79.1781 57.2304C79.1781 57.7837 79.1015 58.2837 78.9481 58.7304C78.7681 59.2437 78.4781 59.6504 78.0781 59.9504C77.6848 60.2504 77.1948 60.4004 76.6081 60.4004C76.0348 60.4004 75.5881 60.2004 75.2681 59.8004C75.2548 59.7737 75.2381 59.7637 75.2181 59.7704C75.2048 59.7771 75.1981 59.7937 75.1981 59.8204V62.3904C75.1981 62.4304 75.1848 62.4637 75.1581 62.4904C75.1248 62.5171 75.0881 62.5304 75.0481 62.5304H73.6481C73.6081 62.5304 73.5748 62.5171 73.5481 62.4904C73.5215 62.4637 73.5081 62.4304 73.5081 62.3904V54.2804C73.5081 54.2404 73.5215 54.2037 73.5481 54.1704C73.5748 54.1437 73.6081 54.1304 73.6481 54.1304H75.0481C75.0881 54.1304 75.1248 54.1437 75.1581 54.1704C75.1848 54.2037 75.1981 54.2404 75.1981 54.2804V54.6704C75.1981 54.6971 75.2048 54.7104 75.2181 54.7104C75.2381 54.7171 75.2548 54.7137 75.2681 54.7004C75.6015 54.2604 76.0648 54.0404 76.6581 54.0404C77.2115 54.0404 77.6915 54.1937 78.0981 54.5004C78.4981 54.8071 78.7881 55.2371 78.9681 55.7904ZM77.1281 58.4804C77.3281 58.1671 77.4281 57.7404 77.4281 57.2004C77.4281 56.7004 77.3448 56.3004 77.1781 56.0004C76.9915 55.6604 76.6948 55.4904 76.2881 55.4904C75.9215 55.4904 75.6448 55.6604 75.4581 56.0004C75.2915 56.2937 75.2081 56.7004 75.2081 57.2204C75.2081 57.7537 75.2948 58.1671 75.4681 58.4604C75.6548 58.7804 75.9281 58.9404 76.2881 58.9404C76.6481 58.9404 76.9281 58.7871 77.1281 58.4804ZM39.9381 43.9204C39.8915 43.9471 39.8915 43.9704 39.9381 43.9904C40.6981 44.3837 41.0781 45.0371 41.0781 45.9504C41.0781 46.7237 40.8148 47.3104 40.2881 47.7104C39.7615 48.1037 39.0681 48.3004 38.2081 48.3004H35.1081C35.0681 48.3004 35.0315 48.2871 34.9981 48.2604C34.9715 48.2337 34.9581 48.2004 34.9581 48.1604V40.0404C34.9581 40.0004 34.9715 39.9671 34.9981 39.9404C35.0315 39.9137 35.0681 39.9004 35.1081 39.9004H38.1181C40.0115 39.9004 40.9581 40.6671 40.9581 42.2004C40.9581 43.0004 40.6181 43.5737 39.9381 43.9204ZM36.7081 41.3504C36.6681 41.3504 36.6481 41.3704 36.6481 41.4104V43.2804C36.6481 43.3204 36.6681 43.3404 36.7081 43.3404H38.1181C38.4915 43.3404 38.7815 43.2537 38.9881 43.0804C39.2015 42.9071 39.3081 42.6671 39.3081 42.3604C39.3081 42.0471 39.2015 41.8004 38.9881 41.6204C38.7815 41.4404 38.4915 41.3504 38.1181 41.3504H36.7081ZM38.2081 46.8404C38.5815 46.8404 38.8715 46.7437 39.0781 46.5504C39.2848 46.3637 39.3881 46.1071 39.3881 45.7804C39.3881 45.4537 39.2848 45.1971 39.0781 45.0104C38.8715 44.8171 38.5781 44.7204 38.1981 44.7204H36.7081C36.6681 44.7204 36.6481 44.7404 36.6481 44.7804V46.7804C36.6481 46.8204 36.6681 46.8404 36.7081 46.8404H38.2081ZM47.7481 44.5804C47.8015 44.8871 47.8181 45.2271 47.7981 45.6004C47.7915 45.6937 47.7415 45.7404 47.6481 45.7404H43.9381C43.8915 45.7404 43.8748 45.7604 43.8881 45.8004C43.9148 45.9604 43.9581 46.1204 44.0181 46.2804C44.2248 46.7337 44.6481 46.9604 45.2881 46.9604C45.8015 46.9471 46.2081 46.7371 46.5081 46.3304C46.5348 46.2837 46.5681 46.2604 46.6081 46.2604C46.6348 46.2604 46.6648 46.2771 46.6981 46.3104L47.5581 47.1604C47.5981 47.2004 47.6181 47.2371 47.6181 47.2704C47.6181 47.2837 47.6015 47.3137 47.5681 47.3604C47.3081 47.6937 46.9681 47.9504 46.5481 48.1304C46.1348 48.3104 45.6815 48.4004 45.1881 48.4004C44.4948 48.4004 43.9115 48.2437 43.4381 47.9304C42.9648 47.6171 42.6215 47.1804 42.4081 46.6204C42.2415 46.2204 42.1581 45.6971 42.1581 45.0504C42.1581 44.6104 42.2181 44.2204 42.3381 43.8804C42.5248 43.3137 42.8481 42.8637 43.3081 42.5304C43.7681 42.1904 44.3148 42.0204 44.9481 42.0204C45.7481 42.0204 46.3881 42.2537 46.8681 42.7204C47.3548 43.1871 47.6481 43.8071 47.7481 44.5804ZM44.9581 43.4904C44.4515 43.4904 44.1181 43.7271 43.9581 44.2004C43.9248 44.3004 43.8981 44.4271 43.8781 44.5804C43.8781 44.6204 43.8981 44.6404 43.9381 44.6404H46.0081C46.0615 44.6404 46.0781 44.6204 46.0581 44.5804C46.0181 44.3471 45.9981 44.2337 45.9981 44.2404C45.9248 44.0004 45.7981 43.8171 45.6181 43.6904C45.4381 43.5571 45.2181 43.4904 44.9581 43.4904ZM51.2181 48.3804C50.6848 48.3804 50.2181 48.3071 49.8181 48.1604C49.4181 48.0071 49.1081 47.7937 48.8881 47.5204C48.6681 47.2471 48.5581 46.9404 48.5581 46.6004V46.4804C48.5581 46.4404 48.5715 46.4037 48.5981 46.3704C48.6248 46.3437 48.6581 46.3304 48.6981 46.3304H50.0281C50.0681 46.3304 50.1048 46.3437 50.1381 46.3704C50.1648 46.4037 50.1781 46.4404 50.1781 46.4804V46.4904C50.1781 46.6637 50.2748 46.8137 50.4681 46.9404C50.6681 47.0604 50.9148 47.1204 51.2081 47.1204C51.4815 47.1204 51.7015 47.0671 51.8681 46.9604C52.0348 46.8537 52.1181 46.7204 52.1181 46.5604C52.1181 46.4137 52.0481 46.3071 51.9081 46.2404C51.7615 46.1671 51.5248 46.0904 51.1981 46.0104C50.8181 45.9104 50.5215 45.8171 50.3081 45.7304C49.7948 45.5571 49.3881 45.3404 49.0881 45.0804C48.7815 44.8271 48.6281 44.4604 48.6281 43.9804C48.6281 43.3871 48.8581 42.9171 49.3181 42.5704C49.7781 42.2237 50.3881 42.0504 51.1481 42.0504C51.6615 42.0504 52.1081 42.1304 52.4881 42.2904C52.8748 42.4571 53.1748 42.6871 53.3881 42.9804C53.6015 43.2804 53.7081 43.6171 53.7081 43.9904C53.7081 44.0304 53.6915 44.0637 53.6581 44.0904C53.6315 44.1237 53.5981 44.1404 53.5581 44.1404H52.2781C52.2381 44.1404 52.2048 44.1237 52.1781 44.0904C52.1448 44.0637 52.1281 44.0304 52.1281 43.9904C52.1281 43.8171 52.0381 43.6704 51.8581 43.5504C51.6781 43.4304 51.4415 43.3704 51.1481 43.3704C50.8815 43.3704 50.6648 43.4171 50.4981 43.5104C50.3315 43.6104 50.2481 43.7437 50.2481 43.9104C50.2481 44.0704 50.3315 44.1904 50.4981 44.2704C50.6581 44.3504 50.9315 44.4337 51.3181 44.5204C51.4048 44.5471 51.5048 44.5737 51.6181 44.6004C51.7315 44.6271 51.8515 44.6604 51.9781 44.7004C52.5448 44.8671 52.9915 45.0837 53.3181 45.3504C53.6448 45.6104 53.8081 45.9937 53.8081 46.5004C53.8081 47.0937 53.5748 47.5571 53.1081 47.8904C52.6415 48.2171 52.0115 48.3804 51.2181 48.3804ZM58.3081 43.3404C58.3081 43.3804 58.2948 43.4171 58.2681 43.4504C58.2415 43.4771 58.2081 43.4904 58.1681 43.4904H57.0181C56.9781 43.4904 56.9581 43.5104 56.9581 43.5504V46.0904C56.9581 46.3571 57.0115 46.5537 57.1181 46.6804C57.2248 46.8071 57.3981 46.8704 57.6381 46.8704H58.0381C58.0781 46.8704 58.1115 46.8837 58.1381 46.9104C58.1648 46.9437 58.1781 46.9804 58.1781 47.0204V48.1604C58.1781 48.2471 58.1315 48.2971 58.0381 48.3104C57.6981 48.3304 57.4581 48.3404 57.3181 48.3404C56.6515 48.3404 56.1548 48.2304 55.8281 48.0104C55.5015 47.7904 55.3348 47.3737 55.3281 46.7604V43.5504C55.3281 43.5104 55.3081 43.4904 55.2681 43.4904H54.5781C54.5381 43.4904 54.5048 43.4771 54.4781 43.4504C54.4515 43.4171 54.4381 43.3804 54.4381 43.3404V42.2804C54.4381 42.2404 54.4515 42.2037 54.4781 42.1704C54.5048 42.1437 54.5381 42.1304 54.5781 42.1304H55.2681C55.3081 42.1304 55.3281 42.1104 55.3281 42.0704V40.6404C55.3281 40.6004 55.3415 40.5671 55.3681 40.5404C55.3948 40.5137 55.4281 40.5004 55.4681 40.5004H56.8081C56.8481 40.5004 56.8848 40.5137 56.9181 40.5404C56.9448 40.5671 56.9581 40.6004 56.9581 40.6404V42.0704C56.9581 42.1104 56.9781 42.1304 57.0181 42.1304H58.1681C58.2081 42.1304 58.2415 42.1437 58.2681 42.1704C58.2948 42.2037 58.3081 42.2404 58.3081 42.2804V43.3404Z" fill="#252530"/>
<path d="M28.74 69.5807C28.74 69.614 28.73 69.6407 28.71 69.6607C28.6833 69.6874 28.6533 69.7007 28.62 69.7007H25.21C25.1767 69.7007 25.16 69.7174 25.16 69.7507V71.6207C25.16 71.654 25.1767 71.6707 25.21 71.6707H27.5C27.5333 71.6707 27.5633 71.6807 27.59 71.7007C27.61 71.7274 27.62 71.7574 27.62 71.7907V72.5507C27.62 72.584 27.61 72.614 27.59 72.6407C27.5633 72.6607 27.5333 72.6707 27.5 72.6707H25.21C25.1767 72.6707 25.16 72.6874 25.16 72.7207V74.6507C25.16 74.684 25.1767 74.7007 25.21 74.7007H28.62C28.6533 74.7007 28.6833 74.714 28.71 74.7407C28.73 74.7607 28.74 74.7874 28.74 74.8207V75.5807C28.74 75.614 28.73 75.6407 28.71 75.6607C28.6833 75.6874 28.6533 75.7007 28.62 75.7007H24.12C24.0867 75.7007 24.06 75.6874 24.04 75.6607C24.0133 75.6407 24 75.614 24 75.5807V68.8207C24 68.7874 24.0133 68.7607 24.04 68.7407C24.06 68.714 24.0867 68.7007 24.12 68.7007H28.62C28.6533 68.7007 28.6833 68.714 28.71 68.7407C28.73 68.7607 28.74 68.7874 28.74 68.8207V69.5807ZM32.26 70.5107C32.8 70.5107 33.2333 70.6707 33.56 70.9907C33.88 71.3107 34.04 71.7474 34.04 72.3007V75.5807C34.04 75.614 34.0267 75.6407 34 75.6607C33.98 75.6874 33.9533 75.7007 33.92 75.7007H33C32.9667 75.7007 32.9367 75.6874 32.91 75.6607C32.89 75.6407 32.88 75.614 32.88 75.5807V72.5407C32.88 72.234 32.7933 71.984 32.62 71.7907C32.4467 71.604 32.2167 71.5107 31.93 71.5107C31.6433 71.5107 31.41 71.604 31.23 71.7907C31.0567 71.9774 30.97 72.224 30.97 72.5307V75.5807C30.97 75.614 30.96 75.6407 30.94 75.6607C30.9133 75.6874 30.8833 75.7007 30.85 75.7007H29.93C29.8967 75.7007 29.87 75.6874 29.85 75.6607C29.8233 75.6407 29.81 75.614 29.81 75.5807V70.7107C29.81 70.6774 29.8233 70.6474 29.85 70.6207C29.87 70.6007 29.8967 70.5907 29.93 70.5907H30.85C30.8833 70.5907 30.9133 70.6007 30.94 70.6207C30.96 70.6474 30.97 70.6774 30.97 70.7107V71.0307C30.97 71.0507 30.9767 71.064 30.99 71.0707C31.0033 71.0774 31.0133 71.0707 31.02 71.0507C31.2933 70.6907 31.7067 70.5107 32.26 70.5107ZM37.96 71.4107C37.96 71.444 37.9467 71.4707 37.92 71.4907C37.9 71.5174 37.8733 71.5307 37.84 71.5307H36.82C36.7867 71.5307 36.77 71.5474 36.77 71.5807V73.9907C36.77 74.244 36.8233 74.4274 36.93 74.5407C37.0433 74.654 37.22 74.7107 37.46 74.7107H37.76C37.7933 74.7107 37.82 74.7207 37.84 74.7407C37.8667 74.7674 37.88 74.7974 37.88 74.8307V75.5807C37.88 75.654 37.84 75.6974 37.76 75.7107L37.24 75.7207C36.7133 75.7207 36.32 75.6307 36.06 75.4507C35.8 75.2707 35.6667 74.9307 35.66 74.4307V71.5807C35.66 71.5474 35.6433 71.5307 35.61 71.5307H35.04C35.0067 71.5307 34.9767 71.5174 34.95 71.4907C34.93 71.4707 34.92 71.444 34.92 71.4107V70.7107C34.92 70.6774 34.93 70.6474 34.95 70.6207C34.9767 70.6007 35.0067 70.5907 35.04 70.5907H35.61C35.6433 70.5907 35.66 70.574 35.66 70.5407V69.3707C35.66 69.3374 35.67 69.3074 35.69 69.2807C35.7167 69.2607 35.7467 69.2507 35.78 69.2507H36.65C36.6833 69.2507 36.71 69.2607 36.73 69.2807C36.7567 69.3074 36.77 69.3374 36.77 69.3707V70.5407C36.77 70.574 36.7867 70.5907 36.82 70.5907H37.84C37.8733 70.5907 37.9 70.6007 37.92 70.6207C37.9467 70.6474 37.96 70.6774 37.96 70.7107V71.4107ZM43.2 72.5707C43.2267 72.7374 43.24 72.924 43.24 73.1307L43.23 73.4407C43.23 73.5207 43.19 73.5607 43.11 73.5607H39.98C39.9467 73.5607 39.93 73.5774 39.93 73.6107C39.95 73.8307 39.98 73.9807 40.02 74.0607C40.18 74.5407 40.57 74.784 41.19 74.7907C41.6433 74.7907 42.0033 74.604 42.27 74.2307C42.2967 74.1907 42.33 74.1707 42.37 74.1707C42.3967 74.1707 42.42 74.1807 42.44 74.2007L43.06 74.7107C43.12 74.7574 43.13 74.8107 43.09 74.8707C42.8833 75.164 42.61 75.3907 42.27 75.5507C41.9233 75.7107 41.54 75.7907 41.12 75.7907C40.6 75.7907 40.1567 75.674 39.79 75.4407C39.43 75.2074 39.1667 74.8807 39 74.4607C38.8467 74.1007 38.77 73.6007 38.77 72.9607C38.77 72.574 38.81 72.2607 38.89 72.0207C39.0233 71.554 39.2767 71.184 39.65 70.9107C40.0167 70.644 40.46 70.5107 40.98 70.5107C42.2933 70.5107 43.0333 71.1974 43.2 72.5707ZM40.98 71.5107C40.7333 71.5107 40.5267 71.574 40.36 71.7007C40.2 71.8207 40.0867 71.9907 40.02 72.2107C39.98 72.324 39.9533 72.4707 39.94 72.6507C39.9267 72.684 39.94 72.7007 39.98 72.7007H42.01C42.0433 72.7007 42.06 72.684 42.06 72.6507C42.0467 72.484 42.0267 72.3574 42 72.2707C41.94 72.0307 41.8233 71.844 41.65 71.7107C41.47 71.5774 41.2467 71.5107 40.98 71.5107ZM46.68 70.5307C46.8933 70.5307 47.08 70.574 47.24 70.6607C47.2933 70.6874 47.3133 70.7374 47.3 70.8107L47.13 71.7107C47.1233 71.7907 47.0767 71.814 46.99 71.7807C46.89 71.7474 46.7733 71.7307 46.64 71.7307C46.5533 71.7307 46.4867 71.734 46.44 71.7407C46.16 71.754 45.9267 71.8507 45.74 72.0307C45.5533 72.2174 45.46 72.4574 45.46 72.7507V75.5807C45.46 75.614 45.45 75.6407 45.43 75.6607C45.4033 75.6874 45.3733 75.7007 45.34 75.7007H44.42C44.3867 75.7007 44.36 75.6874 44.34 75.6607C44.3133 75.6407 44.3 75.614 44.3 75.5807V70.7107C44.3 70.6774 44.3133 70.6474 44.34 70.6207C44.36 70.6007 44.3867 70.5907 44.42 70.5907H45.34C45.3733 70.5907 45.4033 70.6007 45.43 70.6207C45.45 70.6474 45.46 70.6774 45.46 70.7107V71.1607C45.46 71.1874 45.4633 71.2007 45.47 71.2007C45.4833 71.2074 45.4967 71.2007 45.51 71.1807C45.79 70.7474 46.18 70.5307 46.68 70.5307ZM52.39 71.9107C52.51 72.2507 52.57 72.6674 52.57 73.1607C52.57 73.634 52.5133 74.0407 52.4 74.3807C52.2533 74.8207 52.02 75.164 51.7 75.4107C51.3733 75.6574 50.9633 75.7807 50.47 75.7807C49.9967 75.7807 49.6167 75.6107 49.33 75.2707C49.3167 75.2574 49.3033 75.254 49.29 75.2607C49.2767 75.2674 49.27 75.2807 49.27 75.3007V77.4707C49.27 77.504 49.26 77.5307 49.24 77.5507C49.2133 77.5774 49.1833 77.5907 49.15 77.5907H48.23C48.1967 77.5907 48.17 77.5774 48.15 77.5507C48.1233 77.5307 48.11 77.504 48.11 77.4707V70.7107C48.11 70.6774 48.1233 70.6474 48.15 70.6207C48.17 70.6007 48.1967 70.5907 48.23 70.5907H49.15C49.1833 70.5907 49.2133 70.6007 49.24 70.6207C49.26 70.6474 49.27 70.6774 49.27 70.7107V71.0107C49.27 71.0307 49.2767 71.044 49.29 71.0507C49.3033 71.0574 49.3167 71.0507 49.33 71.0307C49.6233 70.684 50.0067 70.5107 50.48 70.5107C50.9533 70.5107 51.3533 70.634 51.68 70.8807C52.0067 71.1274 52.2433 71.4707 52.39 71.9107ZM51.09 74.3607C51.29 74.054 51.39 73.6474 51.39 73.1407C51.39 72.654 51.31 72.2707 51.15 71.9907C50.9633 71.664 50.68 71.5007 50.3 71.5007C49.9533 71.5007 49.6933 71.6607 49.52 71.9807C49.3667 72.2407 49.29 72.6274 49.29 73.1407C49.29 73.6674 49.3733 74.0674 49.54 74.3407C49.7133 74.634 49.9633 74.7807 50.29 74.7807C50.6433 74.7807 50.91 74.6407 51.09 74.3607ZM56.07 70.5307C56.2833 70.5307 56.47 70.574 56.63 70.6607C56.6833 70.6874 56.7033 70.7374 56.69 70.8107L56.52 71.7107C56.5133 71.7907 56.4667 71.814 56.38 71.7807C56.28 71.7474 56.1633 71.7307 56.03 71.7307C55.9433 71.7307 55.8767 71.734 55.83 71.7407C55.55 71.754 55.3167 71.8507 55.13 72.0307C54.9433 72.2174 54.85 72.4574 54.85 72.7507V75.5807C54.85 75.614 54.84 75.6407 54.82 75.6607C54.7933 75.6874 54.7633 75.7007 54.73 75.7007H53.81C53.7767 75.7007 53.75 75.6874 53.73 75.6607C53.7033 75.6407 53.69 75.614 53.69 75.5807V70.7107C53.69 70.6774 53.7033 70.6474 53.73 70.6207C53.75 70.6007 53.7767 70.5907 53.81 70.5907H54.73C54.7633 70.5907 54.7933 70.6007 54.82 70.6207C54.84 70.6474 54.85 70.6774 54.85 70.7107V71.1607C54.85 71.1874 54.8533 71.2007 54.86 71.2007C54.8733 71.2074 54.8867 71.2007 54.9 71.1807C55.18 70.7474 55.57 70.5307 56.07 70.5307ZM58.11 69.8907C57.9033 69.8907 57.7333 69.824 57.6 69.6907C57.4667 69.5574 57.4 69.3874 57.4 69.1807C57.4 68.974 57.4667 68.804 57.6 68.6707C57.7333 68.5374 57.9033 68.4707 58.11 68.4707C58.3167 68.4707 58.4867 68.5374 58.62 68.6707C58.7533 68.804 58.82 68.974 58.82 69.1807C58.82 69.3874 58.7533 69.5574 58.62 69.6907C58.4867 69.824 58.3167 69.8907 58.11 69.8907ZM57.63 75.7007C57.5967 75.7007 57.57 75.6874 57.55 75.6607C57.5233 75.6407 57.51 75.614 57.51 75.5807V70.7007C57.51 70.6674 57.5233 70.6407 57.55 70.6207C57.57 70.594 57.5967 70.5807 57.63 70.5807H58.55C58.5833 70.5807 58.6133 70.594 58.64 70.6207C58.66 70.6407 58.67 70.6674 58.67 70.7007V75.5807C58.67 75.614 58.66 75.6407 58.64 75.6607C58.6133 75.6874 58.5833 75.7007 58.55 75.7007H57.63ZM61.9 75.7607C61.48 75.7607 61.11 75.6974 60.79 75.5707C60.4767 75.4507 60.2333 75.2807 60.06 75.0607C59.8867 74.8474 59.8 74.6074 59.8 74.3407V74.2507C59.8 74.2174 59.81 74.1874 59.83 74.1607C59.8567 74.1407 59.8867 74.1307 59.92 74.1307H60.8C60.8333 74.1307 60.8633 74.1407 60.89 74.1607C60.91 74.1874 60.92 74.2174 60.92 74.2507V74.2707C60.92 74.4374 61.01 74.584 61.19 74.7107C61.3767 74.8307 61.61 74.8907 61.89 74.8907C62.1567 74.8907 62.3733 74.8374 62.54 74.7307C62.7067 74.6174 62.79 74.4774 62.79 74.3107C62.79 74.1574 62.72 74.0407 62.58 73.9607C62.4467 73.8874 62.2267 73.8074 61.92 73.7207L61.54 73.6007C61.2 73.5007 60.9133 73.394 60.68 73.2807C60.4467 73.1674 60.25 73.0107 60.09 72.8107C59.93 72.6174 59.85 72.3674 59.85 72.0607C59.85 71.594 60.0333 71.224 60.4 70.9507C60.7667 70.6707 61.25 70.5307 61.85 70.5307C62.2567 70.5307 62.6133 70.594 62.92 70.7207C63.2267 70.854 63.4633 71.034 63.63 71.2607C63.7967 71.494 63.88 71.7574 63.88 72.0507C63.88 72.084 63.87 72.114 63.85 72.1407C63.8233 72.1607 63.7933 72.1707 63.76 72.1707H62.91C62.8767 72.1707 62.8467 72.1607 62.82 72.1407C62.8 72.114 62.79 72.084 62.79 72.0507C62.79 71.8774 62.7067 71.734 62.54 71.6207C62.3667 71.5007 62.1333 71.4407 61.84 71.4407C61.58 71.4407 61.37 71.4874 61.21 71.5807C61.0433 71.6807 60.96 71.8174 60.96 71.9907C60.96 72.1507 61.0367 72.2707 61.19 72.3507C61.35 72.4374 61.6133 72.5307 61.98 72.6307L62.2 72.6907C62.5533 72.7974 62.85 72.904 63.09 73.0107C63.33 73.124 63.5333 73.2774 63.7 73.4707C63.8667 73.6707 63.95 73.9274 63.95 74.2407C63.95 74.714 63.7633 75.084 63.39 75.3507C63.0167 75.624 62.52 75.7607 61.9 75.7607ZM69.24 72.5707C69.2667 72.7374 69.28 72.924 69.28 73.1307L69.27 73.4407C69.27 73.5207 69.23 73.5607 69.15 73.5607H66.02C65.9867 73.5607 65.97 73.5774 65.97 73.6107C65.99 73.8307 66.02 73.9807 66.06 74.0607C66.22 74.5407 66.61 74.784 67.23 74.7907C67.6833 74.7907 68.0433 74.604 68.31 74.2307C68.3367 74.1907 68.37 74.1707 68.41 74.1707C68.4367 74.1707 68.46 74.1807 68.48 74.2007L69.1 74.7107C69.16 74.7574 69.17 74.8107 69.13 74.8707C68.9233 75.164 68.6467 75.3907 68.3 75.5507C67.96 75.7107 67.58 75.7907 67.16 75.7907C66.64 75.7907 66.1967 75.674 65.83 75.4407C65.47 75.2074 65.2067 74.8807 65.04 74.4607C64.8867 74.1007 64.81 73.6007 64.81 72.9607C64.81 72.574 64.85 72.2607 64.93 72.0207C65.0633 71.554 65.3133 71.184 65.68 70.9107C66.0533 70.644 66.5 70.5107 67.02 70.5107C68.3333 70.5107 69.0733 71.1974 69.24 72.5707ZM67.02 71.5107C66.7733 71.5107 66.5667 71.574 66.4 71.7007C66.24 71.8207 66.1267 71.9907 66.06 72.2107C66.02 72.324 65.9933 72.4707 65.98 72.6507C65.9667 72.684 65.98 72.7007 66.02 72.7007H68.05C68.0833 72.7007 68.1 72.684 68.1 72.6507C68.0867 72.484 68.0667 72.3574 68.04 72.2707C67.98 72.0307 67.86 71.844 67.68 71.7107C67.5067 71.5774 67.2867 71.5107 67.02 71.5107Z" fill="#242530"/>
<path d="M33.15 89.8807C32.6167 89.8807 32.15 89.794 31.75 89.6207C31.35 89.454 31.0433 89.2107 30.83 88.8907C30.61 88.5774 30.5 88.2107 30.5 87.7907V87.5707C30.5 87.5374 30.5133 87.5107 30.54 87.4907C30.56 87.464 30.5867 87.4507 30.62 87.4507H31.76C31.7933 87.4507 31.8233 87.464 31.85 87.4907C31.87 87.5107 31.88 87.5374 31.88 87.5707V87.7207C31.88 87.9874 32.0033 88.2107 32.25 88.3907C32.4967 88.5774 32.83 88.6707 33.25 88.6707C33.6033 88.6707 33.8667 88.5974 34.04 88.4507C34.2133 88.2974 34.3 88.1107 34.3 87.8907C34.3 87.7307 34.2467 87.5974 34.14 87.4907C34.0333 87.3774 33.8867 87.2807 33.7 87.2007C33.52 87.114 33.23 86.9974 32.83 86.8507C32.3833 86.6974 32.0033 86.5407 31.69 86.3807C31.3833 86.2207 31.1267 86.0007 30.92 85.7207C30.7067 85.4474 30.6 85.1074 30.6 84.7007C30.6 84.3007 30.7033 83.9507 30.91 83.6507C31.1167 83.3507 31.4033 83.1207 31.77 82.9607C32.1367 82.8007 32.56 82.7207 33.04 82.7207C33.5467 82.7207 33.9967 82.8107 34.39 82.9907C34.79 83.1707 35.1033 83.424 35.33 83.7507C35.55 84.0707 35.66 84.444 35.66 84.8707V85.0207C35.66 85.054 35.65 85.0807 35.63 85.1007C35.6033 85.1274 35.5733 85.1407 35.54 85.1407H34.39C34.3567 85.1407 34.33 85.1274 34.31 85.1007C34.2833 85.0807 34.27 85.054 34.27 85.0207V84.9407C34.27 84.6607 34.1567 84.4207 33.93 84.2207C33.6967 84.0274 33.38 83.9307 32.98 83.9307C32.6667 83.9307 32.42 83.9974 32.24 84.1307C32.0667 84.264 31.98 84.4474 31.98 84.6807C31.98 84.8474 32.0333 84.9874 32.14 85.1007C32.24 85.214 32.3933 85.314 32.6 85.4007C32.8 85.494 33.1133 85.6174 33.54 85.7707C34.0133 85.944 34.3833 86.0974 34.65 86.2307C34.9233 86.364 35.17 86.5607 35.39 86.8207C35.6033 87.0874 35.71 87.4307 35.71 87.8507C35.71 88.4774 35.48 88.9707 35.02 89.3307C34.56 89.6974 33.9367 89.8807 33.15 89.8807ZM39.59 82.7907C40.03 82.7907 40.4167 82.8807 40.75 83.0607C41.0833 83.2407 41.3433 83.494 41.53 83.8207C41.71 84.154 41.8 84.534 41.8 84.9607C41.8 85.3807 41.7067 85.7507 41.52 86.0707C41.3267 86.3907 41.0567 86.6407 40.71 86.8207C40.37 86.994 39.9767 87.0807 39.53 87.0807H38.11C38.0767 87.0807 38.06 87.0974 38.06 87.1307V89.6807C38.06 89.714 38.0467 89.7407 38.02 89.7607C38 89.7874 37.9733 89.8007 37.94 89.8007H36.77C36.7367 89.8007 36.7067 89.7874 36.68 89.7607C36.66 89.7407 36.65 89.714 36.65 89.6807V82.9107C36.65 82.8774 36.66 82.8474 36.68 82.8207C36.7067 82.8007 36.7367 82.7907 36.77 82.7907H39.59ZM39.38 85.9507C39.6867 85.9507 39.9333 85.8607 40.12 85.6807C40.3067 85.5074 40.4 85.2774 40.4 84.9907C40.4 84.6974 40.3067 84.4607 40.12 84.2807C39.9333 84.1007 39.6867 84.0107 39.38 84.0107H38.11C38.0767 84.0107 38.06 84.0274 38.06 84.0607V85.9007C38.06 85.934 38.0767 85.9507 38.11 85.9507H39.38ZM46.51 89.8007C46.4433 89.8007 46.3967 89.7707 46.37 89.7107L45.12 86.9407C45.1067 86.914 45.0867 86.9007 45.06 86.9007H44.13C44.0967 86.9007 44.08 86.9174 44.08 86.9507V89.6807C44.08 89.714 44.0667 89.7407 44.04 89.7607C44.02 89.7874 43.9933 89.8007 43.96 89.8007H42.79C42.7567 89.8007 42.7267 89.7874 42.7 89.7607C42.68 89.7407 42.67 89.714 42.67 89.6807V82.9207C42.67 82.8874 42.68 82.8607 42.7 82.8407C42.7267 82.814 42.7567 82.8007 42.79 82.8007H45.65C46.0767 82.8007 46.45 82.8874 46.77 83.0607C47.0967 83.234 47.3467 83.4807 47.52 83.8007C47.7 84.1207 47.79 84.4907 47.79 84.9107C47.79 85.364 47.6767 85.7507 47.45 86.0707C47.2233 86.3974 46.9067 86.6274 46.5 86.7607C46.4667 86.774 46.4567 86.7974 46.47 86.8307L47.83 89.6607C47.8433 89.6874 47.85 89.7074 47.85 89.7207C47.85 89.774 47.8133 89.8007 47.74 89.8007H46.51ZM44.13 84.0107C44.0967 84.0107 44.08 84.0274 44.08 84.0607V85.7707C44.08 85.804 44.0967 85.8207 44.13 85.8207H45.44C45.72 85.8207 45.9467 85.7374 46.12 85.5707C46.3 85.404 46.39 85.1874 46.39 84.9207C46.39 84.654 46.3 84.434 46.12 84.2607C45.9467 84.094 45.72 84.0107 45.44 84.0107H44.13ZM48.93 89.8007C48.8967 89.8007 48.87 89.7874 48.85 89.7607C48.8233 89.7407 48.81 89.714 48.81 89.6807V82.9207C48.81 82.8874 48.8233 82.8607 48.85 82.8407C48.87 82.814 48.8967 82.8007 48.93 82.8007H50.1C50.1333 82.8007 50.1633 82.814 50.19 82.8407C50.21 82.8607 50.22 82.8874 50.22 82.9207V89.6807C50.22 89.714 50.21 89.7407 50.19 89.7607C50.1633 89.7874 50.1333 89.8007 50.1 89.8007H48.93ZM55.46 82.9207C55.46 82.8874 55.4733 82.8607 55.5 82.8407C55.52 82.814 55.5467 82.8007 55.58 82.8007H56.75C56.7833 82.8007 56.8133 82.814 56.84 82.8407C56.86 82.8607 56.87 82.8874 56.87 82.9207V89.6807C56.87 89.714 56.86 89.7407 56.84 89.7607C56.8133 89.7874 56.7833 89.8007 56.75 89.8007H55.62C55.5533 89.8007 55.5067 89.774 55.48 89.7207L52.89 85.4407C52.8767 85.4207 52.8633 85.414 52.85 85.4207C52.8367 85.4207 52.83 85.434 52.83 85.4607L52.85 89.6807C52.85 89.714 52.84 89.7407 52.82 89.7607C52.7933 89.7874 52.7633 89.8007 52.73 89.8007H51.56C51.5267 89.8007 51.5 89.7874 51.48 89.7607C51.4533 89.7407 51.44 89.714 51.44 89.6807V82.9207C51.44 82.8874 51.4533 82.8607 51.48 82.8407C51.5 82.814 51.5267 82.8007 51.56 82.8007H52.69C52.7567 82.8007 52.8033 82.8274 52.83 82.8807L55.41 87.1407C55.4233 87.1607 55.4367 87.1674 55.45 87.1607C55.4633 87.1607 55.47 87.1474 55.47 87.1207L55.46 82.9207ZM60.55 89.8807C60.0367 89.8807 59.5833 89.7774 59.19 89.5707C58.7967 89.364 58.4933 89.0774 58.28 88.7107C58.06 88.3374 57.95 87.9074 57.95 87.4207V85.1807C57.95 84.694 58.06 84.264 58.28 83.8907C58.4933 83.5174 58.7967 83.2274 59.19 83.0207C59.5833 82.8207 60.0367 82.7207 60.55 82.7207C61.0567 82.7207 61.5067 82.8207 61.9 83.0207C62.2867 83.2207 62.59 83.494 62.81 83.8407C63.0233 84.1807 63.13 84.5607 63.13 84.9807V85.0507C63.13 85.084 63.12 85.1107 63.1 85.1307C63.0733 85.1574 63.0433 85.1707 63.01 85.1707H61.84C61.8067 85.1707 61.78 85.1574 61.76 85.1307C61.7333 85.1107 61.72 85.084 61.72 85.0507V85.0207C61.72 84.714 61.6133 84.4574 61.4 84.2507C61.1867 84.0374 60.9033 83.9307 60.55 83.9307C60.19 83.9307 59.9033 84.0407 59.69 84.2607C59.47 84.4874 59.36 84.7807 59.36 85.1407V87.4607C59.36 87.8207 59.4767 88.1107 59.71 88.3307C59.9433 88.5574 60.24 88.6707 60.6 88.6707C60.9467 88.6707 61.2233 88.5774 61.43 88.3907C61.6367 88.2107 61.74 87.9574 61.74 87.6307V87.1807C61.74 87.1474 61.7233 87.1307 61.69 87.1307H60.57C60.5367 87.1307 60.51 87.1174 60.49 87.0907C60.4633 87.0707 60.45 87.044 60.45 87.0107V86.0907C60.45 86.0574 60.4633 86.0307 60.49 86.0107C60.51 85.984 60.5367 85.9707 60.57 85.9707H63.01C63.0433 85.9707 63.0733 85.984 63.1 86.0107C63.12 86.0307 63.13 86.0574 63.13 86.0907V87.4107C63.13 87.9174 63.0233 88.3574 62.81 88.7307C62.5967 89.104 62.2967 89.3907 61.91 89.5907C61.5167 89.784 61.0633 89.8807 60.55 89.8807ZM37.68 97.9307C37.6667 97.944 37.6633 97.9574 37.67 97.9707C37.6767 97.984 37.69 97.9907 37.71 97.9907H40.42C40.4533 97.9907 40.4833 98.0007 40.51 98.0207C40.53 98.0474 40.54 98.0774 40.54 98.1107V99.0807C40.54 99.114 40.53 99.1407 40.51 99.1607C40.4833 99.1874 40.4533 99.2007 40.42 99.2007H35.92C35.8867 99.2007 35.8567 99.1874 35.83 99.1607C35.81 99.1407 35.8 99.114 35.8 99.0807V98.1607C35.8 98.1007 35.82 98.0507 35.86 98.0107C36.1867 97.6907 36.52 97.344 36.86 96.9707C37.2 96.5907 37.4133 96.354 37.5 96.2607C37.6867 96.0407 37.8767 95.8307 38.07 95.6307C38.6767 94.9574 38.98 94.4574 38.98 94.1307C38.98 93.8974 38.8967 93.704 38.73 93.5507C38.5633 93.404 38.3467 93.3307 38.08 93.3307C37.8133 93.3307 37.5967 93.404 37.43 93.5507C37.2633 93.704 37.18 93.904 37.18 94.1507V94.4007C37.18 94.434 37.1667 94.464 37.14 94.4907C37.12 94.5107 37.0933 94.5207 37.06 94.5207H35.88C35.8467 94.5207 35.82 94.5107 35.8 94.4907C35.7733 94.464 35.76 94.434 35.76 94.4007V93.9307C35.78 93.5707 35.8933 93.2507 36.1 92.9707C36.3067 92.6974 36.58 92.4874 36.92 92.3407C37.2667 92.194 37.6533 92.1207 38.08 92.1207C38.5533 92.1207 38.9667 92.2074 39.32 92.3807C39.6667 92.5607 39.9367 92.8007 40.13 93.1007C40.3167 93.4007 40.41 93.734 40.41 94.1007C40.41 94.3807 40.34 94.6674 40.2 94.9607C40.06 95.254 39.85 95.5707 39.57 95.9107C39.3633 96.1707 39.14 96.4274 38.9 96.6807C38.66 96.934 38.3033 97.3007 37.83 97.7807L37.68 97.9307ZM43.79 99.3107C43.0567 99.3107 42.4767 99.104 42.05 98.6907C41.6233 98.284 41.41 97.7274 41.41 97.0207V94.3807C41.41 93.6874 41.6233 93.1374 42.05 92.7307C42.4767 92.324 43.0567 92.1207 43.79 92.1207C44.5233 92.1207 45.1067 92.324 45.54 92.7307C45.9667 93.1374 46.18 93.6874 46.18 94.3807V97.0207C46.18 97.7274 45.9667 98.284 45.54 98.6907C45.1067 99.104 44.5233 99.3107 43.79 99.3107ZM43.79 98.1007C44.09 98.1007 44.33 98.0074 44.51 97.8207C44.6833 97.6407 44.77 97.3974 44.77 97.0907V94.3407C44.77 94.034 44.6833 93.7907 44.51 93.6107C44.33 93.424 44.09 93.3307 43.79 93.3307C43.4967 93.3307 43.2633 93.424 43.09 93.6107C42.91 93.7907 42.82 94.034 42.82 94.3407V97.0907C42.82 97.3974 42.91 97.6407 43.09 97.8207C43.2633 98.0074 43.4967 98.1007 43.79 98.1007ZM48.98 97.9307C48.9667 97.944 48.9633 97.9574 48.97 97.9707C48.9767 97.984 48.99 97.9907 49.01 97.9907H51.72C51.7533 97.9907 51.7833 98.0007 51.81 98.0207C51.83 98.0474 51.84 98.0774 51.84 98.1107V99.0807C51.84 99.114 51.83 99.1407 51.81 99.1607C51.7833 99.1874 51.7533 99.2007 51.72 99.2007H47.22C47.1867 99.2007 47.16 99.1874 47.14 99.1607C47.1133 99.1407 47.1 99.114 47.1 99.0807V98.1607C47.1 98.1007 47.12 98.0507 47.16 98.0107C47.4867 97.6907 47.82 97.344 48.16 96.9707C48.5 96.5907 48.7133 96.354 48.8 96.2607C48.9867 96.0407 49.1767 95.8307 49.37 95.6307C49.9767 94.9574 50.28 94.4574 50.28 94.1307C50.28 93.8974 50.1967 93.704 50.03 93.5507C49.8633 93.404 49.6467 93.3307 49.38 93.3307C49.1133 93.3307 48.8967 93.404 48.73 93.5507C48.5633 93.704 48.48 93.904 48.48 94.1507V94.4007C48.48 94.434 48.47 94.464 48.45 94.4907C48.4233 94.5107 48.3933 94.5207 48.36 94.5207H47.18C47.1467 94.5207 47.12 94.5107 47.1 94.4907C47.0733 94.464 47.06 94.434 47.06 94.4007V93.9307C47.08 93.5707 47.1933 93.2507 47.4 92.9707C47.6067 92.6974 47.8833 92.4874 48.23 92.3407C48.57 92.194 48.9533 92.1207 49.38 92.1207C49.8533 92.1207 50.2667 92.2074 50.62 92.3807C50.9667 92.5607 51.2367 92.8007 51.43 93.1007C51.6167 93.4007 51.71 93.734 51.71 94.1007C51.71 94.3807 51.64 94.6674 51.5 94.9607C51.36 95.254 51.15 95.5707 50.87 95.9107C50.6633 96.1707 50.44 96.4274 50.2 96.6807C49.96 96.934 49.6033 97.3007 49.13 97.7807L48.98 97.9307ZM57.71 96.1507C57.7433 96.1507 57.7733 96.1607 57.8 96.1807C57.82 96.2074 57.83 96.2374 57.83 96.2707V97.2807C57.83 97.314 57.82 97.344 57.8 97.3707C57.7733 97.3907 57.7433 97.4007 57.71 97.4007H57.28C57.2467 97.4007 57.23 97.4174 57.23 97.4507V99.0807C57.23 99.114 57.22 99.1407 57.2 99.1607C57.1733 99.1874 57.1433 99.2007 57.11 99.2007H55.94C55.9067 99.2007 55.88 99.1874 55.86 99.1607C55.8333 99.1407 55.82 99.114 55.82 99.0807V97.4507C55.82 97.4174 55.8033 97.4007 55.77 97.4007H52.7C52.6667 97.4007 52.64 97.3907 52.62 97.3707C52.5933 97.344 52.58 97.314 52.58 97.2807V96.4807C52.58 96.4407 52.59 96.3907 52.61 96.3307L54.41 92.2907C54.4367 92.2307 54.4833 92.2007 54.55 92.2007H55.8C55.8467 92.2007 55.88 92.214 55.9 92.2407C55.9133 92.2607 55.91 92.294 55.89 92.3407L54.22 96.0907C54.2133 96.104 54.2133 96.1174 54.22 96.1307C54.2267 96.144 54.2367 96.1507 54.25 96.1507H55.77C55.8033 96.1507 55.82 96.134 55.82 96.1007V94.8607C55.82 94.8274 55.8333 94.8007 55.86 94.7807C55.88 94.754 55.9067 94.7407 55.94 94.7407H57.11C57.1433 94.7407 57.1733 94.754 57.2 94.7807C57.22 94.8007 57.23 94.8274 57.23 94.8607V96.1007C57.23 96.134 57.2467 96.1507 57.28 96.1507H57.71Z" fill="#252530"/>
</svg>
