<svg width="94" height="122" viewBox="0 0 94 122" fill="none" xmlns="http://www.w3.org/2000/svg">
<path d="M8.10156 90.2016L47.6016 110.302L85.6016 90.2016V11.6016H8.10156V90.2016Z" fill="white"/>
<path d="M86.4008 11.9004L7.30078 91.6004L48.3008 111.9L86.4008 92.4004V11.9004Z" fill="#F2F3F2"/>
<path d="M5.5 37.8V91.9L6.9 92.6L46.4 112.7L47.6 113.3L48.8 112.7L86.9 92.6L88.3 91.9V9H5.5V37.8ZM8.1 90.4V11.6H85.7V90.4L47.6 110.5L8.1 90.4Z" fill="#DCDEDC"/>
<path d="M46.8984 12.9C47.2984 12.9 47.6984 12.9 48.0984 13L46.8984 15.3C45.0984 15.2 43.4984 16.6 43.3984 18.4C43.2984 20.2 44.6984 21.8 46.4984 21.9H46.8984C47.6984 21.9 48.4984 21.6 49.0984 21.1L50.3984 23.3C49.3984 24 48.1984 24.4 46.8984 24.4C43.6984 24.5 40.9984 22.1 40.8984 18.9C40.7984 15.7 43.1984 13 46.3984 12.9H46.8984ZM50.9984 17.8L52.4984 20.3L50.9984 22.7L49.5984 20.3H46.6984L48.1984 17.8H50.9984ZM48.5984 16.9C48.5984 16.5 48.6984 16.1 48.8984 15.8C49.0984 15.5 49.4984 15.2 49.7984 15L49.9984 14.9C50.3984 14.7 50.4984 14.6 50.4984 14.4C50.4984 14.2 50.1984 14 49.9984 14C49.5984 14 49.2984 14.2 49.0984 14.6L48.5984 14.1C48.6984 13.9 48.8984 13.7 49.0984 13.5C49.3984 13.3 49.6984 13.3 49.9984 13.3C50.2984 13.3 50.6984 13.4 50.8984 13.6C51.0984 13.8 51.2984 14.1 51.2984 14.4C51.2984 14.9 50.9984 15.3 50.3984 15.5L50.0984 15.7C49.7984 15.9 49.5984 16 49.4984 16.3H51.2984V17L48.5984 16.9ZM46.8984 29.4L56.3984 24V9H37.2984V23.9L46.8984 29.4ZM90.1984 64.8H3.59844L0.398438 71.8L3.59844 78.8H90.1984L93.2984 71.8L90.1984 64.8Z" fill="#FF492C"/>
<path d="M19.0889 60.3012C19.0289 60.3012 18.9789 60.2812 18.9389 60.2412C18.8989 60.1945 18.8789 60.1412 18.8789 60.0812V47.9212C18.8789 47.8612 18.8989 47.8078 18.9389 47.7612C18.9789 47.7212 19.0289 47.7012 19.0889 47.7012H21.1989C21.2589 47.7012 21.3089 47.7212 21.3489 47.7612C21.3956 47.8078 21.4189 47.8612 21.4189 47.9212V58.0312C21.4189 58.0912 21.4489 58.1212 21.5089 58.1212H27.3889C27.4489 58.1212 27.5022 58.1412 27.5489 58.1812C27.5889 58.2278 27.6089 58.2812 27.6089 58.3412V60.0812C27.6089 60.1412 27.5889 60.1945 27.5489 60.2412C27.5022 60.2812 27.4489 60.3012 27.3889 60.3012H19.0889ZM37.1989 54.7212C37.2722 55.1745 37.2956 55.6845 37.2689 56.2512C37.2622 56.3978 37.1856 56.4712 37.0389 56.4712H31.4789C31.4056 56.4712 31.3822 56.5012 31.4089 56.5612C31.4422 56.8012 31.5056 57.0412 31.5989 57.2812C31.9122 57.9478 32.5489 58.2812 33.5089 58.2812C34.2756 58.2745 34.8822 57.9645 35.3289 57.3512C35.3756 57.2778 35.4289 57.2412 35.4889 57.2412C35.5289 57.2412 35.5722 57.2645 35.6189 57.3112L36.9089 58.5912C36.9689 58.6512 36.9989 58.7045 36.9989 58.7512C36.9989 58.7778 36.9756 58.8278 36.9289 58.9012C36.5356 59.3878 36.0256 59.7678 35.3989 60.0412C34.7789 60.3078 34.0956 60.4412 33.3489 60.4412C32.3156 60.4412 31.4422 60.2078 30.7289 59.7412C30.0156 59.2745 29.5022 58.6212 29.1889 57.7812C28.9356 57.1812 28.8089 56.3945 28.8089 55.4212C28.8089 54.7612 28.8989 54.1812 29.0789 53.6812C29.3589 52.8278 29.8422 52.1478 30.5289 51.6412C31.2222 51.1412 32.0422 50.8912 32.9889 50.8912C34.1889 50.8912 35.1522 51.2378 35.8789 51.9312C36.6056 52.6245 37.0456 53.5545 37.1989 54.7212ZM33.0089 53.0812C32.2489 53.0812 31.7489 53.4345 31.5089 54.1412C31.4622 54.3012 31.4222 54.4945 31.3889 54.7212C31.3889 54.7812 31.4189 54.8112 31.4789 54.8112H34.5889C34.6622 54.8112 34.6856 54.7812 34.6589 54.7212C34.5989 54.3745 34.5689 54.2078 34.5689 54.2212C34.4622 53.8612 34.2756 53.5812 34.0089 53.3812C33.7356 53.1812 33.4022 53.0812 33.0089 53.0812ZM42.4389 50.9012C43.2189 50.9012 43.9156 51.0378 44.5289 51.3112C45.1422 51.5778 45.6189 51.9478 45.9589 52.4212C46.2989 52.8878 46.4689 53.4078 46.4689 53.9812V60.0812C46.4689 60.1412 46.4489 60.1945 46.4089 60.2412C46.3689 60.2812 46.3189 60.3012 46.2589 60.3012H44.1489C44.0889 60.3012 44.0389 60.2812 43.9989 60.2412C43.9522 60.1945 43.9289 60.1412 43.9289 60.0812V59.4912C43.9289 59.4578 43.9189 59.4345 43.8989 59.4212C43.8722 59.4078 43.8489 59.4178 43.8289 59.4512C43.3222 60.1112 42.5122 60.4412 41.3989 60.4412C40.4589 60.4412 39.7022 60.2145 39.1289 59.7612C38.5489 59.3078 38.2589 58.6345 38.2589 57.7412C38.2589 56.8212 38.5856 56.1045 39.2389 55.5912C39.8856 55.0845 40.8089 54.8312 42.0089 54.8312H43.8389C43.8989 54.8312 43.9289 54.8012 43.9289 54.7412V54.3412C43.9289 53.9478 43.8089 53.6378 43.5689 53.4112C43.3289 53.1912 42.9689 53.0812 42.4889 53.0812C42.1222 53.0812 41.8156 53.1478 41.5689 53.2812C41.3222 53.4145 41.1622 53.6012 41.0889 53.8412C41.0556 53.9745 40.9789 54.0345 40.8589 54.0212L38.6789 53.7312C38.5322 53.7045 38.4656 53.6512 38.4789 53.5712C38.5256 53.0645 38.7256 52.6078 39.0789 52.2012C39.4322 51.7945 39.9022 51.4778 40.4889 51.2512C41.0689 51.0178 41.7189 50.9012 42.4389 50.9012ZM42.0789 58.5512C42.5922 58.5512 43.0289 58.4145 43.3889 58.1412C43.7489 57.8678 43.9289 57.5145 43.9289 57.0812V56.4312C43.9289 56.3712 43.8989 56.3412 43.8389 56.3412H42.5489C42.0089 56.3412 41.5856 56.4445 41.2789 56.6512C40.9722 56.8512 40.8189 57.1378 40.8189 57.5112C40.8189 57.8378 40.9322 58.0912 41.1589 58.2712C41.3856 58.4578 41.6922 58.5512 42.0789 58.5512ZM53.9989 47.9212C53.9989 47.8612 54.0189 47.8078 54.0589 47.7612C54.0989 47.7212 54.1489 47.7012 54.2089 47.7012H56.3189C56.3789 47.7012 56.4289 47.7212 56.4689 47.7612C56.5089 47.8078 56.5289 47.8612 56.5289 47.9212V60.0812C56.5289 60.1412 56.5089 60.1945 56.4689 60.2412C56.4289 60.2812 56.3789 60.3012 56.3189 60.3012H54.2089C54.1489 60.3012 54.0989 60.2812 54.0589 60.2412C54.0189 60.1945 53.9989 60.1412 53.9989 60.0812V59.4912C53.9989 59.4578 53.9856 59.4378 53.9589 59.4312C53.9322 59.4245 53.9089 59.4312 53.8889 59.4512C53.3822 60.1112 52.6922 60.4412 51.8189 60.4412C50.9789 60.4412 50.2556 60.2078 49.6489 59.7412C49.0422 59.2745 48.6056 58.6345 48.3389 57.8212C48.1389 57.1945 48.0389 56.4678 48.0389 55.6412C48.0389 54.7878 48.1456 54.0445 48.3589 53.4112C48.6389 52.6378 49.0756 52.0278 49.6689 51.5812C50.2622 51.1278 50.9956 50.9012 51.8689 50.9012C52.7356 50.9012 53.4089 51.2012 53.8889 51.8012C53.9089 51.8412 53.9322 51.8545 53.9589 51.8412C53.9856 51.8278 53.9989 51.8045 53.9989 51.7712V47.9212ZM53.6189 57.4912C53.8589 57.0512 53.9789 56.4445 53.9789 55.6712C53.9789 54.8712 53.8456 54.2412 53.5789 53.7812C53.3056 53.3145 52.9056 53.0812 52.3789 53.0812C51.8122 53.0812 51.3856 53.3145 51.0989 53.7812C50.7989 54.2545 50.6489 54.8912 50.6489 55.6912C50.6489 56.4112 50.7756 57.0112 51.0289 57.4912C51.3289 58.0112 51.7722 58.2712 52.3589 58.2712C52.8989 58.2712 53.3189 58.0112 53.6189 57.4912ZM66.6289 54.7212C66.7022 55.1745 66.7256 55.6845 66.6989 56.2512C66.6922 56.3978 66.6156 56.4712 66.4689 56.4712H60.9089C60.8356 56.4712 60.8122 56.5012 60.8389 56.5612C60.8722 56.8012 60.9356 57.0412 61.0289 57.2812C61.3422 57.9478 61.9789 58.2812 62.9389 58.2812C63.7056 58.2745 64.3122 57.9645 64.7589 57.3512C64.8056 57.2778 64.8589 57.2412 64.9189 57.2412C64.9589 57.2412 65.0022 57.2645 65.0489 57.3112L66.3389 58.5912C66.3989 58.6512 66.4289 58.7045 66.4289 58.7512C66.4289 58.7778 66.4056 58.8278 66.3589 58.9012C65.9656 59.3878 65.4556 59.7678 64.8289 60.0412C64.2089 60.3078 63.5256 60.4412 62.7789 60.4412C61.7456 60.4412 60.8722 60.2078 60.1589 59.7412C59.4456 59.2745 58.9322 58.6212 58.6189 57.7812C58.3656 57.1812 58.2389 56.3945 58.2389 55.4212C58.2389 54.7612 58.3289 54.1812 58.5089 53.6812C58.7889 52.8278 59.2722 52.1478 59.9589 51.6412C60.6522 51.1412 61.4722 50.8912 62.4189 50.8912C63.6189 50.8912 64.5822 51.2378 65.3089 51.9312C66.0356 52.6245 66.4756 53.5545 66.6289 54.7212ZM62.4389 53.0812C61.6789 53.0812 61.1789 53.4345 60.9389 54.1412C60.8922 54.3012 60.8522 54.4945 60.8189 54.7212C60.8189 54.7812 60.8489 54.8112 60.9089 54.8112H64.0189C64.0922 54.8112 64.1156 54.7812 64.0889 54.7212C64.0289 54.3745 63.9989 54.2078 63.9989 54.2212C63.8922 53.8612 63.7056 53.5812 63.4389 53.3812C63.1656 53.1812 62.8322 53.0812 62.4389 53.0812ZM72.8789 50.9212C73.3122 50.9212 73.6522 51.0045 73.8989 51.1712C73.9989 51.2245 74.0356 51.3145 74.0089 51.4412L73.6289 53.5012C73.6222 53.6412 73.5389 53.6812 73.3789 53.6212C73.1989 53.5612 72.9889 53.5312 72.7489 53.5312C72.6556 53.5312 72.5256 53.5445 72.3589 53.5712C71.9256 53.6045 71.5589 53.7612 71.2589 54.0412C70.9589 54.3278 70.8089 54.7045 70.8089 55.1712V60.0812C70.8089 60.1412 70.7889 60.1945 70.7489 60.2412C70.7022 60.2812 70.6489 60.3012 70.5889 60.3012H68.4889C68.4289 60.3012 68.3756 60.2812 68.3289 60.2412C68.2889 60.1945 68.2689 60.1412 68.2689 60.0812V51.2612C68.2689 51.2012 68.2889 51.1512 68.3289 51.1112C68.3756 51.0712 68.4289 51.0512 68.4889 51.0512H70.5889C70.6489 51.0512 70.7022 51.0712 70.7489 51.1112C70.7889 51.1512 70.8089 51.2012 70.8089 51.2612V51.9512C70.8089 51.9845 70.8189 52.0078 70.8389 52.0212C70.8656 52.0345 70.8856 52.0278 70.8989 52.0012C71.3922 51.2812 72.0522 50.9212 72.8789 50.9212Z" fill="#252530"/>
<path d="M28.74 69.5807C28.74 69.614 28.73 69.6407 28.71 69.6607C28.6833 69.6874 28.6533 69.7007 28.62 69.7007H25.21C25.1767 69.7007 25.16 69.7174 25.16 69.7507V71.6207C25.16 71.654 25.1767 71.6707 25.21 71.6707H27.5C27.5333 71.6707 27.5633 71.6807 27.59 71.7007C27.61 71.7274 27.62 71.7574 27.62 71.7907V72.5507C27.62 72.584 27.61 72.614 27.59 72.6407C27.5633 72.6607 27.5333 72.6707 27.5 72.6707H25.21C25.1767 72.6707 25.16 72.6874 25.16 72.7207V74.6507C25.16 74.684 25.1767 74.7007 25.21 74.7007H28.62C28.6533 74.7007 28.6833 74.714 28.71 74.7407C28.73 74.7607 28.74 74.7874 28.74 74.8207V75.5807C28.74 75.614 28.73 75.6407 28.71 75.6607C28.6833 75.6874 28.6533 75.7007 28.62 75.7007H24.12C24.0867 75.7007 24.06 75.6874 24.04 75.6607C24.0133 75.6407 24 75.614 24 75.5807V68.8207C24 68.7874 24.0133 68.7607 24.04 68.7407C24.06 68.714 24.0867 68.7007 24.12 68.7007H28.62C28.6533 68.7007 28.6833 68.714 28.71 68.7407C28.73 68.7607 28.74 68.7874 28.74 68.8207V69.5807ZM32.26 70.5107C32.8 70.5107 33.2333 70.6707 33.56 70.9907C33.88 71.3107 34.04 71.7474 34.04 72.3007V75.5807C34.04 75.614 34.0267 75.6407 34 75.6607C33.98 75.6874 33.9533 75.7007 33.92 75.7007H33C32.9667 75.7007 32.9367 75.6874 32.91 75.6607C32.89 75.6407 32.88 75.614 32.88 75.5807V72.5407C32.88 72.234 32.7933 71.984 32.62 71.7907C32.4467 71.604 32.2167 71.5107 31.93 71.5107C31.6433 71.5107 31.41 71.604 31.23 71.7907C31.0567 71.9774 30.97 72.224 30.97 72.5307V75.5807C30.97 75.614 30.96 75.6407 30.94 75.6607C30.9133 75.6874 30.8833 75.7007 30.85 75.7007H29.93C29.8967 75.7007 29.87 75.6874 29.85 75.6607C29.8233 75.6407 29.81 75.614 29.81 75.5807V70.7107C29.81 70.6774 29.8233 70.6474 29.85 70.6207C29.87 70.6007 29.8967 70.5907 29.93 70.5907H30.85C30.8833 70.5907 30.9133 70.6007 30.94 70.6207C30.96 70.6474 30.97 70.6774 30.97 70.7107V71.0307C30.97 71.0507 30.9767 71.064 30.99 71.0707C31.0033 71.0774 31.0133 71.0707 31.02 71.0507C31.2933 70.6907 31.7067 70.5107 32.26 70.5107ZM37.96 71.4107C37.96 71.444 37.9467 71.4707 37.92 71.4907C37.9 71.5174 37.8733 71.5307 37.84 71.5307H36.82C36.7867 71.5307 36.77 71.5474 36.77 71.5807V73.9907C36.77 74.244 36.8233 74.4274 36.93 74.5407C37.0433 74.654 37.22 74.7107 37.46 74.7107H37.76C37.7933 74.7107 37.82 74.7207 37.84 74.7407C37.8667 74.7674 37.88 74.7974 37.88 74.8307V75.5807C37.88 75.654 37.84 75.6974 37.76 75.7107L37.24 75.7207C36.7133 75.7207 36.32 75.6307 36.06 75.4507C35.8 75.2707 35.6667 74.9307 35.66 74.4307V71.5807C35.66 71.5474 35.6433 71.5307 35.61 71.5307H35.04C35.0067 71.5307 34.9767 71.5174 34.95 71.4907C34.93 71.4707 34.92 71.444 34.92 71.4107V70.7107C34.92 70.6774 34.93 70.6474 34.95 70.6207C34.9767 70.6007 35.0067 70.5907 35.04 70.5907H35.61C35.6433 70.5907 35.66 70.574 35.66 70.5407V69.3707C35.66 69.3374 35.67 69.3074 35.69 69.2807C35.7167 69.2607 35.7467 69.2507 35.78 69.2507H36.65C36.6833 69.2507 36.71 69.2607 36.73 69.2807C36.7567 69.3074 36.77 69.3374 36.77 69.3707V70.5407C36.77 70.574 36.7867 70.5907 36.82 70.5907H37.84C37.8733 70.5907 37.9 70.6007 37.92 70.6207C37.9467 70.6474 37.96 70.6774 37.96 70.7107V71.4107ZM43.2 72.5707C43.2267 72.7374 43.24 72.924 43.24 73.1307L43.23 73.4407C43.23 73.5207 43.19 73.5607 43.11 73.5607H39.98C39.9467 73.5607 39.93 73.5774 39.93 73.6107C39.95 73.8307 39.98 73.9807 40.02 74.0607C40.18 74.5407 40.57 74.784 41.19 74.7907C41.6433 74.7907 42.0033 74.604 42.27 74.2307C42.2967 74.1907 42.33 74.1707 42.37 74.1707C42.3967 74.1707 42.42 74.1807 42.44 74.2007L43.06 74.7107C43.12 74.7574 43.13 74.8107 43.09 74.8707C42.8833 75.164 42.61 75.3907 42.27 75.5507C41.9233 75.7107 41.54 75.7907 41.12 75.7907C40.6 75.7907 40.1567 75.674 39.79 75.4407C39.43 75.2074 39.1667 74.8807 39 74.4607C38.8467 74.1007 38.77 73.6007 38.77 72.9607C38.77 72.574 38.81 72.2607 38.89 72.0207C39.0233 71.554 39.2767 71.184 39.65 70.9107C40.0167 70.644 40.46 70.5107 40.98 70.5107C42.2933 70.5107 43.0333 71.1974 43.2 72.5707ZM40.98 71.5107C40.7333 71.5107 40.5267 71.574 40.36 71.7007C40.2 71.8207 40.0867 71.9907 40.02 72.2107C39.98 72.324 39.9533 72.4707 39.94 72.6507C39.9267 72.684 39.94 72.7007 39.98 72.7007H42.01C42.0433 72.7007 42.06 72.684 42.06 72.6507C42.0467 72.484 42.0267 72.3574 42 72.2707C41.94 72.0307 41.8233 71.844 41.65 71.7107C41.47 71.5774 41.2467 71.5107 40.98 71.5107ZM46.68 70.5307C46.8933 70.5307 47.08 70.574 47.24 70.6607C47.2933 70.6874 47.3133 70.7374 47.3 70.8107L47.13 71.7107C47.1233 71.7907 47.0767 71.814 46.99 71.7807C46.89 71.7474 46.7733 71.7307 46.64 71.7307C46.5533 71.7307 46.4867 71.734 46.44 71.7407C46.16 71.754 45.9267 71.8507 45.74 72.0307C45.5533 72.2174 45.46 72.4574 45.46 72.7507V75.5807C45.46 75.614 45.45 75.6407 45.43 75.6607C45.4033 75.6874 45.3733 75.7007 45.34 75.7007H44.42C44.3867 75.7007 44.36 75.6874 44.34 75.6607C44.3133 75.6407 44.3 75.614 44.3 75.5807V70.7107C44.3 70.6774 44.3133 70.6474 44.34 70.6207C44.36 70.6007 44.3867 70.5907 44.42 70.5907H45.34C45.3733 70.5907 45.4033 70.6007 45.43 70.6207C45.45 70.6474 45.46 70.6774 45.46 70.7107V71.1607C45.46 71.1874 45.4633 71.2007 45.47 71.2007C45.4833 71.2074 45.4967 71.2007 45.51 71.1807C45.79 70.7474 46.18 70.5307 46.68 70.5307ZM52.39 71.9107C52.51 72.2507 52.57 72.6674 52.57 73.1607C52.57 73.634 52.5133 74.0407 52.4 74.3807C52.2533 74.8207 52.02 75.164 51.7 75.4107C51.3733 75.6574 50.9633 75.7807 50.47 75.7807C49.9967 75.7807 49.6167 75.6107 49.33 75.2707C49.3167 75.2574 49.3033 75.254 49.29 75.2607C49.2767 75.2674 49.27 75.2807 49.27 75.3007V77.4707C49.27 77.504 49.26 77.5307 49.24 77.5507C49.2133 77.5774 49.1833 77.5907 49.15 77.5907H48.23C48.1967 77.5907 48.17 77.5774 48.15 77.5507C48.1233 77.5307 48.11 77.504 48.11 77.4707V70.7107C48.11 70.6774 48.1233 70.6474 48.15 70.6207C48.17 70.6007 48.1967 70.5907 48.23 70.5907H49.15C49.1833 70.5907 49.2133 70.6007 49.24 70.6207C49.26 70.6474 49.27 70.6774 49.27 70.7107V71.0107C49.27 71.0307 49.2767 71.044 49.29 71.0507C49.3033 71.0574 49.3167 71.0507 49.33 71.0307C49.6233 70.684 50.0067 70.5107 50.48 70.5107C50.9533 70.5107 51.3533 70.634 51.68 70.8807C52.0067 71.1274 52.2433 71.4707 52.39 71.9107ZM51.09 74.3607C51.29 74.054 51.39 73.6474 51.39 73.1407C51.39 72.654 51.31 72.2707 51.15 71.9907C50.9633 71.664 50.68 71.5007 50.3 71.5007C49.9533 71.5007 49.6933 71.6607 49.52 71.9807C49.3667 72.2407 49.29 72.6274 49.29 73.1407C49.29 73.6674 49.3733 74.0674 49.54 74.3407C49.7133 74.634 49.9633 74.7807 50.29 74.7807C50.6433 74.7807 50.91 74.6407 51.09 74.3607ZM56.07 70.5307C56.2833 70.5307 56.47 70.574 56.63 70.6607C56.6833 70.6874 56.7033 70.7374 56.69 70.8107L56.52 71.7107C56.5133 71.7907 56.4667 71.814 56.38 71.7807C56.28 71.7474 56.1633 71.7307 56.03 71.7307C55.9433 71.7307 55.8767 71.734 55.83 71.7407C55.55 71.754 55.3167 71.8507 55.13 72.0307C54.9433 72.2174 54.85 72.4574 54.85 72.7507V75.5807C54.85 75.614 54.84 75.6407 54.82 75.6607C54.7933 75.6874 54.7633 75.7007 54.73 75.7007H53.81C53.7767 75.7007 53.75 75.6874 53.73 75.6607C53.7033 75.6407 53.69 75.614 53.69 75.5807V70.7107C53.69 70.6774 53.7033 70.6474 53.73 70.6207C53.75 70.6007 53.7767 70.5907 53.81 70.5907H54.73C54.7633 70.5907 54.7933 70.6007 54.82 70.6207C54.84 70.6474 54.85 70.6774 54.85 70.7107V71.1607C54.85 71.1874 54.8533 71.2007 54.86 71.2007C54.8733 71.2074 54.8867 71.2007 54.9 71.1807C55.18 70.7474 55.57 70.5307 56.07 70.5307ZM58.11 69.8907C57.9033 69.8907 57.7333 69.824 57.6 69.6907C57.4667 69.5574 57.4 69.3874 57.4 69.1807C57.4 68.974 57.4667 68.804 57.6 68.6707C57.7333 68.5374 57.9033 68.4707 58.11 68.4707C58.3167 68.4707 58.4867 68.5374 58.62 68.6707C58.7533 68.804 58.82 68.974 58.82 69.1807C58.82 69.3874 58.7533 69.5574 58.62 69.6907C58.4867 69.824 58.3167 69.8907 58.11 69.8907ZM57.63 75.7007C57.5967 75.7007 57.57 75.6874 57.55 75.6607C57.5233 75.6407 57.51 75.614 57.51 75.5807V70.7007C57.51 70.6674 57.5233 70.6407 57.55 70.6207C57.57 70.594 57.5967 70.5807 57.63 70.5807H58.55C58.5833 70.5807 58.6133 70.594 58.64 70.6207C58.66 70.6407 58.67 70.6674 58.67 70.7007V75.5807C58.67 75.614 58.66 75.6407 58.64 75.6607C58.6133 75.6874 58.5833 75.7007 58.55 75.7007H57.63ZM61.9 75.7607C61.48 75.7607 61.11 75.6974 60.79 75.5707C60.4767 75.4507 60.2333 75.2807 60.06 75.0607C59.8867 74.8474 59.8 74.6074 59.8 74.3407V74.2507C59.8 74.2174 59.81 74.1874 59.83 74.1607C59.8567 74.1407 59.8867 74.1307 59.92 74.1307H60.8C60.8333 74.1307 60.8633 74.1407 60.89 74.1607C60.91 74.1874 60.92 74.2174 60.92 74.2507V74.2707C60.92 74.4374 61.01 74.584 61.19 74.7107C61.3767 74.8307 61.61 74.8907 61.89 74.8907C62.1567 74.8907 62.3733 74.8374 62.54 74.7307C62.7067 74.6174 62.79 74.4774 62.79 74.3107C62.79 74.1574 62.72 74.0407 62.58 73.9607C62.4467 73.8874 62.2267 73.8074 61.92 73.7207L61.54 73.6007C61.2 73.5007 60.9133 73.394 60.68 73.2807C60.4467 73.1674 60.25 73.0107 60.09 72.8107C59.93 72.6174 59.85 72.3674 59.85 72.0607C59.85 71.594 60.0333 71.224 60.4 70.9507C60.7667 70.6707 61.25 70.5307 61.85 70.5307C62.2567 70.5307 62.6133 70.594 62.92 70.7207C63.2267 70.854 63.4633 71.034 63.63 71.2607C63.7967 71.494 63.88 71.7574 63.88 72.0507C63.88 72.084 63.87 72.114 63.85 72.1407C63.8233 72.1607 63.7933 72.1707 63.76 72.1707H62.91C62.8767 72.1707 62.8467 72.1607 62.82 72.1407C62.8 72.114 62.79 72.084 62.79 72.0507C62.79 71.8774 62.7067 71.734 62.54 71.6207C62.3667 71.5007 62.1333 71.4407 61.84 71.4407C61.58 71.4407 61.37 71.4874 61.21 71.5807C61.0433 71.6807 60.96 71.8174 60.96 71.9907C60.96 72.1507 61.0367 72.2707 61.19 72.3507C61.35 72.4374 61.6133 72.5307 61.98 72.6307L62.2 72.6907C62.5533 72.7974 62.85 72.904 63.09 73.0107C63.33 73.124 63.5333 73.2774 63.7 73.4707C63.8667 73.6707 63.95 73.9274 63.95 74.2407C63.95 74.714 63.7633 75.084 63.39 75.3507C63.0167 75.624 62.52 75.7607 61.9 75.7607ZM69.24 72.5707C69.2667 72.7374 69.28 72.924 69.28 73.1307L69.27 73.4407C69.27 73.5207 69.23 73.5607 69.15 73.5607H66.02C65.9867 73.5607 65.97 73.5774 65.97 73.6107C65.99 73.8307 66.02 73.9807 66.06 74.0607C66.22 74.5407 66.61 74.784 67.23 74.7907C67.6833 74.7907 68.0433 74.604 68.31 74.2307C68.3367 74.1907 68.37 74.1707 68.41 74.1707C68.4367 74.1707 68.46 74.1807 68.48 74.2007L69.1 74.7107C69.16 74.7574 69.17 74.8107 69.13 74.8707C68.9233 75.164 68.6467 75.3907 68.3 75.5507C67.96 75.7107 67.58 75.7907 67.16 75.7907C66.64 75.7907 66.1967 75.674 65.83 75.4407C65.47 75.2074 65.2067 74.8807 65.04 74.4607C64.8867 74.1007 64.81 73.6007 64.81 72.9607C64.81 72.574 64.85 72.2607 64.93 72.0207C65.0633 71.554 65.3133 71.184 65.68 70.9107C66.0533 70.644 66.5 70.5107 67.02 70.5107C68.3333 70.5107 69.0733 71.1974 69.24 72.5707ZM67.02 71.5107C66.7733 71.5107 66.5667 71.574 66.4 71.7007C66.24 71.8207 66.1267 71.9907 66.06 72.2107C66.02 72.324 65.9933 72.4707 65.98 72.6507C65.9667 72.684 65.98 72.7007 66.02 72.7007H68.05C68.0833 72.7007 68.1 72.684 68.1 72.6507C68.0867 72.484 68.0667 72.3574 68.04 72.2707C67.98 72.0307 67.86 71.844 67.68 71.7107C67.5067 71.5774 67.2867 71.5107 67.02 71.5107Z" fill="white"/>
<path d="M33.15 89.8807C32.6167 89.8807 32.15 89.794 31.75 89.6207C31.35 89.454 31.0433 89.2107 30.83 88.8907C30.61 88.5774 30.5 88.2107 30.5 87.7907V87.5707C30.5 87.5374 30.5133 87.5107 30.54 87.4907C30.56 87.464 30.5867 87.4507 30.62 87.4507H31.76C31.7933 87.4507 31.8233 87.464 31.85 87.4907C31.87 87.5107 31.88 87.5374 31.88 87.5707V87.7207C31.88 87.9874 32.0033 88.2107 32.25 88.3907C32.4967 88.5774 32.83 88.6707 33.25 88.6707C33.6033 88.6707 33.8667 88.5974 34.04 88.4507C34.2133 88.2974 34.3 88.1107 34.3 87.8907C34.3 87.7307 34.2467 87.5974 34.14 87.4907C34.0333 87.3774 33.8867 87.2807 33.7 87.2007C33.52 87.114 33.23 86.9974 32.83 86.8507C32.3833 86.6974 32.0033 86.5407 31.69 86.3807C31.3833 86.2207 31.1267 86.0007 30.92 85.7207C30.7067 85.4474 30.6 85.1074 30.6 84.7007C30.6 84.3007 30.7033 83.9507 30.91 83.6507C31.1167 83.3507 31.4033 83.1207 31.77 82.9607C32.1367 82.8007 32.56 82.7207 33.04 82.7207C33.5467 82.7207 33.9967 82.8107 34.39 82.9907C34.79 83.1707 35.1033 83.424 35.33 83.7507C35.55 84.0707 35.66 84.444 35.66 84.8707V85.0207C35.66 85.054 35.65 85.0807 35.63 85.1007C35.6033 85.1274 35.5733 85.1407 35.54 85.1407H34.39C34.3567 85.1407 34.33 85.1274 34.31 85.1007C34.2833 85.0807 34.27 85.054 34.27 85.0207V84.9407C34.27 84.6607 34.1567 84.4207 33.93 84.2207C33.6967 84.0274 33.38 83.9307 32.98 83.9307C32.6667 83.9307 32.42 83.9974 32.24 84.1307C32.0667 84.264 31.98 84.4474 31.98 84.6807C31.98 84.8474 32.0333 84.9874 32.14 85.1007C32.24 85.214 32.3933 85.314 32.6 85.4007C32.8 85.494 33.1133 85.6174 33.54 85.7707C34.0133 85.944 34.3833 86.0974 34.65 86.2307C34.9233 86.364 35.17 86.5607 35.39 86.8207C35.6033 87.0874 35.71 87.4307 35.71 87.8507C35.71 88.4774 35.48 88.9707 35.02 89.3307C34.56 89.6974 33.9367 89.8807 33.15 89.8807ZM39.59 82.7907C40.03 82.7907 40.4167 82.8807 40.75 83.0607C41.0833 83.2407 41.3433 83.494 41.53 83.8207C41.71 84.154 41.8 84.534 41.8 84.9607C41.8 85.3807 41.7067 85.7507 41.52 86.0707C41.3267 86.3907 41.0567 86.6407 40.71 86.8207C40.37 86.994 39.9767 87.0807 39.53 87.0807H38.11C38.0767 87.0807 38.06 87.0974 38.06 87.1307V89.6807C38.06 89.714 38.0467 89.7407 38.02 89.7607C38 89.7874 37.9733 89.8007 37.94 89.8007H36.77C36.7367 89.8007 36.7067 89.7874 36.68 89.7607C36.66 89.7407 36.65 89.714 36.65 89.6807V82.9107C36.65 82.8774 36.66 82.8474 36.68 82.8207C36.7067 82.8007 36.7367 82.7907 36.77 82.7907H39.59ZM39.38 85.9507C39.6867 85.9507 39.9333 85.8607 40.12 85.6807C40.3067 85.5074 40.4 85.2774 40.4 84.9907C40.4 84.6974 40.3067 84.4607 40.12 84.2807C39.9333 84.1007 39.6867 84.0107 39.38 84.0107H38.11C38.0767 84.0107 38.06 84.0274 38.06 84.0607V85.9007C38.06 85.934 38.0767 85.9507 38.11 85.9507H39.38ZM46.51 89.8007C46.4433 89.8007 46.3967 89.7707 46.37 89.7107L45.12 86.9407C45.1067 86.914 45.0867 86.9007 45.06 86.9007H44.13C44.0967 86.9007 44.08 86.9174 44.08 86.9507V89.6807C44.08 89.714 44.0667 89.7407 44.04 89.7607C44.02 89.7874 43.9933 89.8007 43.96 89.8007H42.79C42.7567 89.8007 42.7267 89.7874 42.7 89.7607C42.68 89.7407 42.67 89.714 42.67 89.6807V82.9207C42.67 82.8874 42.68 82.8607 42.7 82.8407C42.7267 82.814 42.7567 82.8007 42.79 82.8007H45.65C46.0767 82.8007 46.45 82.8874 46.77 83.0607C47.0967 83.234 47.3467 83.4807 47.52 83.8007C47.7 84.1207 47.79 84.4907 47.79 84.9107C47.79 85.364 47.6767 85.7507 47.45 86.0707C47.2233 86.3974 46.9067 86.6274 46.5 86.7607C46.4667 86.774 46.4567 86.7974 46.47 86.8307L47.83 89.6607C47.8433 89.6874 47.85 89.7074 47.85 89.7207C47.85 89.774 47.8133 89.8007 47.74 89.8007H46.51ZM44.13 84.0107C44.0967 84.0107 44.08 84.0274 44.08 84.0607V85.7707C44.08 85.804 44.0967 85.8207 44.13 85.8207H45.44C45.72 85.8207 45.9467 85.7374 46.12 85.5707C46.3 85.404 46.39 85.1874 46.39 84.9207C46.39 84.654 46.3 84.434 46.12 84.2607C45.9467 84.094 45.72 84.0107 45.44 84.0107H44.13ZM48.93 89.8007C48.8967 89.8007 48.87 89.7874 48.85 89.7607C48.8233 89.7407 48.81 89.714 48.81 89.6807V82.9207C48.81 82.8874 48.8233 82.8607 48.85 82.8407C48.87 82.814 48.8967 82.8007 48.93 82.8007H50.1C50.1333 82.8007 50.1633 82.814 50.19 82.8407C50.21 82.8607 50.22 82.8874 50.22 82.9207V89.6807C50.22 89.714 50.21 89.7407 50.19 89.7607C50.1633 89.7874 50.1333 89.8007 50.1 89.8007H48.93ZM55.46 82.9207C55.46 82.8874 55.4733 82.8607 55.5 82.8407C55.52 82.814 55.5467 82.8007 55.58 82.8007H56.75C56.7833 82.8007 56.8133 82.814 56.84 82.8407C56.86 82.8607 56.87 82.8874 56.87 82.9207V89.6807C56.87 89.714 56.86 89.7407 56.84 89.7607C56.8133 89.7874 56.7833 89.8007 56.75 89.8007H55.62C55.5533 89.8007 55.5067 89.774 55.48 89.7207L52.89 85.4407C52.8767 85.4207 52.8633 85.414 52.85 85.4207C52.8367 85.4207 52.83 85.434 52.83 85.4607L52.85 89.6807C52.85 89.714 52.84 89.7407 52.82 89.7607C52.7933 89.7874 52.7633 89.8007 52.73 89.8007H51.56C51.5267 89.8007 51.5 89.7874 51.48 89.7607C51.4533 89.7407 51.44 89.714 51.44 89.6807V82.9207C51.44 82.8874 51.4533 82.8607 51.48 82.8407C51.5 82.814 51.5267 82.8007 51.56 82.8007H52.69C52.7567 82.8007 52.8033 82.8274 52.83 82.8807L55.41 87.1407C55.4233 87.1607 55.4367 87.1674 55.45 87.1607C55.4633 87.1607 55.47 87.1474 55.47 87.1207L55.46 82.9207ZM60.55 89.8807C60.0367 89.8807 59.5833 89.7774 59.19 89.5707C58.7967 89.364 58.4933 89.0774 58.28 88.7107C58.06 88.3374 57.95 87.9074 57.95 87.4207V85.1807C57.95 84.694 58.06 84.264 58.28 83.8907C58.4933 83.5174 58.7967 83.2274 59.19 83.0207C59.5833 82.8207 60.0367 82.7207 60.55 82.7207C61.0567 82.7207 61.5067 82.8207 61.9 83.0207C62.2867 83.2207 62.59 83.494 62.81 83.8407C63.0233 84.1807 63.13 84.5607 63.13 84.9807V85.0507C63.13 85.084 63.12 85.1107 63.1 85.1307C63.0733 85.1574 63.0433 85.1707 63.01 85.1707H61.84C61.8067 85.1707 61.78 85.1574 61.76 85.1307C61.7333 85.1107 61.72 85.084 61.72 85.0507V85.0207C61.72 84.714 61.6133 84.4574 61.4 84.2507C61.1867 84.0374 60.9033 83.9307 60.55 83.9307C60.19 83.9307 59.9033 84.0407 59.69 84.2607C59.47 84.4874 59.36 84.7807 59.36 85.1407V87.4607C59.36 87.8207 59.4767 88.1107 59.71 88.3307C59.9433 88.5574 60.24 88.6707 60.6 88.6707C60.9467 88.6707 61.2233 88.5774 61.43 88.3907C61.6367 88.2107 61.74 87.9574 61.74 87.6307V87.1807C61.74 87.1474 61.7233 87.1307 61.69 87.1307H60.57C60.5367 87.1307 60.51 87.1174 60.49 87.0907C60.4633 87.0707 60.45 87.044 60.45 87.0107V86.0907C60.45 86.0574 60.4633 86.0307 60.49 86.0107C60.51 85.984 60.5367 85.9707 60.57 85.9707H63.01C63.0433 85.9707 63.0733 85.984 63.1 86.0107C63.12 86.0307 63.13 86.0574 63.13 86.0907V87.4107C63.13 87.9174 63.0233 88.3574 62.81 88.7307C62.5967 89.104 62.2967 89.3907 61.91 89.5907C61.5167 89.784 61.0633 89.8807 60.55 89.8807ZM37.68 97.9307C37.6667 97.944 37.6633 97.9574 37.67 97.9707C37.6767 97.984 37.69 97.9907 37.71 97.9907H40.42C40.4533 97.9907 40.4833 98.0007 40.51 98.0207C40.53 98.0474 40.54 98.0774 40.54 98.1107V99.0807C40.54 99.114 40.53 99.1407 40.51 99.1607C40.4833 99.1874 40.4533 99.2007 40.42 99.2007H35.92C35.8867 99.2007 35.8567 99.1874 35.83 99.1607C35.81 99.1407 35.8 99.114 35.8 99.0807V98.1607C35.8 98.1007 35.82 98.0507 35.86 98.0107C36.1867 97.6907 36.52 97.344 36.86 96.9707C37.2 96.5907 37.4133 96.354 37.5 96.2607C37.6867 96.0407 37.8767 95.8307 38.07 95.6307C38.6767 94.9574 38.98 94.4574 38.98 94.1307C38.98 93.8974 38.8967 93.704 38.73 93.5507C38.5633 93.404 38.3467 93.3307 38.08 93.3307C37.8133 93.3307 37.5967 93.404 37.43 93.5507C37.2633 93.704 37.18 93.904 37.18 94.1507V94.4007C37.18 94.434 37.1667 94.464 37.14 94.4907C37.12 94.5107 37.0933 94.5207 37.06 94.5207H35.88C35.8467 94.5207 35.82 94.5107 35.8 94.4907C35.7733 94.464 35.76 94.434 35.76 94.4007V93.9307C35.78 93.5707 35.8933 93.2507 36.1 92.9707C36.3067 92.6974 36.58 92.4874 36.92 92.3407C37.2667 92.194 37.6533 92.1207 38.08 92.1207C38.5533 92.1207 38.9667 92.2074 39.32 92.3807C39.6667 92.5607 39.9367 92.8007 40.13 93.1007C40.3167 93.4007 40.41 93.734 40.41 94.1007C40.41 94.3807 40.34 94.6674 40.2 94.9607C40.06 95.254 39.85 95.5707 39.57 95.9107C39.3633 96.1707 39.14 96.4274 38.9 96.6807C38.66 96.934 38.3033 97.3007 37.83 97.7807L37.68 97.9307ZM43.79 99.3107C43.0567 99.3107 42.4767 99.104 42.05 98.6907C41.6233 98.284 41.41 97.7274 41.41 97.0207V94.3807C41.41 93.6874 41.6233 93.1374 42.05 92.7307C42.4767 92.324 43.0567 92.1207 43.79 92.1207C44.5233 92.1207 45.1067 92.324 45.54 92.7307C45.9667 93.1374 46.18 93.6874 46.18 94.3807V97.0207C46.18 97.7274 45.9667 98.284 45.54 98.6907C45.1067 99.104 44.5233 99.3107 43.79 99.3107ZM43.79 98.1007C44.09 98.1007 44.33 98.0074 44.51 97.8207C44.6833 97.6407 44.77 97.3974 44.77 97.0907V94.3407C44.77 94.034 44.6833 93.7907 44.51 93.6107C44.33 93.424 44.09 93.3307 43.79 93.3307C43.4967 93.3307 43.2633 93.424 43.09 93.6107C42.91 93.7907 42.82 94.034 42.82 94.3407V97.0907C42.82 97.3974 42.91 97.6407 43.09 97.8207C43.2633 98.0074 43.4967 98.1007 43.79 98.1007ZM48.98 97.9307C48.9667 97.944 48.9633 97.9574 48.97 97.9707C48.9767 97.984 48.99 97.9907 49.01 97.9907H51.72C51.7533 97.9907 51.7833 98.0007 51.81 98.0207C51.83 98.0474 51.84 98.0774 51.84 98.1107V99.0807C51.84 99.114 51.83 99.1407 51.81 99.1607C51.7833 99.1874 51.7533 99.2007 51.72 99.2007H47.22C47.1867 99.2007 47.16 99.1874 47.14 99.1607C47.1133 99.1407 47.1 99.114 47.1 99.0807V98.1607C47.1 98.1007 47.12 98.0507 47.16 98.0107C47.4867 97.6907 47.82 97.344 48.16 96.9707C48.5 96.5907 48.7133 96.354 48.8 96.2607C48.9867 96.0407 49.1767 95.8307 49.37 95.6307C49.9767 94.9574 50.28 94.4574 50.28 94.1307C50.28 93.8974 50.1967 93.704 50.03 93.5507C49.8633 93.404 49.6467 93.3307 49.38 93.3307C49.1133 93.3307 48.8967 93.404 48.73 93.5507C48.5633 93.704 48.48 93.904 48.48 94.1507V94.4007C48.48 94.434 48.47 94.464 48.45 94.4907C48.4233 94.5107 48.3933 94.5207 48.36 94.5207H47.18C47.1467 94.5207 47.12 94.5107 47.1 94.4907C47.0733 94.464 47.06 94.434 47.06 94.4007V93.9307C47.08 93.5707 47.1933 93.2507 47.4 92.9707C47.6067 92.6974 47.8833 92.4874 48.23 92.3407C48.57 92.194 48.9533 92.1207 49.38 92.1207C49.8533 92.1207 50.2667 92.2074 50.62 92.3807C50.9667 92.5607 51.2367 92.8007 51.43 93.1007C51.6167 93.4007 51.71 93.734 51.71 94.1007C51.71 94.3807 51.64 94.6674 51.5 94.9607C51.36 95.254 51.15 95.5707 50.87 95.9107C50.6633 96.1707 50.44 96.4274 50.2 96.6807C49.96 96.934 49.6033 97.3007 49.13 97.7807L48.98 97.9307ZM57.71 96.1507C57.7433 96.1507 57.7733 96.1607 57.8 96.1807C57.82 96.2074 57.83 96.2374 57.83 96.2707V97.2807C57.83 97.314 57.82 97.344 57.8 97.3707C57.7733 97.3907 57.7433 97.4007 57.71 97.4007H57.28C57.2467 97.4007 57.23 97.4174 57.23 97.4507V99.0807C57.23 99.114 57.22 99.1407 57.2 99.1607C57.1733 99.1874 57.1433 99.2007 57.11 99.2007H55.94C55.9067 99.2007 55.88 99.1874 55.86 99.1607C55.8333 99.1407 55.82 99.114 55.82 99.0807V97.4507C55.82 97.4174 55.8033 97.4007 55.77 97.4007H52.7C52.6667 97.4007 52.64 97.3907 52.62 97.3707C52.5933 97.344 52.58 97.314 52.58 97.2807V96.4807C52.58 96.4407 52.59 96.3907 52.61 96.3307L54.41 92.2907C54.4367 92.2307 54.4833 92.2007 54.55 92.2007H55.8C55.8467 92.2007 55.88 92.214 55.9 92.2407C55.9133 92.2607 55.91 92.294 55.89 92.3407L54.22 96.0907C54.2133 96.104 54.2133 96.1174 54.22 96.1307C54.2267 96.144 54.2367 96.1507 54.25 96.1507H55.77C55.8033 96.1507 55.82 96.134 55.82 96.1007V94.8607C55.82 94.8274 55.8333 94.8007 55.86 94.7807C55.88 94.754 55.9067 94.7407 55.94 94.7407H57.11C57.1433 94.7407 57.1733 94.754 57.2 94.7807C57.22 94.8007 57.23 94.8274 57.23 94.8607V96.1007C57.23 96.134 57.2467 96.1507 57.28 96.1507H57.71Z" fill="#252530"/>
</svg>
