<svg width="94" height="122" viewBox="0 0 94 122" fill="none" xmlns="http://www.w3.org/2000/svg">
<path d="M8.10156 90.2016L47.6016 110.302L85.6016 90.2016V11.6016H8.10156V90.2016Z" fill="white"/>
<path d="M86.4008 11.9004L7.30078 91.6004L48.3008 111.9L86.4008 92.4004V11.9004Z" fill="#F2F3F2"/>
<path d="M5.5 37.8V91.9L6.9 92.6L46.4 112.7L47.6 113.3L48.8 112.7L86.9 92.6L88.3 91.9V9H5.5V37.8ZM8.1 90.4V11.6H85.7V90.4L47.6 110.5L8.1 90.4Z" fill="#DCDEDC"/>
<path d="M46.8984 12.9C47.2984 12.9 47.6984 12.9 48.0984 13L46.8984 15.3C45.0984 15.2 43.4984 16.6 43.3984 18.4C43.2984 20.2 44.6984 21.8 46.4984 21.9H46.8984C47.6984 21.9 48.4984 21.6 49.0984 21.1L50.3984 23.3C49.3984 24 48.1984 24.4 46.8984 24.4C43.6984 24.5 40.9984 22.1 40.8984 18.9C40.7984 15.7 43.1984 13 46.3984 12.9H46.8984ZM50.9984 17.8L52.4984 20.3L50.9984 22.7L49.5984 20.3H46.6984L48.1984 17.8H50.9984ZM48.5984 16.9C48.5984 16.5 48.6984 16.1 48.8984 15.8C49.0984 15.5 49.4984 15.2 49.7984 15L49.9984 14.9C50.3984 14.7 50.4984 14.6 50.4984 14.4C50.4984 14.2 50.1984 14 49.9984 14C49.5984 14 49.2984 14.2 49.0984 14.6L48.5984 14.1C48.6984 13.9 48.8984 13.7 49.0984 13.5C49.3984 13.3 49.6984 13.3 49.9984 13.3C50.2984 13.3 50.6984 13.4 50.8984 13.6C51.0984 13.8 51.2984 14.1 51.2984 14.4C51.2984 14.9 50.9984 15.3 50.3984 15.5L50.0984 15.7C49.7984 15.9 49.5984 16 49.4984 16.3H51.2984V17L48.5984 16.9ZM46.8984 29.4L56.3984 24V9H37.2984V23.9L46.8984 29.4ZM90.1984 64.8H3.59844L0.398438 71.8L3.59844 78.8H90.1984L93.2984 71.8L90.1984 64.8Z" fill="#FF492C"/>
<path d="M19.0889 60.3012C19.0289 60.3012 18.9789 60.2812 18.9389 60.2412C18.8989 60.1945 18.8789 60.1412 18.8789 60.0812V47.9212C18.8789 47.8612 18.8989 47.8078 18.9389 47.7612C18.9789 47.7212 19.0289 47.7012 19.0889 47.7012H21.1989C21.2589 47.7012 21.3089 47.7212 21.3489 47.7612C21.3956 47.8078 21.4189 47.8612 21.4189 47.9212V58.0312C21.4189 58.0912 21.4489 58.1212 21.5089 58.1212H27.3889C27.4489 58.1212 27.5022 58.1412 27.5489 58.1812C27.5889 58.2278 27.6089 58.2812 27.6089 58.3412V60.0812C27.6089 60.1412 27.5889 60.1945 27.5489 60.2412C27.5022 60.2812 27.4489 60.3012 27.3889 60.3012H19.0889ZM37.1989 54.7212C37.2722 55.1745 37.2956 55.6845 37.2689 56.2512C37.2622 56.3978 37.1856 56.4712 37.0389 56.4712H31.4789C31.4056 56.4712 31.3822 56.5012 31.4089 56.5612C31.4422 56.8012 31.5056 57.0412 31.5989 57.2812C31.9122 57.9478 32.5489 58.2812 33.5089 58.2812C34.2756 58.2745 34.8822 57.9645 35.3289 57.3512C35.3756 57.2778 35.4289 57.2412 35.4889 57.2412C35.5289 57.2412 35.5722 57.2645 35.6189 57.3112L36.9089 58.5912C36.9689 58.6512 36.9989 58.7045 36.9989 58.7512C36.9989 58.7778 36.9756 58.8278 36.9289 58.9012C36.5356 59.3878 36.0256 59.7678 35.3989 60.0412C34.7789 60.3078 34.0956 60.4412 33.3489 60.4412C32.3156 60.4412 31.4422 60.2078 30.7289 59.7412C30.0156 59.2745 29.5022 58.6212 29.1889 57.7812C28.9356 57.1812 28.8089 56.3945 28.8089 55.4212C28.8089 54.7612 28.8989 54.1812 29.0789 53.6812C29.3589 52.8278 29.8422 52.1478 30.5289 51.6412C31.2222 51.1412 32.0422 50.8912 32.9889 50.8912C34.1889 50.8912 35.1522 51.2378 35.8789 51.9312C36.6056 52.6245 37.0456 53.5545 37.1989 54.7212ZM33.0089 53.0812C32.2489 53.0812 31.7489 53.4345 31.5089 54.1412C31.4622 54.3012 31.4222 54.4945 31.3889 54.7212C31.3889 54.7812 31.4189 54.8112 31.4789 54.8112H34.5889C34.6622 54.8112 34.6856 54.7812 34.6589 54.7212C34.5989 54.3745 34.5689 54.2078 34.5689 54.2212C34.4622 53.8612 34.2756 53.5812 34.0089 53.3812C33.7356 53.1812 33.4022 53.0812 33.0089 53.0812ZM42.4389 50.9012C43.2189 50.9012 43.9156 51.0378 44.5289 51.3112C45.1422 51.5778 45.6189 51.9478 45.9589 52.4212C46.2989 52.8878 46.4689 53.4078 46.4689 53.9812V60.0812C46.4689 60.1412 46.4489 60.1945 46.4089 60.2412C46.3689 60.2812 46.3189 60.3012 46.2589 60.3012H44.1489C44.0889 60.3012 44.0389 60.2812 43.9989 60.2412C43.9522 60.1945 43.9289 60.1412 43.9289 60.0812V59.4912C43.9289 59.4578 43.9189 59.4345 43.8989 59.4212C43.8722 59.4078 43.8489 59.4178 43.8289 59.4512C43.3222 60.1112 42.5122 60.4412 41.3989 60.4412C40.4589 60.4412 39.7022 60.2145 39.1289 59.7612C38.5489 59.3078 38.2589 58.6345 38.2589 57.7412C38.2589 56.8212 38.5856 56.1045 39.2389 55.5912C39.8856 55.0845 40.8089 54.8312 42.0089 54.8312H43.8389C43.8989 54.8312 43.9289 54.8012 43.9289 54.7412V54.3412C43.9289 53.9478 43.8089 53.6378 43.5689 53.4112C43.3289 53.1912 42.9689 53.0812 42.4889 53.0812C42.1222 53.0812 41.8156 53.1478 41.5689 53.2812C41.3222 53.4145 41.1622 53.6012 41.0889 53.8412C41.0556 53.9745 40.9789 54.0345 40.8589 54.0212L38.6789 53.7312C38.5322 53.7045 38.4656 53.6512 38.4789 53.5712C38.5256 53.0645 38.7256 52.6078 39.0789 52.2012C39.4322 51.7945 39.9022 51.4778 40.4889 51.2512C41.0689 51.0178 41.7189 50.9012 42.4389 50.9012ZM42.0789 58.5512C42.5922 58.5512 43.0289 58.4145 43.3889 58.1412C43.7489 57.8678 43.9289 57.5145 43.9289 57.0812V56.4312C43.9289 56.3712 43.8989 56.3412 43.8389 56.3412H42.5489C42.0089 56.3412 41.5856 56.4445 41.2789 56.6512C40.9722 56.8512 40.8189 57.1378 40.8189 57.5112C40.8189 57.8378 40.9322 58.0912 41.1589 58.2712C41.3856 58.4578 41.6922 58.5512 42.0789 58.5512ZM53.9989 47.9212C53.9989 47.8612 54.0189 47.8078 54.0589 47.7612C54.0989 47.7212 54.1489 47.7012 54.2089 47.7012H56.3189C56.3789 47.7012 56.4289 47.7212 56.4689 47.7612C56.5089 47.8078 56.5289 47.8612 56.5289 47.9212V60.0812C56.5289 60.1412 56.5089 60.1945 56.4689 60.2412C56.4289 60.2812 56.3789 60.3012 56.3189 60.3012H54.2089C54.1489 60.3012 54.0989 60.2812 54.0589 60.2412C54.0189 60.1945 53.9989 60.1412 53.9989 60.0812V59.4912C53.9989 59.4578 53.9856 59.4378 53.9589 59.4312C53.9322 59.4245 53.9089 59.4312 53.8889 59.4512C53.3822 60.1112 52.6922 60.4412 51.8189 60.4412C50.9789 60.4412 50.2556 60.2078 49.6489 59.7412C49.0422 59.2745 48.6056 58.6345 48.3389 57.8212C48.1389 57.1945 48.0389 56.4678 48.0389 55.6412C48.0389 54.7878 48.1456 54.0445 48.3589 53.4112C48.6389 52.6378 49.0756 52.0278 49.6689 51.5812C50.2622 51.1278 50.9956 50.9012 51.8689 50.9012C52.7356 50.9012 53.4089 51.2012 53.8889 51.8012C53.9089 51.8412 53.9322 51.8545 53.9589 51.8412C53.9856 51.8278 53.9989 51.8045 53.9989 51.7712V47.9212ZM53.6189 57.4912C53.8589 57.0512 53.9789 56.4445 53.9789 55.6712C53.9789 54.8712 53.8456 54.2412 53.5789 53.7812C53.3056 53.3145 52.9056 53.0812 52.3789 53.0812C51.8122 53.0812 51.3856 53.3145 51.0989 53.7812C50.7989 54.2545 50.6489 54.8912 50.6489 55.6912C50.6489 56.4112 50.7756 57.0112 51.0289 57.4912C51.3289 58.0112 51.7722 58.2712 52.3589 58.2712C52.8989 58.2712 53.3189 58.0112 53.6189 57.4912ZM66.6289 54.7212C66.7022 55.1745 66.7256 55.6845 66.6989 56.2512C66.6922 56.3978 66.6156 56.4712 66.4689 56.4712H60.9089C60.8356 56.4712 60.8122 56.5012 60.8389 56.5612C60.8722 56.8012 60.9356 57.0412 61.0289 57.2812C61.3422 57.9478 61.9789 58.2812 62.9389 58.2812C63.7056 58.2745 64.3122 57.9645 64.7589 57.3512C64.8056 57.2778 64.8589 57.2412 64.9189 57.2412C64.9589 57.2412 65.0022 57.2645 65.0489 57.3112L66.3389 58.5912C66.3989 58.6512 66.4289 58.7045 66.4289 58.7512C66.4289 58.7778 66.4056 58.8278 66.3589 58.9012C65.9656 59.3878 65.4556 59.7678 64.8289 60.0412C64.2089 60.3078 63.5256 60.4412 62.7789 60.4412C61.7456 60.4412 60.8722 60.2078 60.1589 59.7412C59.4456 59.2745 58.9322 58.6212 58.6189 57.7812C58.3656 57.1812 58.2389 56.3945 58.2389 55.4212C58.2389 54.7612 58.3289 54.1812 58.5089 53.6812C58.7889 52.8278 59.2722 52.1478 59.9589 51.6412C60.6522 51.1412 61.4722 50.8912 62.4189 50.8912C63.6189 50.8912 64.5822 51.2378 65.3089 51.9312C66.0356 52.6245 66.4756 53.5545 66.6289 54.7212ZM62.4389 53.0812C61.6789 53.0812 61.1789 53.4345 60.9389 54.1412C60.8922 54.3012 60.8522 54.4945 60.8189 54.7212C60.8189 54.7812 60.8489 54.8112 60.9089 54.8112H64.0189C64.0922 54.8112 64.1156 54.7812 64.0889 54.7212C64.0289 54.3745 63.9989 54.2078 63.9989 54.2212C63.8922 53.8612 63.7056 53.5812 63.4389 53.3812C63.1656 53.1812 62.8322 53.0812 62.4389 53.0812ZM72.8789 50.9212C73.3122 50.9212 73.6522 51.0045 73.8989 51.1712C73.9989 51.2245 74.0356 51.3145 74.0089 51.4412L73.6289 53.5012C73.6222 53.6412 73.5389 53.6812 73.3789 53.6212C73.1989 53.5612 72.9889 53.5312 72.7489 53.5312C72.6556 53.5312 72.5256 53.5445 72.3589 53.5712C71.9256 53.6045 71.5589 53.7612 71.2589 54.0412C70.9589 54.3278 70.8089 54.7045 70.8089 55.1712V60.0812C70.8089 60.1412 70.7889 60.1945 70.7489 60.2412C70.7022 60.2812 70.6489 60.3012 70.5889 60.3012H68.4889C68.4289 60.3012 68.3756 60.2812 68.3289 60.2412C68.2889 60.1945 68.2689 60.1412 68.2689 60.0812V51.2612C68.2689 51.2012 68.2889 51.1512 68.3289 51.1112C68.3756 51.0712 68.4289 51.0512 68.4889 51.0512H70.5889C70.6489 51.0512 70.7022 51.0712 70.7489 51.1112C70.7889 51.1512 70.8089 51.2012 70.8089 51.2612V51.9512C70.8089 51.9845 70.8189 52.0078 70.8389 52.0212C70.8656 52.0345 70.8856 52.0278 70.8989 52.0012C71.3922 51.2812 72.0522 50.9212 72.8789 50.9212Z" fill="#252530"/>
<path d="M33.1403 75.7811C32.6203 75.7811 32.167 75.6978 31.7803 75.5311C31.3936 75.3644 31.0936 75.1311 30.8803 74.8311C30.6736 74.5311 30.5703 74.1778 30.5703 73.7711V73.5211C30.5703 73.4878 30.5836 73.4578 30.6103 73.4311C30.6303 73.4111 30.657 73.4011 30.6903 73.4011H31.5803C31.6136 73.4011 31.6436 73.4111 31.6703 73.4311C31.6903 73.4578 31.7003 73.4878 31.7003 73.5211V73.7111C31.7003 74.0178 31.837 74.2711 32.1103 74.4711C32.3836 74.6778 32.757 74.7811 33.2303 74.7811C33.637 74.7811 33.9436 74.6944 34.1503 74.5211C34.357 74.3478 34.4603 74.1244 34.4603 73.8511C34.4603 73.6644 34.4036 73.5044 34.2903 73.3711C34.177 73.2444 34.017 73.1278 33.8103 73.0211C33.597 72.9144 33.2803 72.7811 32.8603 72.6211C32.387 72.4478 32.0036 72.2844 31.7103 72.1311C31.417 71.9778 31.1736 71.7678 30.9803 71.5011C30.7803 71.2411 30.6803 70.9144 30.6803 70.5211C30.6803 69.9344 30.8936 69.4711 31.3203 69.1311C31.747 68.7911 32.317 68.6211 33.0303 68.6211C33.5303 68.6211 33.9736 68.7078 34.3603 68.8811C34.7403 69.0544 35.037 69.2978 35.2503 69.6111C35.4636 69.9178 35.5703 70.2744 35.5703 70.6811V70.8511C35.5703 70.8844 35.557 70.9144 35.5303 70.9411C35.5103 70.9611 35.4836 70.9711 35.4503 70.9711H34.5503C34.517 70.9711 34.4903 70.9611 34.4703 70.9411C34.4436 70.9144 34.4303 70.8844 34.4303 70.8511V70.7411C34.4303 70.4278 34.3036 70.1644 34.0503 69.9511C33.7903 69.7311 33.4336 69.6211 32.9803 69.6211C32.6136 69.6211 32.3303 69.6978 32.1303 69.8511C31.9236 70.0044 31.8203 70.2211 31.8203 70.5011C31.8203 70.7011 31.8736 70.8644 31.9803 70.9911C32.087 71.1178 32.247 71.2311 32.4603 71.3311C32.6736 71.4378 33.0036 71.5711 33.4503 71.7311C33.9236 71.9111 34.3036 72.0744 34.5903 72.2211C34.8703 72.3678 35.1136 72.5711 35.3203 72.8311C35.5203 73.0978 35.6203 73.4278 35.6203 73.8211C35.6203 74.4211 35.397 74.8978 34.9503 75.2511C34.5103 75.6044 33.907 75.7811 33.1403 75.7811ZM39.6003 68.6911C40.0203 68.6911 40.3903 68.7778 40.7103 68.9511C41.0303 69.1244 41.277 69.3678 41.4503 69.6811C41.6303 70.0011 41.7203 70.3678 41.7203 70.7811C41.7203 71.1878 41.6303 71.5478 41.4503 71.8611C41.2703 72.1744 41.017 72.4144 40.6903 72.5811C40.357 72.7544 39.9736 72.8411 39.5403 72.8411H37.9403C37.907 72.8411 37.8903 72.8578 37.8903 72.8911V75.5811C37.8903 75.6144 37.8803 75.6411 37.8603 75.6611C37.8336 75.6878 37.8036 75.7011 37.7703 75.7011H36.8503C36.817 75.7011 36.7903 75.6878 36.7703 75.6611C36.7436 75.6411 36.7303 75.6144 36.7303 75.5811V68.8111C36.7303 68.7778 36.7436 68.7478 36.7703 68.7211C36.7903 68.7011 36.817 68.6911 36.8503 68.6911H39.6003ZM39.4303 71.9011C39.7703 71.9011 40.0436 71.8011 40.2503 71.6011C40.457 71.4011 40.5603 71.1378 40.5603 70.8111C40.5603 70.4778 40.457 70.2078 40.2503 70.0011C40.0436 69.7944 39.7703 69.6911 39.4303 69.6911H37.9403C37.907 69.6911 37.8903 69.7078 37.8903 69.7411V71.8511C37.8903 71.8844 37.907 71.9011 37.9403 71.9011H39.4303ZM46.6703 75.7011C46.6036 75.7011 46.557 75.6711 46.5303 75.6111L45.2103 72.7311C45.197 72.7044 45.177 72.6911 45.1503 72.6911H43.9503C43.917 72.6911 43.9003 72.7078 43.9003 72.7411V75.5811C43.9003 75.6144 43.887 75.6411 43.8603 75.6611C43.8403 75.6878 43.8136 75.7011 43.7803 75.7011H42.8603C42.827 75.7011 42.8003 75.6878 42.7803 75.6611C42.7536 75.6411 42.7403 75.6144 42.7403 75.5811V68.8211C42.7403 68.7878 42.7536 68.7611 42.7803 68.7411C42.8003 68.7144 42.827 68.7011 42.8603 68.7011H45.6103C46.017 68.7011 46.377 68.7844 46.6903 68.9511C47.0036 69.1244 47.247 69.3644 47.4203 69.6711C47.5936 69.9844 47.6803 70.3411 47.6803 70.7411C47.6803 71.2011 47.5636 71.5911 47.3303 71.9111C47.0903 72.2378 46.7603 72.4644 46.3403 72.5911C46.327 72.5911 46.317 72.5978 46.3103 72.6111C46.3036 72.6244 46.3036 72.6378 46.3103 72.6511L47.7203 75.5611C47.7336 75.5878 47.7403 75.6078 47.7403 75.6211C47.7403 75.6744 47.7036 75.7011 47.6303 75.7011H46.6703ZM43.9503 69.7011C43.917 69.7011 43.9003 69.7178 43.9003 69.7511V71.7411C43.9003 71.7744 43.917 71.7911 43.9503 71.7911H45.4503C45.7703 71.7911 46.027 71.6944 46.2203 71.5011C46.4203 71.3144 46.5203 71.0644 46.5203 70.7511C46.5203 70.4378 46.4203 70.1844 46.2203 69.9911C46.027 69.7978 45.7703 69.7011 45.4503 69.7011H43.9503ZM48.9903 75.7011C48.957 75.7011 48.927 75.6878 48.9003 75.6611C48.8803 75.6411 48.8703 75.6144 48.8703 75.5811V68.8211C48.8703 68.7878 48.8803 68.7611 48.9003 68.7411C48.927 68.7144 48.957 68.7011 48.9903 68.7011H49.9103C49.9436 68.7011 49.9703 68.7144 49.9903 68.7411C50.017 68.7611 50.0303 68.7878 50.0303 68.8211V75.5811C50.0303 75.6144 50.017 75.6411 49.9903 75.6611C49.9703 75.6878 49.9436 75.7011 49.9103 75.7011H48.9903ZM55.5603 68.8211C55.5603 68.7878 55.5736 68.7611 55.6003 68.7411C55.6203 68.7144 55.647 68.7011 55.6803 68.7011H56.6003C56.6336 68.7011 56.6636 68.7144 56.6903 68.7411C56.7103 68.7611 56.7203 68.7878 56.7203 68.8211V75.5811C56.7203 75.6144 56.7103 75.6411 56.6903 75.6611C56.6636 75.6878 56.6336 75.7011 56.6003 75.7011H55.7103C55.6436 75.7011 55.597 75.6744 55.5703 75.6211L52.6903 70.9011C52.677 70.8811 52.6636 70.8711 52.6503 70.8711C52.637 70.8778 52.6303 70.8944 52.6303 70.9211L52.6503 75.5811C52.6503 75.6144 52.637 75.6411 52.6103 75.6611C52.5903 75.6878 52.5636 75.7011 52.5303 75.7011H51.6103C51.577 75.7011 51.5503 75.6878 51.5303 75.6611C51.5036 75.6411 51.4903 75.6144 51.4903 75.5811V68.8211C51.4903 68.7878 51.5036 68.7611 51.5303 68.7411C51.5503 68.7144 51.577 68.7011 51.6103 68.7011H52.5003C52.567 68.7011 52.6136 68.7278 52.6403 68.7811L55.5103 73.5011C55.5236 73.5211 55.537 73.5278 55.5503 73.5211C55.5636 73.5211 55.5703 73.5078 55.5703 73.4811L55.5603 68.8211ZM60.5203 75.7811C60.0203 75.7811 59.5803 75.6844 59.2003 75.4911C58.8203 75.2911 58.527 75.0111 58.3203 74.6511C58.1136 74.2911 58.0103 73.8778 58.0103 73.4111V70.9911C58.0103 70.5178 58.1136 70.1011 58.3203 69.7411C58.527 69.3878 58.8203 69.1111 59.2003 68.9111C59.5803 68.7178 60.0203 68.6211 60.5203 68.6211C61.0136 68.6211 61.4503 68.7178 61.8303 68.9111C62.2036 69.1044 62.4936 69.3678 62.7003 69.7011C62.907 70.0344 63.0103 70.4111 63.0103 70.8311V70.9111C63.0103 70.9444 63.0003 70.9711 62.9803 70.9911C62.9536 71.0178 62.9236 71.0311 62.8903 71.0311H61.9803C61.947 71.0311 61.9203 71.0178 61.9003 70.9911C61.8736 70.9711 61.8603 70.9444 61.8603 70.9111V70.8611C61.8603 70.5011 61.737 70.2044 61.4903 69.9711C61.2503 69.7378 60.927 69.6211 60.5203 69.6211C60.1136 69.6211 59.787 69.7444 59.5403 69.9911C59.2936 70.2311 59.1703 70.5511 59.1703 70.9511V73.4511C59.1703 73.8511 59.3003 74.1744 59.5603 74.4211C59.8203 74.6611 60.157 74.7811 60.5703 74.7811C60.9703 74.7811 61.287 74.6744 61.5203 74.4611C61.747 74.2544 61.8603 73.9678 61.8603 73.6011V72.9811C61.8603 72.9478 61.8436 72.9311 61.8103 72.9311H60.5803C60.547 72.9311 60.517 72.9178 60.4903 72.8911C60.4703 72.8711 60.4603 72.8444 60.4603 72.8111V72.0711C60.4603 72.0378 60.4703 72.0111 60.4903 71.9911C60.517 71.9644 60.547 71.9511 60.5803 71.9511H62.8903C62.9236 71.9511 62.9536 71.9644 62.9803 71.9911C63.0003 72.0111 63.0103 72.0378 63.0103 72.0711V73.3511C63.0103 74.1178 62.787 74.7144 62.3403 75.1411C61.887 75.5678 61.2803 75.7811 60.5203 75.7811Z" fill="white"/>
<path d="M33.4892 93.7601C33.4692 93.7801 33.4626 93.8001 33.4692 93.8201C33.4826 93.8401 33.5026 93.8501 33.5292 93.8501H37.4592C37.5059 93.8501 37.5459 93.8667 37.5792 93.9001C37.6192 93.9334 37.6392 93.9734 37.6392 94.0201V95.4301C37.6392 95.4767 37.6192 95.5167 37.5792 95.5501C37.5459 95.5834 37.5059 95.6001 37.4592 95.6001H30.9392C30.8859 95.6001 30.8426 95.5834 30.8092 95.5501C30.7759 95.5167 30.7592 95.4767 30.7592 95.4301V94.0901C30.7592 94.0034 30.7892 93.9301 30.8492 93.8701C31.3226 93.4101 31.8059 92.9067 32.2992 92.3601C32.7926 91.8134 33.1026 91.4734 33.2292 91.3401C33.4959 91.0201 33.7692 90.7134 34.0492 90.4201C34.9292 89.4467 35.3692 88.7234 35.3692 88.2501C35.3692 87.9101 35.2492 87.6301 35.0092 87.4101C34.7692 87.1967 34.4559 87.0901 34.0692 87.0901C33.6826 87.0901 33.3692 87.1967 33.1292 87.4101C32.8826 87.6301 32.7592 87.9201 32.7592 88.2801V88.6401C32.7592 88.6867 32.7426 88.7267 32.7092 88.7601C32.6759 88.7934 32.6359 88.8101 32.5892 88.8101H30.8792C30.8326 88.8101 30.7926 88.7934 30.7592 88.7601C30.7192 88.7267 30.6992 88.6867 30.6992 88.6401V87.9601C30.7326 87.4401 30.8992 86.9767 31.1992 86.5701C31.4992 86.1701 31.8959 85.8634 32.3892 85.6501C32.8892 85.4367 33.4492 85.3301 34.0692 85.3301C34.7559 85.3301 35.3526 85.4601 35.8592 85.7201C36.3659 85.9734 36.7559 86.3167 37.0292 86.7501C37.3092 87.1901 37.4492 87.6734 37.4492 88.2001C37.4492 88.6067 37.3459 89.0234 37.1392 89.4501C36.9392 89.8767 36.6359 90.3367 36.2292 90.8301C35.9292 91.2034 35.6059 91.5767 35.2592 91.9501C34.9125 92.3167 34.3959 92.8467 33.7092 93.5401L33.4892 93.7601ZM42.3492 95.7601C41.2825 95.7601 40.4426 95.4634 39.8292 94.8701C39.2092 94.2767 38.8992 93.4667 38.8992 92.4401V88.6101C38.8992 87.6034 39.2092 86.8067 39.8292 86.2201C40.4426 85.6267 41.2825 85.3301 42.3492 85.3301C43.4092 85.3301 44.2526 85.6267 44.8792 86.2201C45.4992 86.8067 45.8092 87.6034 45.8092 88.6101V92.4401C45.8092 93.4667 45.4992 94.2767 44.8792 94.8701C44.2526 95.4634 43.4092 95.7601 42.3492 95.7601ZM42.3492 94.0101C42.7825 94.0101 43.1259 93.8767 43.3792 93.6101C43.6392 93.3434 43.7692 92.9867 43.7692 92.5401V88.5501C43.7692 88.1101 43.6392 87.7567 43.3792 87.4901C43.1259 87.2234 42.7825 87.0901 42.3492 87.0901C41.9225 87.0901 41.5826 87.2234 41.3292 87.4901C41.0692 87.7567 40.9392 88.1101 40.9392 88.5501V92.5401C40.9392 92.9867 41.0692 93.3434 41.3292 93.6101C41.5826 93.8767 41.9225 94.0101 42.3492 94.0101ZM49.8692 93.7601C49.8492 93.7801 49.8459 93.8001 49.8592 93.8201C49.8659 93.8401 49.8859 93.8501 49.9192 93.8501H53.8492C53.8959 93.8501 53.9359 93.8667 53.9692 93.9001C54.0026 93.9334 54.0192 93.9734 54.0192 94.0201V95.4301C54.0192 95.4767 54.0026 95.5167 53.9692 95.5501C53.9359 95.5834 53.8959 95.6001 53.8492 95.6001H47.3192C47.2726 95.6001 47.2326 95.5834 47.1992 95.5501C47.1659 95.5167 47.1492 95.4767 47.1492 95.4301V94.0901C47.1492 94.0034 47.1759 93.9301 47.2292 93.8701C47.7092 93.4101 48.1926 92.9067 48.6792 92.3601C49.1726 91.8134 49.4826 91.4734 49.6092 91.3401C49.8826 91.0201 50.1592 90.7134 50.4392 90.4201C51.3192 89.4467 51.7592 88.7234 51.7592 88.2501C51.7592 87.9101 51.6392 87.6301 51.3992 87.4101C51.1526 87.1967 50.8359 87.0901 50.4492 87.0901C50.0626 87.0901 49.7492 87.1967 49.5092 87.4101C49.2692 87.6301 49.1492 87.9201 49.1492 88.2801V88.6401C49.1492 88.6867 49.1325 88.7267 49.0992 88.7601C49.0659 88.7934 49.0226 88.8101 48.9692 88.8101H47.2592C47.2125 88.8101 47.1726 88.7934 47.1392 88.7601C47.1059 88.7267 47.0892 88.6867 47.0892 88.6401V87.9601C47.1159 87.4401 47.2792 86.9767 47.5792 86.5701C47.8792 86.1701 48.2792 85.8634 48.7792 85.6501C49.2792 85.4367 49.8359 85.3301 50.4492 85.3301C51.1359 85.3301 51.7326 85.4601 52.2392 85.7201C52.7526 85.9734 53.1459 86.3167 53.4192 86.7501C53.6925 87.1901 53.8292 87.6734 53.8292 88.2001C53.8292 88.6067 53.7292 89.0234 53.5292 89.4501C53.3226 89.8767 53.0159 90.3367 52.6092 90.8301C52.3092 91.2034 51.9859 91.5767 51.6392 91.9501C51.2926 92.3167 50.7759 92.8467 50.0892 93.5401L49.8692 93.7601ZM62.5292 91.1801C62.5759 91.1801 62.6192 91.1967 62.6592 91.2301C62.6926 91.2634 62.7092 91.3034 62.7092 91.3501V92.8201C62.7092 92.8667 62.6926 92.9067 62.6592 92.9401C62.6192 92.9734 62.5759 92.9901 62.5292 92.9901H61.9092C61.8626 92.9901 61.8392 93.0134 61.8392 93.0601V95.4301C61.8392 95.4767 61.8226 95.5167 61.7892 95.5501C61.7492 95.5834 61.7059 95.6001 61.6592 95.6001H59.9692C59.9159 95.6001 59.8726 95.5834 59.8392 95.5501C59.8059 95.5167 59.7892 95.4767 59.7892 95.4301V93.0601C59.7892 93.0134 59.7659 92.9901 59.7192 92.9901H55.2692C55.2226 92.9901 55.1792 92.9734 55.1392 92.9401C55.1059 92.9067 55.0892 92.8667 55.0892 92.8201V91.6601C55.0892 91.6001 55.1059 91.5267 55.1392 91.4401L57.7492 85.5801C57.7892 85.4934 57.8559 85.4501 57.9492 85.4501H59.7592C59.8259 85.4501 59.8726 85.4667 59.8992 85.5001C59.9259 85.5334 59.9226 85.5834 59.8892 85.6501L57.4692 91.0901C57.4626 91.1101 57.4626 91.1301 57.4692 91.1501C57.4826 91.1701 57.4992 91.1801 57.5192 91.1801H59.7192C59.7659 91.1801 59.7892 91.1534 59.7892 91.1001V89.3101C59.7892 89.2567 59.8059 89.2134 59.8392 89.1801C59.8726 89.1467 59.9159 89.1301 59.9692 89.1301H61.6592C61.7059 89.1301 61.7492 89.1467 61.7892 89.1801C61.8226 89.2134 61.8392 89.2567 61.8392 89.3101V91.1001C61.8392 91.1534 61.8626 91.1801 61.9092 91.1801H62.5292Z" fill="#252530"/>
</svg>
