<svg width="94" height="122" viewBox="0 0 94 122" fill="none" xmlns="http://www.w3.org/2000/svg">
<path d="M47.8189 111L6.62891 90.45V21.88C9.9454 21.4876 13.0828 20.1633 15.6774 18.0607C18.2721 15.9581 20.2177 13.1632 21.2889 10H72.6289C73.7112 13.199 75.6865 16.0214 78.3215 18.1336C80.9565 20.2459 84.1411 21.5598 87.4989 21.92V90.45L47.8189 111Z" fill="white"/>
<path d="M7 90.4505L47.74 111L87 90.4305V21.9205C83.736 21.4722 80.6393 20.2025 78 18.2305L7 90.4505Z" fill="#F7F8F7"/>
<path d="M89 20H88.87C85.3714 19.9938 81.9777 18.8049 79.24 16.6264C76.5024 14.4479 74.5818 11.4078 73.79 8L20 8C19.2082 11.3929 17.2985 14.4209 14.5779 16.5974C11.8573 18.7738 8.48393 19.9723 5 20V92.22L6.42 92.94L46.56 113.38L47.76 113.99L48.95 113.36L87.61 92.92L89 92.19V22V20ZM47.74 111L7 90.45V21.88C10.2929 21.4769 13.4035 20.1461 15.9689 18.0427C18.5344 15.9393 20.4492 13.15 21.49 10H72.28C73.3332 13.1886 75.2806 16.0074 77.8903 18.1207C80.5 20.234 83.6621 21.5528 87 21.92V90.45L47.74 111Z" fill="#E9E9EA"/>
<mask id="mask0_294_50012" style="mask-type:luminance" maskUnits="userSpaceOnUse" x="0" y="64" width="94" height="16">
<path d="M90.79 64.9902H3.21L0 72.4902L3.21 79.9902H90.79L94 72.4902L90.79 64.9902Z" fill="white"/>
</mask>
<g mask="url(#mask0_294_50012)">
<path d="M-5 59.9902H99V84.9902H-5V59.9902Z" fill="#9132A2"/>
</g>
<mask id="mask1_294_50012" style="mask-type:luminance" maskUnits="userSpaceOnUse" x="37" y="8" width="20" height="21">
<path d="M47 29L57 23.4V8H37V23.4L47 29ZM49 15.86C48.9842 15.446 49.0884 15.0362 49.3 14.68C49.5734 14.3117 49.939 14.022 50.36 13.84L50.6 13.74C51.01 13.54 51.11 13.37 51.11 13.17C51.11 12.97 50.89 12.76 50.54 12.76C50.3292 12.7444 50.1188 12.796 49.9392 12.9074C49.7595 13.0188 49.6198 13.1842 49.54 13.38L49 12.85C49.1345 12.5887 49.3432 12.373 49.6 12.23C49.8703 12.074 50.178 11.9945 50.49 12C50.8674 11.9876 51.2388 12.0963 51.55 12.31C51.6919 12.4033 51.8076 12.5313 51.8863 12.6817C51.9651 12.8322 52.0042 13.0002 52 13.17C52 13.75 51.66 14.1 51 14.42L50.63 14.59C50.25 14.78 50.06 14.94 50 15.23H52V16H49V15.86ZM51.5 17L53 19.5L51.5 22L50 19.49H47L48.5 17H51.5ZM47.29 12C47.7063 11.9993 48.1216 12.0395 48.53 12.12L47.29 14.56C46.3581 14.5412 45.4568 14.8929 44.7838 15.5377C44.1107 16.1826 43.721 17.0681 43.7 18C43.7236 18.9301 44.1145 19.8131 44.7872 20.4558C45.4599 21.0985 46.3598 21.4488 47.29 21.43C48.146 21.4351 48.977 21.1416 49.64 20.6L51 22.84C49.9106 23.596 48.616 24.0008 47.29 24C45.6612 24.0349 44.085 23.4232 42.9061 22.2987C41.7273 21.1743 41.0419 19.6286 41 18C41.0419 16.3714 41.7273 14.8257 42.9061 13.7013C44.085 12.5768 45.6612 11.9651 47.29 12Z" fill="white"/>
</mask>
<g mask="url(#mask1_294_50012)">
<path d="M32 2.99023H62V33.9902H32V2.99023Z" fill="#9132A2"/>
</g>
<path d="M19.0889 60.1C19.0289 60.1 18.9789 60.08 18.9389 60.04C18.8989 59.9933 18.8789 59.94 18.8789 59.88V47.72C18.8789 47.66 18.8989 47.6067 18.9389 47.56C18.9789 47.52 19.0289 47.5 19.0889 47.5H21.1989C21.2589 47.5 21.3089 47.52 21.3489 47.56C21.3956 47.6067 21.4189 47.66 21.4189 47.72V57.83C21.4189 57.89 21.4489 57.92 21.5089 57.92H27.3889C27.4489 57.92 27.5022 57.94 27.5489 57.98C27.5889 58.0267 27.6089 58.08 27.6089 58.14V59.88C27.6089 59.94 27.5889 59.9933 27.5489 60.04C27.5022 60.08 27.4489 60.1 27.3889 60.1H19.0889ZM37.1989 54.52C37.2722 54.9733 37.2956 55.4833 37.2689 56.05C37.2622 56.1967 37.1856 56.27 37.0389 56.27H31.4789C31.4056 56.27 31.3822 56.3 31.4089 56.36C31.4422 56.6 31.5056 56.84 31.5989 57.08C31.9122 57.7467 32.5489 58.08 33.5089 58.08C34.2756 58.0733 34.8822 57.7633 35.3289 57.15C35.3756 57.0767 35.4289 57.04 35.4889 57.04C35.5289 57.04 35.5722 57.0633 35.6189 57.11L36.9089 58.39C36.9689 58.45 36.9989 58.5033 36.9989 58.55C36.9989 58.5767 36.9756 58.6267 36.9289 58.7C36.5356 59.1867 36.0256 59.5667 35.3989 59.84C34.7789 60.1067 34.0956 60.24 33.3489 60.24C32.3156 60.24 31.4422 60.0067 30.7289 59.54C30.0156 59.0733 29.5022 58.42 29.1889 57.58C28.9356 56.98 28.8089 56.1933 28.8089 55.22C28.8089 54.56 28.8989 53.98 29.0789 53.48C29.3589 52.6267 29.8422 51.9467 30.5289 51.44C31.2222 50.94 32.0422 50.69 32.9889 50.69C34.1889 50.69 35.1522 51.0367 35.8789 51.73C36.6056 52.4233 37.0456 53.3533 37.1989 54.52ZM33.0089 52.88C32.2489 52.88 31.7489 53.2333 31.5089 53.94C31.4622 54.1 31.4222 54.2933 31.3889 54.52C31.3889 54.58 31.4189 54.61 31.4789 54.61H34.5889C34.6622 54.61 34.6856 54.58 34.6589 54.52C34.5989 54.1733 34.5689 54.0067 34.5689 54.02C34.4622 53.66 34.2756 53.38 34.0089 53.18C33.7356 52.98 33.4022 52.88 33.0089 52.88ZM42.4389 50.7C43.2189 50.7 43.9156 50.8367 44.5289 51.11C45.1422 51.3767 45.6189 51.7467 45.9589 52.22C46.2989 52.6867 46.4689 53.2067 46.4689 53.78V59.88C46.4689 59.94 46.4489 59.9933 46.4089 60.04C46.3689 60.08 46.3189 60.1 46.2589 60.1H44.1489C44.0889 60.1 44.0389 60.08 43.9989 60.04C43.9522 59.9933 43.9289 59.94 43.9289 59.88V59.29C43.9289 59.2567 43.9189 59.2333 43.8989 59.22C43.8722 59.2067 43.8489 59.2167 43.8289 59.25C43.3222 59.91 42.5122 60.24 41.3989 60.24C40.4589 60.24 39.7022 60.0133 39.1289 59.56C38.5489 59.1067 38.2589 58.4333 38.2589 57.54C38.2589 56.62 38.5856 55.9033 39.2389 55.39C39.8856 54.8833 40.8089 54.63 42.0089 54.63H43.8389C43.8989 54.63 43.9289 54.6 43.9289 54.54V54.14C43.9289 53.7467 43.8089 53.4367 43.5689 53.21C43.3289 52.99 42.9689 52.88 42.4889 52.88C42.1222 52.88 41.8156 52.9467 41.5689 53.08C41.3222 53.2133 41.1622 53.4 41.0889 53.64C41.0556 53.7733 40.9789 53.8333 40.8589 53.82L38.6789 53.53C38.5322 53.5033 38.4656 53.45 38.4789 53.37C38.5256 52.8633 38.7256 52.4067 39.0789 52C39.4322 51.5933 39.9022 51.2767 40.4889 51.05C41.0689 50.8167 41.7189 50.7 42.4389 50.7ZM42.0789 58.35C42.5922 58.35 43.0289 58.2133 43.3889 57.94C43.7489 57.6667 43.9289 57.3133 43.9289 56.88V56.23C43.9289 56.17 43.8989 56.14 43.8389 56.14H42.5489C42.0089 56.14 41.5856 56.2433 41.2789 56.45C40.9722 56.65 40.8189 56.9367 40.8189 57.31C40.8189 57.6367 40.9322 57.89 41.1589 58.07C41.3856 58.2567 41.6922 58.35 42.0789 58.35ZM53.9989 47.72C53.9989 47.66 54.0189 47.6067 54.0589 47.56C54.0989 47.52 54.1489 47.5 54.2089 47.5H56.3189C56.3789 47.5 56.4289 47.52 56.4689 47.56C56.5089 47.6067 56.5289 47.66 56.5289 47.72V59.88C56.5289 59.94 56.5089 59.9933 56.4689 60.04C56.4289 60.08 56.3789 60.1 56.3189 60.1H54.2089C54.1489 60.1 54.0989 60.08 54.0589 60.04C54.0189 59.9933 53.9989 59.94 53.9989 59.88V59.29C53.9989 59.2567 53.9856 59.2367 53.9589 59.23C53.9322 59.2233 53.9089 59.23 53.8889 59.25C53.3822 59.91 52.6922 60.24 51.8189 60.24C50.9789 60.24 50.2556 60.0067 49.6489 59.54C49.0422 59.0733 48.6056 58.4333 48.3389 57.62C48.1389 56.9933 48.0389 56.2667 48.0389 55.44C48.0389 54.5867 48.1456 53.8433 48.3589 53.21C48.6389 52.4367 49.0756 51.8267 49.6689 51.38C50.2622 50.9267 50.9956 50.7 51.8689 50.7C52.7356 50.7 53.4089 51 53.8889 51.6C53.9089 51.64 53.9322 51.6533 53.9589 51.64C53.9856 51.6267 53.9989 51.6033 53.9989 51.57V47.72ZM53.6189 57.29C53.8589 56.85 53.9789 56.2433 53.9789 55.47C53.9789 54.67 53.8456 54.04 53.5789 53.58C53.3056 53.1133 52.9056 52.88 52.3789 52.88C51.8122 52.88 51.3856 53.1133 51.0989 53.58C50.7989 54.0533 50.6489 54.69 50.6489 55.49C50.6489 56.21 50.7756 56.81 51.0289 57.29C51.3289 57.81 51.7722 58.07 52.3589 58.07C52.8989 58.07 53.3189 57.81 53.6189 57.29ZM66.6289 54.52C66.7022 54.9733 66.7256 55.4833 66.6989 56.05C66.6922 56.1967 66.6156 56.27 66.4689 56.27H60.9089C60.8356 56.27 60.8122 56.3 60.8389 56.36C60.8722 56.6 60.9356 56.84 61.0289 57.08C61.3422 57.7467 61.9789 58.08 62.9389 58.08C63.7056 58.0733 64.3122 57.7633 64.7589 57.15C64.8056 57.0767 64.8589 57.04 64.9189 57.04C64.9589 57.04 65.0022 57.0633 65.0489 57.11L66.3389 58.39C66.3989 58.45 66.4289 58.5033 66.4289 58.55C66.4289 58.5767 66.4056 58.6267 66.3589 58.7C65.9656 59.1867 65.4556 59.5667 64.8289 59.84C64.2089 60.1067 63.5256 60.24 62.7789 60.24C61.7456 60.24 60.8722 60.0067 60.1589 59.54C59.4456 59.0733 58.9322 58.42 58.6189 57.58C58.3656 56.98 58.2389 56.1933 58.2389 55.22C58.2389 54.56 58.3289 53.98 58.5089 53.48C58.7889 52.6267 59.2722 51.9467 59.9589 51.44C60.6522 50.94 61.4722 50.69 62.4189 50.69C63.6189 50.69 64.5822 51.0367 65.3089 51.73C66.0356 52.4233 66.4756 53.3533 66.6289 54.52ZM62.4389 52.88C61.6789 52.88 61.1789 53.2333 60.9389 53.94C60.8922 54.1 60.8522 54.2933 60.8189 54.52C60.8189 54.58 60.8489 54.61 60.9089 54.61H64.0189C64.0922 54.61 64.1156 54.58 64.0889 54.52C64.0289 54.1733 63.9989 54.0067 63.9989 54.02C63.8922 53.66 63.7056 53.38 63.4389 53.18C63.1656 52.98 62.8322 52.88 62.4389 52.88ZM72.8789 50.72C73.3122 50.72 73.6522 50.8033 73.8989 50.97C73.9989 51.0233 74.0356 51.1133 74.0089 51.24L73.6289 53.3C73.6222 53.44 73.5389 53.48 73.3789 53.42C73.1989 53.36 72.9889 53.33 72.7489 53.33C72.6556 53.33 72.5256 53.3433 72.3589 53.37C71.9256 53.4033 71.5589 53.56 71.2589 53.84C70.9589 54.1267 70.8089 54.5033 70.8089 54.97V59.88C70.8089 59.94 70.7889 59.9933 70.7489 60.04C70.7022 60.08 70.6489 60.1 70.5889 60.1H68.4889C68.4289 60.1 68.3756 60.08 68.3289 60.04C68.2889 59.9933 68.2689 59.94 68.2689 59.88V51.06C68.2689 51 68.2889 50.95 68.3289 50.91C68.3756 50.87 68.4289 50.85 68.4889 50.85H70.5889C70.6489 50.85 70.7022 50.87 70.7489 50.91C70.7889 50.95 70.8089 51 70.8089 51.06V51.75C70.8089 51.7833 70.8189 51.8067 70.8389 51.82C70.8656 51.8333 70.8856 51.8267 70.8989 51.8C71.3922 51.08 72.0522 50.72 72.8789 50.72Z" fill="#252530"/>
<path d="M14.7287 76.3803C14.2354 76.3803 13.7988 76.2836 13.4188 76.0903C13.0388 75.897 12.7421 75.6236 12.5288 75.2703C12.3221 74.9103 12.2188 74.497 12.2188 74.0303V69.4203C12.2188 69.387 12.2287 69.3603 12.2487 69.3403C12.2754 69.3136 12.3054 69.3003 12.3388 69.3003H13.2587C13.2921 69.3003 13.3187 69.3136 13.3387 69.3403C13.3654 69.3603 13.3788 69.387 13.3788 69.4203V74.0503C13.3788 74.4436 13.5021 74.7636 13.7487 75.0103C13.9954 75.257 14.3221 75.3803 14.7287 75.3803C15.1354 75.3803 15.4621 75.257 15.7087 75.0103C15.9554 74.7636 16.0788 74.4436 16.0788 74.0503V69.4203C16.0788 69.387 16.0921 69.3603 16.1188 69.3403C16.1388 69.3136 16.1654 69.3003 16.1988 69.3003H17.1188C17.1521 69.3003 17.1821 69.3136 17.2087 69.3403C17.2287 69.3603 17.2387 69.387 17.2387 69.4203V74.0303C17.2387 74.497 17.1354 74.9103 16.9288 75.2703C16.7221 75.6236 16.4287 75.897 16.0487 76.0903C15.6687 76.2836 15.2287 76.3803 14.7287 76.3803ZM20.9788 71.1103C21.5188 71.1103 21.9521 71.2703 22.2787 71.5903C22.5987 71.9103 22.7587 72.347 22.7587 72.9003V76.1803C22.7587 76.2136 22.7488 76.2403 22.7288 76.2603C22.7021 76.287 22.6721 76.3003 22.6388 76.3003H21.7188C21.6854 76.3003 21.6588 76.287 21.6388 76.2603C21.6121 76.2403 21.5988 76.2136 21.5988 76.1803V73.1403C21.5988 72.8336 21.5121 72.5836 21.3387 72.3903C21.1654 72.2036 20.9354 72.1103 20.6488 72.1103C20.3621 72.1103 20.1321 72.2036 19.9587 72.3903C19.7787 72.577 19.6888 72.8236 19.6888 73.1303V76.1803C19.6888 76.2136 19.6787 76.2403 19.6587 76.2603C19.6321 76.287 19.6021 76.3003 19.5688 76.3003H18.6487C18.6154 76.3003 18.5887 76.287 18.5687 76.2603C18.5421 76.2403 18.5287 76.2136 18.5287 76.1803V71.3103C18.5287 71.277 18.5421 71.247 18.5687 71.2203C18.5887 71.2003 18.6154 71.1903 18.6487 71.1903H19.5688C19.6021 71.1903 19.6321 71.2003 19.6587 71.2203C19.6787 71.247 19.6888 71.277 19.6888 71.3103V71.6303C19.6888 71.6503 19.6954 71.6636 19.7087 71.6703C19.7221 71.677 19.7321 71.6703 19.7387 71.6503C20.0121 71.2903 20.4254 71.1103 20.9788 71.1103ZM24.6287 70.4903C24.4221 70.4903 24.2521 70.4236 24.1187 70.2903C23.9854 70.157 23.9187 69.987 23.9187 69.7803C23.9187 69.5736 23.9854 69.4036 24.1187 69.2703C24.2521 69.137 24.4221 69.0703 24.6287 69.0703C24.8354 69.0703 25.0054 69.137 25.1388 69.2703C25.2721 69.4036 25.3387 69.5736 25.3387 69.7803C25.3387 69.987 25.2721 70.157 25.1388 70.2903C25.0054 70.4236 24.8354 70.4903 24.6287 70.4903ZM24.1488 76.3003C24.1154 76.3003 24.0888 76.287 24.0688 76.2603C24.0421 76.2403 24.0287 76.2136 24.0287 76.1803V71.3003C24.0287 71.267 24.0421 71.2403 24.0688 71.2203C24.0888 71.1936 24.1154 71.1803 24.1488 71.1803H25.0688C25.1021 71.1803 25.1321 71.1936 25.1587 71.2203C25.1787 71.2403 25.1888 71.267 25.1888 71.3003V76.1803C25.1888 76.2136 25.1787 76.2403 25.1587 76.2603C25.1321 76.287 25.1021 76.3003 25.0688 76.3003H24.1488ZM29.2288 72.0103C29.2288 72.0436 29.2187 72.0703 29.1987 72.0903C29.1721 72.117 29.1421 72.1303 29.1087 72.1303H28.0888C28.0554 72.1303 28.0387 72.147 28.0387 72.1803V74.5903C28.0387 74.8436 28.0954 75.027 28.2087 75.1403C28.3154 75.2536 28.4888 75.3103 28.7288 75.3103H29.0287C29.0621 75.3103 29.0921 75.3203 29.1187 75.3403C29.1387 75.367 29.1488 75.397 29.1488 75.4303V76.1803C29.1488 76.2536 29.1087 76.297 29.0287 76.3103L28.5087 76.3203C27.9821 76.3203 27.5887 76.2303 27.3287 76.0503C27.0687 75.8703 26.9354 75.5303 26.9288 75.0303V72.1803C26.9288 72.147 26.9121 72.1303 26.8787 72.1303H26.3088C26.2754 72.1303 26.2488 72.117 26.2288 72.0903C26.2021 72.0703 26.1888 72.0436 26.1888 72.0103V71.3103C26.1888 71.277 26.2021 71.247 26.2288 71.2203C26.2488 71.2003 26.2754 71.1903 26.3088 71.1903H26.8787C26.9121 71.1903 26.9288 71.1736 26.9288 71.1403V69.9703C26.9288 69.937 26.9421 69.907 26.9688 69.8803C26.9887 69.8603 27.0154 69.8503 27.0487 69.8503H27.9188C27.9521 69.8503 27.9821 69.8603 28.0087 69.8803C28.0287 69.907 28.0387 69.937 28.0387 69.9703V71.1403C28.0387 71.1736 28.0554 71.1903 28.0888 71.1903H29.1087C29.1421 71.1903 29.1721 71.2003 29.1987 71.2203C29.2187 71.247 29.2288 71.277 29.2288 71.3103V72.0103ZM34.4688 73.1703C34.4954 73.337 34.5087 73.5236 34.5087 73.7303L34.4988 74.0403C34.4988 74.1203 34.4587 74.1603 34.3787 74.1603H31.2488C31.2154 74.1603 31.1987 74.177 31.1987 74.2103C31.2187 74.4303 31.2487 74.5803 31.2887 74.6603C31.4487 75.1403 31.8387 75.3836 32.4587 75.3903C32.9121 75.3903 33.2721 75.2036 33.5387 74.8303C33.5654 74.7903 33.5988 74.7703 33.6388 74.7703C33.6654 74.7703 33.6887 74.7803 33.7087 74.8003L34.3288 75.3103C34.3888 75.357 34.3987 75.4103 34.3587 75.4703C34.1521 75.7636 33.8787 75.9903 33.5387 76.1503C33.1921 76.3103 32.8088 76.3903 32.3888 76.3903C31.8688 76.3903 31.4288 76.2736 31.0688 76.0403C30.7021 75.807 30.4354 75.4803 30.2687 75.0603C30.1154 74.7003 30.0387 74.2003 30.0387 73.5603C30.0387 73.1736 30.0788 72.8603 30.1588 72.6203C30.2921 72.1536 30.5454 71.7836 30.9188 71.5103C31.2854 71.2436 31.7288 71.1103 32.2488 71.1103C33.5621 71.1103 34.3021 71.797 34.4688 73.1703ZM32.2488 72.1103C32.0021 72.1103 31.7988 72.1736 31.6388 72.3003C31.4721 72.4203 31.3554 72.5903 31.2887 72.8103C31.2487 72.9236 31.2221 73.0703 31.2087 73.2503C31.1954 73.2836 31.2088 73.3003 31.2488 73.3003H33.2787C33.3121 73.3003 33.3288 73.2836 33.3288 73.2503C33.3154 73.0836 33.2954 72.957 33.2687 72.8703C33.2087 72.6303 33.0921 72.4436 32.9188 72.3103C32.7388 72.177 32.5154 72.1103 32.2488 72.1103ZM38.7388 69.4203C38.7388 69.387 38.7521 69.3603 38.7787 69.3403C38.7987 69.3136 38.8254 69.3003 38.8587 69.3003H39.7787C39.8121 69.3003 39.8421 69.3136 39.8687 69.3403C39.8887 69.3603 39.8988 69.387 39.8988 69.4203V76.1803C39.8988 76.2136 39.8887 76.2403 39.8687 76.2603C39.8421 76.287 39.8121 76.3003 39.7787 76.3003H38.8587C38.8254 76.3003 38.7987 76.287 38.7787 76.2603C38.7521 76.2403 38.7388 76.2136 38.7388 76.1803V75.8803C38.7388 75.8603 38.7321 75.847 38.7188 75.8403C38.7054 75.8336 38.6921 75.8403 38.6787 75.8603C38.3854 76.207 38.0021 76.3803 37.5287 76.3803C37.0554 76.3803 36.6554 76.257 36.3288 76.0103C36.0021 75.7636 35.7654 75.4203 35.6187 74.9803C35.4987 74.607 35.4387 74.1903 35.4387 73.7303C35.4387 73.257 35.4954 72.8503 35.6087 72.5103C35.7554 72.0703 35.9921 71.727 36.3188 71.4803C36.6454 71.2336 37.0554 71.1103 37.5487 71.1103C38.0087 71.1103 38.3854 71.277 38.6787 71.6103C38.6921 71.6236 38.7054 71.6303 38.7188 71.6303C38.7321 71.6236 38.7388 71.6103 38.7388 71.5903V69.4203ZM38.4988 74.9003C38.6521 74.627 38.7288 74.2403 38.7288 73.7403C38.7288 73.2203 38.6454 72.8236 38.4788 72.5503C38.2988 72.257 38.0454 72.1103 37.7188 72.1103C37.3787 72.1103 37.1121 72.2503 36.9188 72.5303C36.7188 72.8236 36.6187 73.2303 36.6187 73.7503C36.6187 74.217 36.6987 74.6003 36.8587 74.9003C37.0454 75.2203 37.3287 75.3803 37.7087 75.3803C38.0487 75.3803 38.3121 75.2203 38.4988 74.9003ZM43.3888 76.3003C43.3554 76.3003 43.3288 76.287 43.3088 76.2603C43.2821 76.2403 43.2687 76.2136 43.2687 76.1803V69.4203C43.2687 69.387 43.2821 69.3603 43.3088 69.3403C43.3288 69.3136 43.3554 69.3003 43.3888 69.3003H44.3088C44.3421 69.3003 44.3688 69.3136 44.3888 69.3403C44.4154 69.3603 44.4288 69.387 44.4288 69.4203V72.4103C44.4288 72.4303 44.4354 72.4436 44.4488 72.4503C44.4621 72.457 44.4754 72.4536 44.4888 72.4403L47.0888 69.3703C47.1288 69.3236 47.1788 69.3003 47.2388 69.3003H48.2788C48.3454 69.3003 48.3788 69.3236 48.3788 69.3703C48.3788 69.3903 48.3688 69.417 48.3488 69.4503L46.0588 72.2603C46.0388 72.287 46.0354 72.3103 46.0488 72.3303L48.5088 76.1603C48.5221 76.2003 48.5288 76.2236 48.5288 76.2303C48.5288 76.277 48.4954 76.3003 48.4288 76.3003H47.3788C47.3188 76.3003 47.2721 76.2736 47.2388 76.2203L45.2588 73.1403C45.2321 73.1003 45.2088 73.097 45.1888 73.1303L44.4488 73.9903C44.4354 74.017 44.4288 74.0403 44.4288 74.0603V76.1803C44.4288 76.2136 44.4154 76.2403 44.3888 76.2603C44.3688 76.287 44.3421 76.3003 44.3088 76.3003H43.3888ZM50.0188 70.4903C49.8121 70.4903 49.6421 70.4236 49.5088 70.2903C49.3754 70.157 49.3088 69.987 49.3088 69.7803C49.3088 69.5736 49.3754 69.4036 49.5088 69.2703C49.6421 69.137 49.8121 69.0703 50.0188 69.0703C50.2254 69.0703 50.3954 69.137 50.5288 69.2703C50.6621 69.4036 50.7288 69.5736 50.7288 69.7803C50.7288 69.987 50.6621 70.157 50.5288 70.2903C50.3954 70.4236 50.2254 70.4903 50.0188 70.4903ZM49.5388 76.3003C49.5054 76.3003 49.4788 76.287 49.4588 76.2603C49.4321 76.2403 49.4188 76.2136 49.4188 76.1803V71.3003C49.4188 71.267 49.4321 71.2403 49.4588 71.2203C49.4788 71.1936 49.5054 71.1803 49.5388 71.1803H50.4588C50.4921 71.1803 50.5221 71.1936 50.5488 71.2203C50.5688 71.2403 50.5788 71.267 50.5788 71.3003V76.1803C50.5788 76.2136 50.5688 76.2403 50.5488 76.2603C50.5221 76.287 50.4921 76.3003 50.4588 76.3003H49.5388ZM54.3588 71.1103C54.8988 71.1103 55.3321 71.2703 55.6588 71.5903C55.9788 71.9103 56.1388 72.347 56.1388 72.9003V76.1803C56.1388 76.2136 56.1254 76.2403 56.0988 76.2603C56.0788 76.287 56.0521 76.3003 56.0188 76.3003H55.0988C55.0654 76.3003 55.0388 76.287 55.0188 76.2603C54.9921 76.2403 54.9788 76.2136 54.9788 76.1803V73.1403C54.9788 72.8336 54.8921 72.5836 54.7188 72.3903C54.5454 72.2036 54.3154 72.1103 54.0288 72.1103C53.7421 72.1103 53.5121 72.2036 53.3388 72.3903C53.1588 72.577 53.0688 72.8236 53.0688 73.1303V76.1803C53.0688 76.2136 53.0554 76.2403 53.0288 76.2603C53.0088 76.287 52.9821 76.3003 52.9488 76.3003H52.0288C51.9954 76.3003 51.9688 76.287 51.9488 76.2603C51.9221 76.2403 51.9088 76.2136 51.9088 76.1803V71.3103C51.9088 71.277 51.9221 71.247 51.9488 71.2203C51.9688 71.2003 51.9954 71.1903 52.0288 71.1903H52.9488C52.9821 71.1903 53.0088 71.2003 53.0288 71.2203C53.0554 71.247 53.0688 71.277 53.0688 71.3103V71.6303C53.0688 71.6503 53.0754 71.6636 53.0888 71.6703C53.1021 71.677 53.1121 71.6703 53.1188 71.6503C53.3921 71.2903 53.8054 71.1103 54.3588 71.1103ZM60.4788 71.3103C60.4788 71.277 60.4921 71.247 60.5188 71.2203C60.5388 71.2003 60.5654 71.1903 60.5988 71.1903H61.5188C61.5521 71.1903 61.5788 71.2003 61.5988 71.2203C61.6254 71.247 61.6388 71.277 61.6388 71.3103V75.9603C61.6388 76.7936 61.4021 77.3903 60.9288 77.7503C60.4488 78.1036 59.8221 78.2803 59.0488 78.2803C58.8421 78.2803 58.6388 78.2703 58.4388 78.2503C58.3654 78.2436 58.3288 78.2003 58.3288 78.1203L58.3588 77.3003C58.3588 77.227 58.4054 77.1903 58.4988 77.1903C58.6921 77.2103 58.8654 77.2203 59.0188 77.2203C59.5188 77.2203 59.8888 77.1236 60.1288 76.9303C60.3621 76.7303 60.4788 76.397 60.4788 75.9303V75.8503C60.4788 75.8303 60.4721 75.8203 60.4588 75.8203C60.4454 75.8136 60.4321 75.817 60.4188 75.8303C60.1454 76.1236 59.7588 76.2703 59.2588 76.2703C58.8254 76.2703 58.4288 76.1603 58.0688 75.9403C57.7088 75.7203 57.4588 75.3836 57.3188 74.9303C57.2321 74.617 57.1888 74.2136 57.1888 73.7203C57.1888 73.167 57.2421 72.7436 57.3488 72.4503C57.4821 72.0436 57.7121 71.717 58.0388 71.4703C58.3654 71.2303 58.7488 71.1103 59.1888 71.1103C59.7154 71.1103 60.1254 71.2636 60.4188 71.5703C60.4321 71.5903 60.4454 71.597 60.4588 71.5903C60.4721 71.5836 60.4788 71.5703 60.4788 71.5503V71.3103ZM60.4088 74.6003C60.4354 74.5003 60.4521 74.3936 60.4588 74.2803C60.4721 74.1603 60.4788 73.9703 60.4788 73.7103C60.4788 73.457 60.4721 73.2736 60.4588 73.1603C60.4521 73.0536 60.4321 72.947 60.3988 72.8403C60.3454 72.6203 60.2354 72.4436 60.0688 72.3103C59.9088 72.177 59.7021 72.1103 59.4488 72.1103C59.2088 72.1103 59.0054 72.177 58.8388 72.3103C58.6721 72.4436 58.5521 72.6203 58.4788 72.8403C58.3988 73.027 58.3588 73.3203 58.3588 73.7203C58.3588 74.1336 58.3921 74.4236 58.4588 74.5903C58.5254 74.8036 58.6454 74.977 58.8188 75.1103C58.9988 75.2503 59.2121 75.3203 59.4588 75.3203C59.7188 75.3203 59.9288 75.2536 60.0888 75.1203C60.2488 74.987 60.3554 74.8136 60.4088 74.6003ZM66.0088 69.4203C66.0088 69.387 66.0221 69.3603 66.0488 69.3403C66.0688 69.3136 66.0954 69.3003 66.1288 69.3003H67.0488C67.0821 69.3003 67.1121 69.3136 67.1388 69.3403C67.1588 69.3603 67.1688 69.387 67.1688 69.4203V76.1803C67.1688 76.2136 67.1588 76.2403 67.1388 76.2603C67.1121 76.287 67.0821 76.3003 67.0488 76.3003H66.1288C66.0954 76.3003 66.0688 76.287 66.0488 76.2603C66.0221 76.2403 66.0088 76.2136 66.0088 76.1803V75.8803C66.0088 75.8603 66.0021 75.847 65.9888 75.8403C65.9754 75.8336 65.9621 75.8403 65.9488 75.8603C65.6554 76.207 65.2721 76.3803 64.7988 76.3803C64.3254 76.3803 63.9254 76.257 63.5988 76.0103C63.2721 75.7636 63.0354 75.4203 62.8888 74.9803C62.7688 74.607 62.7088 74.1903 62.7088 73.7303C62.7088 73.257 62.7654 72.8503 62.8788 72.5103C63.0254 72.0703 63.2621 71.727 63.5888 71.4803C63.9154 71.2336 64.3254 71.1103 64.8188 71.1103C65.2788 71.1103 65.6554 71.277 65.9488 71.6103C65.9621 71.6236 65.9754 71.6303 65.9888 71.6303C66.0021 71.6236 66.0088 71.6103 66.0088 71.5903V69.4203ZM65.7688 74.9003C65.9221 74.627 65.9988 74.2403 65.9988 73.7403C65.9988 73.2203 65.9154 72.8236 65.7488 72.5503C65.5688 72.257 65.3154 72.1103 64.9888 72.1103C64.6488 72.1103 64.3821 72.2503 64.1888 72.5303C63.9888 72.8236 63.8888 73.2303 63.8888 73.7503C63.8888 74.217 63.9688 74.6003 64.1288 74.9003C64.3154 75.2203 64.5988 75.3803 64.9788 75.3803C65.3188 75.3803 65.5821 75.2203 65.7688 74.9003ZM70.5988 76.3803C70.0721 76.3803 69.6221 76.247 69.2488 75.9803C68.8688 75.7136 68.6021 75.3436 68.4488 74.8703C68.3354 74.5103 68.2788 74.1303 68.2788 73.7303C68.2788 73.3036 68.3321 72.9236 68.4388 72.5903C68.5921 72.1236 68.8588 71.7603 69.2388 71.5003C69.6188 71.2403 70.0754 71.1103 70.6088 71.1103C71.1154 71.1103 71.5554 71.2403 71.9288 71.5003C72.2954 71.7603 72.5554 72.1203 72.7088 72.5803C72.8288 72.9003 72.8888 73.2803 72.8888 73.7203C72.8888 74.1403 72.8321 74.5203 72.7188 74.8603C72.5654 75.3336 72.3021 75.7036 71.9288 75.9703C71.5554 76.2436 71.1121 76.3803 70.5988 76.3803ZM70.5988 75.3803C70.8454 75.3803 71.0588 75.3103 71.2388 75.1703C71.4121 75.0303 71.5388 74.8336 71.6188 74.5803C71.6854 74.3603 71.7188 74.0803 71.7188 73.7403C71.7188 73.3803 71.6854 73.1003 71.6188 72.9003C71.5454 72.647 71.4188 72.4536 71.2388 72.3203C71.0588 72.1803 70.8388 72.1103 70.5788 72.1103C70.3321 72.1103 70.1188 72.1803 69.9388 72.3203C69.7588 72.4536 69.6288 72.647 69.5488 72.9003C69.4821 73.1336 69.4488 73.4136 69.4488 73.7403C69.4488 74.067 69.4821 74.347 69.5488 74.5803C69.6221 74.8336 69.7521 75.0303 69.9388 75.1703C70.1188 75.3103 70.3388 75.3803 70.5988 75.3803ZM79.4588 71.1103C79.9721 71.1103 80.3754 71.2636 80.6688 71.5703C80.9554 71.8836 81.0988 72.317 81.0988 72.8703V76.1803C81.0988 76.2136 81.0887 76.2403 81.0687 76.2603C81.0421 76.287 81.0121 76.3003 80.9788 76.3003H80.0687C80.0354 76.3003 80.0088 76.287 79.9888 76.2603C79.9621 76.2403 79.9488 76.2136 79.9488 76.1803V73.1103C79.9488 72.8036 79.8688 72.5603 79.7088 72.3803C79.5421 72.2003 79.3221 72.1103 79.0488 72.1103C78.7754 72.1103 78.5521 72.2003 78.3788 72.3803C78.2054 72.5603 78.1188 72.8003 78.1188 73.1003V76.1803C78.1188 76.2136 78.1088 76.2403 78.0888 76.2603C78.0621 76.287 78.0321 76.3003 77.9987 76.3003H77.0888C77.0554 76.3003 77.0288 76.287 77.0088 76.2603C76.9821 76.2403 76.9688 76.2136 76.9688 76.1803V73.1103C76.9688 72.8036 76.8854 72.5603 76.7188 72.3803C76.5521 72.2003 76.3321 72.1103 76.0588 72.1103C75.8054 72.1103 75.5988 72.1836 75.4388 72.3303C75.2721 72.477 75.1754 72.677 75.1488 72.9303V76.1803C75.1488 76.2136 75.1388 76.2403 75.1188 76.2603C75.0921 76.287 75.0621 76.3003 75.0288 76.3003H74.1088C74.0754 76.3003 74.0488 76.287 74.0288 76.2603C74.0021 76.2403 73.9888 76.2136 73.9888 76.1803V71.3103C73.9888 71.277 74.0021 71.247 74.0288 71.2203C74.0488 71.2003 74.0754 71.1903 74.1088 71.1903H75.0288C75.0621 71.1903 75.0921 71.2003 75.1188 71.2203C75.1388 71.247 75.1488 71.277 75.1488 71.3103V71.6403C75.1488 71.6603 75.1554 71.6736 75.1688 71.6803C75.1821 71.687 75.1954 71.6803 75.2088 71.6603C75.3554 71.4736 75.5388 71.337 75.7588 71.2503C75.9721 71.157 76.2121 71.1103 76.4788 71.1103C76.8054 71.1103 77.0921 71.177 77.3388 71.3103C77.5854 71.4436 77.7754 71.637 77.9088 71.8903C77.9288 71.917 77.9521 71.917 77.9788 71.8903C78.1254 71.6236 78.3288 71.427 78.5888 71.3003C78.8488 71.1736 79.1388 71.1103 79.4588 71.1103Z" fill="white"/>
<path d="M33.15 90.4803C32.6167 90.4803 32.15 90.3936 31.75 90.2203C31.35 90.0536 31.0433 89.8103 30.83 89.4903C30.61 89.177 30.5 88.8103 30.5 88.3903V88.1703C30.5 88.137 30.5133 88.1103 30.54 88.0903C30.56 88.0636 30.5867 88.0503 30.62 88.0503H31.76C31.7933 88.0503 31.8233 88.0636 31.85 88.0903C31.87 88.1103 31.88 88.137 31.88 88.1703V88.3203C31.88 88.587 32.0033 88.8103 32.25 88.9903C32.4967 89.177 32.83 89.2703 33.25 89.2703C33.6033 89.2703 33.8667 89.197 34.04 89.0503C34.2133 88.897 34.3 88.7103 34.3 88.4903C34.3 88.3303 34.2467 88.197 34.14 88.0903C34.0333 87.977 33.8867 87.8803 33.7 87.8003C33.52 87.7136 33.23 87.597 32.83 87.4503C32.3833 87.297 32.0033 87.1403 31.69 86.9803C31.3833 86.8203 31.1267 86.6003 30.92 86.3203C30.7067 86.047 30.6 85.707 30.6 85.3003C30.6 84.9003 30.7033 84.5503 30.91 84.2503C31.1167 83.9503 31.4033 83.7203 31.77 83.5603C32.1367 83.4003 32.56 83.3203 33.04 83.3203C33.5467 83.3203 33.9967 83.4103 34.39 83.5903C34.79 83.7703 35.1033 84.0236 35.33 84.3503C35.55 84.6703 35.66 85.0436 35.66 85.4703V85.6203C35.66 85.6536 35.65 85.6803 35.63 85.7003C35.6033 85.727 35.5733 85.7403 35.54 85.7403H34.39C34.3567 85.7403 34.33 85.727 34.31 85.7003C34.2833 85.6803 34.27 85.6536 34.27 85.6203V85.5403C34.27 85.2603 34.1567 85.0203 33.93 84.8203C33.6967 84.627 33.38 84.5303 32.98 84.5303C32.6667 84.5303 32.42 84.597 32.24 84.7303C32.0667 84.8636 31.98 85.047 31.98 85.2803C31.98 85.447 32.0333 85.587 32.14 85.7003C32.24 85.8136 32.3933 85.9136 32.6 86.0003C32.8 86.0936 33.1133 86.217 33.54 86.3703C34.0133 86.5436 34.3833 86.697 34.65 86.8303C34.9233 86.9636 35.17 87.1603 35.39 87.4203C35.6033 87.687 35.71 88.0303 35.71 88.4503C35.71 89.077 35.48 89.5703 35.02 89.9303C34.56 90.297 33.9367 90.4803 33.15 90.4803ZM39.59 83.3903C40.03 83.3903 40.4167 83.4803 40.75 83.6603C41.0833 83.8403 41.3433 84.0936 41.53 84.4203C41.71 84.7536 41.8 85.1336 41.8 85.5603C41.8 85.9803 41.7067 86.3503 41.52 86.6703C41.3267 86.9903 41.0567 87.2403 40.71 87.4203C40.37 87.5936 39.9767 87.6803 39.53 87.6803H38.11C38.0767 87.6803 38.06 87.697 38.06 87.7303V90.2803C38.06 90.3136 38.0467 90.3403 38.02 90.3603C38 90.387 37.9733 90.4003 37.94 90.4003H36.77C36.7367 90.4003 36.7067 90.387 36.68 90.3603C36.66 90.3403 36.65 90.3136 36.65 90.2803V83.5103C36.65 83.477 36.66 83.447 36.68 83.4203C36.7067 83.4003 36.7367 83.3903 36.77 83.3903H39.59ZM39.38 86.5503C39.6867 86.5503 39.9333 86.4603 40.12 86.2803C40.3067 86.107 40.4 85.877 40.4 85.5903C40.4 85.297 40.3067 85.0603 40.12 84.8803C39.9333 84.7003 39.6867 84.6103 39.38 84.6103H38.11C38.0767 84.6103 38.06 84.627 38.06 84.6603V86.5003C38.06 86.5336 38.0767 86.5503 38.11 86.5503H39.38ZM46.51 90.4003C46.4433 90.4003 46.3967 90.3703 46.37 90.3103L45.12 87.5403C45.1067 87.5136 45.0867 87.5003 45.06 87.5003H44.13C44.0967 87.5003 44.08 87.517 44.08 87.5503V90.2803C44.08 90.3136 44.0667 90.3403 44.04 90.3603C44.02 90.387 43.9933 90.4003 43.96 90.4003H42.79C42.7567 90.4003 42.7267 90.387 42.7 90.3603C42.68 90.3403 42.67 90.3136 42.67 90.2803V83.5203C42.67 83.487 42.68 83.4603 42.7 83.4403C42.7267 83.4136 42.7567 83.4003 42.79 83.4003H45.65C46.0767 83.4003 46.45 83.487 46.77 83.6603C47.0967 83.8336 47.3467 84.0803 47.52 84.4003C47.7 84.7203 47.79 85.0903 47.79 85.5103C47.79 85.9636 47.6767 86.3503 47.45 86.6703C47.2233 86.997 46.9067 87.227 46.5 87.3603C46.4667 87.3736 46.4567 87.397 46.47 87.4303L47.83 90.2603C47.8433 90.287 47.85 90.307 47.85 90.3203C47.85 90.3736 47.8133 90.4003 47.74 90.4003H46.51ZM44.13 84.6103C44.0967 84.6103 44.08 84.627 44.08 84.6603V86.3703C44.08 86.4036 44.0967 86.4203 44.13 86.4203H45.44C45.72 86.4203 45.9467 86.337 46.12 86.1703C46.3 86.0036 46.39 85.787 46.39 85.5203C46.39 85.2536 46.3 85.0336 46.12 84.8603C45.9467 84.6936 45.72 84.6103 45.44 84.6103H44.13ZM48.93 90.4003C48.8967 90.4003 48.87 90.387 48.85 90.3603C48.8233 90.3403 48.81 90.3136 48.81 90.2803V83.5203C48.81 83.487 48.8233 83.4603 48.85 83.4403C48.87 83.4136 48.8967 83.4003 48.93 83.4003H50.1C50.1333 83.4003 50.1633 83.4136 50.19 83.4403C50.21 83.4603 50.22 83.487 50.22 83.5203V90.2803C50.22 90.3136 50.21 90.3403 50.19 90.3603C50.1633 90.387 50.1333 90.4003 50.1 90.4003H48.93ZM55.46 83.5203C55.46 83.487 55.4733 83.4603 55.5 83.4403C55.52 83.4136 55.5467 83.4003 55.58 83.4003H56.75C56.7833 83.4003 56.8133 83.4136 56.84 83.4403C56.86 83.4603 56.87 83.487 56.87 83.5203V90.2803C56.87 90.3136 56.86 90.3403 56.84 90.3603C56.8133 90.387 56.7833 90.4003 56.75 90.4003H55.62C55.5533 90.4003 55.5067 90.3736 55.48 90.3203L52.89 86.0403C52.8767 86.0203 52.8633 86.0136 52.85 86.0203C52.8367 86.0203 52.83 86.0336 52.83 86.0603L52.85 90.2803C52.85 90.3136 52.84 90.3403 52.82 90.3603C52.7933 90.387 52.7633 90.4003 52.73 90.4003H51.56C51.5267 90.4003 51.5 90.387 51.48 90.3603C51.4533 90.3403 51.44 90.3136 51.44 90.2803V83.5203C51.44 83.487 51.4533 83.4603 51.48 83.4403C51.5 83.4136 51.5267 83.4003 51.56 83.4003H52.69C52.7567 83.4003 52.8033 83.427 52.83 83.4803L55.41 87.7403C55.4233 87.7603 55.4367 87.767 55.45 87.7603C55.4633 87.7603 55.47 87.747 55.47 87.7203L55.46 83.5203ZM60.55 90.4803C60.0367 90.4803 59.5833 90.377 59.19 90.1703C58.7967 89.9636 58.4933 89.677 58.28 89.3103C58.06 88.937 57.95 88.507 57.95 88.0203V85.7803C57.95 85.2936 58.06 84.8636 58.28 84.4903C58.4933 84.117 58.7967 83.827 59.19 83.6203C59.5833 83.4203 60.0367 83.3203 60.55 83.3203C61.0567 83.3203 61.5067 83.4203 61.9 83.6203C62.2867 83.8203 62.59 84.0936 62.81 84.4403C63.0233 84.7803 63.13 85.1603 63.13 85.5803V85.6503C63.13 85.6836 63.12 85.7103 63.1 85.7303C63.0733 85.757 63.0433 85.7703 63.01 85.7703H61.84C61.8067 85.7703 61.78 85.757 61.76 85.7303C61.7333 85.7103 61.72 85.6836 61.72 85.6503V85.6203C61.72 85.3136 61.6133 85.057 61.4 84.8503C61.1867 84.637 60.9033 84.5303 60.55 84.5303C60.19 84.5303 59.9033 84.6403 59.69 84.8603C59.47 85.087 59.36 85.3803 59.36 85.7403V88.0603C59.36 88.4203 59.4767 88.7103 59.71 88.9303C59.9433 89.157 60.24 89.2703 60.6 89.2703C60.9467 89.2703 61.2233 89.177 61.43 88.9903C61.6367 88.8103 61.74 88.557 61.74 88.2303V87.7803C61.74 87.747 61.7233 87.7303 61.69 87.7303H60.57C60.5367 87.7303 60.51 87.717 60.49 87.6903C60.4633 87.6703 60.45 87.6436 60.45 87.6103V86.6903C60.45 86.657 60.4633 86.6303 60.49 86.6103C60.51 86.5836 60.5367 86.5703 60.57 86.5703H63.01C63.0433 86.5703 63.0733 86.5836 63.1 86.6103C63.12 86.6303 63.13 86.657 63.13 86.6903V88.0103C63.13 88.517 63.0233 88.957 62.81 89.3303C62.5967 89.7036 62.2967 89.9903 61.91 90.1903C61.5167 90.3836 61.0633 90.4803 60.55 90.4803Z" fill="#252530"/>
<path d="M37.6817 98.5307C37.6684 98.544 37.6651 98.5574 37.6717 98.5707C37.6784 98.584 37.6917 98.5907 37.7117 98.5907H40.4217C40.4551 98.5907 40.4851 98.6007 40.5117 98.6207C40.5317 98.6474 40.5417 98.6774 40.5417 98.7107V99.6807C40.5417 99.714 40.5317 99.7407 40.5117 99.7607C40.4851 99.7874 40.4551 99.8007 40.4217 99.8007H35.9217C35.8884 99.8007 35.8584 99.7874 35.8317 99.7607C35.8117 99.7407 35.8017 99.714 35.8017 99.6807V98.7607C35.8017 98.7007 35.8217 98.6507 35.8617 98.6107C36.1884 98.2907 36.5217 97.944 36.8617 97.5707C37.2017 97.1907 37.4151 96.954 37.5017 96.8607C37.6884 96.6407 37.8784 96.4307 38.0717 96.2307C38.6784 95.5574 38.9817 95.0574 38.9817 94.7307C38.9817 94.4974 38.8984 94.304 38.7317 94.1507C38.5651 94.004 38.3484 93.9307 38.0817 93.9307C37.8151 93.9307 37.5984 94.004 37.4317 94.1507C37.2651 94.304 37.1817 94.504 37.1817 94.7507V95.0007C37.1817 95.034 37.1684 95.064 37.1417 95.0907C37.1217 95.1107 37.0951 95.1207 37.0617 95.1207H35.8817C35.8484 95.1207 35.8217 95.1107 35.8017 95.0907C35.7751 95.064 35.7617 95.034 35.7617 95.0007V94.5307C35.7817 94.1707 35.8951 93.8507 36.1017 93.5707C36.3084 93.2974 36.5817 93.0874 36.9217 92.9407C37.2684 92.794 37.6551 92.7207 38.0817 92.7207C38.5551 92.7207 38.9684 92.8074 39.3217 92.9807C39.6684 93.1607 39.9384 93.4007 40.1317 93.7007C40.3184 94.0007 40.4117 94.334 40.4117 94.7007C40.4117 94.9807 40.3417 95.2674 40.2017 95.5607C40.0617 95.854 39.8517 96.1707 39.5717 96.5107C39.3651 96.7707 39.1417 97.0274 38.9017 97.2807C38.6617 97.534 38.3051 97.9007 37.8317 98.3807L37.6817 98.5307ZM43.7917 99.9107C43.0584 99.9107 42.4784 99.704 42.0517 99.2907C41.6251 98.884 41.4117 98.3274 41.4117 97.6207V94.9807C41.4117 94.2874 41.6251 93.7374 42.0517 93.3307C42.4784 92.924 43.0584 92.7207 43.7917 92.7207C44.5251 92.7207 45.1084 92.924 45.5417 93.3307C45.9684 93.7374 46.1817 94.2874 46.1817 94.9807V97.6207C46.1817 98.3274 45.9684 98.884 45.5417 99.2907C45.1084 99.704 44.5251 99.9107 43.7917 99.9107ZM43.7917 98.7007C44.0917 98.7007 44.3317 98.6074 44.5117 98.4207C44.6851 98.2407 44.7717 97.9974 44.7717 97.6907V94.9407C44.7717 94.634 44.6851 94.3907 44.5117 94.2107C44.3317 94.024 44.0917 93.9307 43.7917 93.9307C43.4984 93.9307 43.2651 94.024 43.0917 94.2107C42.9117 94.3907 42.8217 94.634 42.8217 94.9407V97.6907C42.8217 97.9974 42.9117 98.2407 43.0917 98.4207C43.2651 98.6074 43.4984 98.7007 43.7917 98.7007ZM48.9817 98.5307C48.9684 98.544 48.9651 98.5574 48.9717 98.5707C48.9784 98.584 48.9917 98.5907 49.0117 98.5907H51.7217C51.7551 98.5907 51.7851 98.6007 51.8117 98.6207C51.8317 98.6474 51.8417 98.6774 51.8417 98.7107V99.6807C51.8417 99.714 51.8317 99.7407 51.8117 99.7607C51.7851 99.7874 51.7551 99.8007 51.7217 99.8007H47.2217C47.1884 99.8007 47.1617 99.7874 47.1417 99.7607C47.1151 99.7407 47.1017 99.714 47.1017 99.6807V98.7607C47.1017 98.7007 47.1217 98.6507 47.1617 98.6107C47.4884 98.2907 47.8217 97.944 48.1617 97.5707C48.5017 97.1907 48.7151 96.954 48.8017 96.8607C48.9884 96.6407 49.1784 96.4307 49.3717 96.2307C49.9784 95.5574 50.2817 95.0574 50.2817 94.7307C50.2817 94.4974 50.1984 94.304 50.0317 94.1507C49.8651 94.004 49.6484 93.9307 49.3817 93.9307C49.1151 93.9307 48.8984 94.004 48.7317 94.1507C48.5651 94.304 48.4817 94.504 48.4817 94.7507V95.0007C48.4817 95.034 48.4717 95.064 48.4517 95.0907C48.4251 95.1107 48.3951 95.1207 48.3617 95.1207H47.1817C47.1484 95.1207 47.1217 95.1107 47.1017 95.0907C47.0751 95.064 47.0617 95.034 47.0617 95.0007V94.5307C47.0817 94.1707 47.1951 93.8507 47.4017 93.5707C47.6084 93.2974 47.8851 93.0874 48.2317 92.9407C48.5717 92.794 48.9551 92.7207 49.3817 92.7207C49.8551 92.7207 50.2684 92.8074 50.6217 92.9807C50.9684 93.1607 51.2384 93.4007 51.4317 93.7007C51.6184 94.0007 51.7117 94.334 51.7117 94.7007C51.7117 94.9807 51.6417 95.2674 51.5017 95.5607C51.3617 95.854 51.1517 96.1707 50.8717 96.5107C50.6651 96.7707 50.4417 97.0274 50.2017 97.2807C49.9617 97.534 49.6051 97.9007 49.1317 98.3807L48.9817 98.5307ZM57.7117 96.7507C57.7451 96.7507 57.7751 96.7607 57.8017 96.7807C57.8217 96.8074 57.8317 96.8374 57.8317 96.8707V97.8807C57.8317 97.914 57.8217 97.944 57.8017 97.9707C57.7751 97.9907 57.7451 98.0007 57.7117 98.0007H57.2817C57.2484 98.0007 57.2317 98.0174 57.2317 98.0507V99.6807C57.2317 99.714 57.2217 99.7407 57.2017 99.7607C57.1751 99.7874 57.1451 99.8007 57.1117 99.8007H55.9417C55.9084 99.8007 55.8817 99.7874 55.8617 99.7607C55.8351 99.7407 55.8217 99.714 55.8217 99.6807V98.0507C55.8217 98.0174 55.8051 98.0007 55.7717 98.0007H52.7017C52.6684 98.0007 52.6417 97.9907 52.6217 97.9707C52.5951 97.944 52.5817 97.914 52.5817 97.8807V97.0807C52.5817 97.0407 52.5917 96.9907 52.6117 96.9307L54.4117 92.8907C54.4384 92.8307 54.4851 92.8007 54.5517 92.8007H55.8017C55.8484 92.8007 55.8817 92.814 55.9017 92.8407C55.9151 92.8607 55.9117 92.894 55.8917 92.9407L54.2217 96.6907C54.2151 96.704 54.2151 96.7174 54.2217 96.7307C54.2284 96.744 54.2384 96.7507 54.2517 96.7507H55.7717C55.8051 96.7507 55.8217 96.734 55.8217 96.7007V95.4607C55.8217 95.4274 55.8351 95.4007 55.8617 95.3807C55.8817 95.354 55.9084 95.3407 55.9417 95.3407H57.1117C57.1451 95.3407 57.1751 95.354 57.2017 95.3807C57.2217 95.4007 57.2317 95.4274 57.2317 95.4607V96.7007C57.2317 96.734 57.2484 96.7507 57.2817 96.7507H57.7117Z" fill="#252530"/>
</svg>
